%TF.GenerationSoftware,KiCad,Pcbnew,(5.1.4)-1*%
%TF.CreationDate,2021-11-01T00:35:55-04:00*%
%TF.ProjectId,CentralPCB,43656e74-7261-46c5-9043-422e6b696361,v01*%
%TF.SameCoordinates,Original*%
%TF.FileFunction,Legend,Bot*%
%TF.FilePolarity,Positive*%
%FSLAX46Y46*%
G04 Gerber Fmt 4.6, Leading zero omitted, Abs format (unit mm)*
G04 Created by KiCad (PCBNEW (5.1.4)-1) date 2021-11-01 00:35:55*
%MOMM*%
%LPD*%
G04 APERTURE LIST*
%ADD10C,6.000000*%
%ADD11O,1.700000X1.700000*%
%ADD12R,1.700000X1.700000*%
%ADD13R,2.000000X1.905000*%
%ADD14O,2.000000X1.905000*%
%ADD15R,1.800000X1.800000*%
%ADD16C,1.800000*%
%ADD17R,2.000000X3.600000*%
%ADD18O,2.000000X3.600000*%
%ADD19C,2.740000*%
%ADD20C,2.240000*%
%ADD21C,1.300000*%
%ADD22C,1.600000*%
%ADD23R,1.300000X1.300000*%
%ADD24R,1.600000X1.600000*%
G04 APERTURE END LIST*
%LPC*%
D10*
%TO.C, *%
X97028000Y-102108000D03*
%TD*%
%TO.C, *%
X29972000Y-102108000D03*
%TD*%
%TO.C, *%
X29972000Y-29972000D03*
%TD*%
%TO.C, *%
X97028000Y-29972000D03*
%TD*%
D11*
%TO.C,J2*%
X79759500Y-90554500D03*
X79759500Y-88014500D03*
X79759500Y-85474500D03*
D12*
X79759500Y-82934500D03*
%TD*%
D13*
%TO.C,U3*%
X43909500Y-89524500D03*
D14*
X43909500Y-86984500D03*
X43909500Y-84444500D03*
%TD*%
D15*
%TO.C,D1*%
X34369500Y-64806500D03*
D16*
X36909500Y-64806500D03*
%TD*%
D12*
%TO.C,J4*%
X70869500Y-30864500D03*
D11*
X70869500Y-33404500D03*
X70869500Y-35944500D03*
X70869500Y-38484500D03*
X70869500Y-41024500D03*
X70869500Y-43564500D03*
X70869500Y-46104500D03*
X70869500Y-48644500D03*
X70869500Y-51184500D03*
X70869500Y-53724500D03*
X70869500Y-56264500D03*
X70869500Y-58804500D03*
X70869500Y-61344500D03*
X70869500Y-63884500D03*
X70869500Y-66424500D03*
X70869500Y-68964500D03*
X70869500Y-71504500D03*
X70869500Y-74044500D03*
X70869500Y-76584500D03*
X70869500Y-79124500D03*
X70869500Y-81664500D03*
X70869500Y-84204500D03*
X70869500Y-86744500D03*
X70869500Y-89284500D03*
%TD*%
D12*
%TO.C,J3*%
X48009500Y-30864500D03*
D11*
X48009500Y-33404500D03*
X48009500Y-35944500D03*
X48009500Y-38484500D03*
X48009500Y-41024500D03*
X48009500Y-43564500D03*
X48009500Y-46104500D03*
X48009500Y-48644500D03*
X48009500Y-51184500D03*
X48009500Y-53724500D03*
X48009500Y-56264500D03*
X48009500Y-58804500D03*
X48009500Y-61344500D03*
X48009500Y-63884500D03*
X48009500Y-66424500D03*
X48009500Y-68964500D03*
X48009500Y-71504500D03*
X48009500Y-74044500D03*
X48009500Y-76584500D03*
X48009500Y-79124500D03*
X48009500Y-81664500D03*
X48009500Y-84204500D03*
X48009500Y-86744500D03*
X48009500Y-89284500D03*
%TD*%
D17*
%TO.C,J8*%
X39119500Y-98174500D03*
D18*
X46619500Y-98174500D03*
X54119500Y-98174500D03*
X61619500Y-98174500D03*
X69119500Y-98174500D03*
%TD*%
D11*
%TO.C,J7*%
X88395500Y-100714500D03*
X90935500Y-100714500D03*
X88395500Y-98174500D03*
X90935500Y-98174500D03*
X88395500Y-95634500D03*
X90935500Y-95634500D03*
X88395500Y-93094500D03*
X90935500Y-93094500D03*
X88395500Y-90554500D03*
X90935500Y-90554500D03*
X88395500Y-88014500D03*
X90935500Y-88014500D03*
X88395500Y-85474500D03*
X90935500Y-85474500D03*
X88395500Y-82934500D03*
X90935500Y-82934500D03*
X88395500Y-80394500D03*
X90935500Y-80394500D03*
X88395500Y-77854500D03*
D12*
X90935500Y-77854500D03*
%TD*%
D19*
%TO.C,J6*%
X77219500Y-100714500D03*
X82299500Y-100714500D03*
X82299500Y-95634500D03*
X77219500Y-95634500D03*
D20*
X79759500Y-98174500D03*
%TD*%
D21*
%TO.C,U2*%
X60709500Y-31594500D03*
X58169500Y-31594500D03*
D22*
X64519500Y-76584500D03*
X61979500Y-76584500D03*
X59439500Y-76584500D03*
X56899500Y-76584500D03*
X54359500Y-76584500D03*
D21*
X60621100Y-43834500D03*
X60621100Y-45834500D03*
X62621100Y-45834500D03*
X62621100Y-43834500D03*
X64621100Y-45834500D03*
D23*
X64621100Y-43834500D03*
D22*
X51819500Y-71504500D03*
X51819500Y-74044500D03*
X51819500Y-76584500D03*
X51819500Y-79124500D03*
X51819500Y-68964500D03*
X51819500Y-66424500D03*
X51819500Y-63884500D03*
X51819500Y-81664500D03*
X51819500Y-84204500D03*
X51819500Y-86744500D03*
X51819500Y-89284500D03*
X67059500Y-89284500D03*
X67059500Y-86744500D03*
X67059500Y-84204500D03*
X67059500Y-81664500D03*
X67059500Y-79124500D03*
X67059500Y-76584500D03*
X67059500Y-74044500D03*
X67059500Y-71504500D03*
X67059500Y-68964500D03*
X67059500Y-66424500D03*
X51819500Y-61344500D03*
X51819500Y-58804500D03*
X51819500Y-56264500D03*
X51819500Y-53724500D03*
X51819500Y-51184500D03*
X51819500Y-48644500D03*
X51819500Y-46104500D03*
X51819500Y-43564500D03*
X51819500Y-41024500D03*
X51819500Y-38484500D03*
X51819500Y-35944500D03*
X51819500Y-33404500D03*
D24*
X51819500Y-30864500D03*
D22*
X67059500Y-63884500D03*
X67059500Y-61344500D03*
X67059500Y-58804500D03*
X67059500Y-56264500D03*
X67059500Y-53724500D03*
X67059500Y-51184500D03*
X67059500Y-48644500D03*
X67059500Y-46104500D03*
X67059500Y-43564500D03*
X67059500Y-41024500D03*
X67059500Y-38484500D03*
X67059500Y-35944500D03*
X67059500Y-33404500D03*
X67059500Y-30864500D03*
D24*
X54870300Y-37163700D03*
D22*
X54870300Y-39703700D03*
X54870300Y-42243700D03*
X54870300Y-44783700D03*
X54870300Y-47323700D03*
X64519500Y-33404500D03*
%TD*%
D11*
%TO.C,J5*%
X80973500Y-31536500D03*
X78433500Y-31536500D03*
X80973500Y-34076500D03*
X78433500Y-34076500D03*
X80973500Y-36616500D03*
X78433500Y-36616500D03*
X80973500Y-39156500D03*
X78433500Y-39156500D03*
X80973500Y-41696500D03*
X78433500Y-41696500D03*
X80973500Y-44236500D03*
X78433500Y-44236500D03*
X80973500Y-46776500D03*
X78433500Y-46776500D03*
X80973500Y-49316500D03*
X78433500Y-49316500D03*
X80973500Y-51856500D03*
X78433500Y-51856500D03*
X80973500Y-54396500D03*
X78433500Y-54396500D03*
X80973500Y-56936500D03*
X78433500Y-56936500D03*
X80973500Y-59476500D03*
X78433500Y-59476500D03*
X80973500Y-62016500D03*
X78433500Y-62016500D03*
X80973500Y-64556500D03*
X78433500Y-64556500D03*
X80973500Y-67096500D03*
X78433500Y-67096500D03*
X80973500Y-69636500D03*
D12*
X78433500Y-69636500D03*
%TD*%
%TO.C,J1*%
X33591500Y-71504500D03*
D11*
X31051500Y-71504500D03*
X33591500Y-74044500D03*
X31051500Y-74044500D03*
X33591500Y-76584500D03*
X31051500Y-76584500D03*
X33591500Y-79124500D03*
X31051500Y-79124500D03*
X33591500Y-81664500D03*
X31051500Y-81664500D03*
X33591500Y-84204500D03*
X31051500Y-84204500D03*
X33591500Y-86744500D03*
X31051500Y-86744500D03*
X33591500Y-89284500D03*
X31051500Y-89284500D03*
%TD*%
D15*
%TO.C,D7*%
X34369500Y-59794500D03*
D16*
X36909500Y-59794500D03*
%TD*%
D15*
%TO.C,D6*%
X36909500Y-48706500D03*
D16*
X34369500Y-48706500D03*
%TD*%
D15*
%TO.C,D3*%
X34369500Y-54050500D03*
D16*
X36909500Y-54050500D03*
%TD*%
D15*
%TO.C,D5*%
X36909500Y-43206500D03*
D16*
X34369500Y-43206500D03*
%TD*%
%TO.C,D2*%
X36639500Y-31786500D03*
D15*
X39179500Y-31786500D03*
%TD*%
%TO.C,D4*%
X36909500Y-37706500D03*
D16*
X34369500Y-37706500D03*
%TD*%
M02*
