M48
; DRILL file {KiCad (5.1.4)-1} date Mon 11/01/2021 12:37:11 AM
; FORMAT={-:-/ absolute / metric / decimal}
; #@! TF.CreationDate,2021-11-01T00:37:11-04:00
; #@! TF.GenerationSoftware,Kicad,Pcbnew,(5.1.4)-1
; #@! TF.FileFunction,Plated,1,2,PTH
FMAT,2
METRIC
T1C0.330
T2C0.800
T3C0.900
T4C1.000
T5C1.100
T6C1.200
T7C1.400
T8C1.700
T9C3.000
%
G90
G05
T1
X38.672Y-83.502
X39.688Y-71.819
X40.195Y-46.926
X41.212Y-73.85
X43.243Y-57.594
X44.259Y-66.23
X44.259Y-73.85
X45.276Y-34.734
X45.276Y-38.798
X45.276Y-42.862
X45.276Y-53.53
X45.783Y-50.99
X45.783Y-80.454
X54.927Y-84.264
X57.34Y-67.501
X57.975Y-45.91
X58.229Y-69.532
X58.737Y-49.466
X60.008Y-64.579
X60.515Y-59.627
X61.912Y-80.454
X63.436Y-65.977
X64.834Y-74.105
X64.96Y-51.625
X65.596Y-73.469
X68.897Y-75.248
X69.025Y-52.514
X69.151Y-91.376
X72.962Y-85.407
X73.343Y-91.504
X73.977Y-77.914
X73.977Y-78.93
X74.739Y-28.638
X74.739Y-32.703
X74.739Y-73.596
X74.739Y-75.12
X74.739Y-76.644
X75.629Y-42.1
X75.882Y-93.789
X77.914Y-92.265
X78.295Y-71.564
X78.93Y-77.279
X79.566Y-75.755
X83.335Y-84.051
X83.883Y-71.056
X88.328Y-73.724
X88.582Y-75.12
X89.344Y-68.389
X90.487Y-40.322
X90.487Y-42.862
X90.487Y-45.402
X90.487Y-50.482
X90.487Y-53.023
X90.487Y-55.562
X90.487Y-58.102
X90.487Y-61.15
X90.487Y-63.436
X90.487Y-65.977
X90.742Y-33.147
X91.123Y-37.91
X92.392Y-33.782
X92.519Y-74.358
X92.646Y-40.45
X94.551Y-71.819
X94.805Y-35.242
X97.091Y-35.242
X97.091Y-37.782
X97.091Y-40.322
X97.472Y-39.052
X97.853Y-74.612
X100.33Y-38.544
T2
X58.169Y-31.595
X60.621Y-43.834
X60.621Y-45.834
X60.709Y-31.595
X62.621Y-43.834
X62.621Y-45.834
X64.621Y-43.834
X64.621Y-45.834
T3
X36.639Y-31.787
X39.179Y-31.787
X34.369Y-64.806
X36.91Y-64.806
X34.369Y-37.706
X36.91Y-37.706
X34.369Y-54.05
X36.91Y-54.05
X34.369Y-59.794
X36.91Y-59.794
X34.369Y-43.206
X36.91Y-43.206
X34.369Y-48.706
X36.91Y-48.706
T4
X48.009Y-30.864
X48.009Y-33.404
X48.009Y-35.944
X48.009Y-38.484
X48.009Y-41.024
X48.009Y-43.564
X48.009Y-46.104
X48.009Y-48.645
X48.009Y-51.184
X48.009Y-53.724
X48.009Y-56.264
X48.009Y-58.804
X48.009Y-61.344
X48.009Y-63.884
X48.009Y-66.424
X48.009Y-68.965
X48.009Y-71.504
X48.009Y-74.044
X48.009Y-76.584
X48.009Y-79.124
X48.009Y-81.664
X48.009Y-84.204
X48.009Y-86.745
X48.009Y-89.284
X31.051Y-71.504
X31.051Y-74.044
X31.051Y-76.584
X31.051Y-79.124
X31.051Y-81.664
X31.051Y-84.204
X31.051Y-86.745
X31.051Y-89.284
X33.591Y-71.504
X33.591Y-74.044
X33.591Y-76.584
X33.591Y-79.124
X33.591Y-81.664
X33.591Y-84.204
X33.591Y-86.745
X33.591Y-89.284
X78.433Y-31.537
X78.433Y-34.076
X78.433Y-36.616
X78.433Y-39.157
X78.433Y-41.697
X78.433Y-44.236
X78.433Y-46.776
X78.433Y-49.316
X78.433Y-51.856
X78.433Y-54.396
X78.433Y-56.936
X78.433Y-59.476
X78.433Y-62.017
X78.433Y-64.556
X78.433Y-67.096
X78.433Y-69.636
X80.974Y-31.537
X80.974Y-34.076
X80.974Y-36.616
X80.974Y-39.157
X80.974Y-41.697
X80.974Y-44.236
X80.974Y-46.776
X80.974Y-49.316
X80.974Y-51.856
X80.974Y-54.396
X80.974Y-56.936
X80.974Y-59.476
X80.974Y-62.017
X80.974Y-64.556
X80.974Y-67.096
X80.974Y-69.636
X79.76Y-82.934
X79.76Y-85.474
X79.76Y-88.014
X79.76Y-90.554
X70.87Y-30.864
X70.87Y-33.404
X70.87Y-35.944
X70.87Y-38.484
X70.87Y-41.024
X70.87Y-43.564
X70.87Y-46.104
X70.87Y-48.645
X70.87Y-51.184
X70.87Y-53.724
X70.87Y-56.264
X70.87Y-58.804
X70.87Y-61.344
X70.87Y-63.884
X70.87Y-66.424
X70.87Y-68.965
X70.87Y-71.504
X70.87Y-74.044
X70.87Y-76.584
X70.87Y-79.124
X70.87Y-81.664
X70.87Y-84.204
X70.87Y-86.745
X70.87Y-89.284
X88.395Y-77.855
X88.395Y-80.394
X88.395Y-82.934
X88.395Y-85.474
X88.395Y-88.014
X88.395Y-90.554
X88.395Y-93.094
X88.395Y-95.635
X88.395Y-98.174
X88.395Y-100.715
X90.935Y-77.855
X90.935Y-80.394
X90.935Y-82.934
X90.935Y-85.474
X90.935Y-88.014
X90.935Y-90.554
X90.935Y-93.094
X90.935Y-95.635
X90.935Y-98.174
X90.935Y-100.715
T5
X51.819Y-30.864
X51.819Y-33.404
X51.819Y-35.944
X51.819Y-38.484
X51.819Y-41.024
X51.819Y-43.564
X51.819Y-46.104
X51.819Y-48.645
X51.819Y-51.184
X51.819Y-53.724
X51.819Y-56.264
X51.819Y-58.804
X51.819Y-61.344
X51.819Y-63.884
X51.819Y-66.424
X51.819Y-68.965
X51.819Y-71.504
X51.819Y-74.044
X51.819Y-76.584
X51.819Y-79.124
X51.819Y-81.664
X51.819Y-84.204
X51.819Y-86.745
X51.819Y-89.284
X54.359Y-76.584
X54.87Y-37.164
X54.87Y-39.704
X54.87Y-42.244
X54.87Y-44.784
X54.87Y-47.324
X56.899Y-76.584
X59.439Y-76.584
X61.979Y-76.584
X64.519Y-33.404
X64.519Y-76.584
X67.059Y-30.864
X67.059Y-33.404
X67.059Y-35.944
X67.059Y-38.484
X67.059Y-41.024
X67.059Y-43.564
X67.059Y-46.104
X67.059Y-48.645
X67.059Y-51.184
X67.059Y-53.724
X67.059Y-56.264
X67.059Y-58.804
X67.059Y-61.344
X67.059Y-63.884
X67.059Y-66.424
X67.059Y-68.965
X67.059Y-71.504
X67.059Y-74.044
X67.059Y-76.584
X67.059Y-79.124
X67.059Y-81.664
X67.059Y-84.204
X67.059Y-86.745
X67.059Y-89.284
X43.91Y-84.444
X43.91Y-86.984
X43.91Y-89.524
T6
X79.76Y-98.174
T7
X39.119Y-98.174
X46.619Y-98.174
X54.119Y-98.174
X61.619Y-98.174
X69.12Y-98.174
T8
X77.219Y-95.635
X77.219Y-100.715
X82.299Y-95.635
X82.299Y-100.715
T9
X97.028Y-29.972
X29.972Y-102.108
X29.972Y-29.972
X97.028Y-102.108
T0
M30
