%FSLAX45Y45*%
G04 Gerber Fmt 4.5, Leading zero omitted, Abs format (unit mm)*
G04 Created by KiCad (PCBNEW (5.1.4)-1) date 2021-11-01 00:37:35*
%MOMM*%
%LPD*%
G04 APERTURE LIST*
%ADD10C,0.025400*%
%ADD11C,0.200000*%
%ADD12C,0.300000*%
G04 APERTURE END LIST*
D10*
X2540000Y-2540000D02*
X2540000Y-10668000D01*
X2540000Y-10668000D02*
X10160000Y-10668000D01*
X10160000Y-2540000D02*
X10160000Y-10668000D01*
X2540000Y-2540000D02*
X10160000Y-2540000D01*
D11*
D12*
X2825158Y-11134984D02*
X2825158Y-10834984D01*
X2896587Y-10834984D01*
X2939444Y-10849270D01*
X2968016Y-10877842D01*
X2982301Y-10906413D01*
X2996587Y-10963556D01*
X2996587Y-11006413D01*
X2982301Y-11063556D01*
X2968016Y-11092127D01*
X2939444Y-11120699D01*
X2896587Y-11134984D01*
X2825158Y-11134984D01*
X3125158Y-11134984D02*
X3125158Y-10934984D01*
X3125158Y-10992127D02*
X3139444Y-10963556D01*
X3153730Y-10949270D01*
X3182301Y-10934984D01*
X3210873Y-10934984D01*
X3310873Y-11134984D02*
X3310873Y-10934984D01*
X3310873Y-10834984D02*
X3296587Y-10849270D01*
X3310873Y-10863556D01*
X3325158Y-10849270D01*
X3310873Y-10834984D01*
X3310873Y-10863556D01*
X3496587Y-11134984D02*
X3468016Y-11120699D01*
X3453730Y-11092127D01*
X3453730Y-10834984D01*
X3653730Y-11134984D02*
X3625158Y-11120699D01*
X3610873Y-11092127D01*
X3610873Y-10834984D01*
X3996587Y-11134984D02*
X3996587Y-10834984D01*
X4096587Y-11049270D01*
X4196587Y-10834984D01*
X4196587Y-11134984D01*
X4468016Y-11134984D02*
X4468016Y-10977842D01*
X4453730Y-10949270D01*
X4425158Y-10934984D01*
X4368016Y-10934984D01*
X4339444Y-10949270D01*
X4468016Y-11120699D02*
X4439444Y-11134984D01*
X4368016Y-11134984D01*
X4339444Y-11120699D01*
X4325158Y-11092127D01*
X4325158Y-11063556D01*
X4339444Y-11034984D01*
X4368016Y-11020699D01*
X4439444Y-11020699D01*
X4468016Y-11006413D01*
X4610873Y-10934984D02*
X4610873Y-11234984D01*
X4610873Y-10949270D02*
X4639444Y-10934984D01*
X4696587Y-10934984D01*
X4725158Y-10949270D01*
X4739444Y-10963556D01*
X4753730Y-10992127D01*
X4753730Y-11077842D01*
X4739444Y-11106413D01*
X4725158Y-11120699D01*
X4696587Y-11134984D01*
X4639444Y-11134984D01*
X4610873Y-11120699D01*
X4882301Y-11106413D02*
X4896587Y-11120699D01*
X4882301Y-11134984D01*
X4868016Y-11120699D01*
X4882301Y-11106413D01*
X4882301Y-11134984D01*
X4882301Y-10949270D02*
X4896587Y-10963556D01*
X4882301Y-10977842D01*
X4868016Y-10963556D01*
X4882301Y-10949270D01*
X4882301Y-10977842D01*
M02*
