%TF.GenerationSoftware,KiCad,Pcbnew,(5.1.4)-1*%
%TF.CreationDate,2021-11-01T00:35:55-04:00*%
%TF.ProjectId,CentralPCB,43656e74-7261-46c5-9043-422e6b696361,v01*%
%TF.SameCoordinates,Original*%
%TF.FileFunction,Paste,Top*%
%TF.FilePolarity,Positive*%
%FSLAX46Y46*%
G04 Gerber Fmt 4.6, Leading zero omitted, Abs format (unit mm)*
G04 Created by KiCad (PCBNEW (5.1.4)-1) date 2021-11-01 00:35:55*
%MOMM*%
%LPD*%
G04 APERTURE LIST*
%ADD10R,0.900000X1.200000*%
%ADD11C,0.100000*%
%ADD12C,1.025000*%
%ADD13C,1.000000*%
%ADD14C,0.600000*%
%ADD15C,1.125000*%
%ADD16R,1.200000X0.900000*%
G04 APERTURE END LIST*
D10*
%TO.C,D12*%
X95831500Y-59476500D03*
X92531500Y-59476500D03*
%TD*%
D11*
%TO.C,R4*%
G36*
X93926005Y-72643704D02*
G01*
X93950273Y-72647304D01*
X93974072Y-72653265D01*
X93997171Y-72661530D01*
X94019350Y-72672020D01*
X94040393Y-72684632D01*
X94060099Y-72699247D01*
X94078277Y-72715723D01*
X94094753Y-72733901D01*
X94109368Y-72753607D01*
X94121980Y-72774650D01*
X94132470Y-72796829D01*
X94140735Y-72819928D01*
X94146696Y-72843727D01*
X94150296Y-72867995D01*
X94151500Y-72892499D01*
X94151500Y-73792501D01*
X94150296Y-73817005D01*
X94146696Y-73841273D01*
X94140735Y-73865072D01*
X94132470Y-73888171D01*
X94121980Y-73910350D01*
X94109368Y-73931393D01*
X94094753Y-73951099D01*
X94078277Y-73969277D01*
X94060099Y-73985753D01*
X94040393Y-74000368D01*
X94019350Y-74012980D01*
X93997171Y-74023470D01*
X93974072Y-74031735D01*
X93950273Y-74037696D01*
X93926005Y-74041296D01*
X93901501Y-74042500D01*
X93376499Y-74042500D01*
X93351995Y-74041296D01*
X93327727Y-74037696D01*
X93303928Y-74031735D01*
X93280829Y-74023470D01*
X93258650Y-74012980D01*
X93237607Y-74000368D01*
X93217901Y-73985753D01*
X93199723Y-73969277D01*
X93183247Y-73951099D01*
X93168632Y-73931393D01*
X93156020Y-73910350D01*
X93145530Y-73888171D01*
X93137265Y-73865072D01*
X93131304Y-73841273D01*
X93127704Y-73817005D01*
X93126500Y-73792501D01*
X93126500Y-72892499D01*
X93127704Y-72867995D01*
X93131304Y-72843727D01*
X93137265Y-72819928D01*
X93145530Y-72796829D01*
X93156020Y-72774650D01*
X93168632Y-72753607D01*
X93183247Y-72733901D01*
X93199723Y-72715723D01*
X93217901Y-72699247D01*
X93237607Y-72684632D01*
X93258650Y-72672020D01*
X93280829Y-72661530D01*
X93303928Y-72653265D01*
X93327727Y-72647304D01*
X93351995Y-72643704D01*
X93376499Y-72642500D01*
X93901501Y-72642500D01*
X93926005Y-72643704D01*
X93926005Y-72643704D01*
G37*
D12*
X93639000Y-73342500D03*
D11*
G36*
X95751005Y-72643704D02*
G01*
X95775273Y-72647304D01*
X95799072Y-72653265D01*
X95822171Y-72661530D01*
X95844350Y-72672020D01*
X95865393Y-72684632D01*
X95885099Y-72699247D01*
X95903277Y-72715723D01*
X95919753Y-72733901D01*
X95934368Y-72753607D01*
X95946980Y-72774650D01*
X95957470Y-72796829D01*
X95965735Y-72819928D01*
X95971696Y-72843727D01*
X95975296Y-72867995D01*
X95976500Y-72892499D01*
X95976500Y-73792501D01*
X95975296Y-73817005D01*
X95971696Y-73841273D01*
X95965735Y-73865072D01*
X95957470Y-73888171D01*
X95946980Y-73910350D01*
X95934368Y-73931393D01*
X95919753Y-73951099D01*
X95903277Y-73969277D01*
X95885099Y-73985753D01*
X95865393Y-74000368D01*
X95844350Y-74012980D01*
X95822171Y-74023470D01*
X95799072Y-74031735D01*
X95775273Y-74037696D01*
X95751005Y-74041296D01*
X95726501Y-74042500D01*
X95201499Y-74042500D01*
X95176995Y-74041296D01*
X95152727Y-74037696D01*
X95128928Y-74031735D01*
X95105829Y-74023470D01*
X95083650Y-74012980D01*
X95062607Y-74000368D01*
X95042901Y-73985753D01*
X95024723Y-73969277D01*
X95008247Y-73951099D01*
X94993632Y-73931393D01*
X94981020Y-73910350D01*
X94970530Y-73888171D01*
X94962265Y-73865072D01*
X94956304Y-73841273D01*
X94952704Y-73817005D01*
X94951500Y-73792501D01*
X94951500Y-72892499D01*
X94952704Y-72867995D01*
X94956304Y-72843727D01*
X94962265Y-72819928D01*
X94970530Y-72796829D01*
X94981020Y-72774650D01*
X94993632Y-72753607D01*
X95008247Y-72733901D01*
X95024723Y-72715723D01*
X95042901Y-72699247D01*
X95062607Y-72684632D01*
X95083650Y-72672020D01*
X95105829Y-72661530D01*
X95128928Y-72653265D01*
X95152727Y-72647304D01*
X95176995Y-72643704D01*
X95201499Y-72642500D01*
X95726501Y-72642500D01*
X95751005Y-72643704D01*
X95751005Y-72643704D01*
G37*
D12*
X95464000Y-73342500D03*
%TD*%
D11*
%TO.C,C6*%
G36*
X39388004Y-86842704D02*
G01*
X39412273Y-86846304D01*
X39436071Y-86852265D01*
X39459171Y-86860530D01*
X39481349Y-86871020D01*
X39502393Y-86883633D01*
X39522098Y-86898247D01*
X39540277Y-86914723D01*
X39556753Y-86932902D01*
X39571367Y-86952607D01*
X39583980Y-86973651D01*
X39594470Y-86995829D01*
X39602735Y-87018929D01*
X39608696Y-87042727D01*
X39612296Y-87066996D01*
X39613500Y-87091500D01*
X39613500Y-88041500D01*
X39612296Y-88066004D01*
X39608696Y-88090273D01*
X39602735Y-88114071D01*
X39594470Y-88137171D01*
X39583980Y-88159349D01*
X39571367Y-88180393D01*
X39556753Y-88200098D01*
X39540277Y-88218277D01*
X39522098Y-88234753D01*
X39502393Y-88249367D01*
X39481349Y-88261980D01*
X39459171Y-88272470D01*
X39436071Y-88280735D01*
X39412273Y-88286696D01*
X39388004Y-88290296D01*
X39363500Y-88291500D01*
X38863500Y-88291500D01*
X38838996Y-88290296D01*
X38814727Y-88286696D01*
X38790929Y-88280735D01*
X38767829Y-88272470D01*
X38745651Y-88261980D01*
X38724607Y-88249367D01*
X38704902Y-88234753D01*
X38686723Y-88218277D01*
X38670247Y-88200098D01*
X38655633Y-88180393D01*
X38643020Y-88159349D01*
X38632530Y-88137171D01*
X38624265Y-88114071D01*
X38618304Y-88090273D01*
X38614704Y-88066004D01*
X38613500Y-88041500D01*
X38613500Y-87091500D01*
X38614704Y-87066996D01*
X38618304Y-87042727D01*
X38624265Y-87018929D01*
X38632530Y-86995829D01*
X38643020Y-86973651D01*
X38655633Y-86952607D01*
X38670247Y-86932902D01*
X38686723Y-86914723D01*
X38704902Y-86898247D01*
X38724607Y-86883633D01*
X38745651Y-86871020D01*
X38767829Y-86860530D01*
X38790929Y-86852265D01*
X38814727Y-86846304D01*
X38838996Y-86842704D01*
X38863500Y-86841500D01*
X39363500Y-86841500D01*
X39388004Y-86842704D01*
X39388004Y-86842704D01*
G37*
D13*
X39113500Y-87566500D03*
D11*
G36*
X37488004Y-86842704D02*
G01*
X37512273Y-86846304D01*
X37536071Y-86852265D01*
X37559171Y-86860530D01*
X37581349Y-86871020D01*
X37602393Y-86883633D01*
X37622098Y-86898247D01*
X37640277Y-86914723D01*
X37656753Y-86932902D01*
X37671367Y-86952607D01*
X37683980Y-86973651D01*
X37694470Y-86995829D01*
X37702735Y-87018929D01*
X37708696Y-87042727D01*
X37712296Y-87066996D01*
X37713500Y-87091500D01*
X37713500Y-88041500D01*
X37712296Y-88066004D01*
X37708696Y-88090273D01*
X37702735Y-88114071D01*
X37694470Y-88137171D01*
X37683980Y-88159349D01*
X37671367Y-88180393D01*
X37656753Y-88200098D01*
X37640277Y-88218277D01*
X37622098Y-88234753D01*
X37602393Y-88249367D01*
X37581349Y-88261980D01*
X37559171Y-88272470D01*
X37536071Y-88280735D01*
X37512273Y-88286696D01*
X37488004Y-88290296D01*
X37463500Y-88291500D01*
X36963500Y-88291500D01*
X36938996Y-88290296D01*
X36914727Y-88286696D01*
X36890929Y-88280735D01*
X36867829Y-88272470D01*
X36845651Y-88261980D01*
X36824607Y-88249367D01*
X36804902Y-88234753D01*
X36786723Y-88218277D01*
X36770247Y-88200098D01*
X36755633Y-88180393D01*
X36743020Y-88159349D01*
X36732530Y-88137171D01*
X36724265Y-88114071D01*
X36718304Y-88090273D01*
X36714704Y-88066004D01*
X36713500Y-88041500D01*
X36713500Y-87091500D01*
X36714704Y-87066996D01*
X36718304Y-87042727D01*
X36724265Y-87018929D01*
X36732530Y-86995829D01*
X36743020Y-86973651D01*
X36755633Y-86952607D01*
X36770247Y-86932902D01*
X36786723Y-86914723D01*
X36804902Y-86898247D01*
X36824607Y-86883633D01*
X36845651Y-86871020D01*
X36867829Y-86860530D01*
X36890929Y-86852265D01*
X36914727Y-86846304D01*
X36938996Y-86842704D01*
X36963500Y-86841500D01*
X37463500Y-86841500D01*
X37488004Y-86842704D01*
X37488004Y-86842704D01*
G37*
D13*
X37213500Y-87566500D03*
%TD*%
D11*
%TO.C,C5*%
G36*
X39388004Y-90398704D02*
G01*
X39412273Y-90402304D01*
X39436071Y-90408265D01*
X39459171Y-90416530D01*
X39481349Y-90427020D01*
X39502393Y-90439633D01*
X39522098Y-90454247D01*
X39540277Y-90470723D01*
X39556753Y-90488902D01*
X39571367Y-90508607D01*
X39583980Y-90529651D01*
X39594470Y-90551829D01*
X39602735Y-90574929D01*
X39608696Y-90598727D01*
X39612296Y-90622996D01*
X39613500Y-90647500D01*
X39613500Y-91597500D01*
X39612296Y-91622004D01*
X39608696Y-91646273D01*
X39602735Y-91670071D01*
X39594470Y-91693171D01*
X39583980Y-91715349D01*
X39571367Y-91736393D01*
X39556753Y-91756098D01*
X39540277Y-91774277D01*
X39522098Y-91790753D01*
X39502393Y-91805367D01*
X39481349Y-91817980D01*
X39459171Y-91828470D01*
X39436071Y-91836735D01*
X39412273Y-91842696D01*
X39388004Y-91846296D01*
X39363500Y-91847500D01*
X38863500Y-91847500D01*
X38838996Y-91846296D01*
X38814727Y-91842696D01*
X38790929Y-91836735D01*
X38767829Y-91828470D01*
X38745651Y-91817980D01*
X38724607Y-91805367D01*
X38704902Y-91790753D01*
X38686723Y-91774277D01*
X38670247Y-91756098D01*
X38655633Y-91736393D01*
X38643020Y-91715349D01*
X38632530Y-91693171D01*
X38624265Y-91670071D01*
X38618304Y-91646273D01*
X38614704Y-91622004D01*
X38613500Y-91597500D01*
X38613500Y-90647500D01*
X38614704Y-90622996D01*
X38618304Y-90598727D01*
X38624265Y-90574929D01*
X38632530Y-90551829D01*
X38643020Y-90529651D01*
X38655633Y-90508607D01*
X38670247Y-90488902D01*
X38686723Y-90470723D01*
X38704902Y-90454247D01*
X38724607Y-90439633D01*
X38745651Y-90427020D01*
X38767829Y-90416530D01*
X38790929Y-90408265D01*
X38814727Y-90402304D01*
X38838996Y-90398704D01*
X38863500Y-90397500D01*
X39363500Y-90397500D01*
X39388004Y-90398704D01*
X39388004Y-90398704D01*
G37*
D13*
X39113500Y-91122500D03*
D11*
G36*
X37488004Y-90398704D02*
G01*
X37512273Y-90402304D01*
X37536071Y-90408265D01*
X37559171Y-90416530D01*
X37581349Y-90427020D01*
X37602393Y-90439633D01*
X37622098Y-90454247D01*
X37640277Y-90470723D01*
X37656753Y-90488902D01*
X37671367Y-90508607D01*
X37683980Y-90529651D01*
X37694470Y-90551829D01*
X37702735Y-90574929D01*
X37708696Y-90598727D01*
X37712296Y-90622996D01*
X37713500Y-90647500D01*
X37713500Y-91597500D01*
X37712296Y-91622004D01*
X37708696Y-91646273D01*
X37702735Y-91670071D01*
X37694470Y-91693171D01*
X37683980Y-91715349D01*
X37671367Y-91736393D01*
X37656753Y-91756098D01*
X37640277Y-91774277D01*
X37622098Y-91790753D01*
X37602393Y-91805367D01*
X37581349Y-91817980D01*
X37559171Y-91828470D01*
X37536071Y-91836735D01*
X37512273Y-91842696D01*
X37488004Y-91846296D01*
X37463500Y-91847500D01*
X36963500Y-91847500D01*
X36938996Y-91846296D01*
X36914727Y-91842696D01*
X36890929Y-91836735D01*
X36867829Y-91828470D01*
X36845651Y-91817980D01*
X36824607Y-91805367D01*
X36804902Y-91790753D01*
X36786723Y-91774277D01*
X36770247Y-91756098D01*
X36755633Y-91736393D01*
X36743020Y-91715349D01*
X36732530Y-91693171D01*
X36724265Y-91670071D01*
X36718304Y-91646273D01*
X36714704Y-91622004D01*
X36713500Y-91597500D01*
X36713500Y-90647500D01*
X36714704Y-90622996D01*
X36718304Y-90598727D01*
X36724265Y-90574929D01*
X36732530Y-90551829D01*
X36743020Y-90529651D01*
X36755633Y-90508607D01*
X36770247Y-90488902D01*
X36786723Y-90470723D01*
X36804902Y-90454247D01*
X36824607Y-90439633D01*
X36845651Y-90427020D01*
X36867829Y-90416530D01*
X36890929Y-90408265D01*
X36914727Y-90402304D01*
X36938996Y-90398704D01*
X36963500Y-90397500D01*
X37463500Y-90397500D01*
X37488004Y-90398704D01*
X37488004Y-90398704D01*
G37*
D13*
X37213500Y-91122500D03*
%TD*%
D11*
%TO.C,C4*%
G36*
X85441005Y-73126704D02*
G01*
X85465274Y-73130304D01*
X85489072Y-73136265D01*
X85512172Y-73144530D01*
X85534350Y-73155020D01*
X85555394Y-73167633D01*
X85575099Y-73182247D01*
X85593278Y-73198723D01*
X85609754Y-73216902D01*
X85624368Y-73236607D01*
X85636981Y-73257651D01*
X85647471Y-73279829D01*
X85655736Y-73302929D01*
X85661697Y-73326727D01*
X85665297Y-73350996D01*
X85666501Y-73375500D01*
X85666501Y-74325500D01*
X85665297Y-74350004D01*
X85661697Y-74374273D01*
X85655736Y-74398071D01*
X85647471Y-74421171D01*
X85636981Y-74443349D01*
X85624368Y-74464393D01*
X85609754Y-74484098D01*
X85593278Y-74502277D01*
X85575099Y-74518753D01*
X85555394Y-74533367D01*
X85534350Y-74545980D01*
X85512172Y-74556470D01*
X85489072Y-74564735D01*
X85465274Y-74570696D01*
X85441005Y-74574296D01*
X85416501Y-74575500D01*
X84916501Y-74575500D01*
X84891997Y-74574296D01*
X84867728Y-74570696D01*
X84843930Y-74564735D01*
X84820830Y-74556470D01*
X84798652Y-74545980D01*
X84777608Y-74533367D01*
X84757903Y-74518753D01*
X84739724Y-74502277D01*
X84723248Y-74484098D01*
X84708634Y-74464393D01*
X84696021Y-74443349D01*
X84685531Y-74421171D01*
X84677266Y-74398071D01*
X84671305Y-74374273D01*
X84667705Y-74350004D01*
X84666501Y-74325500D01*
X84666501Y-73375500D01*
X84667705Y-73350996D01*
X84671305Y-73326727D01*
X84677266Y-73302929D01*
X84685531Y-73279829D01*
X84696021Y-73257651D01*
X84708634Y-73236607D01*
X84723248Y-73216902D01*
X84739724Y-73198723D01*
X84757903Y-73182247D01*
X84777608Y-73167633D01*
X84798652Y-73155020D01*
X84820830Y-73144530D01*
X84843930Y-73136265D01*
X84867728Y-73130304D01*
X84891997Y-73126704D01*
X84916501Y-73125500D01*
X85416501Y-73125500D01*
X85441005Y-73126704D01*
X85441005Y-73126704D01*
G37*
D13*
X85166501Y-73850500D03*
D11*
G36*
X87341005Y-73126704D02*
G01*
X87365274Y-73130304D01*
X87389072Y-73136265D01*
X87412172Y-73144530D01*
X87434350Y-73155020D01*
X87455394Y-73167633D01*
X87475099Y-73182247D01*
X87493278Y-73198723D01*
X87509754Y-73216902D01*
X87524368Y-73236607D01*
X87536981Y-73257651D01*
X87547471Y-73279829D01*
X87555736Y-73302929D01*
X87561697Y-73326727D01*
X87565297Y-73350996D01*
X87566501Y-73375500D01*
X87566501Y-74325500D01*
X87565297Y-74350004D01*
X87561697Y-74374273D01*
X87555736Y-74398071D01*
X87547471Y-74421171D01*
X87536981Y-74443349D01*
X87524368Y-74464393D01*
X87509754Y-74484098D01*
X87493278Y-74502277D01*
X87475099Y-74518753D01*
X87455394Y-74533367D01*
X87434350Y-74545980D01*
X87412172Y-74556470D01*
X87389072Y-74564735D01*
X87365274Y-74570696D01*
X87341005Y-74574296D01*
X87316501Y-74575500D01*
X86816501Y-74575500D01*
X86791997Y-74574296D01*
X86767728Y-74570696D01*
X86743930Y-74564735D01*
X86720830Y-74556470D01*
X86698652Y-74545980D01*
X86677608Y-74533367D01*
X86657903Y-74518753D01*
X86639724Y-74502277D01*
X86623248Y-74484098D01*
X86608634Y-74464393D01*
X86596021Y-74443349D01*
X86585531Y-74421171D01*
X86577266Y-74398071D01*
X86571305Y-74374273D01*
X86567705Y-74350004D01*
X86566501Y-74325500D01*
X86566501Y-73375500D01*
X86567705Y-73350996D01*
X86571305Y-73326727D01*
X86577266Y-73302929D01*
X86585531Y-73279829D01*
X86596021Y-73257651D01*
X86608634Y-73236607D01*
X86623248Y-73216902D01*
X86639724Y-73198723D01*
X86657903Y-73182247D01*
X86677608Y-73167633D01*
X86698652Y-73155020D01*
X86720830Y-73144530D01*
X86743930Y-73136265D01*
X86767728Y-73130304D01*
X86791997Y-73126704D01*
X86816501Y-73125500D01*
X87316501Y-73125500D01*
X87341005Y-73126704D01*
X87341005Y-73126704D01*
G37*
D13*
X87066501Y-73850500D03*
%TD*%
D11*
%TO.C,C3*%
G36*
X42060004Y-75158704D02*
G01*
X42084273Y-75162304D01*
X42108071Y-75168265D01*
X42131171Y-75176530D01*
X42153349Y-75187020D01*
X42174393Y-75199633D01*
X42194098Y-75214247D01*
X42212277Y-75230723D01*
X42228753Y-75248902D01*
X42243367Y-75268607D01*
X42255980Y-75289651D01*
X42266470Y-75311829D01*
X42274735Y-75334929D01*
X42280696Y-75358727D01*
X42284296Y-75382996D01*
X42285500Y-75407500D01*
X42285500Y-76357500D01*
X42284296Y-76382004D01*
X42280696Y-76406273D01*
X42274735Y-76430071D01*
X42266470Y-76453171D01*
X42255980Y-76475349D01*
X42243367Y-76496393D01*
X42228753Y-76516098D01*
X42212277Y-76534277D01*
X42194098Y-76550753D01*
X42174393Y-76565367D01*
X42153349Y-76577980D01*
X42131171Y-76588470D01*
X42108071Y-76596735D01*
X42084273Y-76602696D01*
X42060004Y-76606296D01*
X42035500Y-76607500D01*
X41535500Y-76607500D01*
X41510996Y-76606296D01*
X41486727Y-76602696D01*
X41462929Y-76596735D01*
X41439829Y-76588470D01*
X41417651Y-76577980D01*
X41396607Y-76565367D01*
X41376902Y-76550753D01*
X41358723Y-76534277D01*
X41342247Y-76516098D01*
X41327633Y-76496393D01*
X41315020Y-76475349D01*
X41304530Y-76453171D01*
X41296265Y-76430071D01*
X41290304Y-76406273D01*
X41286704Y-76382004D01*
X41285500Y-76357500D01*
X41285500Y-75407500D01*
X41286704Y-75382996D01*
X41290304Y-75358727D01*
X41296265Y-75334929D01*
X41304530Y-75311829D01*
X41315020Y-75289651D01*
X41327633Y-75268607D01*
X41342247Y-75248902D01*
X41358723Y-75230723D01*
X41376902Y-75214247D01*
X41396607Y-75199633D01*
X41417651Y-75187020D01*
X41439829Y-75176530D01*
X41462929Y-75168265D01*
X41486727Y-75162304D01*
X41510996Y-75158704D01*
X41535500Y-75157500D01*
X42035500Y-75157500D01*
X42060004Y-75158704D01*
X42060004Y-75158704D01*
G37*
D13*
X41785500Y-75882500D03*
D11*
G36*
X43960004Y-75158704D02*
G01*
X43984273Y-75162304D01*
X44008071Y-75168265D01*
X44031171Y-75176530D01*
X44053349Y-75187020D01*
X44074393Y-75199633D01*
X44094098Y-75214247D01*
X44112277Y-75230723D01*
X44128753Y-75248902D01*
X44143367Y-75268607D01*
X44155980Y-75289651D01*
X44166470Y-75311829D01*
X44174735Y-75334929D01*
X44180696Y-75358727D01*
X44184296Y-75382996D01*
X44185500Y-75407500D01*
X44185500Y-76357500D01*
X44184296Y-76382004D01*
X44180696Y-76406273D01*
X44174735Y-76430071D01*
X44166470Y-76453171D01*
X44155980Y-76475349D01*
X44143367Y-76496393D01*
X44128753Y-76516098D01*
X44112277Y-76534277D01*
X44094098Y-76550753D01*
X44074393Y-76565367D01*
X44053349Y-76577980D01*
X44031171Y-76588470D01*
X44008071Y-76596735D01*
X43984273Y-76602696D01*
X43960004Y-76606296D01*
X43935500Y-76607500D01*
X43435500Y-76607500D01*
X43410996Y-76606296D01*
X43386727Y-76602696D01*
X43362929Y-76596735D01*
X43339829Y-76588470D01*
X43317651Y-76577980D01*
X43296607Y-76565367D01*
X43276902Y-76550753D01*
X43258723Y-76534277D01*
X43242247Y-76516098D01*
X43227633Y-76496393D01*
X43215020Y-76475349D01*
X43204530Y-76453171D01*
X43196265Y-76430071D01*
X43190304Y-76406273D01*
X43186704Y-76382004D01*
X43185500Y-76357500D01*
X43185500Y-75407500D01*
X43186704Y-75382996D01*
X43190304Y-75358727D01*
X43196265Y-75334929D01*
X43204530Y-75311829D01*
X43215020Y-75289651D01*
X43227633Y-75268607D01*
X43242247Y-75248902D01*
X43258723Y-75230723D01*
X43276902Y-75214247D01*
X43296607Y-75199633D01*
X43317651Y-75187020D01*
X43339829Y-75176530D01*
X43362929Y-75168265D01*
X43386727Y-75162304D01*
X43410996Y-75158704D01*
X43435500Y-75157500D01*
X43935500Y-75157500D01*
X43960004Y-75158704D01*
X43960004Y-75158704D01*
G37*
D13*
X43685500Y-75882500D03*
%TD*%
D11*
%TO.C,C2*%
G36*
X42060004Y-67538704D02*
G01*
X42084273Y-67542304D01*
X42108071Y-67548265D01*
X42131171Y-67556530D01*
X42153349Y-67567020D01*
X42174393Y-67579633D01*
X42194098Y-67594247D01*
X42212277Y-67610723D01*
X42228753Y-67628902D01*
X42243367Y-67648607D01*
X42255980Y-67669651D01*
X42266470Y-67691829D01*
X42274735Y-67714929D01*
X42280696Y-67738727D01*
X42284296Y-67762996D01*
X42285500Y-67787500D01*
X42285500Y-68737500D01*
X42284296Y-68762004D01*
X42280696Y-68786273D01*
X42274735Y-68810071D01*
X42266470Y-68833171D01*
X42255980Y-68855349D01*
X42243367Y-68876393D01*
X42228753Y-68896098D01*
X42212277Y-68914277D01*
X42194098Y-68930753D01*
X42174393Y-68945367D01*
X42153349Y-68957980D01*
X42131171Y-68968470D01*
X42108071Y-68976735D01*
X42084273Y-68982696D01*
X42060004Y-68986296D01*
X42035500Y-68987500D01*
X41535500Y-68987500D01*
X41510996Y-68986296D01*
X41486727Y-68982696D01*
X41462929Y-68976735D01*
X41439829Y-68968470D01*
X41417651Y-68957980D01*
X41396607Y-68945367D01*
X41376902Y-68930753D01*
X41358723Y-68914277D01*
X41342247Y-68896098D01*
X41327633Y-68876393D01*
X41315020Y-68855349D01*
X41304530Y-68833171D01*
X41296265Y-68810071D01*
X41290304Y-68786273D01*
X41286704Y-68762004D01*
X41285500Y-68737500D01*
X41285500Y-67787500D01*
X41286704Y-67762996D01*
X41290304Y-67738727D01*
X41296265Y-67714929D01*
X41304530Y-67691829D01*
X41315020Y-67669651D01*
X41327633Y-67648607D01*
X41342247Y-67628902D01*
X41358723Y-67610723D01*
X41376902Y-67594247D01*
X41396607Y-67579633D01*
X41417651Y-67567020D01*
X41439829Y-67556530D01*
X41462929Y-67548265D01*
X41486727Y-67542304D01*
X41510996Y-67538704D01*
X41535500Y-67537500D01*
X42035500Y-67537500D01*
X42060004Y-67538704D01*
X42060004Y-67538704D01*
G37*
D13*
X41785500Y-68262500D03*
D11*
G36*
X43960004Y-67538704D02*
G01*
X43984273Y-67542304D01*
X44008071Y-67548265D01*
X44031171Y-67556530D01*
X44053349Y-67567020D01*
X44074393Y-67579633D01*
X44094098Y-67594247D01*
X44112277Y-67610723D01*
X44128753Y-67628902D01*
X44143367Y-67648607D01*
X44155980Y-67669651D01*
X44166470Y-67691829D01*
X44174735Y-67714929D01*
X44180696Y-67738727D01*
X44184296Y-67762996D01*
X44185500Y-67787500D01*
X44185500Y-68737500D01*
X44184296Y-68762004D01*
X44180696Y-68786273D01*
X44174735Y-68810071D01*
X44166470Y-68833171D01*
X44155980Y-68855349D01*
X44143367Y-68876393D01*
X44128753Y-68896098D01*
X44112277Y-68914277D01*
X44094098Y-68930753D01*
X44074393Y-68945367D01*
X44053349Y-68957980D01*
X44031171Y-68968470D01*
X44008071Y-68976735D01*
X43984273Y-68982696D01*
X43960004Y-68986296D01*
X43935500Y-68987500D01*
X43435500Y-68987500D01*
X43410996Y-68986296D01*
X43386727Y-68982696D01*
X43362929Y-68976735D01*
X43339829Y-68968470D01*
X43317651Y-68957980D01*
X43296607Y-68945367D01*
X43276902Y-68930753D01*
X43258723Y-68914277D01*
X43242247Y-68896098D01*
X43227633Y-68876393D01*
X43215020Y-68855349D01*
X43204530Y-68833171D01*
X43196265Y-68810071D01*
X43190304Y-68786273D01*
X43186704Y-68762004D01*
X43185500Y-68737500D01*
X43185500Y-67787500D01*
X43186704Y-67762996D01*
X43190304Y-67738727D01*
X43196265Y-67714929D01*
X43204530Y-67691829D01*
X43215020Y-67669651D01*
X43227633Y-67648607D01*
X43242247Y-67628902D01*
X43258723Y-67610723D01*
X43276902Y-67594247D01*
X43296607Y-67579633D01*
X43317651Y-67567020D01*
X43339829Y-67556530D01*
X43362929Y-67548265D01*
X43386727Y-67542304D01*
X43410996Y-67538704D01*
X43435500Y-67537500D01*
X43935500Y-67537500D01*
X43960004Y-67538704D01*
X43960004Y-67538704D01*
G37*
D13*
X43685500Y-68262500D03*
%TD*%
D11*
%TO.C,C1*%
G36*
X42126004Y-59918704D02*
G01*
X42150273Y-59922304D01*
X42174071Y-59928265D01*
X42197171Y-59936530D01*
X42219349Y-59947020D01*
X42240393Y-59959633D01*
X42260098Y-59974247D01*
X42278277Y-59990723D01*
X42294753Y-60008902D01*
X42309367Y-60028607D01*
X42321980Y-60049651D01*
X42332470Y-60071829D01*
X42340735Y-60094929D01*
X42346696Y-60118727D01*
X42350296Y-60142996D01*
X42351500Y-60167500D01*
X42351500Y-61117500D01*
X42350296Y-61142004D01*
X42346696Y-61166273D01*
X42340735Y-61190071D01*
X42332470Y-61213171D01*
X42321980Y-61235349D01*
X42309367Y-61256393D01*
X42294753Y-61276098D01*
X42278277Y-61294277D01*
X42260098Y-61310753D01*
X42240393Y-61325367D01*
X42219349Y-61337980D01*
X42197171Y-61348470D01*
X42174071Y-61356735D01*
X42150273Y-61362696D01*
X42126004Y-61366296D01*
X42101500Y-61367500D01*
X41601500Y-61367500D01*
X41576996Y-61366296D01*
X41552727Y-61362696D01*
X41528929Y-61356735D01*
X41505829Y-61348470D01*
X41483651Y-61337980D01*
X41462607Y-61325367D01*
X41442902Y-61310753D01*
X41424723Y-61294277D01*
X41408247Y-61276098D01*
X41393633Y-61256393D01*
X41381020Y-61235349D01*
X41370530Y-61213171D01*
X41362265Y-61190071D01*
X41356304Y-61166273D01*
X41352704Y-61142004D01*
X41351500Y-61117500D01*
X41351500Y-60167500D01*
X41352704Y-60142996D01*
X41356304Y-60118727D01*
X41362265Y-60094929D01*
X41370530Y-60071829D01*
X41381020Y-60049651D01*
X41393633Y-60028607D01*
X41408247Y-60008902D01*
X41424723Y-59990723D01*
X41442902Y-59974247D01*
X41462607Y-59959633D01*
X41483651Y-59947020D01*
X41505829Y-59936530D01*
X41528929Y-59928265D01*
X41552727Y-59922304D01*
X41576996Y-59918704D01*
X41601500Y-59917500D01*
X42101500Y-59917500D01*
X42126004Y-59918704D01*
X42126004Y-59918704D01*
G37*
D13*
X41851500Y-60642500D03*
D11*
G36*
X44026004Y-59918704D02*
G01*
X44050273Y-59922304D01*
X44074071Y-59928265D01*
X44097171Y-59936530D01*
X44119349Y-59947020D01*
X44140393Y-59959633D01*
X44160098Y-59974247D01*
X44178277Y-59990723D01*
X44194753Y-60008902D01*
X44209367Y-60028607D01*
X44221980Y-60049651D01*
X44232470Y-60071829D01*
X44240735Y-60094929D01*
X44246696Y-60118727D01*
X44250296Y-60142996D01*
X44251500Y-60167500D01*
X44251500Y-61117500D01*
X44250296Y-61142004D01*
X44246696Y-61166273D01*
X44240735Y-61190071D01*
X44232470Y-61213171D01*
X44221980Y-61235349D01*
X44209367Y-61256393D01*
X44194753Y-61276098D01*
X44178277Y-61294277D01*
X44160098Y-61310753D01*
X44140393Y-61325367D01*
X44119349Y-61337980D01*
X44097171Y-61348470D01*
X44074071Y-61356735D01*
X44050273Y-61362696D01*
X44026004Y-61366296D01*
X44001500Y-61367500D01*
X43501500Y-61367500D01*
X43476996Y-61366296D01*
X43452727Y-61362696D01*
X43428929Y-61356735D01*
X43405829Y-61348470D01*
X43383651Y-61337980D01*
X43362607Y-61325367D01*
X43342902Y-61310753D01*
X43324723Y-61294277D01*
X43308247Y-61276098D01*
X43293633Y-61256393D01*
X43281020Y-61235349D01*
X43270530Y-61213171D01*
X43262265Y-61190071D01*
X43256304Y-61166273D01*
X43252704Y-61142004D01*
X43251500Y-61117500D01*
X43251500Y-60167500D01*
X43252704Y-60142996D01*
X43256304Y-60118727D01*
X43262265Y-60094929D01*
X43270530Y-60071829D01*
X43281020Y-60049651D01*
X43293633Y-60028607D01*
X43308247Y-60008902D01*
X43324723Y-59990723D01*
X43342902Y-59974247D01*
X43362607Y-59959633D01*
X43383651Y-59947020D01*
X43405829Y-59936530D01*
X43428929Y-59928265D01*
X43452727Y-59922304D01*
X43476996Y-59918704D01*
X43501500Y-59917500D01*
X44001500Y-59917500D01*
X44026004Y-59918704D01*
X44026004Y-59918704D01*
G37*
D13*
X43751500Y-60642500D03*
%TD*%
D11*
%TO.C,R24*%
G36*
X88523005Y-30837704D02*
G01*
X88547273Y-30841304D01*
X88571072Y-30847265D01*
X88594171Y-30855530D01*
X88616350Y-30866020D01*
X88637393Y-30878632D01*
X88657099Y-30893247D01*
X88675277Y-30909723D01*
X88691753Y-30927901D01*
X88706368Y-30947607D01*
X88718980Y-30968650D01*
X88729470Y-30990829D01*
X88737735Y-31013928D01*
X88743696Y-31037727D01*
X88747296Y-31061995D01*
X88748500Y-31086499D01*
X88748500Y-31986501D01*
X88747296Y-32011005D01*
X88743696Y-32035273D01*
X88737735Y-32059072D01*
X88729470Y-32082171D01*
X88718980Y-32104350D01*
X88706368Y-32125393D01*
X88691753Y-32145099D01*
X88675277Y-32163277D01*
X88657099Y-32179753D01*
X88637393Y-32194368D01*
X88616350Y-32206980D01*
X88594171Y-32217470D01*
X88571072Y-32225735D01*
X88547273Y-32231696D01*
X88523005Y-32235296D01*
X88498501Y-32236500D01*
X87973499Y-32236500D01*
X87948995Y-32235296D01*
X87924727Y-32231696D01*
X87900928Y-32225735D01*
X87877829Y-32217470D01*
X87855650Y-32206980D01*
X87834607Y-32194368D01*
X87814901Y-32179753D01*
X87796723Y-32163277D01*
X87780247Y-32145099D01*
X87765632Y-32125393D01*
X87753020Y-32104350D01*
X87742530Y-32082171D01*
X87734265Y-32059072D01*
X87728304Y-32035273D01*
X87724704Y-32011005D01*
X87723500Y-31986501D01*
X87723500Y-31086499D01*
X87724704Y-31061995D01*
X87728304Y-31037727D01*
X87734265Y-31013928D01*
X87742530Y-30990829D01*
X87753020Y-30968650D01*
X87765632Y-30947607D01*
X87780247Y-30927901D01*
X87796723Y-30909723D01*
X87814901Y-30893247D01*
X87834607Y-30878632D01*
X87855650Y-30866020D01*
X87877829Y-30855530D01*
X87900928Y-30847265D01*
X87924727Y-30841304D01*
X87948995Y-30837704D01*
X87973499Y-30836500D01*
X88498501Y-30836500D01*
X88523005Y-30837704D01*
X88523005Y-30837704D01*
G37*
D12*
X88236000Y-31536500D03*
D11*
G36*
X86698005Y-30837704D02*
G01*
X86722273Y-30841304D01*
X86746072Y-30847265D01*
X86769171Y-30855530D01*
X86791350Y-30866020D01*
X86812393Y-30878632D01*
X86832099Y-30893247D01*
X86850277Y-30909723D01*
X86866753Y-30927901D01*
X86881368Y-30947607D01*
X86893980Y-30968650D01*
X86904470Y-30990829D01*
X86912735Y-31013928D01*
X86918696Y-31037727D01*
X86922296Y-31061995D01*
X86923500Y-31086499D01*
X86923500Y-31986501D01*
X86922296Y-32011005D01*
X86918696Y-32035273D01*
X86912735Y-32059072D01*
X86904470Y-32082171D01*
X86893980Y-32104350D01*
X86881368Y-32125393D01*
X86866753Y-32145099D01*
X86850277Y-32163277D01*
X86832099Y-32179753D01*
X86812393Y-32194368D01*
X86791350Y-32206980D01*
X86769171Y-32217470D01*
X86746072Y-32225735D01*
X86722273Y-32231696D01*
X86698005Y-32235296D01*
X86673501Y-32236500D01*
X86148499Y-32236500D01*
X86123995Y-32235296D01*
X86099727Y-32231696D01*
X86075928Y-32225735D01*
X86052829Y-32217470D01*
X86030650Y-32206980D01*
X86009607Y-32194368D01*
X85989901Y-32179753D01*
X85971723Y-32163277D01*
X85955247Y-32145099D01*
X85940632Y-32125393D01*
X85928020Y-32104350D01*
X85917530Y-32082171D01*
X85909265Y-32059072D01*
X85903304Y-32035273D01*
X85899704Y-32011005D01*
X85898500Y-31986501D01*
X85898500Y-31086499D01*
X85899704Y-31061995D01*
X85903304Y-31037727D01*
X85909265Y-31013928D01*
X85917530Y-30990829D01*
X85928020Y-30968650D01*
X85940632Y-30947607D01*
X85955247Y-30927901D01*
X85971723Y-30909723D01*
X85989901Y-30893247D01*
X86009607Y-30878632D01*
X86030650Y-30866020D01*
X86052829Y-30855530D01*
X86075928Y-30847265D01*
X86099727Y-30841304D01*
X86123995Y-30837704D01*
X86148499Y-30836500D01*
X86673501Y-30836500D01*
X86698005Y-30837704D01*
X86698005Y-30837704D01*
G37*
D12*
X86411000Y-31536500D03*
%TD*%
D11*
%TO.C,R1*%
G36*
X43935005Y-54355704D02*
G01*
X43959273Y-54359304D01*
X43983072Y-54365265D01*
X44006171Y-54373530D01*
X44028350Y-54384020D01*
X44049393Y-54396632D01*
X44069099Y-54411247D01*
X44087277Y-54427723D01*
X44103753Y-54445901D01*
X44118368Y-54465607D01*
X44130980Y-54486650D01*
X44141470Y-54508829D01*
X44149735Y-54531928D01*
X44155696Y-54555727D01*
X44159296Y-54579995D01*
X44160500Y-54604499D01*
X44160500Y-55504501D01*
X44159296Y-55529005D01*
X44155696Y-55553273D01*
X44149735Y-55577072D01*
X44141470Y-55600171D01*
X44130980Y-55622350D01*
X44118368Y-55643393D01*
X44103753Y-55663099D01*
X44087277Y-55681277D01*
X44069099Y-55697753D01*
X44049393Y-55712368D01*
X44028350Y-55724980D01*
X44006171Y-55735470D01*
X43983072Y-55743735D01*
X43959273Y-55749696D01*
X43935005Y-55753296D01*
X43910501Y-55754500D01*
X43385499Y-55754500D01*
X43360995Y-55753296D01*
X43336727Y-55749696D01*
X43312928Y-55743735D01*
X43289829Y-55735470D01*
X43267650Y-55724980D01*
X43246607Y-55712368D01*
X43226901Y-55697753D01*
X43208723Y-55681277D01*
X43192247Y-55663099D01*
X43177632Y-55643393D01*
X43165020Y-55622350D01*
X43154530Y-55600171D01*
X43146265Y-55577072D01*
X43140304Y-55553273D01*
X43136704Y-55529005D01*
X43135500Y-55504501D01*
X43135500Y-54604499D01*
X43136704Y-54579995D01*
X43140304Y-54555727D01*
X43146265Y-54531928D01*
X43154530Y-54508829D01*
X43165020Y-54486650D01*
X43177632Y-54465607D01*
X43192247Y-54445901D01*
X43208723Y-54427723D01*
X43226901Y-54411247D01*
X43246607Y-54396632D01*
X43267650Y-54384020D01*
X43289829Y-54373530D01*
X43312928Y-54365265D01*
X43336727Y-54359304D01*
X43360995Y-54355704D01*
X43385499Y-54354500D01*
X43910501Y-54354500D01*
X43935005Y-54355704D01*
X43935005Y-54355704D01*
G37*
D12*
X43648000Y-55054500D03*
D11*
G36*
X42110005Y-54355704D02*
G01*
X42134273Y-54359304D01*
X42158072Y-54365265D01*
X42181171Y-54373530D01*
X42203350Y-54384020D01*
X42224393Y-54396632D01*
X42244099Y-54411247D01*
X42262277Y-54427723D01*
X42278753Y-54445901D01*
X42293368Y-54465607D01*
X42305980Y-54486650D01*
X42316470Y-54508829D01*
X42324735Y-54531928D01*
X42330696Y-54555727D01*
X42334296Y-54579995D01*
X42335500Y-54604499D01*
X42335500Y-55504501D01*
X42334296Y-55529005D01*
X42330696Y-55553273D01*
X42324735Y-55577072D01*
X42316470Y-55600171D01*
X42305980Y-55622350D01*
X42293368Y-55643393D01*
X42278753Y-55663099D01*
X42262277Y-55681277D01*
X42244099Y-55697753D01*
X42224393Y-55712368D01*
X42203350Y-55724980D01*
X42181171Y-55735470D01*
X42158072Y-55743735D01*
X42134273Y-55749696D01*
X42110005Y-55753296D01*
X42085501Y-55754500D01*
X41560499Y-55754500D01*
X41535995Y-55753296D01*
X41511727Y-55749696D01*
X41487928Y-55743735D01*
X41464829Y-55735470D01*
X41442650Y-55724980D01*
X41421607Y-55712368D01*
X41401901Y-55697753D01*
X41383723Y-55681277D01*
X41367247Y-55663099D01*
X41352632Y-55643393D01*
X41340020Y-55622350D01*
X41329530Y-55600171D01*
X41321265Y-55577072D01*
X41315304Y-55553273D01*
X41311704Y-55529005D01*
X41310500Y-55504501D01*
X41310500Y-54604499D01*
X41311704Y-54579995D01*
X41315304Y-54555727D01*
X41321265Y-54531928D01*
X41329530Y-54508829D01*
X41340020Y-54486650D01*
X41352632Y-54465607D01*
X41367247Y-54445901D01*
X41383723Y-54427723D01*
X41401901Y-54411247D01*
X41421607Y-54396632D01*
X41442650Y-54384020D01*
X41464829Y-54373530D01*
X41487928Y-54365265D01*
X41511727Y-54359304D01*
X41535995Y-54355704D01*
X41560499Y-54354500D01*
X42085501Y-54354500D01*
X42110005Y-54355704D01*
X42110005Y-54355704D01*
G37*
D12*
X41823000Y-55054500D03*
%TD*%
D11*
%TO.C,U1*%
G36*
X78124203Y-74380222D02*
G01*
X78138764Y-74382382D01*
X78153043Y-74385959D01*
X78166903Y-74390918D01*
X78180210Y-74397212D01*
X78192836Y-74404780D01*
X78204659Y-74413548D01*
X78215566Y-74423434D01*
X78225452Y-74434341D01*
X78234220Y-74446164D01*
X78241788Y-74458790D01*
X78248082Y-74472097D01*
X78253041Y-74485957D01*
X78256618Y-74500236D01*
X78258778Y-74514797D01*
X78259500Y-74529500D01*
X78259500Y-74829500D01*
X78258778Y-74844203D01*
X78256618Y-74858764D01*
X78253041Y-74873043D01*
X78248082Y-74886903D01*
X78241788Y-74900210D01*
X78234220Y-74912836D01*
X78225452Y-74924659D01*
X78215566Y-74935566D01*
X78204659Y-74945452D01*
X78192836Y-74954220D01*
X78180210Y-74961788D01*
X78166903Y-74968082D01*
X78153043Y-74973041D01*
X78138764Y-74976618D01*
X78124203Y-74978778D01*
X78109500Y-74979500D01*
X76459500Y-74979500D01*
X76444797Y-74978778D01*
X76430236Y-74976618D01*
X76415957Y-74973041D01*
X76402097Y-74968082D01*
X76388790Y-74961788D01*
X76376164Y-74954220D01*
X76364341Y-74945452D01*
X76353434Y-74935566D01*
X76343548Y-74924659D01*
X76334780Y-74912836D01*
X76327212Y-74900210D01*
X76320918Y-74886903D01*
X76315959Y-74873043D01*
X76312382Y-74858764D01*
X76310222Y-74844203D01*
X76309500Y-74829500D01*
X76309500Y-74529500D01*
X76310222Y-74514797D01*
X76312382Y-74500236D01*
X76315959Y-74485957D01*
X76320918Y-74472097D01*
X76327212Y-74458790D01*
X76334780Y-74446164D01*
X76343548Y-74434341D01*
X76353434Y-74423434D01*
X76364341Y-74413548D01*
X76376164Y-74404780D01*
X76388790Y-74397212D01*
X76402097Y-74390918D01*
X76415957Y-74385959D01*
X76430236Y-74382382D01*
X76444797Y-74380222D01*
X76459500Y-74379500D01*
X78109500Y-74379500D01*
X78124203Y-74380222D01*
X78124203Y-74380222D01*
G37*
D14*
X77284500Y-74679500D03*
D11*
G36*
X78124203Y-75650222D02*
G01*
X78138764Y-75652382D01*
X78153043Y-75655959D01*
X78166903Y-75660918D01*
X78180210Y-75667212D01*
X78192836Y-75674780D01*
X78204659Y-75683548D01*
X78215566Y-75693434D01*
X78225452Y-75704341D01*
X78234220Y-75716164D01*
X78241788Y-75728790D01*
X78248082Y-75742097D01*
X78253041Y-75755957D01*
X78256618Y-75770236D01*
X78258778Y-75784797D01*
X78259500Y-75799500D01*
X78259500Y-76099500D01*
X78258778Y-76114203D01*
X78256618Y-76128764D01*
X78253041Y-76143043D01*
X78248082Y-76156903D01*
X78241788Y-76170210D01*
X78234220Y-76182836D01*
X78225452Y-76194659D01*
X78215566Y-76205566D01*
X78204659Y-76215452D01*
X78192836Y-76224220D01*
X78180210Y-76231788D01*
X78166903Y-76238082D01*
X78153043Y-76243041D01*
X78138764Y-76246618D01*
X78124203Y-76248778D01*
X78109500Y-76249500D01*
X76459500Y-76249500D01*
X76444797Y-76248778D01*
X76430236Y-76246618D01*
X76415957Y-76243041D01*
X76402097Y-76238082D01*
X76388790Y-76231788D01*
X76376164Y-76224220D01*
X76364341Y-76215452D01*
X76353434Y-76205566D01*
X76343548Y-76194659D01*
X76334780Y-76182836D01*
X76327212Y-76170210D01*
X76320918Y-76156903D01*
X76315959Y-76143043D01*
X76312382Y-76128764D01*
X76310222Y-76114203D01*
X76309500Y-76099500D01*
X76309500Y-75799500D01*
X76310222Y-75784797D01*
X76312382Y-75770236D01*
X76315959Y-75755957D01*
X76320918Y-75742097D01*
X76327212Y-75728790D01*
X76334780Y-75716164D01*
X76343548Y-75704341D01*
X76353434Y-75693434D01*
X76364341Y-75683548D01*
X76376164Y-75674780D01*
X76388790Y-75667212D01*
X76402097Y-75660918D01*
X76415957Y-75655959D01*
X76430236Y-75652382D01*
X76444797Y-75650222D01*
X76459500Y-75649500D01*
X78109500Y-75649500D01*
X78124203Y-75650222D01*
X78124203Y-75650222D01*
G37*
D14*
X77284500Y-75949500D03*
D11*
G36*
X78124203Y-76920222D02*
G01*
X78138764Y-76922382D01*
X78153043Y-76925959D01*
X78166903Y-76930918D01*
X78180210Y-76937212D01*
X78192836Y-76944780D01*
X78204659Y-76953548D01*
X78215566Y-76963434D01*
X78225452Y-76974341D01*
X78234220Y-76986164D01*
X78241788Y-76998790D01*
X78248082Y-77012097D01*
X78253041Y-77025957D01*
X78256618Y-77040236D01*
X78258778Y-77054797D01*
X78259500Y-77069500D01*
X78259500Y-77369500D01*
X78258778Y-77384203D01*
X78256618Y-77398764D01*
X78253041Y-77413043D01*
X78248082Y-77426903D01*
X78241788Y-77440210D01*
X78234220Y-77452836D01*
X78225452Y-77464659D01*
X78215566Y-77475566D01*
X78204659Y-77485452D01*
X78192836Y-77494220D01*
X78180210Y-77501788D01*
X78166903Y-77508082D01*
X78153043Y-77513041D01*
X78138764Y-77516618D01*
X78124203Y-77518778D01*
X78109500Y-77519500D01*
X76459500Y-77519500D01*
X76444797Y-77518778D01*
X76430236Y-77516618D01*
X76415957Y-77513041D01*
X76402097Y-77508082D01*
X76388790Y-77501788D01*
X76376164Y-77494220D01*
X76364341Y-77485452D01*
X76353434Y-77475566D01*
X76343548Y-77464659D01*
X76334780Y-77452836D01*
X76327212Y-77440210D01*
X76320918Y-77426903D01*
X76315959Y-77413043D01*
X76312382Y-77398764D01*
X76310222Y-77384203D01*
X76309500Y-77369500D01*
X76309500Y-77069500D01*
X76310222Y-77054797D01*
X76312382Y-77040236D01*
X76315959Y-77025957D01*
X76320918Y-77012097D01*
X76327212Y-76998790D01*
X76334780Y-76986164D01*
X76343548Y-76974341D01*
X76353434Y-76963434D01*
X76364341Y-76953548D01*
X76376164Y-76944780D01*
X76388790Y-76937212D01*
X76402097Y-76930918D01*
X76415957Y-76925959D01*
X76430236Y-76922382D01*
X76444797Y-76920222D01*
X76459500Y-76919500D01*
X78109500Y-76919500D01*
X78124203Y-76920222D01*
X78124203Y-76920222D01*
G37*
D14*
X77284500Y-77219500D03*
D11*
G36*
X78124203Y-78190222D02*
G01*
X78138764Y-78192382D01*
X78153043Y-78195959D01*
X78166903Y-78200918D01*
X78180210Y-78207212D01*
X78192836Y-78214780D01*
X78204659Y-78223548D01*
X78215566Y-78233434D01*
X78225452Y-78244341D01*
X78234220Y-78256164D01*
X78241788Y-78268790D01*
X78248082Y-78282097D01*
X78253041Y-78295957D01*
X78256618Y-78310236D01*
X78258778Y-78324797D01*
X78259500Y-78339500D01*
X78259500Y-78639500D01*
X78258778Y-78654203D01*
X78256618Y-78668764D01*
X78253041Y-78683043D01*
X78248082Y-78696903D01*
X78241788Y-78710210D01*
X78234220Y-78722836D01*
X78225452Y-78734659D01*
X78215566Y-78745566D01*
X78204659Y-78755452D01*
X78192836Y-78764220D01*
X78180210Y-78771788D01*
X78166903Y-78778082D01*
X78153043Y-78783041D01*
X78138764Y-78786618D01*
X78124203Y-78788778D01*
X78109500Y-78789500D01*
X76459500Y-78789500D01*
X76444797Y-78788778D01*
X76430236Y-78786618D01*
X76415957Y-78783041D01*
X76402097Y-78778082D01*
X76388790Y-78771788D01*
X76376164Y-78764220D01*
X76364341Y-78755452D01*
X76353434Y-78745566D01*
X76343548Y-78734659D01*
X76334780Y-78722836D01*
X76327212Y-78710210D01*
X76320918Y-78696903D01*
X76315959Y-78683043D01*
X76312382Y-78668764D01*
X76310222Y-78654203D01*
X76309500Y-78639500D01*
X76309500Y-78339500D01*
X76310222Y-78324797D01*
X76312382Y-78310236D01*
X76315959Y-78295957D01*
X76320918Y-78282097D01*
X76327212Y-78268790D01*
X76334780Y-78256164D01*
X76343548Y-78244341D01*
X76353434Y-78233434D01*
X76364341Y-78223548D01*
X76376164Y-78214780D01*
X76388790Y-78207212D01*
X76402097Y-78200918D01*
X76415957Y-78195959D01*
X76430236Y-78192382D01*
X76444797Y-78190222D01*
X76459500Y-78189500D01*
X78109500Y-78189500D01*
X78124203Y-78190222D01*
X78124203Y-78190222D01*
G37*
D14*
X77284500Y-78489500D03*
D11*
G36*
X83074203Y-78190222D02*
G01*
X83088764Y-78192382D01*
X83103043Y-78195959D01*
X83116903Y-78200918D01*
X83130210Y-78207212D01*
X83142836Y-78214780D01*
X83154659Y-78223548D01*
X83165566Y-78233434D01*
X83175452Y-78244341D01*
X83184220Y-78256164D01*
X83191788Y-78268790D01*
X83198082Y-78282097D01*
X83203041Y-78295957D01*
X83206618Y-78310236D01*
X83208778Y-78324797D01*
X83209500Y-78339500D01*
X83209500Y-78639500D01*
X83208778Y-78654203D01*
X83206618Y-78668764D01*
X83203041Y-78683043D01*
X83198082Y-78696903D01*
X83191788Y-78710210D01*
X83184220Y-78722836D01*
X83175452Y-78734659D01*
X83165566Y-78745566D01*
X83154659Y-78755452D01*
X83142836Y-78764220D01*
X83130210Y-78771788D01*
X83116903Y-78778082D01*
X83103043Y-78783041D01*
X83088764Y-78786618D01*
X83074203Y-78788778D01*
X83059500Y-78789500D01*
X81409500Y-78789500D01*
X81394797Y-78788778D01*
X81380236Y-78786618D01*
X81365957Y-78783041D01*
X81352097Y-78778082D01*
X81338790Y-78771788D01*
X81326164Y-78764220D01*
X81314341Y-78755452D01*
X81303434Y-78745566D01*
X81293548Y-78734659D01*
X81284780Y-78722836D01*
X81277212Y-78710210D01*
X81270918Y-78696903D01*
X81265959Y-78683043D01*
X81262382Y-78668764D01*
X81260222Y-78654203D01*
X81259500Y-78639500D01*
X81259500Y-78339500D01*
X81260222Y-78324797D01*
X81262382Y-78310236D01*
X81265959Y-78295957D01*
X81270918Y-78282097D01*
X81277212Y-78268790D01*
X81284780Y-78256164D01*
X81293548Y-78244341D01*
X81303434Y-78233434D01*
X81314341Y-78223548D01*
X81326164Y-78214780D01*
X81338790Y-78207212D01*
X81352097Y-78200918D01*
X81365957Y-78195959D01*
X81380236Y-78192382D01*
X81394797Y-78190222D01*
X81409500Y-78189500D01*
X83059500Y-78189500D01*
X83074203Y-78190222D01*
X83074203Y-78190222D01*
G37*
D14*
X82234500Y-78489500D03*
D11*
G36*
X83074203Y-76920222D02*
G01*
X83088764Y-76922382D01*
X83103043Y-76925959D01*
X83116903Y-76930918D01*
X83130210Y-76937212D01*
X83142836Y-76944780D01*
X83154659Y-76953548D01*
X83165566Y-76963434D01*
X83175452Y-76974341D01*
X83184220Y-76986164D01*
X83191788Y-76998790D01*
X83198082Y-77012097D01*
X83203041Y-77025957D01*
X83206618Y-77040236D01*
X83208778Y-77054797D01*
X83209500Y-77069500D01*
X83209500Y-77369500D01*
X83208778Y-77384203D01*
X83206618Y-77398764D01*
X83203041Y-77413043D01*
X83198082Y-77426903D01*
X83191788Y-77440210D01*
X83184220Y-77452836D01*
X83175452Y-77464659D01*
X83165566Y-77475566D01*
X83154659Y-77485452D01*
X83142836Y-77494220D01*
X83130210Y-77501788D01*
X83116903Y-77508082D01*
X83103043Y-77513041D01*
X83088764Y-77516618D01*
X83074203Y-77518778D01*
X83059500Y-77519500D01*
X81409500Y-77519500D01*
X81394797Y-77518778D01*
X81380236Y-77516618D01*
X81365957Y-77513041D01*
X81352097Y-77508082D01*
X81338790Y-77501788D01*
X81326164Y-77494220D01*
X81314341Y-77485452D01*
X81303434Y-77475566D01*
X81293548Y-77464659D01*
X81284780Y-77452836D01*
X81277212Y-77440210D01*
X81270918Y-77426903D01*
X81265959Y-77413043D01*
X81262382Y-77398764D01*
X81260222Y-77384203D01*
X81259500Y-77369500D01*
X81259500Y-77069500D01*
X81260222Y-77054797D01*
X81262382Y-77040236D01*
X81265959Y-77025957D01*
X81270918Y-77012097D01*
X81277212Y-76998790D01*
X81284780Y-76986164D01*
X81293548Y-76974341D01*
X81303434Y-76963434D01*
X81314341Y-76953548D01*
X81326164Y-76944780D01*
X81338790Y-76937212D01*
X81352097Y-76930918D01*
X81365957Y-76925959D01*
X81380236Y-76922382D01*
X81394797Y-76920222D01*
X81409500Y-76919500D01*
X83059500Y-76919500D01*
X83074203Y-76920222D01*
X83074203Y-76920222D01*
G37*
D14*
X82234500Y-77219500D03*
D11*
G36*
X83074203Y-75650222D02*
G01*
X83088764Y-75652382D01*
X83103043Y-75655959D01*
X83116903Y-75660918D01*
X83130210Y-75667212D01*
X83142836Y-75674780D01*
X83154659Y-75683548D01*
X83165566Y-75693434D01*
X83175452Y-75704341D01*
X83184220Y-75716164D01*
X83191788Y-75728790D01*
X83198082Y-75742097D01*
X83203041Y-75755957D01*
X83206618Y-75770236D01*
X83208778Y-75784797D01*
X83209500Y-75799500D01*
X83209500Y-76099500D01*
X83208778Y-76114203D01*
X83206618Y-76128764D01*
X83203041Y-76143043D01*
X83198082Y-76156903D01*
X83191788Y-76170210D01*
X83184220Y-76182836D01*
X83175452Y-76194659D01*
X83165566Y-76205566D01*
X83154659Y-76215452D01*
X83142836Y-76224220D01*
X83130210Y-76231788D01*
X83116903Y-76238082D01*
X83103043Y-76243041D01*
X83088764Y-76246618D01*
X83074203Y-76248778D01*
X83059500Y-76249500D01*
X81409500Y-76249500D01*
X81394797Y-76248778D01*
X81380236Y-76246618D01*
X81365957Y-76243041D01*
X81352097Y-76238082D01*
X81338790Y-76231788D01*
X81326164Y-76224220D01*
X81314341Y-76215452D01*
X81303434Y-76205566D01*
X81293548Y-76194659D01*
X81284780Y-76182836D01*
X81277212Y-76170210D01*
X81270918Y-76156903D01*
X81265959Y-76143043D01*
X81262382Y-76128764D01*
X81260222Y-76114203D01*
X81259500Y-76099500D01*
X81259500Y-75799500D01*
X81260222Y-75784797D01*
X81262382Y-75770236D01*
X81265959Y-75755957D01*
X81270918Y-75742097D01*
X81277212Y-75728790D01*
X81284780Y-75716164D01*
X81293548Y-75704341D01*
X81303434Y-75693434D01*
X81314341Y-75683548D01*
X81326164Y-75674780D01*
X81338790Y-75667212D01*
X81352097Y-75660918D01*
X81365957Y-75655959D01*
X81380236Y-75652382D01*
X81394797Y-75650222D01*
X81409500Y-75649500D01*
X83059500Y-75649500D01*
X83074203Y-75650222D01*
X83074203Y-75650222D01*
G37*
D14*
X82234500Y-75949500D03*
D11*
G36*
X83074203Y-74380222D02*
G01*
X83088764Y-74382382D01*
X83103043Y-74385959D01*
X83116903Y-74390918D01*
X83130210Y-74397212D01*
X83142836Y-74404780D01*
X83154659Y-74413548D01*
X83165566Y-74423434D01*
X83175452Y-74434341D01*
X83184220Y-74446164D01*
X83191788Y-74458790D01*
X83198082Y-74472097D01*
X83203041Y-74485957D01*
X83206618Y-74500236D01*
X83208778Y-74514797D01*
X83209500Y-74529500D01*
X83209500Y-74829500D01*
X83208778Y-74844203D01*
X83206618Y-74858764D01*
X83203041Y-74873043D01*
X83198082Y-74886903D01*
X83191788Y-74900210D01*
X83184220Y-74912836D01*
X83175452Y-74924659D01*
X83165566Y-74935566D01*
X83154659Y-74945452D01*
X83142836Y-74954220D01*
X83130210Y-74961788D01*
X83116903Y-74968082D01*
X83103043Y-74973041D01*
X83088764Y-74976618D01*
X83074203Y-74978778D01*
X83059500Y-74979500D01*
X81409500Y-74979500D01*
X81394797Y-74978778D01*
X81380236Y-74976618D01*
X81365957Y-74973041D01*
X81352097Y-74968082D01*
X81338790Y-74961788D01*
X81326164Y-74954220D01*
X81314341Y-74945452D01*
X81303434Y-74935566D01*
X81293548Y-74924659D01*
X81284780Y-74912836D01*
X81277212Y-74900210D01*
X81270918Y-74886903D01*
X81265959Y-74873043D01*
X81262382Y-74858764D01*
X81260222Y-74844203D01*
X81259500Y-74829500D01*
X81259500Y-74529500D01*
X81260222Y-74514797D01*
X81262382Y-74500236D01*
X81265959Y-74485957D01*
X81270918Y-74472097D01*
X81277212Y-74458790D01*
X81284780Y-74446164D01*
X81293548Y-74434341D01*
X81303434Y-74423434D01*
X81314341Y-74413548D01*
X81326164Y-74404780D01*
X81338790Y-74397212D01*
X81352097Y-74390918D01*
X81365957Y-74385959D01*
X81380236Y-74382382D01*
X81394797Y-74380222D01*
X81409500Y-74379500D01*
X83059500Y-74379500D01*
X83074203Y-74380222D01*
X83074203Y-74380222D01*
G37*
D14*
X82234500Y-74679500D03*
%TD*%
D11*
%TO.C,TH3*%
G36*
X41784005Y-63324704D02*
G01*
X41808273Y-63328304D01*
X41832072Y-63334265D01*
X41855171Y-63342530D01*
X41877350Y-63353020D01*
X41898393Y-63365632D01*
X41918099Y-63380247D01*
X41936277Y-63396723D01*
X41952753Y-63414901D01*
X41967368Y-63434607D01*
X41979980Y-63455650D01*
X41990470Y-63477829D01*
X41998735Y-63500928D01*
X42004696Y-63524727D01*
X42008296Y-63548995D01*
X42009500Y-63573499D01*
X42009500Y-64823501D01*
X42008296Y-64848005D01*
X42004696Y-64872273D01*
X41998735Y-64896072D01*
X41990470Y-64919171D01*
X41979980Y-64941350D01*
X41967368Y-64962393D01*
X41952753Y-64982099D01*
X41936277Y-65000277D01*
X41918099Y-65016753D01*
X41898393Y-65031368D01*
X41877350Y-65043980D01*
X41855171Y-65054470D01*
X41832072Y-65062735D01*
X41808273Y-65068696D01*
X41784005Y-65072296D01*
X41759501Y-65073500D01*
X41134499Y-65073500D01*
X41109995Y-65072296D01*
X41085727Y-65068696D01*
X41061928Y-65062735D01*
X41038829Y-65054470D01*
X41016650Y-65043980D01*
X40995607Y-65031368D01*
X40975901Y-65016753D01*
X40957723Y-65000277D01*
X40941247Y-64982099D01*
X40926632Y-64962393D01*
X40914020Y-64941350D01*
X40903530Y-64919171D01*
X40895265Y-64896072D01*
X40889304Y-64872273D01*
X40885704Y-64848005D01*
X40884500Y-64823501D01*
X40884500Y-63573499D01*
X40885704Y-63548995D01*
X40889304Y-63524727D01*
X40895265Y-63500928D01*
X40903530Y-63477829D01*
X40914020Y-63455650D01*
X40926632Y-63434607D01*
X40941247Y-63414901D01*
X40957723Y-63396723D01*
X40975901Y-63380247D01*
X40995607Y-63365632D01*
X41016650Y-63353020D01*
X41038829Y-63342530D01*
X41061928Y-63334265D01*
X41085727Y-63328304D01*
X41109995Y-63324704D01*
X41134499Y-63323500D01*
X41759501Y-63323500D01*
X41784005Y-63324704D01*
X41784005Y-63324704D01*
G37*
D15*
X41447000Y-64198500D03*
D11*
G36*
X44709005Y-63324704D02*
G01*
X44733273Y-63328304D01*
X44757072Y-63334265D01*
X44780171Y-63342530D01*
X44802350Y-63353020D01*
X44823393Y-63365632D01*
X44843099Y-63380247D01*
X44861277Y-63396723D01*
X44877753Y-63414901D01*
X44892368Y-63434607D01*
X44904980Y-63455650D01*
X44915470Y-63477829D01*
X44923735Y-63500928D01*
X44929696Y-63524727D01*
X44933296Y-63548995D01*
X44934500Y-63573499D01*
X44934500Y-64823501D01*
X44933296Y-64848005D01*
X44929696Y-64872273D01*
X44923735Y-64896072D01*
X44915470Y-64919171D01*
X44904980Y-64941350D01*
X44892368Y-64962393D01*
X44877753Y-64982099D01*
X44861277Y-65000277D01*
X44843099Y-65016753D01*
X44823393Y-65031368D01*
X44802350Y-65043980D01*
X44780171Y-65054470D01*
X44757072Y-65062735D01*
X44733273Y-65068696D01*
X44709005Y-65072296D01*
X44684501Y-65073500D01*
X44059499Y-65073500D01*
X44034995Y-65072296D01*
X44010727Y-65068696D01*
X43986928Y-65062735D01*
X43963829Y-65054470D01*
X43941650Y-65043980D01*
X43920607Y-65031368D01*
X43900901Y-65016753D01*
X43882723Y-65000277D01*
X43866247Y-64982099D01*
X43851632Y-64962393D01*
X43839020Y-64941350D01*
X43828530Y-64919171D01*
X43820265Y-64896072D01*
X43814304Y-64872273D01*
X43810704Y-64848005D01*
X43809500Y-64823501D01*
X43809500Y-63573499D01*
X43810704Y-63548995D01*
X43814304Y-63524727D01*
X43820265Y-63500928D01*
X43828530Y-63477829D01*
X43839020Y-63455650D01*
X43851632Y-63434607D01*
X43866247Y-63414901D01*
X43882723Y-63396723D01*
X43900901Y-63380247D01*
X43920607Y-63365632D01*
X43941650Y-63353020D01*
X43963829Y-63342530D01*
X43986928Y-63334265D01*
X44010727Y-63328304D01*
X44034995Y-63324704D01*
X44059499Y-63323500D01*
X44684501Y-63323500D01*
X44709005Y-63324704D01*
X44709005Y-63324704D01*
G37*
D15*
X44372000Y-64198500D03*
%TD*%
D11*
%TO.C,TH2*%
G36*
X41610005Y-70944704D02*
G01*
X41634273Y-70948304D01*
X41658072Y-70954265D01*
X41681171Y-70962530D01*
X41703350Y-70973020D01*
X41724393Y-70985632D01*
X41744099Y-71000247D01*
X41762277Y-71016723D01*
X41778753Y-71034901D01*
X41793368Y-71054607D01*
X41805980Y-71075650D01*
X41816470Y-71097829D01*
X41824735Y-71120928D01*
X41830696Y-71144727D01*
X41834296Y-71168995D01*
X41835500Y-71193499D01*
X41835500Y-72443501D01*
X41834296Y-72468005D01*
X41830696Y-72492273D01*
X41824735Y-72516072D01*
X41816470Y-72539171D01*
X41805980Y-72561350D01*
X41793368Y-72582393D01*
X41778753Y-72602099D01*
X41762277Y-72620277D01*
X41744099Y-72636753D01*
X41724393Y-72651368D01*
X41703350Y-72663980D01*
X41681171Y-72674470D01*
X41658072Y-72682735D01*
X41634273Y-72688696D01*
X41610005Y-72692296D01*
X41585501Y-72693500D01*
X40960499Y-72693500D01*
X40935995Y-72692296D01*
X40911727Y-72688696D01*
X40887928Y-72682735D01*
X40864829Y-72674470D01*
X40842650Y-72663980D01*
X40821607Y-72651368D01*
X40801901Y-72636753D01*
X40783723Y-72620277D01*
X40767247Y-72602099D01*
X40752632Y-72582393D01*
X40740020Y-72561350D01*
X40729530Y-72539171D01*
X40721265Y-72516072D01*
X40715304Y-72492273D01*
X40711704Y-72468005D01*
X40710500Y-72443501D01*
X40710500Y-71193499D01*
X40711704Y-71168995D01*
X40715304Y-71144727D01*
X40721265Y-71120928D01*
X40729530Y-71097829D01*
X40740020Y-71075650D01*
X40752632Y-71054607D01*
X40767247Y-71034901D01*
X40783723Y-71016723D01*
X40801901Y-71000247D01*
X40821607Y-70985632D01*
X40842650Y-70973020D01*
X40864829Y-70962530D01*
X40887928Y-70954265D01*
X40911727Y-70948304D01*
X40935995Y-70944704D01*
X40960499Y-70943500D01*
X41585501Y-70943500D01*
X41610005Y-70944704D01*
X41610005Y-70944704D01*
G37*
D15*
X41273000Y-71818500D03*
D11*
G36*
X44535005Y-70944704D02*
G01*
X44559273Y-70948304D01*
X44583072Y-70954265D01*
X44606171Y-70962530D01*
X44628350Y-70973020D01*
X44649393Y-70985632D01*
X44669099Y-71000247D01*
X44687277Y-71016723D01*
X44703753Y-71034901D01*
X44718368Y-71054607D01*
X44730980Y-71075650D01*
X44741470Y-71097829D01*
X44749735Y-71120928D01*
X44755696Y-71144727D01*
X44759296Y-71168995D01*
X44760500Y-71193499D01*
X44760500Y-72443501D01*
X44759296Y-72468005D01*
X44755696Y-72492273D01*
X44749735Y-72516072D01*
X44741470Y-72539171D01*
X44730980Y-72561350D01*
X44718368Y-72582393D01*
X44703753Y-72602099D01*
X44687277Y-72620277D01*
X44669099Y-72636753D01*
X44649393Y-72651368D01*
X44628350Y-72663980D01*
X44606171Y-72674470D01*
X44583072Y-72682735D01*
X44559273Y-72688696D01*
X44535005Y-72692296D01*
X44510501Y-72693500D01*
X43885499Y-72693500D01*
X43860995Y-72692296D01*
X43836727Y-72688696D01*
X43812928Y-72682735D01*
X43789829Y-72674470D01*
X43767650Y-72663980D01*
X43746607Y-72651368D01*
X43726901Y-72636753D01*
X43708723Y-72620277D01*
X43692247Y-72602099D01*
X43677632Y-72582393D01*
X43665020Y-72561350D01*
X43654530Y-72539171D01*
X43646265Y-72516072D01*
X43640304Y-72492273D01*
X43636704Y-72468005D01*
X43635500Y-72443501D01*
X43635500Y-71193499D01*
X43636704Y-71168995D01*
X43640304Y-71144727D01*
X43646265Y-71120928D01*
X43654530Y-71097829D01*
X43665020Y-71075650D01*
X43677632Y-71054607D01*
X43692247Y-71034901D01*
X43708723Y-71016723D01*
X43726901Y-71000247D01*
X43746607Y-70985632D01*
X43767650Y-70973020D01*
X43789829Y-70962530D01*
X43812928Y-70954265D01*
X43836727Y-70948304D01*
X43860995Y-70944704D01*
X43885499Y-70943500D01*
X44510501Y-70943500D01*
X44535005Y-70944704D01*
X44535005Y-70944704D01*
G37*
D15*
X44198000Y-71818500D03*
%TD*%
D11*
%TO.C,TH1*%
G36*
X41610005Y-78564704D02*
G01*
X41634273Y-78568304D01*
X41658072Y-78574265D01*
X41681171Y-78582530D01*
X41703350Y-78593020D01*
X41724393Y-78605632D01*
X41744099Y-78620247D01*
X41762277Y-78636723D01*
X41778753Y-78654901D01*
X41793368Y-78674607D01*
X41805980Y-78695650D01*
X41816470Y-78717829D01*
X41824735Y-78740928D01*
X41830696Y-78764727D01*
X41834296Y-78788995D01*
X41835500Y-78813499D01*
X41835500Y-80063501D01*
X41834296Y-80088005D01*
X41830696Y-80112273D01*
X41824735Y-80136072D01*
X41816470Y-80159171D01*
X41805980Y-80181350D01*
X41793368Y-80202393D01*
X41778753Y-80222099D01*
X41762277Y-80240277D01*
X41744099Y-80256753D01*
X41724393Y-80271368D01*
X41703350Y-80283980D01*
X41681171Y-80294470D01*
X41658072Y-80302735D01*
X41634273Y-80308696D01*
X41610005Y-80312296D01*
X41585501Y-80313500D01*
X40960499Y-80313500D01*
X40935995Y-80312296D01*
X40911727Y-80308696D01*
X40887928Y-80302735D01*
X40864829Y-80294470D01*
X40842650Y-80283980D01*
X40821607Y-80271368D01*
X40801901Y-80256753D01*
X40783723Y-80240277D01*
X40767247Y-80222099D01*
X40752632Y-80202393D01*
X40740020Y-80181350D01*
X40729530Y-80159171D01*
X40721265Y-80136072D01*
X40715304Y-80112273D01*
X40711704Y-80088005D01*
X40710500Y-80063501D01*
X40710500Y-78813499D01*
X40711704Y-78788995D01*
X40715304Y-78764727D01*
X40721265Y-78740928D01*
X40729530Y-78717829D01*
X40740020Y-78695650D01*
X40752632Y-78674607D01*
X40767247Y-78654901D01*
X40783723Y-78636723D01*
X40801901Y-78620247D01*
X40821607Y-78605632D01*
X40842650Y-78593020D01*
X40864829Y-78582530D01*
X40887928Y-78574265D01*
X40911727Y-78568304D01*
X40935995Y-78564704D01*
X40960499Y-78563500D01*
X41585501Y-78563500D01*
X41610005Y-78564704D01*
X41610005Y-78564704D01*
G37*
D15*
X41273000Y-79438500D03*
D11*
G36*
X44535005Y-78564704D02*
G01*
X44559273Y-78568304D01*
X44583072Y-78574265D01*
X44606171Y-78582530D01*
X44628350Y-78593020D01*
X44649393Y-78605632D01*
X44669099Y-78620247D01*
X44687277Y-78636723D01*
X44703753Y-78654901D01*
X44718368Y-78674607D01*
X44730980Y-78695650D01*
X44741470Y-78717829D01*
X44749735Y-78740928D01*
X44755696Y-78764727D01*
X44759296Y-78788995D01*
X44760500Y-78813499D01*
X44760500Y-80063501D01*
X44759296Y-80088005D01*
X44755696Y-80112273D01*
X44749735Y-80136072D01*
X44741470Y-80159171D01*
X44730980Y-80181350D01*
X44718368Y-80202393D01*
X44703753Y-80222099D01*
X44687277Y-80240277D01*
X44669099Y-80256753D01*
X44649393Y-80271368D01*
X44628350Y-80283980D01*
X44606171Y-80294470D01*
X44583072Y-80302735D01*
X44559273Y-80308696D01*
X44535005Y-80312296D01*
X44510501Y-80313500D01*
X43885499Y-80313500D01*
X43860995Y-80312296D01*
X43836727Y-80308696D01*
X43812928Y-80302735D01*
X43789829Y-80294470D01*
X43767650Y-80283980D01*
X43746607Y-80271368D01*
X43726901Y-80256753D01*
X43708723Y-80240277D01*
X43692247Y-80222099D01*
X43677632Y-80202393D01*
X43665020Y-80181350D01*
X43654530Y-80159171D01*
X43646265Y-80136072D01*
X43640304Y-80112273D01*
X43636704Y-80088005D01*
X43635500Y-80063501D01*
X43635500Y-78813499D01*
X43636704Y-78788995D01*
X43640304Y-78764727D01*
X43646265Y-78740928D01*
X43654530Y-78717829D01*
X43665020Y-78695650D01*
X43677632Y-78674607D01*
X43692247Y-78654901D01*
X43708723Y-78636723D01*
X43726901Y-78620247D01*
X43746607Y-78605632D01*
X43767650Y-78593020D01*
X43789829Y-78582530D01*
X43812928Y-78574265D01*
X43836727Y-78568304D01*
X43860995Y-78564704D01*
X43885499Y-78563500D01*
X44510501Y-78563500D01*
X44535005Y-78564704D01*
X44535005Y-78564704D01*
G37*
D15*
X44198000Y-79438500D03*
%TD*%
D11*
%TO.C,R8*%
G36*
X44109005Y-50291704D02*
G01*
X44133273Y-50295304D01*
X44157072Y-50301265D01*
X44180171Y-50309530D01*
X44202350Y-50320020D01*
X44223393Y-50332632D01*
X44243099Y-50347247D01*
X44261277Y-50363723D01*
X44277753Y-50381901D01*
X44292368Y-50401607D01*
X44304980Y-50422650D01*
X44315470Y-50444829D01*
X44323735Y-50467928D01*
X44329696Y-50491727D01*
X44333296Y-50515995D01*
X44334500Y-50540499D01*
X44334500Y-51440501D01*
X44333296Y-51465005D01*
X44329696Y-51489273D01*
X44323735Y-51513072D01*
X44315470Y-51536171D01*
X44304980Y-51558350D01*
X44292368Y-51579393D01*
X44277753Y-51599099D01*
X44261277Y-51617277D01*
X44243099Y-51633753D01*
X44223393Y-51648368D01*
X44202350Y-51660980D01*
X44180171Y-51671470D01*
X44157072Y-51679735D01*
X44133273Y-51685696D01*
X44109005Y-51689296D01*
X44084501Y-51690500D01*
X43559499Y-51690500D01*
X43534995Y-51689296D01*
X43510727Y-51685696D01*
X43486928Y-51679735D01*
X43463829Y-51671470D01*
X43441650Y-51660980D01*
X43420607Y-51648368D01*
X43400901Y-51633753D01*
X43382723Y-51617277D01*
X43366247Y-51599099D01*
X43351632Y-51579393D01*
X43339020Y-51558350D01*
X43328530Y-51536171D01*
X43320265Y-51513072D01*
X43314304Y-51489273D01*
X43310704Y-51465005D01*
X43309500Y-51440501D01*
X43309500Y-50540499D01*
X43310704Y-50515995D01*
X43314304Y-50491727D01*
X43320265Y-50467928D01*
X43328530Y-50444829D01*
X43339020Y-50422650D01*
X43351632Y-50401607D01*
X43366247Y-50381901D01*
X43382723Y-50363723D01*
X43400901Y-50347247D01*
X43420607Y-50332632D01*
X43441650Y-50320020D01*
X43463829Y-50309530D01*
X43486928Y-50301265D01*
X43510727Y-50295304D01*
X43534995Y-50291704D01*
X43559499Y-50290500D01*
X44084501Y-50290500D01*
X44109005Y-50291704D01*
X44109005Y-50291704D01*
G37*
D12*
X43822000Y-50990500D03*
D11*
G36*
X42284005Y-50291704D02*
G01*
X42308273Y-50295304D01*
X42332072Y-50301265D01*
X42355171Y-50309530D01*
X42377350Y-50320020D01*
X42398393Y-50332632D01*
X42418099Y-50347247D01*
X42436277Y-50363723D01*
X42452753Y-50381901D01*
X42467368Y-50401607D01*
X42479980Y-50422650D01*
X42490470Y-50444829D01*
X42498735Y-50467928D01*
X42504696Y-50491727D01*
X42508296Y-50515995D01*
X42509500Y-50540499D01*
X42509500Y-51440501D01*
X42508296Y-51465005D01*
X42504696Y-51489273D01*
X42498735Y-51513072D01*
X42490470Y-51536171D01*
X42479980Y-51558350D01*
X42467368Y-51579393D01*
X42452753Y-51599099D01*
X42436277Y-51617277D01*
X42418099Y-51633753D01*
X42398393Y-51648368D01*
X42377350Y-51660980D01*
X42355171Y-51671470D01*
X42332072Y-51679735D01*
X42308273Y-51685696D01*
X42284005Y-51689296D01*
X42259501Y-51690500D01*
X41734499Y-51690500D01*
X41709995Y-51689296D01*
X41685727Y-51685696D01*
X41661928Y-51679735D01*
X41638829Y-51671470D01*
X41616650Y-51660980D01*
X41595607Y-51648368D01*
X41575901Y-51633753D01*
X41557723Y-51617277D01*
X41541247Y-51599099D01*
X41526632Y-51579393D01*
X41514020Y-51558350D01*
X41503530Y-51536171D01*
X41495265Y-51513072D01*
X41489304Y-51489273D01*
X41485704Y-51465005D01*
X41484500Y-51440501D01*
X41484500Y-50540499D01*
X41485704Y-50515995D01*
X41489304Y-50491727D01*
X41495265Y-50467928D01*
X41503530Y-50444829D01*
X41514020Y-50422650D01*
X41526632Y-50401607D01*
X41541247Y-50381901D01*
X41557723Y-50363723D01*
X41575901Y-50347247D01*
X41595607Y-50332632D01*
X41616650Y-50320020D01*
X41638829Y-50309530D01*
X41661928Y-50301265D01*
X41685727Y-50295304D01*
X41709995Y-50291704D01*
X41734499Y-50290500D01*
X42259501Y-50290500D01*
X42284005Y-50291704D01*
X42284005Y-50291704D01*
G37*
D12*
X41997000Y-50990500D03*
%TD*%
D11*
%TO.C,R7*%
G36*
X44109005Y-42163704D02*
G01*
X44133273Y-42167304D01*
X44157072Y-42173265D01*
X44180171Y-42181530D01*
X44202350Y-42192020D01*
X44223393Y-42204632D01*
X44243099Y-42219247D01*
X44261277Y-42235723D01*
X44277753Y-42253901D01*
X44292368Y-42273607D01*
X44304980Y-42294650D01*
X44315470Y-42316829D01*
X44323735Y-42339928D01*
X44329696Y-42363727D01*
X44333296Y-42387995D01*
X44334500Y-42412499D01*
X44334500Y-43312501D01*
X44333296Y-43337005D01*
X44329696Y-43361273D01*
X44323735Y-43385072D01*
X44315470Y-43408171D01*
X44304980Y-43430350D01*
X44292368Y-43451393D01*
X44277753Y-43471099D01*
X44261277Y-43489277D01*
X44243099Y-43505753D01*
X44223393Y-43520368D01*
X44202350Y-43532980D01*
X44180171Y-43543470D01*
X44157072Y-43551735D01*
X44133273Y-43557696D01*
X44109005Y-43561296D01*
X44084501Y-43562500D01*
X43559499Y-43562500D01*
X43534995Y-43561296D01*
X43510727Y-43557696D01*
X43486928Y-43551735D01*
X43463829Y-43543470D01*
X43441650Y-43532980D01*
X43420607Y-43520368D01*
X43400901Y-43505753D01*
X43382723Y-43489277D01*
X43366247Y-43471099D01*
X43351632Y-43451393D01*
X43339020Y-43430350D01*
X43328530Y-43408171D01*
X43320265Y-43385072D01*
X43314304Y-43361273D01*
X43310704Y-43337005D01*
X43309500Y-43312501D01*
X43309500Y-42412499D01*
X43310704Y-42387995D01*
X43314304Y-42363727D01*
X43320265Y-42339928D01*
X43328530Y-42316829D01*
X43339020Y-42294650D01*
X43351632Y-42273607D01*
X43366247Y-42253901D01*
X43382723Y-42235723D01*
X43400901Y-42219247D01*
X43420607Y-42204632D01*
X43441650Y-42192020D01*
X43463829Y-42181530D01*
X43486928Y-42173265D01*
X43510727Y-42167304D01*
X43534995Y-42163704D01*
X43559499Y-42162500D01*
X44084501Y-42162500D01*
X44109005Y-42163704D01*
X44109005Y-42163704D01*
G37*
D12*
X43822000Y-42862500D03*
D11*
G36*
X42284005Y-42163704D02*
G01*
X42308273Y-42167304D01*
X42332072Y-42173265D01*
X42355171Y-42181530D01*
X42377350Y-42192020D01*
X42398393Y-42204632D01*
X42418099Y-42219247D01*
X42436277Y-42235723D01*
X42452753Y-42253901D01*
X42467368Y-42273607D01*
X42479980Y-42294650D01*
X42490470Y-42316829D01*
X42498735Y-42339928D01*
X42504696Y-42363727D01*
X42508296Y-42387995D01*
X42509500Y-42412499D01*
X42509500Y-43312501D01*
X42508296Y-43337005D01*
X42504696Y-43361273D01*
X42498735Y-43385072D01*
X42490470Y-43408171D01*
X42479980Y-43430350D01*
X42467368Y-43451393D01*
X42452753Y-43471099D01*
X42436277Y-43489277D01*
X42418099Y-43505753D01*
X42398393Y-43520368D01*
X42377350Y-43532980D01*
X42355171Y-43543470D01*
X42332072Y-43551735D01*
X42308273Y-43557696D01*
X42284005Y-43561296D01*
X42259501Y-43562500D01*
X41734499Y-43562500D01*
X41709995Y-43561296D01*
X41685727Y-43557696D01*
X41661928Y-43551735D01*
X41638829Y-43543470D01*
X41616650Y-43532980D01*
X41595607Y-43520368D01*
X41575901Y-43505753D01*
X41557723Y-43489277D01*
X41541247Y-43471099D01*
X41526632Y-43451393D01*
X41514020Y-43430350D01*
X41503530Y-43408171D01*
X41495265Y-43385072D01*
X41489304Y-43361273D01*
X41485704Y-43337005D01*
X41484500Y-43312501D01*
X41484500Y-42412499D01*
X41485704Y-42387995D01*
X41489304Y-42363727D01*
X41495265Y-42339928D01*
X41503530Y-42316829D01*
X41514020Y-42294650D01*
X41526632Y-42273607D01*
X41541247Y-42253901D01*
X41557723Y-42235723D01*
X41575901Y-42219247D01*
X41595607Y-42204632D01*
X41616650Y-42192020D01*
X41638829Y-42181530D01*
X41661928Y-42173265D01*
X41685727Y-42167304D01*
X41709995Y-42163704D01*
X41734499Y-42162500D01*
X42259501Y-42162500D01*
X42284005Y-42163704D01*
X42284005Y-42163704D01*
G37*
D12*
X41997000Y-42862500D03*
%TD*%
D11*
%TO.C,R6*%
G36*
X44109005Y-38099704D02*
G01*
X44133273Y-38103304D01*
X44157072Y-38109265D01*
X44180171Y-38117530D01*
X44202350Y-38128020D01*
X44223393Y-38140632D01*
X44243099Y-38155247D01*
X44261277Y-38171723D01*
X44277753Y-38189901D01*
X44292368Y-38209607D01*
X44304980Y-38230650D01*
X44315470Y-38252829D01*
X44323735Y-38275928D01*
X44329696Y-38299727D01*
X44333296Y-38323995D01*
X44334500Y-38348499D01*
X44334500Y-39248501D01*
X44333296Y-39273005D01*
X44329696Y-39297273D01*
X44323735Y-39321072D01*
X44315470Y-39344171D01*
X44304980Y-39366350D01*
X44292368Y-39387393D01*
X44277753Y-39407099D01*
X44261277Y-39425277D01*
X44243099Y-39441753D01*
X44223393Y-39456368D01*
X44202350Y-39468980D01*
X44180171Y-39479470D01*
X44157072Y-39487735D01*
X44133273Y-39493696D01*
X44109005Y-39497296D01*
X44084501Y-39498500D01*
X43559499Y-39498500D01*
X43534995Y-39497296D01*
X43510727Y-39493696D01*
X43486928Y-39487735D01*
X43463829Y-39479470D01*
X43441650Y-39468980D01*
X43420607Y-39456368D01*
X43400901Y-39441753D01*
X43382723Y-39425277D01*
X43366247Y-39407099D01*
X43351632Y-39387393D01*
X43339020Y-39366350D01*
X43328530Y-39344171D01*
X43320265Y-39321072D01*
X43314304Y-39297273D01*
X43310704Y-39273005D01*
X43309500Y-39248501D01*
X43309500Y-38348499D01*
X43310704Y-38323995D01*
X43314304Y-38299727D01*
X43320265Y-38275928D01*
X43328530Y-38252829D01*
X43339020Y-38230650D01*
X43351632Y-38209607D01*
X43366247Y-38189901D01*
X43382723Y-38171723D01*
X43400901Y-38155247D01*
X43420607Y-38140632D01*
X43441650Y-38128020D01*
X43463829Y-38117530D01*
X43486928Y-38109265D01*
X43510727Y-38103304D01*
X43534995Y-38099704D01*
X43559499Y-38098500D01*
X44084501Y-38098500D01*
X44109005Y-38099704D01*
X44109005Y-38099704D01*
G37*
D12*
X43822000Y-38798500D03*
D11*
G36*
X42284005Y-38099704D02*
G01*
X42308273Y-38103304D01*
X42332072Y-38109265D01*
X42355171Y-38117530D01*
X42377350Y-38128020D01*
X42398393Y-38140632D01*
X42418099Y-38155247D01*
X42436277Y-38171723D01*
X42452753Y-38189901D01*
X42467368Y-38209607D01*
X42479980Y-38230650D01*
X42490470Y-38252829D01*
X42498735Y-38275928D01*
X42504696Y-38299727D01*
X42508296Y-38323995D01*
X42509500Y-38348499D01*
X42509500Y-39248501D01*
X42508296Y-39273005D01*
X42504696Y-39297273D01*
X42498735Y-39321072D01*
X42490470Y-39344171D01*
X42479980Y-39366350D01*
X42467368Y-39387393D01*
X42452753Y-39407099D01*
X42436277Y-39425277D01*
X42418099Y-39441753D01*
X42398393Y-39456368D01*
X42377350Y-39468980D01*
X42355171Y-39479470D01*
X42332072Y-39487735D01*
X42308273Y-39493696D01*
X42284005Y-39497296D01*
X42259501Y-39498500D01*
X41734499Y-39498500D01*
X41709995Y-39497296D01*
X41685727Y-39493696D01*
X41661928Y-39487735D01*
X41638829Y-39479470D01*
X41616650Y-39468980D01*
X41595607Y-39456368D01*
X41575901Y-39441753D01*
X41557723Y-39425277D01*
X41541247Y-39407099D01*
X41526632Y-39387393D01*
X41514020Y-39366350D01*
X41503530Y-39344171D01*
X41495265Y-39321072D01*
X41489304Y-39297273D01*
X41485704Y-39273005D01*
X41484500Y-39248501D01*
X41484500Y-38348499D01*
X41485704Y-38323995D01*
X41489304Y-38299727D01*
X41495265Y-38275928D01*
X41503530Y-38252829D01*
X41514020Y-38230650D01*
X41526632Y-38209607D01*
X41541247Y-38189901D01*
X41557723Y-38171723D01*
X41575901Y-38155247D01*
X41595607Y-38140632D01*
X41616650Y-38128020D01*
X41638829Y-38117530D01*
X41661928Y-38109265D01*
X41685727Y-38103304D01*
X41709995Y-38099704D01*
X41734499Y-38098500D01*
X42259501Y-38098500D01*
X42284005Y-38099704D01*
X42284005Y-38099704D01*
G37*
D12*
X41997000Y-38798500D03*
%TD*%
D11*
%TO.C,R5*%
G36*
X44109005Y-34035704D02*
G01*
X44133273Y-34039304D01*
X44157072Y-34045265D01*
X44180171Y-34053530D01*
X44202350Y-34064020D01*
X44223393Y-34076632D01*
X44243099Y-34091247D01*
X44261277Y-34107723D01*
X44277753Y-34125901D01*
X44292368Y-34145607D01*
X44304980Y-34166650D01*
X44315470Y-34188829D01*
X44323735Y-34211928D01*
X44329696Y-34235727D01*
X44333296Y-34259995D01*
X44334500Y-34284499D01*
X44334500Y-35184501D01*
X44333296Y-35209005D01*
X44329696Y-35233273D01*
X44323735Y-35257072D01*
X44315470Y-35280171D01*
X44304980Y-35302350D01*
X44292368Y-35323393D01*
X44277753Y-35343099D01*
X44261277Y-35361277D01*
X44243099Y-35377753D01*
X44223393Y-35392368D01*
X44202350Y-35404980D01*
X44180171Y-35415470D01*
X44157072Y-35423735D01*
X44133273Y-35429696D01*
X44109005Y-35433296D01*
X44084501Y-35434500D01*
X43559499Y-35434500D01*
X43534995Y-35433296D01*
X43510727Y-35429696D01*
X43486928Y-35423735D01*
X43463829Y-35415470D01*
X43441650Y-35404980D01*
X43420607Y-35392368D01*
X43400901Y-35377753D01*
X43382723Y-35361277D01*
X43366247Y-35343099D01*
X43351632Y-35323393D01*
X43339020Y-35302350D01*
X43328530Y-35280171D01*
X43320265Y-35257072D01*
X43314304Y-35233273D01*
X43310704Y-35209005D01*
X43309500Y-35184501D01*
X43309500Y-34284499D01*
X43310704Y-34259995D01*
X43314304Y-34235727D01*
X43320265Y-34211928D01*
X43328530Y-34188829D01*
X43339020Y-34166650D01*
X43351632Y-34145607D01*
X43366247Y-34125901D01*
X43382723Y-34107723D01*
X43400901Y-34091247D01*
X43420607Y-34076632D01*
X43441650Y-34064020D01*
X43463829Y-34053530D01*
X43486928Y-34045265D01*
X43510727Y-34039304D01*
X43534995Y-34035704D01*
X43559499Y-34034500D01*
X44084501Y-34034500D01*
X44109005Y-34035704D01*
X44109005Y-34035704D01*
G37*
D12*
X43822000Y-34734500D03*
D11*
G36*
X42284005Y-34035704D02*
G01*
X42308273Y-34039304D01*
X42332072Y-34045265D01*
X42355171Y-34053530D01*
X42377350Y-34064020D01*
X42398393Y-34076632D01*
X42418099Y-34091247D01*
X42436277Y-34107723D01*
X42452753Y-34125901D01*
X42467368Y-34145607D01*
X42479980Y-34166650D01*
X42490470Y-34188829D01*
X42498735Y-34211928D01*
X42504696Y-34235727D01*
X42508296Y-34259995D01*
X42509500Y-34284499D01*
X42509500Y-35184501D01*
X42508296Y-35209005D01*
X42504696Y-35233273D01*
X42498735Y-35257072D01*
X42490470Y-35280171D01*
X42479980Y-35302350D01*
X42467368Y-35323393D01*
X42452753Y-35343099D01*
X42436277Y-35361277D01*
X42418099Y-35377753D01*
X42398393Y-35392368D01*
X42377350Y-35404980D01*
X42355171Y-35415470D01*
X42332072Y-35423735D01*
X42308273Y-35429696D01*
X42284005Y-35433296D01*
X42259501Y-35434500D01*
X41734499Y-35434500D01*
X41709995Y-35433296D01*
X41685727Y-35429696D01*
X41661928Y-35423735D01*
X41638829Y-35415470D01*
X41616650Y-35404980D01*
X41595607Y-35392368D01*
X41575901Y-35377753D01*
X41557723Y-35361277D01*
X41541247Y-35343099D01*
X41526632Y-35323393D01*
X41514020Y-35302350D01*
X41503530Y-35280171D01*
X41495265Y-35257072D01*
X41489304Y-35233273D01*
X41485704Y-35209005D01*
X41484500Y-35184501D01*
X41484500Y-34284499D01*
X41485704Y-34259995D01*
X41489304Y-34235727D01*
X41495265Y-34211928D01*
X41503530Y-34188829D01*
X41514020Y-34166650D01*
X41526632Y-34145607D01*
X41541247Y-34125901D01*
X41557723Y-34107723D01*
X41575901Y-34091247D01*
X41595607Y-34076632D01*
X41616650Y-34064020D01*
X41638829Y-34053530D01*
X41661928Y-34045265D01*
X41685727Y-34039304D01*
X41709995Y-34035704D01*
X41734499Y-34034500D01*
X42259501Y-34034500D01*
X42284005Y-34035704D01*
X42284005Y-34035704D01*
G37*
D12*
X41997000Y-34734500D03*
%TD*%
D11*
%TO.C,R3*%
G36*
X43935005Y-46227704D02*
G01*
X43959273Y-46231304D01*
X43983072Y-46237265D01*
X44006171Y-46245530D01*
X44028350Y-46256020D01*
X44049393Y-46268632D01*
X44069099Y-46283247D01*
X44087277Y-46299723D01*
X44103753Y-46317901D01*
X44118368Y-46337607D01*
X44130980Y-46358650D01*
X44141470Y-46380829D01*
X44149735Y-46403928D01*
X44155696Y-46427727D01*
X44159296Y-46451995D01*
X44160500Y-46476499D01*
X44160500Y-47376501D01*
X44159296Y-47401005D01*
X44155696Y-47425273D01*
X44149735Y-47449072D01*
X44141470Y-47472171D01*
X44130980Y-47494350D01*
X44118368Y-47515393D01*
X44103753Y-47535099D01*
X44087277Y-47553277D01*
X44069099Y-47569753D01*
X44049393Y-47584368D01*
X44028350Y-47596980D01*
X44006171Y-47607470D01*
X43983072Y-47615735D01*
X43959273Y-47621696D01*
X43935005Y-47625296D01*
X43910501Y-47626500D01*
X43385499Y-47626500D01*
X43360995Y-47625296D01*
X43336727Y-47621696D01*
X43312928Y-47615735D01*
X43289829Y-47607470D01*
X43267650Y-47596980D01*
X43246607Y-47584368D01*
X43226901Y-47569753D01*
X43208723Y-47553277D01*
X43192247Y-47535099D01*
X43177632Y-47515393D01*
X43165020Y-47494350D01*
X43154530Y-47472171D01*
X43146265Y-47449072D01*
X43140304Y-47425273D01*
X43136704Y-47401005D01*
X43135500Y-47376501D01*
X43135500Y-46476499D01*
X43136704Y-46451995D01*
X43140304Y-46427727D01*
X43146265Y-46403928D01*
X43154530Y-46380829D01*
X43165020Y-46358650D01*
X43177632Y-46337607D01*
X43192247Y-46317901D01*
X43208723Y-46299723D01*
X43226901Y-46283247D01*
X43246607Y-46268632D01*
X43267650Y-46256020D01*
X43289829Y-46245530D01*
X43312928Y-46237265D01*
X43336727Y-46231304D01*
X43360995Y-46227704D01*
X43385499Y-46226500D01*
X43910501Y-46226500D01*
X43935005Y-46227704D01*
X43935005Y-46227704D01*
G37*
D12*
X43648000Y-46926500D03*
D11*
G36*
X42110005Y-46227704D02*
G01*
X42134273Y-46231304D01*
X42158072Y-46237265D01*
X42181171Y-46245530D01*
X42203350Y-46256020D01*
X42224393Y-46268632D01*
X42244099Y-46283247D01*
X42262277Y-46299723D01*
X42278753Y-46317901D01*
X42293368Y-46337607D01*
X42305980Y-46358650D01*
X42316470Y-46380829D01*
X42324735Y-46403928D01*
X42330696Y-46427727D01*
X42334296Y-46451995D01*
X42335500Y-46476499D01*
X42335500Y-47376501D01*
X42334296Y-47401005D01*
X42330696Y-47425273D01*
X42324735Y-47449072D01*
X42316470Y-47472171D01*
X42305980Y-47494350D01*
X42293368Y-47515393D01*
X42278753Y-47535099D01*
X42262277Y-47553277D01*
X42244099Y-47569753D01*
X42224393Y-47584368D01*
X42203350Y-47596980D01*
X42181171Y-47607470D01*
X42158072Y-47615735D01*
X42134273Y-47621696D01*
X42110005Y-47625296D01*
X42085501Y-47626500D01*
X41560499Y-47626500D01*
X41535995Y-47625296D01*
X41511727Y-47621696D01*
X41487928Y-47615735D01*
X41464829Y-47607470D01*
X41442650Y-47596980D01*
X41421607Y-47584368D01*
X41401901Y-47569753D01*
X41383723Y-47553277D01*
X41367247Y-47535099D01*
X41352632Y-47515393D01*
X41340020Y-47494350D01*
X41329530Y-47472171D01*
X41321265Y-47449072D01*
X41315304Y-47425273D01*
X41311704Y-47401005D01*
X41310500Y-47376501D01*
X41310500Y-46476499D01*
X41311704Y-46451995D01*
X41315304Y-46427727D01*
X41321265Y-46403928D01*
X41329530Y-46380829D01*
X41340020Y-46358650D01*
X41352632Y-46337607D01*
X41367247Y-46317901D01*
X41383723Y-46299723D01*
X41401901Y-46283247D01*
X41421607Y-46268632D01*
X41442650Y-46256020D01*
X41464829Y-46245530D01*
X41487928Y-46237265D01*
X41511727Y-46231304D01*
X41535995Y-46227704D01*
X41560499Y-46226500D01*
X42085501Y-46226500D01*
X42110005Y-46227704D01*
X42110005Y-46227704D01*
G37*
D12*
X41823000Y-46926500D03*
%TD*%
D11*
%TO.C,R2*%
G36*
X44109005Y-29971704D02*
G01*
X44133273Y-29975304D01*
X44157072Y-29981265D01*
X44180171Y-29989530D01*
X44202350Y-30000020D01*
X44223393Y-30012632D01*
X44243099Y-30027247D01*
X44261277Y-30043723D01*
X44277753Y-30061901D01*
X44292368Y-30081607D01*
X44304980Y-30102650D01*
X44315470Y-30124829D01*
X44323735Y-30147928D01*
X44329696Y-30171727D01*
X44333296Y-30195995D01*
X44334500Y-30220499D01*
X44334500Y-31120501D01*
X44333296Y-31145005D01*
X44329696Y-31169273D01*
X44323735Y-31193072D01*
X44315470Y-31216171D01*
X44304980Y-31238350D01*
X44292368Y-31259393D01*
X44277753Y-31279099D01*
X44261277Y-31297277D01*
X44243099Y-31313753D01*
X44223393Y-31328368D01*
X44202350Y-31340980D01*
X44180171Y-31351470D01*
X44157072Y-31359735D01*
X44133273Y-31365696D01*
X44109005Y-31369296D01*
X44084501Y-31370500D01*
X43559499Y-31370500D01*
X43534995Y-31369296D01*
X43510727Y-31365696D01*
X43486928Y-31359735D01*
X43463829Y-31351470D01*
X43441650Y-31340980D01*
X43420607Y-31328368D01*
X43400901Y-31313753D01*
X43382723Y-31297277D01*
X43366247Y-31279099D01*
X43351632Y-31259393D01*
X43339020Y-31238350D01*
X43328530Y-31216171D01*
X43320265Y-31193072D01*
X43314304Y-31169273D01*
X43310704Y-31145005D01*
X43309500Y-31120501D01*
X43309500Y-30220499D01*
X43310704Y-30195995D01*
X43314304Y-30171727D01*
X43320265Y-30147928D01*
X43328530Y-30124829D01*
X43339020Y-30102650D01*
X43351632Y-30081607D01*
X43366247Y-30061901D01*
X43382723Y-30043723D01*
X43400901Y-30027247D01*
X43420607Y-30012632D01*
X43441650Y-30000020D01*
X43463829Y-29989530D01*
X43486928Y-29981265D01*
X43510727Y-29975304D01*
X43534995Y-29971704D01*
X43559499Y-29970500D01*
X44084501Y-29970500D01*
X44109005Y-29971704D01*
X44109005Y-29971704D01*
G37*
D12*
X43822000Y-30670500D03*
D11*
G36*
X42284005Y-29971704D02*
G01*
X42308273Y-29975304D01*
X42332072Y-29981265D01*
X42355171Y-29989530D01*
X42377350Y-30000020D01*
X42398393Y-30012632D01*
X42418099Y-30027247D01*
X42436277Y-30043723D01*
X42452753Y-30061901D01*
X42467368Y-30081607D01*
X42479980Y-30102650D01*
X42490470Y-30124829D01*
X42498735Y-30147928D01*
X42504696Y-30171727D01*
X42508296Y-30195995D01*
X42509500Y-30220499D01*
X42509500Y-31120501D01*
X42508296Y-31145005D01*
X42504696Y-31169273D01*
X42498735Y-31193072D01*
X42490470Y-31216171D01*
X42479980Y-31238350D01*
X42467368Y-31259393D01*
X42452753Y-31279099D01*
X42436277Y-31297277D01*
X42418099Y-31313753D01*
X42398393Y-31328368D01*
X42377350Y-31340980D01*
X42355171Y-31351470D01*
X42332072Y-31359735D01*
X42308273Y-31365696D01*
X42284005Y-31369296D01*
X42259501Y-31370500D01*
X41734499Y-31370500D01*
X41709995Y-31369296D01*
X41685727Y-31365696D01*
X41661928Y-31359735D01*
X41638829Y-31351470D01*
X41616650Y-31340980D01*
X41595607Y-31328368D01*
X41575901Y-31313753D01*
X41557723Y-31297277D01*
X41541247Y-31279099D01*
X41526632Y-31259393D01*
X41514020Y-31238350D01*
X41503530Y-31216171D01*
X41495265Y-31193072D01*
X41489304Y-31169273D01*
X41485704Y-31145005D01*
X41484500Y-31120501D01*
X41484500Y-30220499D01*
X41485704Y-30195995D01*
X41489304Y-30171727D01*
X41495265Y-30147928D01*
X41503530Y-30124829D01*
X41514020Y-30102650D01*
X41526632Y-30081607D01*
X41541247Y-30061901D01*
X41557723Y-30043723D01*
X41575901Y-30027247D01*
X41595607Y-30012632D01*
X41616650Y-30000020D01*
X41638829Y-29989530D01*
X41661928Y-29981265D01*
X41685727Y-29975304D01*
X41709995Y-29971704D01*
X41734499Y-29970500D01*
X42259501Y-29970500D01*
X42284005Y-29971704D01*
X42284005Y-29971704D01*
G37*
D12*
X41997000Y-30670500D03*
%TD*%
D11*
%TO.C,R23*%
G36*
X88523005Y-33377704D02*
G01*
X88547273Y-33381304D01*
X88571072Y-33387265D01*
X88594171Y-33395530D01*
X88616350Y-33406020D01*
X88637393Y-33418632D01*
X88657099Y-33433247D01*
X88675277Y-33449723D01*
X88691753Y-33467901D01*
X88706368Y-33487607D01*
X88718980Y-33508650D01*
X88729470Y-33530829D01*
X88737735Y-33553928D01*
X88743696Y-33577727D01*
X88747296Y-33601995D01*
X88748500Y-33626499D01*
X88748500Y-34526501D01*
X88747296Y-34551005D01*
X88743696Y-34575273D01*
X88737735Y-34599072D01*
X88729470Y-34622171D01*
X88718980Y-34644350D01*
X88706368Y-34665393D01*
X88691753Y-34685099D01*
X88675277Y-34703277D01*
X88657099Y-34719753D01*
X88637393Y-34734368D01*
X88616350Y-34746980D01*
X88594171Y-34757470D01*
X88571072Y-34765735D01*
X88547273Y-34771696D01*
X88523005Y-34775296D01*
X88498501Y-34776500D01*
X87973499Y-34776500D01*
X87948995Y-34775296D01*
X87924727Y-34771696D01*
X87900928Y-34765735D01*
X87877829Y-34757470D01*
X87855650Y-34746980D01*
X87834607Y-34734368D01*
X87814901Y-34719753D01*
X87796723Y-34703277D01*
X87780247Y-34685099D01*
X87765632Y-34665393D01*
X87753020Y-34644350D01*
X87742530Y-34622171D01*
X87734265Y-34599072D01*
X87728304Y-34575273D01*
X87724704Y-34551005D01*
X87723500Y-34526501D01*
X87723500Y-33626499D01*
X87724704Y-33601995D01*
X87728304Y-33577727D01*
X87734265Y-33553928D01*
X87742530Y-33530829D01*
X87753020Y-33508650D01*
X87765632Y-33487607D01*
X87780247Y-33467901D01*
X87796723Y-33449723D01*
X87814901Y-33433247D01*
X87834607Y-33418632D01*
X87855650Y-33406020D01*
X87877829Y-33395530D01*
X87900928Y-33387265D01*
X87924727Y-33381304D01*
X87948995Y-33377704D01*
X87973499Y-33376500D01*
X88498501Y-33376500D01*
X88523005Y-33377704D01*
X88523005Y-33377704D01*
G37*
D12*
X88236000Y-34076500D03*
D11*
G36*
X86698005Y-33377704D02*
G01*
X86722273Y-33381304D01*
X86746072Y-33387265D01*
X86769171Y-33395530D01*
X86791350Y-33406020D01*
X86812393Y-33418632D01*
X86832099Y-33433247D01*
X86850277Y-33449723D01*
X86866753Y-33467901D01*
X86881368Y-33487607D01*
X86893980Y-33508650D01*
X86904470Y-33530829D01*
X86912735Y-33553928D01*
X86918696Y-33577727D01*
X86922296Y-33601995D01*
X86923500Y-33626499D01*
X86923500Y-34526501D01*
X86922296Y-34551005D01*
X86918696Y-34575273D01*
X86912735Y-34599072D01*
X86904470Y-34622171D01*
X86893980Y-34644350D01*
X86881368Y-34665393D01*
X86866753Y-34685099D01*
X86850277Y-34703277D01*
X86832099Y-34719753D01*
X86812393Y-34734368D01*
X86791350Y-34746980D01*
X86769171Y-34757470D01*
X86746072Y-34765735D01*
X86722273Y-34771696D01*
X86698005Y-34775296D01*
X86673501Y-34776500D01*
X86148499Y-34776500D01*
X86123995Y-34775296D01*
X86099727Y-34771696D01*
X86075928Y-34765735D01*
X86052829Y-34757470D01*
X86030650Y-34746980D01*
X86009607Y-34734368D01*
X85989901Y-34719753D01*
X85971723Y-34703277D01*
X85955247Y-34685099D01*
X85940632Y-34665393D01*
X85928020Y-34644350D01*
X85917530Y-34622171D01*
X85909265Y-34599072D01*
X85903304Y-34575273D01*
X85899704Y-34551005D01*
X85898500Y-34526501D01*
X85898500Y-33626499D01*
X85899704Y-33601995D01*
X85903304Y-33577727D01*
X85909265Y-33553928D01*
X85917530Y-33530829D01*
X85928020Y-33508650D01*
X85940632Y-33487607D01*
X85955247Y-33467901D01*
X85971723Y-33449723D01*
X85989901Y-33433247D01*
X86009607Y-33418632D01*
X86030650Y-33406020D01*
X86052829Y-33395530D01*
X86075928Y-33387265D01*
X86099727Y-33381304D01*
X86123995Y-33377704D01*
X86148499Y-33376500D01*
X86673501Y-33376500D01*
X86698005Y-33377704D01*
X86698005Y-33377704D01*
G37*
D12*
X86411000Y-34076500D03*
%TD*%
D11*
%TO.C,R22*%
G36*
X88523005Y-35917704D02*
G01*
X88547273Y-35921304D01*
X88571072Y-35927265D01*
X88594171Y-35935530D01*
X88616350Y-35946020D01*
X88637393Y-35958632D01*
X88657099Y-35973247D01*
X88675277Y-35989723D01*
X88691753Y-36007901D01*
X88706368Y-36027607D01*
X88718980Y-36048650D01*
X88729470Y-36070829D01*
X88737735Y-36093928D01*
X88743696Y-36117727D01*
X88747296Y-36141995D01*
X88748500Y-36166499D01*
X88748500Y-37066501D01*
X88747296Y-37091005D01*
X88743696Y-37115273D01*
X88737735Y-37139072D01*
X88729470Y-37162171D01*
X88718980Y-37184350D01*
X88706368Y-37205393D01*
X88691753Y-37225099D01*
X88675277Y-37243277D01*
X88657099Y-37259753D01*
X88637393Y-37274368D01*
X88616350Y-37286980D01*
X88594171Y-37297470D01*
X88571072Y-37305735D01*
X88547273Y-37311696D01*
X88523005Y-37315296D01*
X88498501Y-37316500D01*
X87973499Y-37316500D01*
X87948995Y-37315296D01*
X87924727Y-37311696D01*
X87900928Y-37305735D01*
X87877829Y-37297470D01*
X87855650Y-37286980D01*
X87834607Y-37274368D01*
X87814901Y-37259753D01*
X87796723Y-37243277D01*
X87780247Y-37225099D01*
X87765632Y-37205393D01*
X87753020Y-37184350D01*
X87742530Y-37162171D01*
X87734265Y-37139072D01*
X87728304Y-37115273D01*
X87724704Y-37091005D01*
X87723500Y-37066501D01*
X87723500Y-36166499D01*
X87724704Y-36141995D01*
X87728304Y-36117727D01*
X87734265Y-36093928D01*
X87742530Y-36070829D01*
X87753020Y-36048650D01*
X87765632Y-36027607D01*
X87780247Y-36007901D01*
X87796723Y-35989723D01*
X87814901Y-35973247D01*
X87834607Y-35958632D01*
X87855650Y-35946020D01*
X87877829Y-35935530D01*
X87900928Y-35927265D01*
X87924727Y-35921304D01*
X87948995Y-35917704D01*
X87973499Y-35916500D01*
X88498501Y-35916500D01*
X88523005Y-35917704D01*
X88523005Y-35917704D01*
G37*
D12*
X88236000Y-36616500D03*
D11*
G36*
X86698005Y-35917704D02*
G01*
X86722273Y-35921304D01*
X86746072Y-35927265D01*
X86769171Y-35935530D01*
X86791350Y-35946020D01*
X86812393Y-35958632D01*
X86832099Y-35973247D01*
X86850277Y-35989723D01*
X86866753Y-36007901D01*
X86881368Y-36027607D01*
X86893980Y-36048650D01*
X86904470Y-36070829D01*
X86912735Y-36093928D01*
X86918696Y-36117727D01*
X86922296Y-36141995D01*
X86923500Y-36166499D01*
X86923500Y-37066501D01*
X86922296Y-37091005D01*
X86918696Y-37115273D01*
X86912735Y-37139072D01*
X86904470Y-37162171D01*
X86893980Y-37184350D01*
X86881368Y-37205393D01*
X86866753Y-37225099D01*
X86850277Y-37243277D01*
X86832099Y-37259753D01*
X86812393Y-37274368D01*
X86791350Y-37286980D01*
X86769171Y-37297470D01*
X86746072Y-37305735D01*
X86722273Y-37311696D01*
X86698005Y-37315296D01*
X86673501Y-37316500D01*
X86148499Y-37316500D01*
X86123995Y-37315296D01*
X86099727Y-37311696D01*
X86075928Y-37305735D01*
X86052829Y-37297470D01*
X86030650Y-37286980D01*
X86009607Y-37274368D01*
X85989901Y-37259753D01*
X85971723Y-37243277D01*
X85955247Y-37225099D01*
X85940632Y-37205393D01*
X85928020Y-37184350D01*
X85917530Y-37162171D01*
X85909265Y-37139072D01*
X85903304Y-37115273D01*
X85899704Y-37091005D01*
X85898500Y-37066501D01*
X85898500Y-36166499D01*
X85899704Y-36141995D01*
X85903304Y-36117727D01*
X85909265Y-36093928D01*
X85917530Y-36070829D01*
X85928020Y-36048650D01*
X85940632Y-36027607D01*
X85955247Y-36007901D01*
X85971723Y-35989723D01*
X85989901Y-35973247D01*
X86009607Y-35958632D01*
X86030650Y-35946020D01*
X86052829Y-35935530D01*
X86075928Y-35927265D01*
X86099727Y-35921304D01*
X86123995Y-35917704D01*
X86148499Y-35916500D01*
X86673501Y-35916500D01*
X86698005Y-35917704D01*
X86698005Y-35917704D01*
G37*
D12*
X86411000Y-36616500D03*
%TD*%
D11*
%TO.C,R21*%
G36*
X88603005Y-38457704D02*
G01*
X88627273Y-38461304D01*
X88651072Y-38467265D01*
X88674171Y-38475530D01*
X88696350Y-38486020D01*
X88717393Y-38498632D01*
X88737099Y-38513247D01*
X88755277Y-38529723D01*
X88771753Y-38547901D01*
X88786368Y-38567607D01*
X88798980Y-38588650D01*
X88809470Y-38610829D01*
X88817735Y-38633928D01*
X88823696Y-38657727D01*
X88827296Y-38681995D01*
X88828500Y-38706499D01*
X88828500Y-39606501D01*
X88827296Y-39631005D01*
X88823696Y-39655273D01*
X88817735Y-39679072D01*
X88809470Y-39702171D01*
X88798980Y-39724350D01*
X88786368Y-39745393D01*
X88771753Y-39765099D01*
X88755277Y-39783277D01*
X88737099Y-39799753D01*
X88717393Y-39814368D01*
X88696350Y-39826980D01*
X88674171Y-39837470D01*
X88651072Y-39845735D01*
X88627273Y-39851696D01*
X88603005Y-39855296D01*
X88578501Y-39856500D01*
X88053499Y-39856500D01*
X88028995Y-39855296D01*
X88004727Y-39851696D01*
X87980928Y-39845735D01*
X87957829Y-39837470D01*
X87935650Y-39826980D01*
X87914607Y-39814368D01*
X87894901Y-39799753D01*
X87876723Y-39783277D01*
X87860247Y-39765099D01*
X87845632Y-39745393D01*
X87833020Y-39724350D01*
X87822530Y-39702171D01*
X87814265Y-39679072D01*
X87808304Y-39655273D01*
X87804704Y-39631005D01*
X87803500Y-39606501D01*
X87803500Y-38706499D01*
X87804704Y-38681995D01*
X87808304Y-38657727D01*
X87814265Y-38633928D01*
X87822530Y-38610829D01*
X87833020Y-38588650D01*
X87845632Y-38567607D01*
X87860247Y-38547901D01*
X87876723Y-38529723D01*
X87894901Y-38513247D01*
X87914607Y-38498632D01*
X87935650Y-38486020D01*
X87957829Y-38475530D01*
X87980928Y-38467265D01*
X88004727Y-38461304D01*
X88028995Y-38457704D01*
X88053499Y-38456500D01*
X88578501Y-38456500D01*
X88603005Y-38457704D01*
X88603005Y-38457704D01*
G37*
D12*
X88316000Y-39156500D03*
D11*
G36*
X86778005Y-38457704D02*
G01*
X86802273Y-38461304D01*
X86826072Y-38467265D01*
X86849171Y-38475530D01*
X86871350Y-38486020D01*
X86892393Y-38498632D01*
X86912099Y-38513247D01*
X86930277Y-38529723D01*
X86946753Y-38547901D01*
X86961368Y-38567607D01*
X86973980Y-38588650D01*
X86984470Y-38610829D01*
X86992735Y-38633928D01*
X86998696Y-38657727D01*
X87002296Y-38681995D01*
X87003500Y-38706499D01*
X87003500Y-39606501D01*
X87002296Y-39631005D01*
X86998696Y-39655273D01*
X86992735Y-39679072D01*
X86984470Y-39702171D01*
X86973980Y-39724350D01*
X86961368Y-39745393D01*
X86946753Y-39765099D01*
X86930277Y-39783277D01*
X86912099Y-39799753D01*
X86892393Y-39814368D01*
X86871350Y-39826980D01*
X86849171Y-39837470D01*
X86826072Y-39845735D01*
X86802273Y-39851696D01*
X86778005Y-39855296D01*
X86753501Y-39856500D01*
X86228499Y-39856500D01*
X86203995Y-39855296D01*
X86179727Y-39851696D01*
X86155928Y-39845735D01*
X86132829Y-39837470D01*
X86110650Y-39826980D01*
X86089607Y-39814368D01*
X86069901Y-39799753D01*
X86051723Y-39783277D01*
X86035247Y-39765099D01*
X86020632Y-39745393D01*
X86008020Y-39724350D01*
X85997530Y-39702171D01*
X85989265Y-39679072D01*
X85983304Y-39655273D01*
X85979704Y-39631005D01*
X85978500Y-39606501D01*
X85978500Y-38706499D01*
X85979704Y-38681995D01*
X85983304Y-38657727D01*
X85989265Y-38633928D01*
X85997530Y-38610829D01*
X86008020Y-38588650D01*
X86020632Y-38567607D01*
X86035247Y-38547901D01*
X86051723Y-38529723D01*
X86069901Y-38513247D01*
X86089607Y-38498632D01*
X86110650Y-38486020D01*
X86132829Y-38475530D01*
X86155928Y-38467265D01*
X86179727Y-38461304D01*
X86203995Y-38457704D01*
X86228499Y-38456500D01*
X86753501Y-38456500D01*
X86778005Y-38457704D01*
X86778005Y-38457704D01*
G37*
D12*
X86491000Y-39156500D03*
%TD*%
D11*
%TO.C,R20*%
G36*
X88523005Y-40997704D02*
G01*
X88547273Y-41001304D01*
X88571072Y-41007265D01*
X88594171Y-41015530D01*
X88616350Y-41026020D01*
X88637393Y-41038632D01*
X88657099Y-41053247D01*
X88675277Y-41069723D01*
X88691753Y-41087901D01*
X88706368Y-41107607D01*
X88718980Y-41128650D01*
X88729470Y-41150829D01*
X88737735Y-41173928D01*
X88743696Y-41197727D01*
X88747296Y-41221995D01*
X88748500Y-41246499D01*
X88748500Y-42146501D01*
X88747296Y-42171005D01*
X88743696Y-42195273D01*
X88737735Y-42219072D01*
X88729470Y-42242171D01*
X88718980Y-42264350D01*
X88706368Y-42285393D01*
X88691753Y-42305099D01*
X88675277Y-42323277D01*
X88657099Y-42339753D01*
X88637393Y-42354368D01*
X88616350Y-42366980D01*
X88594171Y-42377470D01*
X88571072Y-42385735D01*
X88547273Y-42391696D01*
X88523005Y-42395296D01*
X88498501Y-42396500D01*
X87973499Y-42396500D01*
X87948995Y-42395296D01*
X87924727Y-42391696D01*
X87900928Y-42385735D01*
X87877829Y-42377470D01*
X87855650Y-42366980D01*
X87834607Y-42354368D01*
X87814901Y-42339753D01*
X87796723Y-42323277D01*
X87780247Y-42305099D01*
X87765632Y-42285393D01*
X87753020Y-42264350D01*
X87742530Y-42242171D01*
X87734265Y-42219072D01*
X87728304Y-42195273D01*
X87724704Y-42171005D01*
X87723500Y-42146501D01*
X87723500Y-41246499D01*
X87724704Y-41221995D01*
X87728304Y-41197727D01*
X87734265Y-41173928D01*
X87742530Y-41150829D01*
X87753020Y-41128650D01*
X87765632Y-41107607D01*
X87780247Y-41087901D01*
X87796723Y-41069723D01*
X87814901Y-41053247D01*
X87834607Y-41038632D01*
X87855650Y-41026020D01*
X87877829Y-41015530D01*
X87900928Y-41007265D01*
X87924727Y-41001304D01*
X87948995Y-40997704D01*
X87973499Y-40996500D01*
X88498501Y-40996500D01*
X88523005Y-40997704D01*
X88523005Y-40997704D01*
G37*
D12*
X88236000Y-41696500D03*
D11*
G36*
X86698005Y-40997704D02*
G01*
X86722273Y-41001304D01*
X86746072Y-41007265D01*
X86769171Y-41015530D01*
X86791350Y-41026020D01*
X86812393Y-41038632D01*
X86832099Y-41053247D01*
X86850277Y-41069723D01*
X86866753Y-41087901D01*
X86881368Y-41107607D01*
X86893980Y-41128650D01*
X86904470Y-41150829D01*
X86912735Y-41173928D01*
X86918696Y-41197727D01*
X86922296Y-41221995D01*
X86923500Y-41246499D01*
X86923500Y-42146501D01*
X86922296Y-42171005D01*
X86918696Y-42195273D01*
X86912735Y-42219072D01*
X86904470Y-42242171D01*
X86893980Y-42264350D01*
X86881368Y-42285393D01*
X86866753Y-42305099D01*
X86850277Y-42323277D01*
X86832099Y-42339753D01*
X86812393Y-42354368D01*
X86791350Y-42366980D01*
X86769171Y-42377470D01*
X86746072Y-42385735D01*
X86722273Y-42391696D01*
X86698005Y-42395296D01*
X86673501Y-42396500D01*
X86148499Y-42396500D01*
X86123995Y-42395296D01*
X86099727Y-42391696D01*
X86075928Y-42385735D01*
X86052829Y-42377470D01*
X86030650Y-42366980D01*
X86009607Y-42354368D01*
X85989901Y-42339753D01*
X85971723Y-42323277D01*
X85955247Y-42305099D01*
X85940632Y-42285393D01*
X85928020Y-42264350D01*
X85917530Y-42242171D01*
X85909265Y-42219072D01*
X85903304Y-42195273D01*
X85899704Y-42171005D01*
X85898500Y-42146501D01*
X85898500Y-41246499D01*
X85899704Y-41221995D01*
X85903304Y-41197727D01*
X85909265Y-41173928D01*
X85917530Y-41150829D01*
X85928020Y-41128650D01*
X85940632Y-41107607D01*
X85955247Y-41087901D01*
X85971723Y-41069723D01*
X85989901Y-41053247D01*
X86009607Y-41038632D01*
X86030650Y-41026020D01*
X86052829Y-41015530D01*
X86075928Y-41007265D01*
X86099727Y-41001304D01*
X86123995Y-40997704D01*
X86148499Y-40996500D01*
X86673501Y-40996500D01*
X86698005Y-40997704D01*
X86698005Y-40997704D01*
G37*
D12*
X86411000Y-41696500D03*
%TD*%
D11*
%TO.C,R19*%
G36*
X88523005Y-43537704D02*
G01*
X88547273Y-43541304D01*
X88571072Y-43547265D01*
X88594171Y-43555530D01*
X88616350Y-43566020D01*
X88637393Y-43578632D01*
X88657099Y-43593247D01*
X88675277Y-43609723D01*
X88691753Y-43627901D01*
X88706368Y-43647607D01*
X88718980Y-43668650D01*
X88729470Y-43690829D01*
X88737735Y-43713928D01*
X88743696Y-43737727D01*
X88747296Y-43761995D01*
X88748500Y-43786499D01*
X88748500Y-44686501D01*
X88747296Y-44711005D01*
X88743696Y-44735273D01*
X88737735Y-44759072D01*
X88729470Y-44782171D01*
X88718980Y-44804350D01*
X88706368Y-44825393D01*
X88691753Y-44845099D01*
X88675277Y-44863277D01*
X88657099Y-44879753D01*
X88637393Y-44894368D01*
X88616350Y-44906980D01*
X88594171Y-44917470D01*
X88571072Y-44925735D01*
X88547273Y-44931696D01*
X88523005Y-44935296D01*
X88498501Y-44936500D01*
X87973499Y-44936500D01*
X87948995Y-44935296D01*
X87924727Y-44931696D01*
X87900928Y-44925735D01*
X87877829Y-44917470D01*
X87855650Y-44906980D01*
X87834607Y-44894368D01*
X87814901Y-44879753D01*
X87796723Y-44863277D01*
X87780247Y-44845099D01*
X87765632Y-44825393D01*
X87753020Y-44804350D01*
X87742530Y-44782171D01*
X87734265Y-44759072D01*
X87728304Y-44735273D01*
X87724704Y-44711005D01*
X87723500Y-44686501D01*
X87723500Y-43786499D01*
X87724704Y-43761995D01*
X87728304Y-43737727D01*
X87734265Y-43713928D01*
X87742530Y-43690829D01*
X87753020Y-43668650D01*
X87765632Y-43647607D01*
X87780247Y-43627901D01*
X87796723Y-43609723D01*
X87814901Y-43593247D01*
X87834607Y-43578632D01*
X87855650Y-43566020D01*
X87877829Y-43555530D01*
X87900928Y-43547265D01*
X87924727Y-43541304D01*
X87948995Y-43537704D01*
X87973499Y-43536500D01*
X88498501Y-43536500D01*
X88523005Y-43537704D01*
X88523005Y-43537704D01*
G37*
D12*
X88236000Y-44236500D03*
D11*
G36*
X86698005Y-43537704D02*
G01*
X86722273Y-43541304D01*
X86746072Y-43547265D01*
X86769171Y-43555530D01*
X86791350Y-43566020D01*
X86812393Y-43578632D01*
X86832099Y-43593247D01*
X86850277Y-43609723D01*
X86866753Y-43627901D01*
X86881368Y-43647607D01*
X86893980Y-43668650D01*
X86904470Y-43690829D01*
X86912735Y-43713928D01*
X86918696Y-43737727D01*
X86922296Y-43761995D01*
X86923500Y-43786499D01*
X86923500Y-44686501D01*
X86922296Y-44711005D01*
X86918696Y-44735273D01*
X86912735Y-44759072D01*
X86904470Y-44782171D01*
X86893980Y-44804350D01*
X86881368Y-44825393D01*
X86866753Y-44845099D01*
X86850277Y-44863277D01*
X86832099Y-44879753D01*
X86812393Y-44894368D01*
X86791350Y-44906980D01*
X86769171Y-44917470D01*
X86746072Y-44925735D01*
X86722273Y-44931696D01*
X86698005Y-44935296D01*
X86673501Y-44936500D01*
X86148499Y-44936500D01*
X86123995Y-44935296D01*
X86099727Y-44931696D01*
X86075928Y-44925735D01*
X86052829Y-44917470D01*
X86030650Y-44906980D01*
X86009607Y-44894368D01*
X85989901Y-44879753D01*
X85971723Y-44863277D01*
X85955247Y-44845099D01*
X85940632Y-44825393D01*
X85928020Y-44804350D01*
X85917530Y-44782171D01*
X85909265Y-44759072D01*
X85903304Y-44735273D01*
X85899704Y-44711005D01*
X85898500Y-44686501D01*
X85898500Y-43786499D01*
X85899704Y-43761995D01*
X85903304Y-43737727D01*
X85909265Y-43713928D01*
X85917530Y-43690829D01*
X85928020Y-43668650D01*
X85940632Y-43647607D01*
X85955247Y-43627901D01*
X85971723Y-43609723D01*
X85989901Y-43593247D01*
X86009607Y-43578632D01*
X86030650Y-43566020D01*
X86052829Y-43555530D01*
X86075928Y-43547265D01*
X86099727Y-43541304D01*
X86123995Y-43537704D01*
X86148499Y-43536500D01*
X86673501Y-43536500D01*
X86698005Y-43537704D01*
X86698005Y-43537704D01*
G37*
D12*
X86411000Y-44236500D03*
%TD*%
D11*
%TO.C,R18*%
G36*
X88523005Y-46077704D02*
G01*
X88547273Y-46081304D01*
X88571072Y-46087265D01*
X88594171Y-46095530D01*
X88616350Y-46106020D01*
X88637393Y-46118632D01*
X88657099Y-46133247D01*
X88675277Y-46149723D01*
X88691753Y-46167901D01*
X88706368Y-46187607D01*
X88718980Y-46208650D01*
X88729470Y-46230829D01*
X88737735Y-46253928D01*
X88743696Y-46277727D01*
X88747296Y-46301995D01*
X88748500Y-46326499D01*
X88748500Y-47226501D01*
X88747296Y-47251005D01*
X88743696Y-47275273D01*
X88737735Y-47299072D01*
X88729470Y-47322171D01*
X88718980Y-47344350D01*
X88706368Y-47365393D01*
X88691753Y-47385099D01*
X88675277Y-47403277D01*
X88657099Y-47419753D01*
X88637393Y-47434368D01*
X88616350Y-47446980D01*
X88594171Y-47457470D01*
X88571072Y-47465735D01*
X88547273Y-47471696D01*
X88523005Y-47475296D01*
X88498501Y-47476500D01*
X87973499Y-47476500D01*
X87948995Y-47475296D01*
X87924727Y-47471696D01*
X87900928Y-47465735D01*
X87877829Y-47457470D01*
X87855650Y-47446980D01*
X87834607Y-47434368D01*
X87814901Y-47419753D01*
X87796723Y-47403277D01*
X87780247Y-47385099D01*
X87765632Y-47365393D01*
X87753020Y-47344350D01*
X87742530Y-47322171D01*
X87734265Y-47299072D01*
X87728304Y-47275273D01*
X87724704Y-47251005D01*
X87723500Y-47226501D01*
X87723500Y-46326499D01*
X87724704Y-46301995D01*
X87728304Y-46277727D01*
X87734265Y-46253928D01*
X87742530Y-46230829D01*
X87753020Y-46208650D01*
X87765632Y-46187607D01*
X87780247Y-46167901D01*
X87796723Y-46149723D01*
X87814901Y-46133247D01*
X87834607Y-46118632D01*
X87855650Y-46106020D01*
X87877829Y-46095530D01*
X87900928Y-46087265D01*
X87924727Y-46081304D01*
X87948995Y-46077704D01*
X87973499Y-46076500D01*
X88498501Y-46076500D01*
X88523005Y-46077704D01*
X88523005Y-46077704D01*
G37*
D12*
X88236000Y-46776500D03*
D11*
G36*
X86698005Y-46077704D02*
G01*
X86722273Y-46081304D01*
X86746072Y-46087265D01*
X86769171Y-46095530D01*
X86791350Y-46106020D01*
X86812393Y-46118632D01*
X86832099Y-46133247D01*
X86850277Y-46149723D01*
X86866753Y-46167901D01*
X86881368Y-46187607D01*
X86893980Y-46208650D01*
X86904470Y-46230829D01*
X86912735Y-46253928D01*
X86918696Y-46277727D01*
X86922296Y-46301995D01*
X86923500Y-46326499D01*
X86923500Y-47226501D01*
X86922296Y-47251005D01*
X86918696Y-47275273D01*
X86912735Y-47299072D01*
X86904470Y-47322171D01*
X86893980Y-47344350D01*
X86881368Y-47365393D01*
X86866753Y-47385099D01*
X86850277Y-47403277D01*
X86832099Y-47419753D01*
X86812393Y-47434368D01*
X86791350Y-47446980D01*
X86769171Y-47457470D01*
X86746072Y-47465735D01*
X86722273Y-47471696D01*
X86698005Y-47475296D01*
X86673501Y-47476500D01*
X86148499Y-47476500D01*
X86123995Y-47475296D01*
X86099727Y-47471696D01*
X86075928Y-47465735D01*
X86052829Y-47457470D01*
X86030650Y-47446980D01*
X86009607Y-47434368D01*
X85989901Y-47419753D01*
X85971723Y-47403277D01*
X85955247Y-47385099D01*
X85940632Y-47365393D01*
X85928020Y-47344350D01*
X85917530Y-47322171D01*
X85909265Y-47299072D01*
X85903304Y-47275273D01*
X85899704Y-47251005D01*
X85898500Y-47226501D01*
X85898500Y-46326499D01*
X85899704Y-46301995D01*
X85903304Y-46277727D01*
X85909265Y-46253928D01*
X85917530Y-46230829D01*
X85928020Y-46208650D01*
X85940632Y-46187607D01*
X85955247Y-46167901D01*
X85971723Y-46149723D01*
X85989901Y-46133247D01*
X86009607Y-46118632D01*
X86030650Y-46106020D01*
X86052829Y-46095530D01*
X86075928Y-46087265D01*
X86099727Y-46081304D01*
X86123995Y-46077704D01*
X86148499Y-46076500D01*
X86673501Y-46076500D01*
X86698005Y-46077704D01*
X86698005Y-46077704D01*
G37*
D12*
X86411000Y-46776500D03*
%TD*%
D11*
%TO.C,R17*%
G36*
X88523005Y-48617704D02*
G01*
X88547273Y-48621304D01*
X88571072Y-48627265D01*
X88594171Y-48635530D01*
X88616350Y-48646020D01*
X88637393Y-48658632D01*
X88657099Y-48673247D01*
X88675277Y-48689723D01*
X88691753Y-48707901D01*
X88706368Y-48727607D01*
X88718980Y-48748650D01*
X88729470Y-48770829D01*
X88737735Y-48793928D01*
X88743696Y-48817727D01*
X88747296Y-48841995D01*
X88748500Y-48866499D01*
X88748500Y-49766501D01*
X88747296Y-49791005D01*
X88743696Y-49815273D01*
X88737735Y-49839072D01*
X88729470Y-49862171D01*
X88718980Y-49884350D01*
X88706368Y-49905393D01*
X88691753Y-49925099D01*
X88675277Y-49943277D01*
X88657099Y-49959753D01*
X88637393Y-49974368D01*
X88616350Y-49986980D01*
X88594171Y-49997470D01*
X88571072Y-50005735D01*
X88547273Y-50011696D01*
X88523005Y-50015296D01*
X88498501Y-50016500D01*
X87973499Y-50016500D01*
X87948995Y-50015296D01*
X87924727Y-50011696D01*
X87900928Y-50005735D01*
X87877829Y-49997470D01*
X87855650Y-49986980D01*
X87834607Y-49974368D01*
X87814901Y-49959753D01*
X87796723Y-49943277D01*
X87780247Y-49925099D01*
X87765632Y-49905393D01*
X87753020Y-49884350D01*
X87742530Y-49862171D01*
X87734265Y-49839072D01*
X87728304Y-49815273D01*
X87724704Y-49791005D01*
X87723500Y-49766501D01*
X87723500Y-48866499D01*
X87724704Y-48841995D01*
X87728304Y-48817727D01*
X87734265Y-48793928D01*
X87742530Y-48770829D01*
X87753020Y-48748650D01*
X87765632Y-48727607D01*
X87780247Y-48707901D01*
X87796723Y-48689723D01*
X87814901Y-48673247D01*
X87834607Y-48658632D01*
X87855650Y-48646020D01*
X87877829Y-48635530D01*
X87900928Y-48627265D01*
X87924727Y-48621304D01*
X87948995Y-48617704D01*
X87973499Y-48616500D01*
X88498501Y-48616500D01*
X88523005Y-48617704D01*
X88523005Y-48617704D01*
G37*
D12*
X88236000Y-49316500D03*
D11*
G36*
X86698005Y-48617704D02*
G01*
X86722273Y-48621304D01*
X86746072Y-48627265D01*
X86769171Y-48635530D01*
X86791350Y-48646020D01*
X86812393Y-48658632D01*
X86832099Y-48673247D01*
X86850277Y-48689723D01*
X86866753Y-48707901D01*
X86881368Y-48727607D01*
X86893980Y-48748650D01*
X86904470Y-48770829D01*
X86912735Y-48793928D01*
X86918696Y-48817727D01*
X86922296Y-48841995D01*
X86923500Y-48866499D01*
X86923500Y-49766501D01*
X86922296Y-49791005D01*
X86918696Y-49815273D01*
X86912735Y-49839072D01*
X86904470Y-49862171D01*
X86893980Y-49884350D01*
X86881368Y-49905393D01*
X86866753Y-49925099D01*
X86850277Y-49943277D01*
X86832099Y-49959753D01*
X86812393Y-49974368D01*
X86791350Y-49986980D01*
X86769171Y-49997470D01*
X86746072Y-50005735D01*
X86722273Y-50011696D01*
X86698005Y-50015296D01*
X86673501Y-50016500D01*
X86148499Y-50016500D01*
X86123995Y-50015296D01*
X86099727Y-50011696D01*
X86075928Y-50005735D01*
X86052829Y-49997470D01*
X86030650Y-49986980D01*
X86009607Y-49974368D01*
X85989901Y-49959753D01*
X85971723Y-49943277D01*
X85955247Y-49925099D01*
X85940632Y-49905393D01*
X85928020Y-49884350D01*
X85917530Y-49862171D01*
X85909265Y-49839072D01*
X85903304Y-49815273D01*
X85899704Y-49791005D01*
X85898500Y-49766501D01*
X85898500Y-48866499D01*
X85899704Y-48841995D01*
X85903304Y-48817727D01*
X85909265Y-48793928D01*
X85917530Y-48770829D01*
X85928020Y-48748650D01*
X85940632Y-48727607D01*
X85955247Y-48707901D01*
X85971723Y-48689723D01*
X85989901Y-48673247D01*
X86009607Y-48658632D01*
X86030650Y-48646020D01*
X86052829Y-48635530D01*
X86075928Y-48627265D01*
X86099727Y-48621304D01*
X86123995Y-48617704D01*
X86148499Y-48616500D01*
X86673501Y-48616500D01*
X86698005Y-48617704D01*
X86698005Y-48617704D01*
G37*
D12*
X86411000Y-49316500D03*
%TD*%
D11*
%TO.C,R16*%
G36*
X88523005Y-51157704D02*
G01*
X88547273Y-51161304D01*
X88571072Y-51167265D01*
X88594171Y-51175530D01*
X88616350Y-51186020D01*
X88637393Y-51198632D01*
X88657099Y-51213247D01*
X88675277Y-51229723D01*
X88691753Y-51247901D01*
X88706368Y-51267607D01*
X88718980Y-51288650D01*
X88729470Y-51310829D01*
X88737735Y-51333928D01*
X88743696Y-51357727D01*
X88747296Y-51381995D01*
X88748500Y-51406499D01*
X88748500Y-52306501D01*
X88747296Y-52331005D01*
X88743696Y-52355273D01*
X88737735Y-52379072D01*
X88729470Y-52402171D01*
X88718980Y-52424350D01*
X88706368Y-52445393D01*
X88691753Y-52465099D01*
X88675277Y-52483277D01*
X88657099Y-52499753D01*
X88637393Y-52514368D01*
X88616350Y-52526980D01*
X88594171Y-52537470D01*
X88571072Y-52545735D01*
X88547273Y-52551696D01*
X88523005Y-52555296D01*
X88498501Y-52556500D01*
X87973499Y-52556500D01*
X87948995Y-52555296D01*
X87924727Y-52551696D01*
X87900928Y-52545735D01*
X87877829Y-52537470D01*
X87855650Y-52526980D01*
X87834607Y-52514368D01*
X87814901Y-52499753D01*
X87796723Y-52483277D01*
X87780247Y-52465099D01*
X87765632Y-52445393D01*
X87753020Y-52424350D01*
X87742530Y-52402171D01*
X87734265Y-52379072D01*
X87728304Y-52355273D01*
X87724704Y-52331005D01*
X87723500Y-52306501D01*
X87723500Y-51406499D01*
X87724704Y-51381995D01*
X87728304Y-51357727D01*
X87734265Y-51333928D01*
X87742530Y-51310829D01*
X87753020Y-51288650D01*
X87765632Y-51267607D01*
X87780247Y-51247901D01*
X87796723Y-51229723D01*
X87814901Y-51213247D01*
X87834607Y-51198632D01*
X87855650Y-51186020D01*
X87877829Y-51175530D01*
X87900928Y-51167265D01*
X87924727Y-51161304D01*
X87948995Y-51157704D01*
X87973499Y-51156500D01*
X88498501Y-51156500D01*
X88523005Y-51157704D01*
X88523005Y-51157704D01*
G37*
D12*
X88236000Y-51856500D03*
D11*
G36*
X86698005Y-51157704D02*
G01*
X86722273Y-51161304D01*
X86746072Y-51167265D01*
X86769171Y-51175530D01*
X86791350Y-51186020D01*
X86812393Y-51198632D01*
X86832099Y-51213247D01*
X86850277Y-51229723D01*
X86866753Y-51247901D01*
X86881368Y-51267607D01*
X86893980Y-51288650D01*
X86904470Y-51310829D01*
X86912735Y-51333928D01*
X86918696Y-51357727D01*
X86922296Y-51381995D01*
X86923500Y-51406499D01*
X86923500Y-52306501D01*
X86922296Y-52331005D01*
X86918696Y-52355273D01*
X86912735Y-52379072D01*
X86904470Y-52402171D01*
X86893980Y-52424350D01*
X86881368Y-52445393D01*
X86866753Y-52465099D01*
X86850277Y-52483277D01*
X86832099Y-52499753D01*
X86812393Y-52514368D01*
X86791350Y-52526980D01*
X86769171Y-52537470D01*
X86746072Y-52545735D01*
X86722273Y-52551696D01*
X86698005Y-52555296D01*
X86673501Y-52556500D01*
X86148499Y-52556500D01*
X86123995Y-52555296D01*
X86099727Y-52551696D01*
X86075928Y-52545735D01*
X86052829Y-52537470D01*
X86030650Y-52526980D01*
X86009607Y-52514368D01*
X85989901Y-52499753D01*
X85971723Y-52483277D01*
X85955247Y-52465099D01*
X85940632Y-52445393D01*
X85928020Y-52424350D01*
X85917530Y-52402171D01*
X85909265Y-52379072D01*
X85903304Y-52355273D01*
X85899704Y-52331005D01*
X85898500Y-52306501D01*
X85898500Y-51406499D01*
X85899704Y-51381995D01*
X85903304Y-51357727D01*
X85909265Y-51333928D01*
X85917530Y-51310829D01*
X85928020Y-51288650D01*
X85940632Y-51267607D01*
X85955247Y-51247901D01*
X85971723Y-51229723D01*
X85989901Y-51213247D01*
X86009607Y-51198632D01*
X86030650Y-51186020D01*
X86052829Y-51175530D01*
X86075928Y-51167265D01*
X86099727Y-51161304D01*
X86123995Y-51157704D01*
X86148499Y-51156500D01*
X86673501Y-51156500D01*
X86698005Y-51157704D01*
X86698005Y-51157704D01*
G37*
D12*
X86411000Y-51856500D03*
%TD*%
D11*
%TO.C,R15*%
G36*
X88523005Y-53697704D02*
G01*
X88547273Y-53701304D01*
X88571072Y-53707265D01*
X88594171Y-53715530D01*
X88616350Y-53726020D01*
X88637393Y-53738632D01*
X88657099Y-53753247D01*
X88675277Y-53769723D01*
X88691753Y-53787901D01*
X88706368Y-53807607D01*
X88718980Y-53828650D01*
X88729470Y-53850829D01*
X88737735Y-53873928D01*
X88743696Y-53897727D01*
X88747296Y-53921995D01*
X88748500Y-53946499D01*
X88748500Y-54846501D01*
X88747296Y-54871005D01*
X88743696Y-54895273D01*
X88737735Y-54919072D01*
X88729470Y-54942171D01*
X88718980Y-54964350D01*
X88706368Y-54985393D01*
X88691753Y-55005099D01*
X88675277Y-55023277D01*
X88657099Y-55039753D01*
X88637393Y-55054368D01*
X88616350Y-55066980D01*
X88594171Y-55077470D01*
X88571072Y-55085735D01*
X88547273Y-55091696D01*
X88523005Y-55095296D01*
X88498501Y-55096500D01*
X87973499Y-55096500D01*
X87948995Y-55095296D01*
X87924727Y-55091696D01*
X87900928Y-55085735D01*
X87877829Y-55077470D01*
X87855650Y-55066980D01*
X87834607Y-55054368D01*
X87814901Y-55039753D01*
X87796723Y-55023277D01*
X87780247Y-55005099D01*
X87765632Y-54985393D01*
X87753020Y-54964350D01*
X87742530Y-54942171D01*
X87734265Y-54919072D01*
X87728304Y-54895273D01*
X87724704Y-54871005D01*
X87723500Y-54846501D01*
X87723500Y-53946499D01*
X87724704Y-53921995D01*
X87728304Y-53897727D01*
X87734265Y-53873928D01*
X87742530Y-53850829D01*
X87753020Y-53828650D01*
X87765632Y-53807607D01*
X87780247Y-53787901D01*
X87796723Y-53769723D01*
X87814901Y-53753247D01*
X87834607Y-53738632D01*
X87855650Y-53726020D01*
X87877829Y-53715530D01*
X87900928Y-53707265D01*
X87924727Y-53701304D01*
X87948995Y-53697704D01*
X87973499Y-53696500D01*
X88498501Y-53696500D01*
X88523005Y-53697704D01*
X88523005Y-53697704D01*
G37*
D12*
X88236000Y-54396500D03*
D11*
G36*
X86698005Y-53697704D02*
G01*
X86722273Y-53701304D01*
X86746072Y-53707265D01*
X86769171Y-53715530D01*
X86791350Y-53726020D01*
X86812393Y-53738632D01*
X86832099Y-53753247D01*
X86850277Y-53769723D01*
X86866753Y-53787901D01*
X86881368Y-53807607D01*
X86893980Y-53828650D01*
X86904470Y-53850829D01*
X86912735Y-53873928D01*
X86918696Y-53897727D01*
X86922296Y-53921995D01*
X86923500Y-53946499D01*
X86923500Y-54846501D01*
X86922296Y-54871005D01*
X86918696Y-54895273D01*
X86912735Y-54919072D01*
X86904470Y-54942171D01*
X86893980Y-54964350D01*
X86881368Y-54985393D01*
X86866753Y-55005099D01*
X86850277Y-55023277D01*
X86832099Y-55039753D01*
X86812393Y-55054368D01*
X86791350Y-55066980D01*
X86769171Y-55077470D01*
X86746072Y-55085735D01*
X86722273Y-55091696D01*
X86698005Y-55095296D01*
X86673501Y-55096500D01*
X86148499Y-55096500D01*
X86123995Y-55095296D01*
X86099727Y-55091696D01*
X86075928Y-55085735D01*
X86052829Y-55077470D01*
X86030650Y-55066980D01*
X86009607Y-55054368D01*
X85989901Y-55039753D01*
X85971723Y-55023277D01*
X85955247Y-55005099D01*
X85940632Y-54985393D01*
X85928020Y-54964350D01*
X85917530Y-54942171D01*
X85909265Y-54919072D01*
X85903304Y-54895273D01*
X85899704Y-54871005D01*
X85898500Y-54846501D01*
X85898500Y-53946499D01*
X85899704Y-53921995D01*
X85903304Y-53897727D01*
X85909265Y-53873928D01*
X85917530Y-53850829D01*
X85928020Y-53828650D01*
X85940632Y-53807607D01*
X85955247Y-53787901D01*
X85971723Y-53769723D01*
X85989901Y-53753247D01*
X86009607Y-53738632D01*
X86030650Y-53726020D01*
X86052829Y-53715530D01*
X86075928Y-53707265D01*
X86099727Y-53701304D01*
X86123995Y-53697704D01*
X86148499Y-53696500D01*
X86673501Y-53696500D01*
X86698005Y-53697704D01*
X86698005Y-53697704D01*
G37*
D12*
X86411000Y-54396500D03*
%TD*%
D11*
%TO.C,R14*%
G36*
X88523005Y-56237704D02*
G01*
X88547273Y-56241304D01*
X88571072Y-56247265D01*
X88594171Y-56255530D01*
X88616350Y-56266020D01*
X88637393Y-56278632D01*
X88657099Y-56293247D01*
X88675277Y-56309723D01*
X88691753Y-56327901D01*
X88706368Y-56347607D01*
X88718980Y-56368650D01*
X88729470Y-56390829D01*
X88737735Y-56413928D01*
X88743696Y-56437727D01*
X88747296Y-56461995D01*
X88748500Y-56486499D01*
X88748500Y-57386501D01*
X88747296Y-57411005D01*
X88743696Y-57435273D01*
X88737735Y-57459072D01*
X88729470Y-57482171D01*
X88718980Y-57504350D01*
X88706368Y-57525393D01*
X88691753Y-57545099D01*
X88675277Y-57563277D01*
X88657099Y-57579753D01*
X88637393Y-57594368D01*
X88616350Y-57606980D01*
X88594171Y-57617470D01*
X88571072Y-57625735D01*
X88547273Y-57631696D01*
X88523005Y-57635296D01*
X88498501Y-57636500D01*
X87973499Y-57636500D01*
X87948995Y-57635296D01*
X87924727Y-57631696D01*
X87900928Y-57625735D01*
X87877829Y-57617470D01*
X87855650Y-57606980D01*
X87834607Y-57594368D01*
X87814901Y-57579753D01*
X87796723Y-57563277D01*
X87780247Y-57545099D01*
X87765632Y-57525393D01*
X87753020Y-57504350D01*
X87742530Y-57482171D01*
X87734265Y-57459072D01*
X87728304Y-57435273D01*
X87724704Y-57411005D01*
X87723500Y-57386501D01*
X87723500Y-56486499D01*
X87724704Y-56461995D01*
X87728304Y-56437727D01*
X87734265Y-56413928D01*
X87742530Y-56390829D01*
X87753020Y-56368650D01*
X87765632Y-56347607D01*
X87780247Y-56327901D01*
X87796723Y-56309723D01*
X87814901Y-56293247D01*
X87834607Y-56278632D01*
X87855650Y-56266020D01*
X87877829Y-56255530D01*
X87900928Y-56247265D01*
X87924727Y-56241304D01*
X87948995Y-56237704D01*
X87973499Y-56236500D01*
X88498501Y-56236500D01*
X88523005Y-56237704D01*
X88523005Y-56237704D01*
G37*
D12*
X88236000Y-56936500D03*
D11*
G36*
X86698005Y-56237704D02*
G01*
X86722273Y-56241304D01*
X86746072Y-56247265D01*
X86769171Y-56255530D01*
X86791350Y-56266020D01*
X86812393Y-56278632D01*
X86832099Y-56293247D01*
X86850277Y-56309723D01*
X86866753Y-56327901D01*
X86881368Y-56347607D01*
X86893980Y-56368650D01*
X86904470Y-56390829D01*
X86912735Y-56413928D01*
X86918696Y-56437727D01*
X86922296Y-56461995D01*
X86923500Y-56486499D01*
X86923500Y-57386501D01*
X86922296Y-57411005D01*
X86918696Y-57435273D01*
X86912735Y-57459072D01*
X86904470Y-57482171D01*
X86893980Y-57504350D01*
X86881368Y-57525393D01*
X86866753Y-57545099D01*
X86850277Y-57563277D01*
X86832099Y-57579753D01*
X86812393Y-57594368D01*
X86791350Y-57606980D01*
X86769171Y-57617470D01*
X86746072Y-57625735D01*
X86722273Y-57631696D01*
X86698005Y-57635296D01*
X86673501Y-57636500D01*
X86148499Y-57636500D01*
X86123995Y-57635296D01*
X86099727Y-57631696D01*
X86075928Y-57625735D01*
X86052829Y-57617470D01*
X86030650Y-57606980D01*
X86009607Y-57594368D01*
X85989901Y-57579753D01*
X85971723Y-57563277D01*
X85955247Y-57545099D01*
X85940632Y-57525393D01*
X85928020Y-57504350D01*
X85917530Y-57482171D01*
X85909265Y-57459072D01*
X85903304Y-57435273D01*
X85899704Y-57411005D01*
X85898500Y-57386501D01*
X85898500Y-56486499D01*
X85899704Y-56461995D01*
X85903304Y-56437727D01*
X85909265Y-56413928D01*
X85917530Y-56390829D01*
X85928020Y-56368650D01*
X85940632Y-56347607D01*
X85955247Y-56327901D01*
X85971723Y-56309723D01*
X85989901Y-56293247D01*
X86009607Y-56278632D01*
X86030650Y-56266020D01*
X86052829Y-56255530D01*
X86075928Y-56247265D01*
X86099727Y-56241304D01*
X86123995Y-56237704D01*
X86148499Y-56236500D01*
X86673501Y-56236500D01*
X86698005Y-56237704D01*
X86698005Y-56237704D01*
G37*
D12*
X86411000Y-56936500D03*
%TD*%
D11*
%TO.C,R13*%
G36*
X88523005Y-58777704D02*
G01*
X88547273Y-58781304D01*
X88571072Y-58787265D01*
X88594171Y-58795530D01*
X88616350Y-58806020D01*
X88637393Y-58818632D01*
X88657099Y-58833247D01*
X88675277Y-58849723D01*
X88691753Y-58867901D01*
X88706368Y-58887607D01*
X88718980Y-58908650D01*
X88729470Y-58930829D01*
X88737735Y-58953928D01*
X88743696Y-58977727D01*
X88747296Y-59001995D01*
X88748500Y-59026499D01*
X88748500Y-59926501D01*
X88747296Y-59951005D01*
X88743696Y-59975273D01*
X88737735Y-59999072D01*
X88729470Y-60022171D01*
X88718980Y-60044350D01*
X88706368Y-60065393D01*
X88691753Y-60085099D01*
X88675277Y-60103277D01*
X88657099Y-60119753D01*
X88637393Y-60134368D01*
X88616350Y-60146980D01*
X88594171Y-60157470D01*
X88571072Y-60165735D01*
X88547273Y-60171696D01*
X88523005Y-60175296D01*
X88498501Y-60176500D01*
X87973499Y-60176500D01*
X87948995Y-60175296D01*
X87924727Y-60171696D01*
X87900928Y-60165735D01*
X87877829Y-60157470D01*
X87855650Y-60146980D01*
X87834607Y-60134368D01*
X87814901Y-60119753D01*
X87796723Y-60103277D01*
X87780247Y-60085099D01*
X87765632Y-60065393D01*
X87753020Y-60044350D01*
X87742530Y-60022171D01*
X87734265Y-59999072D01*
X87728304Y-59975273D01*
X87724704Y-59951005D01*
X87723500Y-59926501D01*
X87723500Y-59026499D01*
X87724704Y-59001995D01*
X87728304Y-58977727D01*
X87734265Y-58953928D01*
X87742530Y-58930829D01*
X87753020Y-58908650D01*
X87765632Y-58887607D01*
X87780247Y-58867901D01*
X87796723Y-58849723D01*
X87814901Y-58833247D01*
X87834607Y-58818632D01*
X87855650Y-58806020D01*
X87877829Y-58795530D01*
X87900928Y-58787265D01*
X87924727Y-58781304D01*
X87948995Y-58777704D01*
X87973499Y-58776500D01*
X88498501Y-58776500D01*
X88523005Y-58777704D01*
X88523005Y-58777704D01*
G37*
D12*
X88236000Y-59476500D03*
D11*
G36*
X86698005Y-58777704D02*
G01*
X86722273Y-58781304D01*
X86746072Y-58787265D01*
X86769171Y-58795530D01*
X86791350Y-58806020D01*
X86812393Y-58818632D01*
X86832099Y-58833247D01*
X86850277Y-58849723D01*
X86866753Y-58867901D01*
X86881368Y-58887607D01*
X86893980Y-58908650D01*
X86904470Y-58930829D01*
X86912735Y-58953928D01*
X86918696Y-58977727D01*
X86922296Y-59001995D01*
X86923500Y-59026499D01*
X86923500Y-59926501D01*
X86922296Y-59951005D01*
X86918696Y-59975273D01*
X86912735Y-59999072D01*
X86904470Y-60022171D01*
X86893980Y-60044350D01*
X86881368Y-60065393D01*
X86866753Y-60085099D01*
X86850277Y-60103277D01*
X86832099Y-60119753D01*
X86812393Y-60134368D01*
X86791350Y-60146980D01*
X86769171Y-60157470D01*
X86746072Y-60165735D01*
X86722273Y-60171696D01*
X86698005Y-60175296D01*
X86673501Y-60176500D01*
X86148499Y-60176500D01*
X86123995Y-60175296D01*
X86099727Y-60171696D01*
X86075928Y-60165735D01*
X86052829Y-60157470D01*
X86030650Y-60146980D01*
X86009607Y-60134368D01*
X85989901Y-60119753D01*
X85971723Y-60103277D01*
X85955247Y-60085099D01*
X85940632Y-60065393D01*
X85928020Y-60044350D01*
X85917530Y-60022171D01*
X85909265Y-59999072D01*
X85903304Y-59975273D01*
X85899704Y-59951005D01*
X85898500Y-59926501D01*
X85898500Y-59026499D01*
X85899704Y-59001995D01*
X85903304Y-58977727D01*
X85909265Y-58953928D01*
X85917530Y-58930829D01*
X85928020Y-58908650D01*
X85940632Y-58887607D01*
X85955247Y-58867901D01*
X85971723Y-58849723D01*
X85989901Y-58833247D01*
X86009607Y-58818632D01*
X86030650Y-58806020D01*
X86052829Y-58795530D01*
X86075928Y-58787265D01*
X86099727Y-58781304D01*
X86123995Y-58777704D01*
X86148499Y-58776500D01*
X86673501Y-58776500D01*
X86698005Y-58777704D01*
X86698005Y-58777704D01*
G37*
D12*
X86411000Y-59476500D03*
%TD*%
D11*
%TO.C,R12*%
G36*
X88523005Y-61317704D02*
G01*
X88547273Y-61321304D01*
X88571072Y-61327265D01*
X88594171Y-61335530D01*
X88616350Y-61346020D01*
X88637393Y-61358632D01*
X88657099Y-61373247D01*
X88675277Y-61389723D01*
X88691753Y-61407901D01*
X88706368Y-61427607D01*
X88718980Y-61448650D01*
X88729470Y-61470829D01*
X88737735Y-61493928D01*
X88743696Y-61517727D01*
X88747296Y-61541995D01*
X88748500Y-61566499D01*
X88748500Y-62466501D01*
X88747296Y-62491005D01*
X88743696Y-62515273D01*
X88737735Y-62539072D01*
X88729470Y-62562171D01*
X88718980Y-62584350D01*
X88706368Y-62605393D01*
X88691753Y-62625099D01*
X88675277Y-62643277D01*
X88657099Y-62659753D01*
X88637393Y-62674368D01*
X88616350Y-62686980D01*
X88594171Y-62697470D01*
X88571072Y-62705735D01*
X88547273Y-62711696D01*
X88523005Y-62715296D01*
X88498501Y-62716500D01*
X87973499Y-62716500D01*
X87948995Y-62715296D01*
X87924727Y-62711696D01*
X87900928Y-62705735D01*
X87877829Y-62697470D01*
X87855650Y-62686980D01*
X87834607Y-62674368D01*
X87814901Y-62659753D01*
X87796723Y-62643277D01*
X87780247Y-62625099D01*
X87765632Y-62605393D01*
X87753020Y-62584350D01*
X87742530Y-62562171D01*
X87734265Y-62539072D01*
X87728304Y-62515273D01*
X87724704Y-62491005D01*
X87723500Y-62466501D01*
X87723500Y-61566499D01*
X87724704Y-61541995D01*
X87728304Y-61517727D01*
X87734265Y-61493928D01*
X87742530Y-61470829D01*
X87753020Y-61448650D01*
X87765632Y-61427607D01*
X87780247Y-61407901D01*
X87796723Y-61389723D01*
X87814901Y-61373247D01*
X87834607Y-61358632D01*
X87855650Y-61346020D01*
X87877829Y-61335530D01*
X87900928Y-61327265D01*
X87924727Y-61321304D01*
X87948995Y-61317704D01*
X87973499Y-61316500D01*
X88498501Y-61316500D01*
X88523005Y-61317704D01*
X88523005Y-61317704D01*
G37*
D12*
X88236000Y-62016500D03*
D11*
G36*
X86698005Y-61317704D02*
G01*
X86722273Y-61321304D01*
X86746072Y-61327265D01*
X86769171Y-61335530D01*
X86791350Y-61346020D01*
X86812393Y-61358632D01*
X86832099Y-61373247D01*
X86850277Y-61389723D01*
X86866753Y-61407901D01*
X86881368Y-61427607D01*
X86893980Y-61448650D01*
X86904470Y-61470829D01*
X86912735Y-61493928D01*
X86918696Y-61517727D01*
X86922296Y-61541995D01*
X86923500Y-61566499D01*
X86923500Y-62466501D01*
X86922296Y-62491005D01*
X86918696Y-62515273D01*
X86912735Y-62539072D01*
X86904470Y-62562171D01*
X86893980Y-62584350D01*
X86881368Y-62605393D01*
X86866753Y-62625099D01*
X86850277Y-62643277D01*
X86832099Y-62659753D01*
X86812393Y-62674368D01*
X86791350Y-62686980D01*
X86769171Y-62697470D01*
X86746072Y-62705735D01*
X86722273Y-62711696D01*
X86698005Y-62715296D01*
X86673501Y-62716500D01*
X86148499Y-62716500D01*
X86123995Y-62715296D01*
X86099727Y-62711696D01*
X86075928Y-62705735D01*
X86052829Y-62697470D01*
X86030650Y-62686980D01*
X86009607Y-62674368D01*
X85989901Y-62659753D01*
X85971723Y-62643277D01*
X85955247Y-62625099D01*
X85940632Y-62605393D01*
X85928020Y-62584350D01*
X85917530Y-62562171D01*
X85909265Y-62539072D01*
X85903304Y-62515273D01*
X85899704Y-62491005D01*
X85898500Y-62466501D01*
X85898500Y-61566499D01*
X85899704Y-61541995D01*
X85903304Y-61517727D01*
X85909265Y-61493928D01*
X85917530Y-61470829D01*
X85928020Y-61448650D01*
X85940632Y-61427607D01*
X85955247Y-61407901D01*
X85971723Y-61389723D01*
X85989901Y-61373247D01*
X86009607Y-61358632D01*
X86030650Y-61346020D01*
X86052829Y-61335530D01*
X86075928Y-61327265D01*
X86099727Y-61321304D01*
X86123995Y-61317704D01*
X86148499Y-61316500D01*
X86673501Y-61316500D01*
X86698005Y-61317704D01*
X86698005Y-61317704D01*
G37*
D12*
X86411000Y-62016500D03*
%TD*%
D11*
%TO.C,R11*%
G36*
X88523005Y-63857704D02*
G01*
X88547273Y-63861304D01*
X88571072Y-63867265D01*
X88594171Y-63875530D01*
X88616350Y-63886020D01*
X88637393Y-63898632D01*
X88657099Y-63913247D01*
X88675277Y-63929723D01*
X88691753Y-63947901D01*
X88706368Y-63967607D01*
X88718980Y-63988650D01*
X88729470Y-64010829D01*
X88737735Y-64033928D01*
X88743696Y-64057727D01*
X88747296Y-64081995D01*
X88748500Y-64106499D01*
X88748500Y-65006501D01*
X88747296Y-65031005D01*
X88743696Y-65055273D01*
X88737735Y-65079072D01*
X88729470Y-65102171D01*
X88718980Y-65124350D01*
X88706368Y-65145393D01*
X88691753Y-65165099D01*
X88675277Y-65183277D01*
X88657099Y-65199753D01*
X88637393Y-65214368D01*
X88616350Y-65226980D01*
X88594171Y-65237470D01*
X88571072Y-65245735D01*
X88547273Y-65251696D01*
X88523005Y-65255296D01*
X88498501Y-65256500D01*
X87973499Y-65256500D01*
X87948995Y-65255296D01*
X87924727Y-65251696D01*
X87900928Y-65245735D01*
X87877829Y-65237470D01*
X87855650Y-65226980D01*
X87834607Y-65214368D01*
X87814901Y-65199753D01*
X87796723Y-65183277D01*
X87780247Y-65165099D01*
X87765632Y-65145393D01*
X87753020Y-65124350D01*
X87742530Y-65102171D01*
X87734265Y-65079072D01*
X87728304Y-65055273D01*
X87724704Y-65031005D01*
X87723500Y-65006501D01*
X87723500Y-64106499D01*
X87724704Y-64081995D01*
X87728304Y-64057727D01*
X87734265Y-64033928D01*
X87742530Y-64010829D01*
X87753020Y-63988650D01*
X87765632Y-63967607D01*
X87780247Y-63947901D01*
X87796723Y-63929723D01*
X87814901Y-63913247D01*
X87834607Y-63898632D01*
X87855650Y-63886020D01*
X87877829Y-63875530D01*
X87900928Y-63867265D01*
X87924727Y-63861304D01*
X87948995Y-63857704D01*
X87973499Y-63856500D01*
X88498501Y-63856500D01*
X88523005Y-63857704D01*
X88523005Y-63857704D01*
G37*
D12*
X88236000Y-64556500D03*
D11*
G36*
X86698005Y-63857704D02*
G01*
X86722273Y-63861304D01*
X86746072Y-63867265D01*
X86769171Y-63875530D01*
X86791350Y-63886020D01*
X86812393Y-63898632D01*
X86832099Y-63913247D01*
X86850277Y-63929723D01*
X86866753Y-63947901D01*
X86881368Y-63967607D01*
X86893980Y-63988650D01*
X86904470Y-64010829D01*
X86912735Y-64033928D01*
X86918696Y-64057727D01*
X86922296Y-64081995D01*
X86923500Y-64106499D01*
X86923500Y-65006501D01*
X86922296Y-65031005D01*
X86918696Y-65055273D01*
X86912735Y-65079072D01*
X86904470Y-65102171D01*
X86893980Y-65124350D01*
X86881368Y-65145393D01*
X86866753Y-65165099D01*
X86850277Y-65183277D01*
X86832099Y-65199753D01*
X86812393Y-65214368D01*
X86791350Y-65226980D01*
X86769171Y-65237470D01*
X86746072Y-65245735D01*
X86722273Y-65251696D01*
X86698005Y-65255296D01*
X86673501Y-65256500D01*
X86148499Y-65256500D01*
X86123995Y-65255296D01*
X86099727Y-65251696D01*
X86075928Y-65245735D01*
X86052829Y-65237470D01*
X86030650Y-65226980D01*
X86009607Y-65214368D01*
X85989901Y-65199753D01*
X85971723Y-65183277D01*
X85955247Y-65165099D01*
X85940632Y-65145393D01*
X85928020Y-65124350D01*
X85917530Y-65102171D01*
X85909265Y-65079072D01*
X85903304Y-65055273D01*
X85899704Y-65031005D01*
X85898500Y-65006501D01*
X85898500Y-64106499D01*
X85899704Y-64081995D01*
X85903304Y-64057727D01*
X85909265Y-64033928D01*
X85917530Y-64010829D01*
X85928020Y-63988650D01*
X85940632Y-63967607D01*
X85955247Y-63947901D01*
X85971723Y-63929723D01*
X85989901Y-63913247D01*
X86009607Y-63898632D01*
X86030650Y-63886020D01*
X86052829Y-63875530D01*
X86075928Y-63867265D01*
X86099727Y-63861304D01*
X86123995Y-63857704D01*
X86148499Y-63856500D01*
X86673501Y-63856500D01*
X86698005Y-63857704D01*
X86698005Y-63857704D01*
G37*
D12*
X86411000Y-64556500D03*
%TD*%
D11*
%TO.C,R10*%
G36*
X88523005Y-66397704D02*
G01*
X88547273Y-66401304D01*
X88571072Y-66407265D01*
X88594171Y-66415530D01*
X88616350Y-66426020D01*
X88637393Y-66438632D01*
X88657099Y-66453247D01*
X88675277Y-66469723D01*
X88691753Y-66487901D01*
X88706368Y-66507607D01*
X88718980Y-66528650D01*
X88729470Y-66550829D01*
X88737735Y-66573928D01*
X88743696Y-66597727D01*
X88747296Y-66621995D01*
X88748500Y-66646499D01*
X88748500Y-67546501D01*
X88747296Y-67571005D01*
X88743696Y-67595273D01*
X88737735Y-67619072D01*
X88729470Y-67642171D01*
X88718980Y-67664350D01*
X88706368Y-67685393D01*
X88691753Y-67705099D01*
X88675277Y-67723277D01*
X88657099Y-67739753D01*
X88637393Y-67754368D01*
X88616350Y-67766980D01*
X88594171Y-67777470D01*
X88571072Y-67785735D01*
X88547273Y-67791696D01*
X88523005Y-67795296D01*
X88498501Y-67796500D01*
X87973499Y-67796500D01*
X87948995Y-67795296D01*
X87924727Y-67791696D01*
X87900928Y-67785735D01*
X87877829Y-67777470D01*
X87855650Y-67766980D01*
X87834607Y-67754368D01*
X87814901Y-67739753D01*
X87796723Y-67723277D01*
X87780247Y-67705099D01*
X87765632Y-67685393D01*
X87753020Y-67664350D01*
X87742530Y-67642171D01*
X87734265Y-67619072D01*
X87728304Y-67595273D01*
X87724704Y-67571005D01*
X87723500Y-67546501D01*
X87723500Y-66646499D01*
X87724704Y-66621995D01*
X87728304Y-66597727D01*
X87734265Y-66573928D01*
X87742530Y-66550829D01*
X87753020Y-66528650D01*
X87765632Y-66507607D01*
X87780247Y-66487901D01*
X87796723Y-66469723D01*
X87814901Y-66453247D01*
X87834607Y-66438632D01*
X87855650Y-66426020D01*
X87877829Y-66415530D01*
X87900928Y-66407265D01*
X87924727Y-66401304D01*
X87948995Y-66397704D01*
X87973499Y-66396500D01*
X88498501Y-66396500D01*
X88523005Y-66397704D01*
X88523005Y-66397704D01*
G37*
D12*
X88236000Y-67096500D03*
D11*
G36*
X86698005Y-66397704D02*
G01*
X86722273Y-66401304D01*
X86746072Y-66407265D01*
X86769171Y-66415530D01*
X86791350Y-66426020D01*
X86812393Y-66438632D01*
X86832099Y-66453247D01*
X86850277Y-66469723D01*
X86866753Y-66487901D01*
X86881368Y-66507607D01*
X86893980Y-66528650D01*
X86904470Y-66550829D01*
X86912735Y-66573928D01*
X86918696Y-66597727D01*
X86922296Y-66621995D01*
X86923500Y-66646499D01*
X86923500Y-67546501D01*
X86922296Y-67571005D01*
X86918696Y-67595273D01*
X86912735Y-67619072D01*
X86904470Y-67642171D01*
X86893980Y-67664350D01*
X86881368Y-67685393D01*
X86866753Y-67705099D01*
X86850277Y-67723277D01*
X86832099Y-67739753D01*
X86812393Y-67754368D01*
X86791350Y-67766980D01*
X86769171Y-67777470D01*
X86746072Y-67785735D01*
X86722273Y-67791696D01*
X86698005Y-67795296D01*
X86673501Y-67796500D01*
X86148499Y-67796500D01*
X86123995Y-67795296D01*
X86099727Y-67791696D01*
X86075928Y-67785735D01*
X86052829Y-67777470D01*
X86030650Y-67766980D01*
X86009607Y-67754368D01*
X85989901Y-67739753D01*
X85971723Y-67723277D01*
X85955247Y-67705099D01*
X85940632Y-67685393D01*
X85928020Y-67664350D01*
X85917530Y-67642171D01*
X85909265Y-67619072D01*
X85903304Y-67595273D01*
X85899704Y-67571005D01*
X85898500Y-67546501D01*
X85898500Y-66646499D01*
X85899704Y-66621995D01*
X85903304Y-66597727D01*
X85909265Y-66573928D01*
X85917530Y-66550829D01*
X85928020Y-66528650D01*
X85940632Y-66507607D01*
X85955247Y-66487901D01*
X85971723Y-66469723D01*
X85989901Y-66453247D01*
X86009607Y-66438632D01*
X86030650Y-66426020D01*
X86052829Y-66415530D01*
X86075928Y-66407265D01*
X86099727Y-66401304D01*
X86123995Y-66397704D01*
X86148499Y-66396500D01*
X86673501Y-66396500D01*
X86698005Y-66397704D01*
X86698005Y-66397704D01*
G37*
D12*
X86411000Y-67096500D03*
%TD*%
D11*
%TO.C,R9*%
G36*
X88523005Y-68937704D02*
G01*
X88547273Y-68941304D01*
X88571072Y-68947265D01*
X88594171Y-68955530D01*
X88616350Y-68966020D01*
X88637393Y-68978632D01*
X88657099Y-68993247D01*
X88675277Y-69009723D01*
X88691753Y-69027901D01*
X88706368Y-69047607D01*
X88718980Y-69068650D01*
X88729470Y-69090829D01*
X88737735Y-69113928D01*
X88743696Y-69137727D01*
X88747296Y-69161995D01*
X88748500Y-69186499D01*
X88748500Y-70086501D01*
X88747296Y-70111005D01*
X88743696Y-70135273D01*
X88737735Y-70159072D01*
X88729470Y-70182171D01*
X88718980Y-70204350D01*
X88706368Y-70225393D01*
X88691753Y-70245099D01*
X88675277Y-70263277D01*
X88657099Y-70279753D01*
X88637393Y-70294368D01*
X88616350Y-70306980D01*
X88594171Y-70317470D01*
X88571072Y-70325735D01*
X88547273Y-70331696D01*
X88523005Y-70335296D01*
X88498501Y-70336500D01*
X87973499Y-70336500D01*
X87948995Y-70335296D01*
X87924727Y-70331696D01*
X87900928Y-70325735D01*
X87877829Y-70317470D01*
X87855650Y-70306980D01*
X87834607Y-70294368D01*
X87814901Y-70279753D01*
X87796723Y-70263277D01*
X87780247Y-70245099D01*
X87765632Y-70225393D01*
X87753020Y-70204350D01*
X87742530Y-70182171D01*
X87734265Y-70159072D01*
X87728304Y-70135273D01*
X87724704Y-70111005D01*
X87723500Y-70086501D01*
X87723500Y-69186499D01*
X87724704Y-69161995D01*
X87728304Y-69137727D01*
X87734265Y-69113928D01*
X87742530Y-69090829D01*
X87753020Y-69068650D01*
X87765632Y-69047607D01*
X87780247Y-69027901D01*
X87796723Y-69009723D01*
X87814901Y-68993247D01*
X87834607Y-68978632D01*
X87855650Y-68966020D01*
X87877829Y-68955530D01*
X87900928Y-68947265D01*
X87924727Y-68941304D01*
X87948995Y-68937704D01*
X87973499Y-68936500D01*
X88498501Y-68936500D01*
X88523005Y-68937704D01*
X88523005Y-68937704D01*
G37*
D12*
X88236000Y-69636500D03*
D11*
G36*
X86698005Y-68937704D02*
G01*
X86722273Y-68941304D01*
X86746072Y-68947265D01*
X86769171Y-68955530D01*
X86791350Y-68966020D01*
X86812393Y-68978632D01*
X86832099Y-68993247D01*
X86850277Y-69009723D01*
X86866753Y-69027901D01*
X86881368Y-69047607D01*
X86893980Y-69068650D01*
X86904470Y-69090829D01*
X86912735Y-69113928D01*
X86918696Y-69137727D01*
X86922296Y-69161995D01*
X86923500Y-69186499D01*
X86923500Y-70086501D01*
X86922296Y-70111005D01*
X86918696Y-70135273D01*
X86912735Y-70159072D01*
X86904470Y-70182171D01*
X86893980Y-70204350D01*
X86881368Y-70225393D01*
X86866753Y-70245099D01*
X86850277Y-70263277D01*
X86832099Y-70279753D01*
X86812393Y-70294368D01*
X86791350Y-70306980D01*
X86769171Y-70317470D01*
X86746072Y-70325735D01*
X86722273Y-70331696D01*
X86698005Y-70335296D01*
X86673501Y-70336500D01*
X86148499Y-70336500D01*
X86123995Y-70335296D01*
X86099727Y-70331696D01*
X86075928Y-70325735D01*
X86052829Y-70317470D01*
X86030650Y-70306980D01*
X86009607Y-70294368D01*
X85989901Y-70279753D01*
X85971723Y-70263277D01*
X85955247Y-70245099D01*
X85940632Y-70225393D01*
X85928020Y-70204350D01*
X85917530Y-70182171D01*
X85909265Y-70159072D01*
X85903304Y-70135273D01*
X85899704Y-70111005D01*
X85898500Y-70086501D01*
X85898500Y-69186499D01*
X85899704Y-69161995D01*
X85903304Y-69137727D01*
X85909265Y-69113928D01*
X85917530Y-69090829D01*
X85928020Y-69068650D01*
X85940632Y-69047607D01*
X85955247Y-69027901D01*
X85971723Y-69009723D01*
X85989901Y-68993247D01*
X86009607Y-68978632D01*
X86030650Y-68966020D01*
X86052829Y-68955530D01*
X86075928Y-68947265D01*
X86099727Y-68941304D01*
X86123995Y-68937704D01*
X86148499Y-68936500D01*
X86673501Y-68936500D01*
X86698005Y-68937704D01*
X86698005Y-68937704D01*
G37*
D12*
X86411000Y-69636500D03*
%TD*%
D16*
%TO.C,D23*%
X90424000Y-31560500D03*
X90424000Y-34860500D03*
%TD*%
%TO.C,D22*%
X92773500Y-31560500D03*
X92773500Y-34860500D03*
%TD*%
D10*
%TO.C,D21*%
X92520500Y-36766500D03*
X95820500Y-36766500D03*
%TD*%
%TO.C,D20*%
X95831500Y-39156500D03*
X92531500Y-39156500D03*
%TD*%
%TO.C,D19*%
X95831500Y-41696500D03*
X92531500Y-41696500D03*
%TD*%
%TO.C,D18*%
X95831500Y-44236500D03*
X92531500Y-44236500D03*
%TD*%
%TO.C,D17*%
X95831500Y-46776500D03*
X92531500Y-46776500D03*
%TD*%
%TO.C,D16*%
X95831500Y-49316500D03*
X92531500Y-49316500D03*
%TD*%
%TO.C,D15*%
X95831500Y-51856500D03*
X92531500Y-51856500D03*
%TD*%
%TO.C,D14*%
X95831500Y-54396500D03*
X92531500Y-54396500D03*
%TD*%
%TO.C,D13*%
X95831500Y-56936500D03*
X92531500Y-56936500D03*
%TD*%
%TO.C,D11*%
X95831500Y-62016500D03*
X92531500Y-62016500D03*
%TD*%
%TO.C,D10*%
X95831500Y-64556500D03*
X92531500Y-64556500D03*
%TD*%
%TO.C,D9*%
X95831500Y-67096500D03*
X92531500Y-67096500D03*
%TD*%
%TO.C,D8*%
X95831500Y-69636500D03*
X92531500Y-69636500D03*
%TD*%
M02*
