G04 #@! TF.GenerationSoftware,KiCad,Pcbnew,(5.1.4)-1*
G04 #@! TF.CreationDate,2021-11-01T00:46:01-04:00*
G04 #@! TF.ProjectId,jack_pcb,6a61636b-5f70-4636-922e-6b696361645f,rev?*
G04 #@! TF.SameCoordinates,Original*
G04 #@! TF.FileFunction,Copper,L2,Bot*
G04 #@! TF.FilePolarity,Positive*
%FSLAX46Y46*%
G04 Gerber Fmt 4.6, Leading zero omitted, Abs format (unit mm)*
G04 Created by KiCad (PCBNEW (5.1.4)-1) date 2021-11-01 00:46:01*
%MOMM*%
%LPD*%
G04 APERTURE LIST*
%ADD10C,7.500000*%
%ADD11C,1.300000*%
%ADD12C,1.600000*%
%ADD13R,1.300000X1.300000*%
%ADD14R,1.600000X1.600000*%
%ADD15O,1.700000X1.700000*%
%ADD16R,1.700000X1.700000*%
%ADD17C,1.500000*%
%ADD18R,1.500000X1.500000*%
%ADD19O,1.600000X1.600000*%
%ADD20C,1.400000*%
%ADD21C,3.000000*%
%ADD22R,1.400000X1.400000*%
%ADD23O,1.600000X2.400000*%
%ADD24R,1.600000X2.400000*%
%ADD25C,1.800000*%
%ADD26C,0.800000*%
%ADD27C,0.762000*%
%ADD28C,0.381000*%
G04 APERTURE END LIST*
D10*
X147000000Y-138700000D03*
X238200000Y-155600000D03*
X47400000Y-154700000D03*
X164100000Y-37000000D03*
X47200000Y-36900000D03*
X237400000Y-36900000D03*
D11*
X129580000Y-135630000D03*
X129580000Y-138170000D03*
D12*
X84590000Y-131820000D03*
X84590000Y-134360000D03*
X84590000Y-136900000D03*
X84590000Y-139440000D03*
X84590000Y-141980000D03*
D11*
X117340000Y-135718400D03*
X115340000Y-135718400D03*
X115340000Y-133718400D03*
X117340000Y-133718400D03*
X115340000Y-131718400D03*
D13*
X117340000Y-131718400D03*
D12*
X89670000Y-144520000D03*
X87130000Y-144520000D03*
X84590000Y-144520000D03*
X82050000Y-144520000D03*
X92210000Y-144520000D03*
X94750000Y-144520000D03*
X97290000Y-144520000D03*
X79510000Y-144520000D03*
X76970000Y-144520000D03*
X74430000Y-144520000D03*
X71890000Y-144520000D03*
X71890000Y-129280000D03*
X74430000Y-129280000D03*
X76970000Y-129280000D03*
X79510000Y-129280000D03*
X82050000Y-129280000D03*
X84590000Y-129280000D03*
X87130000Y-129280000D03*
X89670000Y-129280000D03*
X92210000Y-129280000D03*
X94750000Y-129280000D03*
X99830000Y-144520000D03*
X102370000Y-144520000D03*
X104910000Y-144520000D03*
X107450000Y-144520000D03*
X109990000Y-144520000D03*
X112530000Y-144520000D03*
X115070000Y-144520000D03*
X117610000Y-144520000D03*
X120150000Y-144520000D03*
X122690000Y-144520000D03*
X125230000Y-144520000D03*
X127770000Y-144520000D03*
D14*
X130310000Y-144520000D03*
D12*
X97290000Y-129280000D03*
X99830000Y-129280000D03*
X102370000Y-129280000D03*
X104910000Y-129280000D03*
X107450000Y-129280000D03*
X109990000Y-129280000D03*
X112530000Y-129280000D03*
X115070000Y-129280000D03*
X117610000Y-129280000D03*
X120150000Y-129280000D03*
X122690000Y-129280000D03*
X125230000Y-129280000D03*
X127770000Y-129280000D03*
X130310000Y-129280000D03*
D14*
X124010800Y-141469200D03*
D12*
X121470800Y-141469200D03*
X118930800Y-141469200D03*
X116390800Y-141469200D03*
X113850800Y-141469200D03*
X127770000Y-131820000D03*
D15*
X71680000Y-148900000D03*
X74220000Y-148900000D03*
X76760000Y-148900000D03*
X79300000Y-148900000D03*
X81840000Y-148900000D03*
X84380000Y-148900000D03*
X86920000Y-148900000D03*
X89460000Y-148900000D03*
X92000000Y-148900000D03*
X94540000Y-148900000D03*
X97080000Y-148900000D03*
X99620000Y-148900000D03*
X102160000Y-148900000D03*
X104700000Y-148900000D03*
X107240000Y-148900000D03*
X109780000Y-148900000D03*
X112320000Y-148900000D03*
X114860000Y-148900000D03*
X117400000Y-148900000D03*
X119940000Y-148900000D03*
X122480000Y-148900000D03*
X125020000Y-148900000D03*
X127560000Y-148900000D03*
D16*
X130100000Y-148900000D03*
D15*
X71680000Y-124900000D03*
X74220000Y-124900000D03*
X76760000Y-124900000D03*
X79300000Y-124900000D03*
X81840000Y-124900000D03*
X84380000Y-124900000D03*
X86920000Y-124900000D03*
X89460000Y-124900000D03*
X92000000Y-124900000D03*
X94540000Y-124900000D03*
X97080000Y-124900000D03*
X99620000Y-124900000D03*
X102160000Y-124900000D03*
X104700000Y-124900000D03*
X107240000Y-124900000D03*
X109780000Y-124900000D03*
X112320000Y-124900000D03*
X114860000Y-124900000D03*
X117400000Y-124900000D03*
X119940000Y-124900000D03*
X122480000Y-124900000D03*
X125020000Y-124900000D03*
X127560000Y-124900000D03*
D16*
X130100000Y-124900000D03*
D17*
X216590000Y-93060000D03*
X215320000Y-95600000D03*
X214050000Y-93060000D03*
X212780000Y-95600000D03*
X211510000Y-93060000D03*
X210240000Y-95600000D03*
X208970000Y-93060000D03*
D18*
X207700000Y-95600000D03*
D19*
X202000000Y-121620000D03*
X217240000Y-114000000D03*
X204540000Y-121620000D03*
X214700000Y-114000000D03*
X207080000Y-121620000D03*
X212160000Y-114000000D03*
X209620000Y-121620000D03*
X209620000Y-114000000D03*
X212160000Y-121620000D03*
X207080000Y-114000000D03*
X214700000Y-121620000D03*
X204540000Y-114000000D03*
X217240000Y-121620000D03*
D14*
X202000000Y-114000000D03*
D19*
X56000000Y-93500000D03*
D12*
X56000000Y-86000000D03*
D19*
X159160000Y-100000000D03*
D12*
X149000000Y-100000000D03*
D19*
X144160000Y-100000000D03*
D12*
X134000000Y-100000000D03*
D19*
X128160000Y-100000000D03*
D12*
X118000000Y-100000000D03*
D19*
X113160000Y-100000000D03*
D12*
X103000000Y-100000000D03*
D19*
X98660000Y-100000000D03*
D12*
X88500000Y-100000000D03*
D19*
X84160000Y-100000000D03*
D12*
X74000000Y-100000000D03*
D19*
X69160000Y-100000000D03*
D12*
X59000000Y-100000000D03*
D19*
X159160000Y-120000000D03*
D12*
X149000000Y-120000000D03*
D19*
X144160000Y-120000000D03*
D12*
X134000000Y-120000000D03*
D19*
X129160000Y-120000000D03*
D12*
X119000000Y-120000000D03*
D19*
X114160000Y-120000000D03*
D12*
X104000000Y-120000000D03*
D19*
X99160000Y-120000000D03*
D12*
X89000000Y-120000000D03*
D19*
X84160000Y-120000000D03*
D12*
X74000000Y-120000000D03*
D19*
X69160000Y-120000000D03*
D12*
X59000000Y-120000000D03*
D19*
X54260000Y-120000000D03*
D12*
X44100000Y-120000000D03*
D19*
X54000000Y-100000000D03*
D12*
X43840000Y-100000000D03*
D19*
X159160000Y-80000000D03*
D12*
X149000000Y-80000000D03*
D19*
X144160000Y-80000000D03*
D12*
X134000000Y-80000000D03*
D19*
X128660000Y-80000000D03*
D12*
X118500000Y-80000000D03*
D19*
X114160000Y-80000000D03*
D12*
X104000000Y-80000000D03*
D19*
X99160000Y-80000000D03*
D12*
X89000000Y-80000000D03*
D19*
X84160000Y-80000000D03*
D12*
X74000000Y-80000000D03*
D19*
X69160000Y-80000000D03*
D12*
X59000000Y-80000000D03*
D19*
X54160000Y-80000000D03*
D12*
X44000000Y-80000000D03*
D19*
X159160000Y-60000000D03*
D12*
X149000000Y-60000000D03*
D19*
X144160000Y-60000000D03*
D12*
X134000000Y-60000000D03*
D19*
X129160000Y-60000000D03*
D12*
X119000000Y-60000000D03*
D19*
X114000000Y-60000000D03*
D12*
X103840000Y-60000000D03*
D19*
X98060000Y-59400000D03*
D12*
X87900000Y-59400000D03*
D19*
X83860000Y-59600000D03*
D12*
X73700000Y-59600000D03*
D19*
X68660000Y-59800000D03*
D12*
X58500000Y-59800000D03*
D19*
X44040000Y-59900000D03*
D12*
X54200000Y-59900000D03*
D15*
X173500000Y-108380000D03*
X170960000Y-108380000D03*
X173500000Y-105840000D03*
X170960000Y-105840000D03*
X173500000Y-103300000D03*
X170960000Y-103300000D03*
X173500000Y-100760000D03*
X170960000Y-100760000D03*
X173500000Y-98220000D03*
X170960000Y-98220000D03*
X173500000Y-95680000D03*
X170960000Y-95680000D03*
X173500000Y-93140000D03*
X170960000Y-93140000D03*
X173500000Y-90600000D03*
X170960000Y-90600000D03*
X173500000Y-88060000D03*
X170960000Y-88060000D03*
X173500000Y-85520000D03*
X170960000Y-85520000D03*
X173500000Y-82980000D03*
X170960000Y-82980000D03*
X173500000Y-80440000D03*
X170960000Y-80440000D03*
X173500000Y-77900000D03*
X170960000Y-77900000D03*
X173500000Y-75360000D03*
X170960000Y-75360000D03*
X173500000Y-72820000D03*
X170960000Y-72820000D03*
X173500000Y-70280000D03*
X170960000Y-70280000D03*
X173500000Y-67740000D03*
X170960000Y-67740000D03*
X173500000Y-65200000D03*
X170960000Y-65200000D03*
X173500000Y-62660000D03*
X170960000Y-62660000D03*
X173500000Y-60120000D03*
X170960000Y-60120000D03*
X173500000Y-57580000D03*
X170960000Y-57580000D03*
X173500000Y-55040000D03*
X170960000Y-55040000D03*
X173500000Y-52500000D03*
X170960000Y-52500000D03*
X173500000Y-49960000D03*
X170960000Y-49960000D03*
X173500000Y-47420000D03*
D16*
X170960000Y-47420000D03*
D19*
X161000000Y-94000000D03*
D12*
X161000000Y-86500000D03*
D19*
X146000000Y-93500000D03*
D12*
X146000000Y-86000000D03*
D19*
X131000000Y-93500000D03*
D12*
X131000000Y-86000000D03*
D19*
X116000000Y-93500000D03*
D12*
X116000000Y-86000000D03*
D19*
X101000000Y-94000000D03*
D12*
X101000000Y-86500000D03*
D19*
X86000000Y-94500000D03*
D12*
X86000000Y-87000000D03*
D19*
X71000000Y-93500000D03*
D12*
X71000000Y-86000000D03*
D19*
X161000000Y-113500000D03*
D12*
X161000000Y-106000000D03*
D19*
X146000000Y-113500000D03*
D12*
X146000000Y-106000000D03*
D19*
X131000000Y-114000000D03*
D12*
X131000000Y-106500000D03*
D19*
X116000000Y-114500000D03*
D12*
X116000000Y-107000000D03*
D19*
X101000000Y-114000000D03*
D12*
X101000000Y-106500000D03*
D19*
X86000000Y-114000000D03*
D12*
X86000000Y-106500000D03*
D19*
X71000000Y-113000000D03*
D12*
X71000000Y-105500000D03*
D19*
X56000000Y-113500000D03*
D12*
X56000000Y-106000000D03*
D19*
X161000000Y-73500000D03*
D12*
X161000000Y-66000000D03*
D19*
X146000000Y-74500000D03*
D12*
X146000000Y-67000000D03*
D19*
X131000000Y-74000000D03*
D12*
X131000000Y-66500000D03*
D19*
X116000000Y-73500000D03*
D12*
X116000000Y-66000000D03*
D19*
X101000000Y-74000000D03*
D12*
X101000000Y-66500000D03*
D19*
X86000000Y-74000000D03*
D12*
X86000000Y-66500000D03*
D19*
X71000000Y-73500000D03*
D12*
X71000000Y-66000000D03*
D19*
X56000000Y-74000000D03*
D12*
X56000000Y-66500000D03*
D19*
X161000000Y-53500000D03*
D12*
X161000000Y-46000000D03*
D19*
X146000000Y-53500000D03*
D12*
X146000000Y-46000000D03*
D19*
X131000000Y-53500000D03*
D12*
X131000000Y-46000000D03*
D19*
X116000000Y-53500000D03*
D12*
X116000000Y-46000000D03*
D19*
X101000000Y-53600000D03*
D12*
X101000000Y-46100000D03*
D19*
X86000000Y-54000000D03*
D12*
X86000000Y-46500000D03*
D19*
X56000000Y-53500000D03*
D12*
X56000000Y-46000000D03*
D19*
X71000000Y-53500000D03*
D12*
X71000000Y-46000000D03*
D19*
X185800000Y-50200000D03*
D12*
X193300000Y-50200000D03*
D19*
X185800000Y-54296000D03*
D12*
X193300000Y-54296000D03*
D19*
X185800000Y-66584000D03*
D12*
X193300000Y-66584000D03*
D19*
X185800000Y-70680000D03*
D12*
X193300000Y-70680000D03*
D19*
X185800000Y-58392000D03*
D12*
X193300000Y-58392000D03*
D20*
X57000000Y-139500000D03*
D21*
X54290000Y-134730000D03*
D22*
X57000000Y-142000000D03*
D20*
X53800000Y-139500000D03*
X53800000Y-142000000D03*
D21*
X54290000Y-146770000D03*
D23*
X159000000Y-149620000D03*
X174240000Y-142000000D03*
X161540000Y-149620000D03*
X171700000Y-142000000D03*
X164080000Y-149620000D03*
X169160000Y-142000000D03*
X166620000Y-149620000D03*
X166620000Y-142000000D03*
X169160000Y-149620000D03*
X164080000Y-142000000D03*
X171700000Y-149620000D03*
X161540000Y-142000000D03*
X174240000Y-149620000D03*
D24*
X159000000Y-142000000D03*
D15*
X178920000Y-157500000D03*
X181460000Y-157500000D03*
X184000000Y-157500000D03*
X186540000Y-157500000D03*
D16*
X189080000Y-157500000D03*
D15*
X145040000Y-157500000D03*
X147580000Y-157500000D03*
X150120000Y-157500000D03*
X152660000Y-157500000D03*
D16*
X155200000Y-157500000D03*
D15*
X161420000Y-157500000D03*
X163960000Y-157500000D03*
X166500000Y-157500000D03*
X169040000Y-157500000D03*
D16*
X171580000Y-157500000D03*
D19*
X223200000Y-130020000D03*
X238440000Y-122400000D03*
X225740000Y-130020000D03*
X235900000Y-122400000D03*
X228280000Y-130020000D03*
X233360000Y-122400000D03*
X230820000Y-130020000D03*
X230820000Y-122400000D03*
X233360000Y-130020000D03*
X228280000Y-122400000D03*
X235900000Y-130020000D03*
X225740000Y-122400000D03*
X238440000Y-130020000D03*
D14*
X223200000Y-122400000D03*
D19*
X202000000Y-132620000D03*
X217240000Y-125000000D03*
X204540000Y-132620000D03*
X214700000Y-125000000D03*
X207080000Y-132620000D03*
X212160000Y-125000000D03*
X209620000Y-132620000D03*
X209620000Y-125000000D03*
X212160000Y-132620000D03*
X207080000Y-125000000D03*
X214700000Y-132620000D03*
X204540000Y-125000000D03*
X217240000Y-132620000D03*
D14*
X202000000Y-125000000D03*
D19*
X223200000Y-119020000D03*
X238440000Y-111400000D03*
X225740000Y-119020000D03*
X235900000Y-111400000D03*
X228280000Y-119020000D03*
X233360000Y-111400000D03*
X230820000Y-119020000D03*
X230820000Y-111400000D03*
X233360000Y-119020000D03*
X228280000Y-111400000D03*
X235900000Y-119020000D03*
X225740000Y-111400000D03*
X238440000Y-119020000D03*
D14*
X223200000Y-111400000D03*
D19*
X200620000Y-153000000D03*
X193000000Y-145380000D03*
X200620000Y-150460000D03*
X193000000Y-147920000D03*
X200620000Y-147920000D03*
X193000000Y-150460000D03*
X200620000Y-145380000D03*
D14*
X193000000Y-153000000D03*
D19*
X183840000Y-142000000D03*
D12*
X194000000Y-142000000D03*
D19*
X189160000Y-152500000D03*
D12*
X179000000Y-152500000D03*
D19*
X172160000Y-153500000D03*
D12*
X162000000Y-153500000D03*
D19*
X154860000Y-150000000D03*
D12*
X144700000Y-150000000D03*
D19*
X153800000Y-146600000D03*
D12*
X153800000Y-136440000D03*
D19*
X154860000Y-153500000D03*
D12*
X144700000Y-153500000D03*
D17*
X235090000Y-67760000D03*
X233820000Y-70300000D03*
X232550000Y-67760000D03*
X231280000Y-70300000D03*
X230010000Y-67760000D03*
X228740000Y-70300000D03*
X227470000Y-67760000D03*
D18*
X226200000Y-70300000D03*
D17*
X235090000Y-45260000D03*
X233820000Y-47800000D03*
X232550000Y-45260000D03*
X231280000Y-47800000D03*
X230010000Y-45260000D03*
X228740000Y-47800000D03*
X227470000Y-45260000D03*
D18*
X226200000Y-47800000D03*
D17*
X235630000Y-133910000D03*
X234360000Y-136450000D03*
X233090000Y-133910000D03*
X231820000Y-136450000D03*
X230550000Y-133910000D03*
X229280000Y-136450000D03*
X228010000Y-133910000D03*
D18*
X226740000Y-136450000D03*
D17*
X235090000Y-92760000D03*
X233820000Y-95300000D03*
X232550000Y-92760000D03*
X231280000Y-95300000D03*
X230010000Y-92760000D03*
X228740000Y-95300000D03*
X227470000Y-92760000D03*
D18*
X226200000Y-95300000D03*
D17*
X216590000Y-68060000D03*
X215320000Y-70600000D03*
X214050000Y-68060000D03*
X212780000Y-70600000D03*
X211510000Y-68060000D03*
X210240000Y-70600000D03*
X208970000Y-68060000D03*
D18*
X207700000Y-70600000D03*
D17*
X216590000Y-45560000D03*
X215320000Y-48100000D03*
X214050000Y-45560000D03*
X212780000Y-48100000D03*
X211510000Y-45560000D03*
X210240000Y-48100000D03*
X208970000Y-45560000D03*
D18*
X207700000Y-48100000D03*
D17*
X217590000Y-139560000D03*
X216320000Y-142100000D03*
X215050000Y-139560000D03*
X213780000Y-142100000D03*
X212510000Y-139560000D03*
X211240000Y-142100000D03*
X209970000Y-139560000D03*
D18*
X208700000Y-142100000D03*
D25*
X138700000Y-105380000D03*
X138700000Y-116780000D03*
X138700000Y-113680000D03*
X123700000Y-105380000D03*
X123700000Y-116780000D03*
X123700000Y-113680000D03*
X108700000Y-105380000D03*
X108700000Y-116780000D03*
X108700000Y-113680000D03*
X93700000Y-105380000D03*
X93700000Y-116780000D03*
X93700000Y-113680000D03*
X78700000Y-105380000D03*
X78700000Y-116780000D03*
X78700000Y-113680000D03*
X63700000Y-105380000D03*
X63700000Y-116780000D03*
X63700000Y-113680000D03*
X48700000Y-105380000D03*
X48700000Y-116780000D03*
X48700000Y-113680000D03*
X153700000Y-105380000D03*
X153700000Y-116780000D03*
X153700000Y-113680000D03*
X138700000Y-85380000D03*
X138700000Y-96780000D03*
X138700000Y-93680000D03*
X123700000Y-85380000D03*
X123700000Y-96780000D03*
X123700000Y-93680000D03*
X108700000Y-85380000D03*
X108700000Y-96780000D03*
X108700000Y-93680000D03*
X93700000Y-85380000D03*
X93700000Y-96780000D03*
X93700000Y-93680000D03*
X78700000Y-85380000D03*
X78700000Y-96780000D03*
X78700000Y-93680000D03*
X63700000Y-85380000D03*
X63700000Y-96780000D03*
X63700000Y-93680000D03*
X48700000Y-85380000D03*
X48700000Y-96780000D03*
X48700000Y-93680000D03*
X153700000Y-85380000D03*
X153700000Y-96780000D03*
X153700000Y-93680000D03*
X138700000Y-65380000D03*
X138700000Y-76780000D03*
X138700000Y-73680000D03*
X123700000Y-65380000D03*
X123700000Y-76780000D03*
X123700000Y-73680000D03*
X108700000Y-65380000D03*
X108700000Y-76780000D03*
X108700000Y-73680000D03*
X93700000Y-65380000D03*
X93700000Y-76780000D03*
X93700000Y-73680000D03*
X78700000Y-65380000D03*
X78700000Y-76780000D03*
X78700000Y-73680000D03*
X63700000Y-65380000D03*
X63700000Y-76780000D03*
X63700000Y-73680000D03*
X48700000Y-65380000D03*
X48700000Y-76780000D03*
X48700000Y-73680000D03*
X153700000Y-65380000D03*
X153700000Y-76780000D03*
X153700000Y-73680000D03*
D15*
X200240000Y-90700000D03*
X197700000Y-90700000D03*
X200240000Y-88160000D03*
X197700000Y-88160000D03*
X200240000Y-85620000D03*
X197700000Y-85620000D03*
X200240000Y-83080000D03*
X197700000Y-83080000D03*
X200240000Y-80540000D03*
X197700000Y-80540000D03*
X200240000Y-78000000D03*
X197700000Y-78000000D03*
X200240000Y-75460000D03*
X197700000Y-75460000D03*
X200240000Y-72920000D03*
X197700000Y-72920000D03*
X200240000Y-70380000D03*
X197700000Y-70380000D03*
X200240000Y-67840000D03*
X197700000Y-67840000D03*
X200240000Y-65300000D03*
X197700000Y-65300000D03*
X200240000Y-62760000D03*
X197700000Y-62760000D03*
X200240000Y-60220000D03*
X197700000Y-60220000D03*
X200240000Y-57680000D03*
X197700000Y-57680000D03*
X200240000Y-55140000D03*
X197700000Y-55140000D03*
X200240000Y-52600000D03*
D16*
X197700000Y-52600000D03*
D25*
X138700000Y-45380000D03*
X138700000Y-56780000D03*
X138700000Y-53680000D03*
X123700000Y-45380000D03*
X123700000Y-56780000D03*
X123700000Y-53680000D03*
X108700000Y-45380000D03*
X108700000Y-56780000D03*
X108700000Y-53680000D03*
X93418000Y-45380000D03*
X93418000Y-56780000D03*
X93418000Y-53680000D03*
X78512000Y-45380000D03*
X78512000Y-56780000D03*
X78512000Y-53680000D03*
X63606000Y-45380000D03*
X63606000Y-56780000D03*
X63606000Y-53680000D03*
X48700000Y-45380000D03*
X48700000Y-56780000D03*
X48700000Y-53680000D03*
X153700000Y-45380000D03*
X153700000Y-56780000D03*
X153700000Y-53680000D03*
D19*
X188120000Y-148500000D03*
D14*
X180500000Y-148500000D03*
D19*
X185800000Y-62488000D03*
D12*
X193300000Y-62488000D03*
D26*
X202700000Y-139500000D03*
X202700000Y-135300000D03*
X236100000Y-113800000D03*
X180400000Y-135500000D03*
X176300000Y-136500000D03*
X195365026Y-51051735D03*
X190905775Y-78596275D03*
X191800000Y-76500000D03*
X196018496Y-47967701D03*
X198200000Y-121800000D03*
X193900000Y-120528479D03*
X179000000Y-124300000D03*
X185900000Y-124300000D03*
X221800000Y-113500000D03*
X182200000Y-123300000D03*
X195600000Y-123100000D03*
X206800000Y-129900000D03*
X196100000Y-126500000D03*
X196000000Y-135300000D03*
X237700000Y-137700000D03*
X202300000Y-129900000D03*
X200200000Y-137009490D03*
X198800000Y-129700000D03*
D27*
X223200000Y-122400000D02*
X223200000Y-121600000D01*
X223200000Y-121600000D02*
X225500000Y-119300000D01*
X209620000Y-126131370D02*
X212200000Y-128711370D01*
X209620000Y-125000000D02*
X209620000Y-126131370D01*
X212200000Y-128711370D02*
X212200000Y-132500000D01*
X202700000Y-139500000D02*
X202700000Y-135300000D01*
X230820000Y-111400000D02*
X233220000Y-113800000D01*
X233220000Y-113800000D02*
X236100000Y-113800000D01*
X177300000Y-135500000D02*
X176300000Y-136500000D01*
X180400000Y-135500000D02*
X177300000Y-135500000D01*
X197700000Y-57680000D02*
X197700000Y-59889536D01*
X197700000Y-59889536D02*
X197571807Y-60017729D01*
X197571807Y-60017729D02*
X197982271Y-60017729D01*
X194183329Y-57680000D02*
X193453162Y-58410167D01*
X193300000Y-59523370D02*
X193335972Y-59559342D01*
X193300000Y-58392000D02*
X193300000Y-59523370D01*
X193335972Y-59559342D02*
X193335972Y-61664028D01*
X193335972Y-61664028D02*
X193000000Y-62000000D01*
X195320000Y-51096761D02*
X195365026Y-51051735D01*
X195320000Y-57680000D02*
X195320000Y-51096761D01*
X195320000Y-57680000D02*
X194183329Y-57680000D01*
X197700000Y-57680000D02*
X195320000Y-57680000D01*
X217590000Y-139560000D02*
X217590000Y-138410000D01*
X217590000Y-138410000D02*
X221000000Y-135000000D01*
D28*
X131195890Y-128804110D02*
X130800000Y-129200000D01*
X130800000Y-125200000D02*
X130800000Y-126431000D01*
X130800000Y-126431000D02*
X131195890Y-126826890D01*
X131195890Y-126826890D02*
X131195890Y-128804110D01*
D27*
X221788630Y-130300000D02*
X221000000Y-130300000D01*
X222068630Y-130020000D02*
X221788630Y-130300000D01*
X223200000Y-130020000D02*
X222068630Y-130020000D01*
X221000000Y-135000000D02*
X221000000Y-130300000D01*
X203417989Y-123037989D02*
X203240000Y-122860000D01*
X219062011Y-123037989D02*
X203417989Y-123037989D01*
X203240000Y-122860000D02*
X203381001Y-123001001D01*
X202000000Y-121620000D02*
X203240000Y-122860000D01*
X221000000Y-130300000D02*
X221000000Y-124000000D01*
X221000000Y-124000000D02*
X221500000Y-123500000D01*
X221500000Y-123500000D02*
X221500000Y-120600000D01*
X221500000Y-120600000D02*
X219062011Y-123037989D01*
X221500000Y-120600000D02*
X221800000Y-120600000D01*
X221800000Y-120600000D02*
X223200000Y-119200000D01*
X204000000Y-135000000D02*
X202000000Y-133000000D01*
X204000000Y-143900000D02*
X204000000Y-135000000D01*
X205300000Y-145200000D02*
X204000000Y-143900000D01*
X216062002Y-145200000D02*
X205300000Y-145200000D01*
X216840001Y-140309999D02*
X216840001Y-141159999D01*
X217590000Y-139560000D02*
X216840001Y-140309999D01*
X216840001Y-141159999D02*
X216000000Y-142000000D01*
X216000000Y-142000000D02*
X217131001Y-143131001D01*
X217131001Y-143131001D02*
X218131001Y-143131001D01*
X218131001Y-143131001D02*
X216062002Y-145200000D01*
D28*
X188120000Y-148500000D02*
X192300000Y-148500000D01*
X192300000Y-148500000D02*
X193100000Y-147700000D01*
X193100000Y-147700000D02*
X193200000Y-147800000D01*
X188120000Y-149631370D02*
X189300000Y-150811370D01*
X188120000Y-148500000D02*
X188120000Y-149631370D01*
X189300000Y-150811370D02*
X189300000Y-152600000D01*
X180500000Y-149681000D02*
X181600000Y-150781000D01*
X180500000Y-148500000D02*
X180500000Y-149681000D01*
X188921942Y-154500000D02*
X181600000Y-154500000D01*
X192961942Y-150460000D02*
X188921942Y-154500000D01*
X193000000Y-150460000D02*
X192961942Y-150460000D01*
X181600000Y-150781000D02*
X181600000Y-154500000D01*
X181600000Y-154500000D02*
X181600000Y-157500000D01*
X153700000Y-56780000D02*
X152220000Y-56780000D01*
X152220000Y-56780000D02*
X149000000Y-60000000D01*
X47800001Y-57679999D02*
X46320001Y-57679999D01*
X48700000Y-56780000D02*
X47800001Y-57679999D01*
X46320001Y-57679999D02*
X44000000Y-60000000D01*
X58500000Y-59800000D02*
X61200000Y-59800000D01*
X61200000Y-59800000D02*
X64000000Y-57000000D01*
X74499999Y-58800001D02*
X77199999Y-58800001D01*
X73700000Y-59600000D02*
X74499999Y-58800001D01*
X77199999Y-58800001D02*
X79000000Y-57000000D01*
X87900000Y-59400000D02*
X90600000Y-59400000D01*
X90600000Y-59400000D02*
X93000000Y-57000000D01*
X103840000Y-60000000D02*
X106000000Y-60000000D01*
X106000000Y-60000000D02*
X109000000Y-57000000D01*
X119000000Y-60000000D02*
X121000000Y-60000000D01*
X121000000Y-60000000D02*
X124000000Y-57000000D01*
X138700000Y-56780000D02*
X135480000Y-60000000D01*
X135480000Y-60000000D02*
X134000000Y-60000000D01*
X232679499Y-68320501D02*
X233000000Y-68000000D01*
X232679499Y-73489787D02*
X232679499Y-68320501D01*
X207940000Y-83000000D02*
X223169286Y-83000000D01*
X200240000Y-90700000D02*
X207940000Y-83000000D01*
X223169286Y-83000000D02*
X232679499Y-73489787D01*
X207699338Y-82418989D02*
X202118327Y-88000000D01*
X231280000Y-74067614D02*
X222928625Y-82418989D01*
X202118327Y-88000000D02*
X200000000Y-88000000D01*
X231280000Y-70300000D02*
X231280000Y-74067614D01*
X222928625Y-82418989D02*
X207699338Y-82418989D01*
X230010000Y-67760000D02*
X230010000Y-74515942D01*
X207458676Y-81837978D02*
X203296654Y-86000000D01*
X203296654Y-86000000D02*
X200000000Y-86000000D01*
X222687964Y-81837978D02*
X207458676Y-81837978D01*
X230010000Y-74515942D02*
X222687964Y-81837978D01*
X204969286Y-83000000D02*
X200000000Y-83000000D01*
X206969286Y-81000000D02*
X204969286Y-83000000D01*
X228740000Y-73723333D02*
X227803834Y-74659499D01*
X228740000Y-70300000D02*
X228740000Y-73723333D01*
X227803834Y-74659499D02*
X223974559Y-74659499D01*
X218040000Y-81000000D02*
X206969286Y-81000000D01*
X223974559Y-74659499D02*
X222939499Y-75694559D01*
X222939499Y-75694559D02*
X222939499Y-76100501D01*
X222939499Y-76100501D02*
X218040000Y-81000000D01*
X213020662Y-79521512D02*
X201478488Y-79521512D01*
X201478488Y-79521512D02*
X200000000Y-81000000D01*
X214050000Y-78492174D02*
X213020662Y-79521512D01*
X214050000Y-68060000D02*
X214050000Y-78492174D01*
X200940501Y-78940501D02*
X200000000Y-78000000D01*
X212780000Y-70600000D02*
X212780000Y-78940501D01*
X212780000Y-78940501D02*
X200940501Y-78940501D01*
X200040501Y-74959499D02*
X200000000Y-75000000D01*
X211510000Y-68060000D02*
X211510000Y-74959499D01*
X211510000Y-74959499D02*
X200040501Y-74959499D01*
X201000000Y-74000000D02*
X200000000Y-73000000D01*
X210240000Y-70600000D02*
X210240000Y-74000000D01*
X210240000Y-74000000D02*
X201000000Y-74000000D01*
X199429499Y-150047557D02*
X199429499Y-151929499D01*
X192572443Y-143190501D02*
X199429499Y-150047557D01*
X183840000Y-142000000D02*
X185030501Y-143190501D01*
X185030501Y-143190501D02*
X192572443Y-143190501D01*
X199429499Y-151929499D02*
X200500000Y-153000000D01*
X201418989Y-68581011D02*
X200000000Y-70000000D01*
X205256967Y-64743033D02*
X201418989Y-68581011D01*
X232550000Y-45260000D02*
X232550000Y-60514518D01*
X232550000Y-60514518D02*
X228321485Y-64743033D01*
X228321485Y-64743033D02*
X205256967Y-64743033D01*
X110480000Y-128880000D02*
X110800000Y-129200000D01*
X110480000Y-125200000D02*
X110480000Y-128880000D01*
X190905775Y-100694225D02*
X190905775Y-79161960D01*
X190905775Y-79161960D02*
X190905775Y-78596275D01*
X111721511Y-123078489D02*
X168521511Y-123078489D01*
X109900000Y-124900000D02*
X111721511Y-123078489D01*
X168521511Y-123078489D02*
X190905775Y-100694225D01*
X203837978Y-64162022D02*
X200000000Y-68000000D01*
X231280000Y-60962845D02*
X228080823Y-64162022D01*
X228080823Y-64162022D02*
X203837978Y-64162022D01*
X231280000Y-47800000D02*
X231280000Y-60962845D01*
X113020000Y-128980000D02*
X112800000Y-129200000D01*
X113020000Y-125200000D02*
X113020000Y-128980000D01*
X191800000Y-77065685D02*
X191800000Y-76500000D01*
X191800000Y-100621673D02*
X191800000Y-77065685D01*
X168762173Y-123659500D02*
X191800000Y-100621673D01*
X112320000Y-124900000D02*
X113560500Y-123659500D01*
X113560500Y-123659500D02*
X168762173Y-123659500D01*
X227840161Y-63581011D02*
X201418989Y-63581011D01*
X201418989Y-63581011D02*
X200000000Y-65000000D01*
X230010000Y-61411172D02*
X227840161Y-63581011D01*
X230010000Y-45260000D02*
X230010000Y-61411172D01*
D27*
X197700000Y-63962081D02*
X198000000Y-64262081D01*
X197700000Y-62760000D02*
X197700000Y-63962081D01*
X198000000Y-64262081D02*
X198000000Y-65000000D01*
X215840001Y-46309999D02*
X215840001Y-47159999D01*
X216590000Y-45560000D02*
X215840001Y-46309999D01*
X215840001Y-47159999D02*
X215000000Y-48000000D01*
X235090000Y-45260000D02*
X235090000Y-46910000D01*
X235090000Y-46910000D02*
X234000000Y-48000000D01*
X193300000Y-50200000D02*
X193300000Y-53700000D01*
X193300000Y-53700000D02*
X193000000Y-54000000D01*
X192637119Y-63869001D02*
X197130999Y-63869001D01*
X191918999Y-63150881D02*
X192637119Y-63869001D01*
X193300000Y-54296000D02*
X191918999Y-55677001D01*
X191918999Y-55677001D02*
X191918999Y-63150881D01*
X197130999Y-63869001D02*
X198000000Y-63000000D01*
X196018496Y-47967701D02*
X199757198Y-44228999D01*
X216228999Y-44228999D02*
X217000000Y-45000000D01*
X226831119Y-43928999D02*
X233928999Y-43928999D01*
X226531119Y-44228999D02*
X226831119Y-43928999D01*
X215771001Y-44228999D02*
X226531119Y-44228999D01*
X215771001Y-44228999D02*
X216228999Y-44228999D01*
X199757198Y-44228999D02*
X215771001Y-44228999D01*
X233928999Y-43928999D02*
X235000000Y-45000000D01*
X233820000Y-54837882D02*
X235000000Y-56017882D01*
X233820000Y-47800000D02*
X233820000Y-54837882D01*
X235000000Y-68000000D02*
X235000000Y-69000000D01*
X235000000Y-69000000D02*
X234000000Y-70000000D01*
X235000000Y-66000000D02*
X219000000Y-66000000D01*
X235000000Y-66000000D02*
X235000000Y-68000000D01*
X235000000Y-56017882D02*
X235000000Y-66000000D01*
X219000000Y-66000000D02*
X217000000Y-68000000D01*
X215840001Y-68809999D02*
X215840001Y-70159999D01*
X216590000Y-68060000D02*
X215840001Y-68809999D01*
X215840001Y-70159999D02*
X215000000Y-71000000D01*
D28*
X227599499Y-63000000D02*
X200000000Y-63000000D01*
X227599499Y-48940501D02*
X227599499Y-63000000D01*
X228740000Y-47800000D02*
X227599499Y-48940501D01*
X214050000Y-55655019D02*
X209542999Y-60162020D01*
X200162020Y-60162020D02*
X200000000Y-60000000D01*
X209542999Y-60162020D02*
X200162020Y-60162020D01*
X214050000Y-45560000D02*
X214050000Y-55655019D01*
X209302337Y-59581009D02*
X201581009Y-59581009D01*
X201581009Y-59581009D02*
X200000000Y-58000000D01*
X212780000Y-48100000D02*
X212780000Y-56103346D01*
X212780000Y-56103346D02*
X209302337Y-59581009D01*
X211510000Y-56551673D02*
X209061673Y-59000000D01*
X209061673Y-59000000D02*
X204000000Y-59000000D01*
X204000000Y-59000000D02*
X200000000Y-55000000D01*
X211510000Y-45560000D02*
X211510000Y-56551673D01*
D27*
X198000000Y-53000000D02*
X198000000Y-55000000D01*
X193300000Y-67715370D02*
X193453163Y-67868533D01*
X193300000Y-66584000D02*
X193300000Y-67715370D01*
X193453163Y-67868533D02*
X193453163Y-70546837D01*
X190956989Y-50499129D02*
X190956989Y-64956989D01*
X192637119Y-48818999D02*
X190956989Y-50499129D01*
X195530999Y-48818999D02*
X192637119Y-48818999D01*
X197700000Y-52600000D02*
X197700000Y-50988000D01*
X197700000Y-50988000D02*
X195530999Y-48818999D01*
X190956989Y-64956989D02*
X193000000Y-67000000D01*
X217000000Y-93000000D02*
X216000000Y-93000000D01*
X193300000Y-88417882D02*
X197013119Y-92131001D01*
X193300000Y-70680000D02*
X193300000Y-88417882D01*
X201868999Y-92131001D02*
X205000000Y-89000000D01*
X197013119Y-92131001D02*
X201868999Y-92131001D01*
X205000000Y-89000000D02*
X213000000Y-89000000D01*
X215840001Y-93809999D02*
X215840001Y-95367417D01*
X216590000Y-93060000D02*
X215840001Y-93809999D01*
X215840001Y-95367417D02*
X215207418Y-96000000D01*
X215207418Y-96000000D02*
X215000000Y-96000000D01*
X215000000Y-96000000D02*
X216000000Y-96000000D01*
X219000000Y-89000000D02*
X231000000Y-89000000D01*
X216000000Y-92000000D02*
X219000000Y-89000000D01*
X216000000Y-92000000D02*
X217000000Y-93000000D01*
X213000000Y-89000000D02*
X216000000Y-92000000D01*
X231000000Y-89000000D02*
X235000000Y-93000000D01*
X235090000Y-92760000D02*
X235090000Y-93910000D01*
X235090000Y-93910000D02*
X234000000Y-95000000D01*
D28*
X210240000Y-56989311D02*
X204012075Y-56989311D01*
X210240000Y-48100000D02*
X210240000Y-56989311D01*
X204012075Y-56989311D02*
X200000000Y-52977236D01*
X149000000Y-80000000D02*
X151000000Y-80000000D01*
X151000000Y-80000000D02*
X154000000Y-77000000D01*
X48700000Y-76780000D02*
X47220000Y-76780000D01*
X47220000Y-76780000D02*
X44000000Y-80000000D01*
X59000000Y-80000000D02*
X62000000Y-77000000D01*
X62000000Y-77000000D02*
X63000000Y-77000000D01*
X74000000Y-80000000D02*
X76000000Y-80000000D01*
X76000000Y-80000000D02*
X79000000Y-77000000D01*
X89000000Y-80000000D02*
X91000000Y-80000000D01*
X91000000Y-80000000D02*
X94000000Y-77000000D01*
X104000000Y-80000000D02*
X108000000Y-76000000D01*
X108000000Y-76000000D02*
X109000000Y-77000000D01*
X118500000Y-80000000D02*
X121000000Y-80000000D01*
X121000000Y-80000000D02*
X124000000Y-77000000D01*
X134000000Y-80000000D02*
X137000000Y-77000000D01*
X137000000Y-77000000D02*
X138000000Y-77000000D01*
X153700000Y-96780000D02*
X152220000Y-96780000D01*
X152220000Y-96780000D02*
X149000000Y-100000000D01*
X48700000Y-96780000D02*
X47220000Y-96780000D01*
X47220000Y-96780000D02*
X44000000Y-100000000D01*
X63700000Y-96780000D02*
X62220000Y-96780000D01*
X62220000Y-96780000D02*
X59000000Y-100000000D01*
X78700000Y-96780000D02*
X77220000Y-96780000D01*
X77220000Y-96780000D02*
X74000000Y-100000000D01*
X93700000Y-96780000D02*
X92220000Y-96780000D01*
X92220000Y-96780000D02*
X89000000Y-100000000D01*
X108700000Y-96780000D02*
X105480000Y-100000000D01*
X105480000Y-100000000D02*
X103000000Y-100000000D01*
X121220000Y-96780000D02*
X118000000Y-100000000D01*
X123700000Y-96780000D02*
X121220000Y-96780000D01*
X138700000Y-96780000D02*
X135480000Y-100000000D01*
X135480000Y-100000000D02*
X134000000Y-100000000D01*
X149000000Y-120000000D02*
X151000000Y-120000000D01*
X151000000Y-120000000D02*
X154000000Y-117000000D01*
X44100000Y-120000000D02*
X46000000Y-120000000D01*
X46000000Y-120000000D02*
X49000000Y-117000000D01*
X59000000Y-120000000D02*
X61000000Y-120000000D01*
X61000000Y-120000000D02*
X64000000Y-117000000D01*
X74000000Y-120000000D02*
X76000000Y-120000000D01*
X76000000Y-120000000D02*
X79000000Y-117000000D01*
X89000000Y-120000000D02*
X91000000Y-120000000D01*
X91000000Y-120000000D02*
X94000000Y-117000000D01*
X104000000Y-120000000D02*
X106000000Y-120000000D01*
X106000000Y-120000000D02*
X109000000Y-117000000D01*
X119000000Y-120000000D02*
X121000000Y-120000000D01*
X121000000Y-120000000D02*
X124000000Y-117000000D01*
X134000000Y-120000000D02*
X137000000Y-117000000D01*
X137000000Y-117000000D02*
X138000000Y-117000000D01*
X179000000Y-152500000D02*
X179000000Y-153631370D01*
X179000000Y-153631370D02*
X179000000Y-157600000D01*
X215890501Y-102926443D02*
X214000000Y-101035942D01*
X215890501Y-119139131D02*
X215890501Y-102926443D01*
X217240000Y-121620000D02*
X217240000Y-120488630D01*
X217240000Y-120488630D02*
X215890501Y-119139131D01*
X214000000Y-101035942D02*
X214000000Y-93100000D01*
X214700000Y-112868630D02*
X211600000Y-109768630D01*
X214700000Y-114000000D02*
X214700000Y-112868630D01*
X211600000Y-109768630D02*
X211600000Y-96800000D01*
X211600000Y-96800000D02*
X212600000Y-95800000D01*
X209620000Y-121620000D02*
X210810501Y-120429499D01*
X211600000Y-93400000D02*
X211400000Y-93200000D01*
X210810501Y-96717441D02*
X211500000Y-96027942D01*
X210810501Y-120429499D02*
X210810501Y-96717441D01*
X211500000Y-96027942D02*
X211500000Y-93100000D01*
X207080000Y-114000000D02*
X210100000Y-110980000D01*
X210100000Y-95600000D02*
X210200000Y-95600000D01*
X210100000Y-110980000D02*
X210100000Y-96100000D01*
X210100000Y-96100000D02*
X210200000Y-96000000D01*
X215200000Y-139600000D02*
X215300000Y-139600000D01*
X217240000Y-133751370D02*
X216300000Y-134691370D01*
X217240000Y-132620000D02*
X217240000Y-133751370D01*
X216300000Y-134691370D02*
X216300000Y-138400000D01*
X216300000Y-138400000D02*
X215100000Y-139600000D01*
X215890501Y-134279197D02*
X213800000Y-136369698D01*
X215890501Y-132048559D02*
X215890501Y-134279197D01*
X214700000Y-125000000D02*
X214700000Y-130858058D01*
X214700000Y-130858058D02*
X215890501Y-132048559D01*
X213800000Y-136369698D02*
X213800000Y-141900000D01*
X212510000Y-138499340D02*
X209800000Y-135789340D01*
X212510000Y-139560000D02*
X212510000Y-138499340D01*
X209800000Y-135789340D02*
X209800000Y-132600000D01*
X211240000Y-142100000D02*
X209840501Y-140700501D01*
X209840501Y-140700501D02*
X209422559Y-140700501D01*
X208429499Y-139707441D02*
X208461029Y-139738971D01*
X208429499Y-126349499D02*
X208429499Y-139707441D01*
X207080000Y-125000000D02*
X208429499Y-126349499D01*
X209422559Y-140700501D02*
X208461029Y-139738971D01*
X208461029Y-139738971D02*
X208270501Y-139548443D01*
X236890501Y-105126443D02*
X232600000Y-100835942D01*
X232600000Y-100835942D02*
X232600000Y-92800000D01*
X237249499Y-110987557D02*
X237249499Y-117849499D01*
X236890501Y-105126443D02*
X236890501Y-110628559D01*
X236890501Y-110628559D02*
X237249499Y-110987557D01*
X237249499Y-117849499D02*
X238300000Y-118900000D01*
X231280000Y-95300000D02*
X231280000Y-109580000D01*
X233309499Y-110209499D02*
X235009499Y-110209499D01*
X231280000Y-109580000D02*
X232680000Y-109580000D01*
X232680000Y-109580000D02*
X233309499Y-110209499D01*
X235009499Y-110209499D02*
X236000000Y-111200000D01*
X229429499Y-96298443D02*
X230100000Y-95627942D01*
X230100000Y-95627942D02*
X230100000Y-93000000D01*
X229470501Y-96339445D02*
X229429499Y-96298443D01*
X229470501Y-111812443D02*
X229470501Y-96339445D01*
X230820000Y-113161942D02*
X229470501Y-111812443D01*
X230820000Y-119020000D02*
X230820000Y-113161942D01*
X228740000Y-96360660D02*
X228400000Y-96700660D01*
X228740000Y-95300000D02*
X228740000Y-96360660D01*
X228400000Y-96700660D02*
X228400000Y-111500000D01*
X237661942Y-130020000D02*
X233781942Y-133900000D01*
X238440000Y-130020000D02*
X237661942Y-130020000D01*
X233781942Y-133900000D02*
X233000000Y-133900000D01*
X232010501Y-133301557D02*
X231900000Y-133412058D01*
X235900000Y-122400000D02*
X232010501Y-126289499D01*
X232010501Y-126289499D02*
X232010501Y-133301557D01*
X231900000Y-133412058D02*
X231900000Y-136500000D01*
X230820000Y-131151370D02*
X230500000Y-131471370D01*
X230820000Y-130020000D02*
X230820000Y-131151370D01*
X230500000Y-131471370D02*
X230500000Y-133900000D01*
X229409499Y-133362559D02*
X229409499Y-136309499D01*
X229500000Y-133272058D02*
X229409499Y-133362559D01*
X229500000Y-124751370D02*
X229500000Y-133272058D01*
X228280000Y-122400000D02*
X228280000Y-123531370D01*
X228280000Y-123531370D02*
X229500000Y-124751370D01*
X229409499Y-136309499D02*
X229500000Y-136400000D01*
X159009510Y-140409490D02*
X165109490Y-140409490D01*
X159000000Y-142000000D02*
X159000000Y-140419000D01*
X159000000Y-140419000D02*
X159009510Y-140409490D01*
X165109490Y-140409490D02*
X166700000Y-142000000D01*
X134527868Y-150696696D02*
X134527868Y-128237150D01*
X184281324Y-121137978D02*
X184943346Y-121800000D01*
X197634315Y-121800000D02*
X198200000Y-121800000D01*
X169724821Y-125983544D02*
X174570386Y-121137978D01*
X184943346Y-121800000D02*
X197634315Y-121800000D01*
X114860000Y-148900000D02*
X117268879Y-151308879D01*
X133915685Y-151308879D02*
X134527868Y-150696696D01*
X174570386Y-121137978D02*
X184281324Y-121137978D01*
X136781474Y-125983544D02*
X169724821Y-125983544D01*
X134527868Y-128237150D02*
X136781474Y-125983544D01*
X117268879Y-151308879D02*
X133915685Y-151308879D01*
X114860000Y-147697919D02*
X115100000Y-147457919D01*
X114860000Y-148900000D02*
X114860000Y-147697919D01*
X115100000Y-147457919D02*
X115100000Y-144800000D01*
X136300150Y-124821522D02*
X169243497Y-124821522D01*
X119800000Y-149200000D02*
X120740501Y-150140501D01*
X131262401Y-150140501D02*
X133189894Y-148213008D01*
X133189894Y-148213008D02*
X133189895Y-127931777D01*
X169243497Y-124821522D02*
X174327041Y-119737977D01*
X133189895Y-127931777D02*
X136300150Y-124821522D01*
X205237977Y-119737977D02*
X207100000Y-121600000D01*
X174327041Y-119737977D02*
X205237977Y-119737977D01*
X120740501Y-150140501D02*
X131262401Y-150140501D01*
X119940000Y-148900000D02*
X119940000Y-144660000D01*
X119940000Y-144660000D02*
X120000000Y-144600000D01*
X117800000Y-146461370D02*
X117800000Y-149200000D01*
X118310000Y-144820000D02*
X118310000Y-145951370D01*
X118310000Y-145951370D02*
X117800000Y-146461370D01*
X117400000Y-148900000D02*
X119227868Y-150727868D01*
X119227868Y-150727868D02*
X133675023Y-150727868D01*
X133870894Y-150531999D02*
X133870902Y-140107420D01*
X133675023Y-150727868D02*
X133870894Y-150531999D01*
X174358212Y-120528479D02*
X193334315Y-120528479D01*
X133770905Y-140107420D02*
X133770905Y-128172440D01*
X136540812Y-125402533D02*
X169484159Y-125402533D01*
X193334315Y-120528479D02*
X193900000Y-120528479D01*
X169484159Y-125402533D02*
X174358212Y-120528479D01*
X133770905Y-128172440D02*
X136540812Y-125402533D01*
X205000000Y-114145308D02*
X205000000Y-114000000D01*
X122590001Y-145619999D02*
X122590001Y-148990001D01*
X123390000Y-144820000D02*
X122590001Y-145619999D01*
X122590001Y-148990001D02*
X122800000Y-149200000D01*
X122690000Y-144520000D02*
X123489999Y-143720001D01*
X132608884Y-136626097D02*
X132608884Y-127691116D01*
X199643034Y-119156966D02*
X204700000Y-114100000D01*
X132608884Y-127691116D02*
X136059489Y-124240511D01*
X123489999Y-143720001D02*
X124268057Y-143720001D01*
X124268057Y-143720001D02*
X128777557Y-139210501D01*
X128777557Y-139210501D02*
X130024480Y-139210501D01*
X169002835Y-124240511D02*
X174086379Y-119156966D01*
X130024480Y-139210501D02*
X132608884Y-136626097D01*
X174086379Y-119156966D02*
X199643034Y-119156966D01*
X136059489Y-124240511D02*
X169002835Y-124240511D01*
X137744122Y-128307588D02*
X170687469Y-128307588D01*
X104700000Y-149000000D02*
X109332923Y-153632923D01*
X134878335Y-153632923D02*
X136851912Y-151659347D01*
X136851912Y-129199798D02*
X137744122Y-128307588D01*
X170687469Y-128307588D02*
X174695056Y-124300000D01*
X174695056Y-124300000D02*
X178434315Y-124300000D01*
X178434315Y-124300000D02*
X179000000Y-124300000D01*
X109332923Y-153632923D02*
X134878335Y-153632923D01*
X136851912Y-151659347D02*
X136851912Y-129199798D01*
X104700000Y-148900000D02*
X104700000Y-144900000D01*
X104700000Y-144900000D02*
X105000000Y-144600000D01*
X137262798Y-127145566D02*
X170206145Y-127145566D01*
X170206145Y-127145566D02*
X175051710Y-122300000D01*
X185334315Y-124300000D02*
X185900000Y-124300000D01*
X183334315Y-122300000D02*
X185334315Y-124300000D01*
X175051710Y-122300000D02*
X183334315Y-122300000D01*
X135689890Y-128718474D02*
X137262798Y-127145566D01*
X135689890Y-151178020D02*
X135689890Y-128718474D01*
X134397009Y-152470901D02*
X135689890Y-151178020D01*
X113570901Y-152470901D02*
X134397009Y-152470901D01*
X110000000Y-148900000D02*
X113570901Y-152470901D01*
X222199999Y-113899999D02*
X223399999Y-113899999D01*
X221800000Y-113500000D02*
X222199999Y-113899999D01*
X223399999Y-113899999D02*
X228700000Y-119200000D01*
X109780000Y-147697919D02*
X110100000Y-147377919D01*
X109780000Y-148900000D02*
X109780000Y-147697919D01*
X110100000Y-147377919D02*
X110100000Y-144800000D01*
X107350001Y-145619999D02*
X107350001Y-148750001D01*
X108150000Y-144820000D02*
X107350001Y-145619999D01*
X107350001Y-148750001D02*
X107800000Y-149200000D01*
X136094945Y-151594641D02*
X136194793Y-151494793D01*
X111391912Y-153051912D02*
X134637674Y-153051912D01*
X134637674Y-153051912D02*
X136194793Y-151494793D01*
X107240000Y-148900000D02*
X111391912Y-153051912D01*
X136270901Y-128959136D02*
X137503460Y-127726577D01*
X181634315Y-123300000D02*
X182200000Y-123300000D01*
X136194793Y-151494793D02*
X136270901Y-151418685D01*
X136270901Y-151418685D02*
X136270901Y-128959136D01*
X137503460Y-127726577D02*
X170446807Y-127726577D01*
X170446807Y-127726577D02*
X174873383Y-123300000D01*
X174873383Y-123300000D02*
X181634315Y-123300000D01*
X112800000Y-146381370D02*
X112800000Y-149200000D01*
X113230000Y-145951370D02*
X112800000Y-146381370D01*
X113230000Y-144820000D02*
X113230000Y-145951370D01*
X174811048Y-121718989D02*
X184040662Y-121718989D01*
X135108879Y-128477812D02*
X137022136Y-126564555D01*
X135108879Y-150937358D02*
X135108879Y-128477812D01*
X185421673Y-123100000D02*
X195034315Y-123100000D01*
X184040662Y-121718989D02*
X185421673Y-123100000D01*
X137022136Y-126564555D02*
X169965483Y-126564555D01*
X134156347Y-151889890D02*
X135108879Y-150937358D01*
X195034315Y-123100000D02*
X195600000Y-123100000D01*
X169965483Y-126564555D02*
X174811048Y-121718989D01*
X114989890Y-151889890D02*
X134156347Y-151889890D01*
X112300000Y-149200000D02*
X114989890Y-151889890D01*
X84490001Y-145619999D02*
X84490001Y-148890001D01*
X85290000Y-144820000D02*
X84490001Y-145619999D01*
X84490001Y-148890001D02*
X84800000Y-149200000D01*
X202256967Y-127956967D02*
X204856967Y-127956967D01*
X202256967Y-127956967D02*
X202556967Y-127956967D01*
X204856967Y-127956967D02*
X206800000Y-129900000D01*
X91356909Y-155956967D02*
X135840992Y-155956967D01*
X135840992Y-155956967D02*
X139175956Y-152622003D01*
X139175956Y-130991123D02*
X171290625Y-130991123D01*
X174324781Y-127956967D02*
X202256967Y-127956967D01*
X171290625Y-130991123D02*
X174324781Y-127956967D01*
X84500000Y-149100000D02*
X91356909Y-155956967D01*
X139175956Y-152622003D02*
X139175956Y-130991123D01*
X89570001Y-148970001D02*
X89800000Y-149200000D01*
X90370000Y-144820000D02*
X89570001Y-145619999D01*
X89570001Y-145619999D02*
X89570001Y-148970001D01*
X89500000Y-149100000D02*
X95194945Y-154794945D01*
X138013934Y-129829101D02*
X170809301Y-129829101D01*
X174138402Y-126500000D02*
X196100000Y-126500000D01*
X135359660Y-154794945D02*
X138013934Y-152140671D01*
X95194945Y-154794945D02*
X135359660Y-154794945D01*
X138013934Y-152140671D02*
X138013934Y-129829101D01*
X170809301Y-129829101D02*
X174138402Y-126500000D01*
X87830000Y-148170000D02*
X86800000Y-149200000D01*
X87830000Y-144820000D02*
X87830000Y-148170000D01*
X135600330Y-155375956D02*
X138594945Y-152381341D01*
X93395956Y-155375956D02*
X135600330Y-155375956D01*
X205889499Y-125571441D02*
X205889499Y-124428559D01*
X171049963Y-130410112D02*
X174149965Y-127310110D01*
X138594945Y-152381341D02*
X138594945Y-130410112D01*
X211309499Y-123809499D02*
X212300000Y-124800000D01*
X206508559Y-123809499D02*
X211309499Y-123809499D01*
X205889499Y-124428559D02*
X206508559Y-123809499D01*
X204150830Y-127310110D02*
X205889499Y-125571441D01*
X86920000Y-148900000D02*
X93395956Y-155375956D01*
X138594945Y-130410112D02*
X171049963Y-130410112D01*
X174149965Y-127310110D02*
X204150830Y-127310110D01*
X170928131Y-128888599D02*
X174216729Y-125600000D01*
X137432923Y-151900009D02*
X137432923Y-129440460D01*
X174216729Y-125600000D02*
X200297098Y-125600000D01*
X92000000Y-148900000D02*
X97313934Y-154213934D01*
X97313934Y-154213934D02*
X135118998Y-154213934D01*
X135118998Y-154213934D02*
X137432923Y-151900009D01*
X137432923Y-129440460D02*
X137984784Y-128888599D01*
X137984784Y-128888599D02*
X170928131Y-128888599D01*
X200911032Y-126213934D02*
X203386066Y-126213934D01*
X200297098Y-125600000D02*
X200911032Y-126213934D01*
X203386066Y-126213934D02*
X204400000Y-125200000D01*
X92210000Y-145651370D02*
X91900000Y-145961370D01*
X92210000Y-144520000D02*
X92210000Y-145651370D01*
X91900000Y-145961370D02*
X91900000Y-149100000D01*
X74987571Y-149012429D02*
X74800000Y-149200000D01*
X75155792Y-149012429D02*
X74987571Y-149012429D01*
X75123153Y-145958217D02*
X75123153Y-149012429D01*
X75130000Y-144820000D02*
X75130000Y-145951370D01*
X75130000Y-145951370D02*
X75123153Y-145958217D01*
X75123153Y-149012429D02*
X75155792Y-149012429D01*
X142200000Y-133315165D02*
X194015165Y-133315165D01*
X136821672Y-158400000D02*
X142200000Y-153021672D01*
X142200000Y-153021672D02*
X142200000Y-133315165D01*
X194015165Y-133315165D02*
X196000000Y-135300000D01*
X83720000Y-158400000D02*
X136821672Y-158400000D01*
X74220000Y-148900000D02*
X83720000Y-158400000D01*
X237170501Y-128829499D02*
X236000000Y-130000000D01*
X239500000Y-135900000D02*
X239500000Y-130721942D01*
X237700000Y-137700000D02*
X239500000Y-135900000D01*
X239500000Y-130721942D02*
X239630501Y-130591441D01*
X239630501Y-130591441D02*
X239630501Y-129448559D01*
X239630501Y-129448559D02*
X239011441Y-128829499D01*
X239011441Y-128829499D02*
X237170501Y-128829499D01*
X79800000Y-146361370D02*
X79800000Y-149200000D01*
X80210000Y-144820000D02*
X80210000Y-145951370D01*
X80210000Y-145951370D02*
X79800000Y-146361370D01*
X140337978Y-132153143D02*
X200046857Y-132153143D01*
X79300000Y-148900000D02*
X87518989Y-157118989D01*
X87518989Y-157118989D02*
X136459339Y-157118989D01*
X200046857Y-132153143D02*
X202300000Y-129900000D01*
X136459339Y-157118989D02*
X140337978Y-153240350D01*
X140337978Y-153240350D02*
X140337978Y-132153143D01*
X77609999Y-148050001D02*
X77609999Y-145309999D01*
X76760000Y-148900000D02*
X77609999Y-148050001D01*
X77609999Y-145309999D02*
X77100000Y-144800000D01*
X77100000Y-144800000D02*
X77060509Y-144800000D01*
X140918989Y-153481012D02*
X140918989Y-132734154D01*
X85560000Y-157700000D02*
X136700001Y-157700000D01*
X195924664Y-132734154D02*
X200200000Y-137009490D01*
X76760000Y-148900000D02*
X85560000Y-157700000D01*
X140918989Y-132734154D02*
X195924664Y-132734154D01*
X136700001Y-157700000D02*
X140918989Y-153481012D01*
X82750000Y-149150000D02*
X82800000Y-149200000D01*
X82750000Y-148150000D02*
X82750000Y-148350000D01*
X82750000Y-148150000D02*
X82750000Y-149150000D01*
X82750000Y-144820000D02*
X82750000Y-148150000D01*
X82750000Y-148350000D02*
X82200000Y-148900000D01*
X82200000Y-148900000D02*
X82100000Y-148900000D01*
X89477978Y-156537978D02*
X136081654Y-156537978D01*
X81840000Y-148900000D02*
X89477978Y-156537978D01*
X196927868Y-131572132D02*
X198800000Y-129700000D01*
X139756967Y-131572132D02*
X196927868Y-131572132D01*
X136081654Y-156537978D02*
X139756967Y-152862665D01*
X139756967Y-152862665D02*
X139756967Y-131572132D01*
X174240000Y-149220000D02*
X169300000Y-144280000D01*
X174240000Y-149620000D02*
X174240000Y-149220000D01*
X169300000Y-144280000D02*
X169300000Y-142100000D01*
X68660000Y-59800000D02*
X68660000Y-56340000D01*
X68660000Y-56340000D02*
X71000000Y-54000000D01*
X172063403Y-48719499D02*
X173000000Y-47782902D01*
X71000000Y-53500000D02*
X75780501Y-48719499D01*
X75780501Y-48719499D02*
X172063403Y-48719499D01*
X173000000Y-47782902D02*
X173000000Y-47000000D01*
X54200000Y-59900000D02*
X54200000Y-55800000D01*
X54200000Y-55800000D02*
X56000000Y-54000000D01*
X86841942Y-47420000D02*
X86261942Y-48000000D01*
X170960000Y-47420000D02*
X86841942Y-47420000D01*
X86261942Y-48000000D02*
X62000000Y-48000000D01*
X62000000Y-48000000D02*
X56000000Y-54000000D01*
X83860000Y-59600000D02*
X83860000Y-56140000D01*
X83860000Y-56140000D02*
X86000000Y-54000000D01*
X170960000Y-49960000D02*
X90040000Y-49960000D01*
X86799999Y-53200001D02*
X86000000Y-54000000D01*
X90040000Y-49960000D02*
X86799999Y-53200001D01*
X172200501Y-51259499D02*
X162986460Y-51259499D01*
X106893532Y-50566468D02*
X98859999Y-58600001D01*
X162293429Y-50566468D02*
X106893532Y-50566468D01*
X98859999Y-58600001D02*
X98060000Y-59400000D01*
X162986460Y-51259499D02*
X162293429Y-50566468D01*
X173500000Y-49960000D02*
X172200501Y-51259499D01*
X98060000Y-59400000D02*
X98060000Y-56940000D01*
X98060000Y-56940000D02*
X101000000Y-54000000D01*
X170418989Y-52418989D02*
X171000000Y-53000000D01*
X163324277Y-52418989D02*
X170418989Y-52418989D01*
X114000000Y-60000000D02*
X122852521Y-51147479D01*
X122852521Y-51147479D02*
X162052767Y-51147479D01*
X162052767Y-51147479D02*
X163324277Y-52418989D01*
X114000000Y-60000000D02*
X114000000Y-56000000D01*
X114000000Y-56000000D02*
X116000000Y-54000000D01*
X129959999Y-59200001D02*
X129160000Y-60000000D01*
X137416967Y-51743033D02*
X129959999Y-59200001D01*
X160173352Y-51743033D02*
X137416967Y-51743033D01*
X172200501Y-53799499D02*
X165285795Y-53799499D01*
X173500000Y-52500000D02*
X172200501Y-53799499D01*
X160187895Y-51728490D02*
X160173352Y-51743033D01*
X165285795Y-53799499D02*
X164486296Y-53000000D01*
X164486296Y-53000000D02*
X163083615Y-53000000D01*
X163083615Y-53000000D02*
X161812105Y-51728490D01*
X161812105Y-51728490D02*
X160187895Y-51728490D01*
X129160000Y-60000000D02*
X129160000Y-54840000D01*
X129160000Y-54840000D02*
X131000000Y-53000000D01*
X144160000Y-60000000D02*
X144160000Y-54840000D01*
X144160000Y-54840000D02*
X146000000Y-53000000D01*
X170675956Y-55324044D02*
X171000000Y-55000000D01*
X164585983Y-55324044D02*
X170675956Y-55324044D01*
X146000000Y-53500000D02*
X147175956Y-52324044D01*
X162190501Y-52928559D02*
X164585983Y-55324044D01*
X160428559Y-52309499D02*
X161571441Y-52309499D01*
X160414014Y-52324044D02*
X160428559Y-52309499D01*
X147175956Y-52324044D02*
X160414014Y-52324044D01*
X161571441Y-52309499D02*
X162190501Y-52928559D01*
X159160000Y-60000000D02*
X159160000Y-54840000D01*
X159160000Y-54840000D02*
X161000000Y-53000000D01*
X163780501Y-56280501D02*
X172719499Y-56280501D01*
X161000000Y-53500000D02*
X163780501Y-56280501D01*
X172719499Y-56280501D02*
X174000000Y-55000000D01*
X56000000Y-74000000D02*
X56000000Y-78000000D01*
X56000000Y-78000000D02*
X54000000Y-80000000D01*
X55200001Y-73200001D02*
X56000000Y-74000000D01*
X54809499Y-72809499D02*
X55200001Y-73200001D01*
X54809499Y-65928559D02*
X54809499Y-72809499D01*
X57738058Y-63000000D02*
X54809499Y-65928559D01*
X158000000Y-63000000D02*
X57738058Y-63000000D01*
X162000000Y-59000000D02*
X158000000Y-63000000D01*
X169234573Y-59000001D02*
X162000000Y-59000000D01*
X170241512Y-58298488D02*
X170123897Y-58298488D01*
X170960000Y-57580000D02*
X170241512Y-58298488D01*
X170123897Y-58298488D02*
X169464405Y-58957980D01*
X169464405Y-58957980D02*
X169276594Y-58957980D01*
X169276594Y-58957980D02*
X169234573Y-59000001D01*
X69160000Y-80000000D02*
X69160000Y-74840000D01*
X69160000Y-74840000D02*
X71000000Y-73000000D01*
X162748815Y-59581012D02*
X169475235Y-59581012D01*
X162418989Y-59581011D02*
X162748815Y-59581012D01*
X169475235Y-59581012D02*
X169517256Y-59538991D01*
X169517256Y-59538991D02*
X169705067Y-59538991D01*
X169705067Y-59538991D02*
X170364559Y-58879499D01*
X172120501Y-58879499D02*
X173000000Y-58000000D01*
X170364559Y-58879499D02*
X172120501Y-58879499D01*
X158418990Y-63581010D02*
X162418989Y-59581011D01*
X86889047Y-63581011D02*
X158418990Y-63581010D01*
X76970058Y-73500000D02*
X86889047Y-63581011D01*
X71000000Y-73500000D02*
X76970058Y-73500000D01*
X84160000Y-80000000D02*
X84160000Y-75840000D01*
X84160000Y-75840000D02*
X86000000Y-74000000D01*
X138299441Y-67690501D02*
X92309499Y-67690501D01*
X169757919Y-60120000D02*
X169715897Y-60162022D01*
X162837978Y-60162022D02*
X156329499Y-66670501D01*
X156329499Y-66670501D02*
X147432443Y-66670501D01*
X147432443Y-66670501D02*
X146571441Y-65809499D01*
X170960000Y-60120000D02*
X169757919Y-60120000D01*
X146571441Y-65809499D02*
X140180443Y-65809499D01*
X92309499Y-67690501D02*
X86799999Y-73200001D01*
X140180443Y-65809499D02*
X138299441Y-67690501D01*
X169715897Y-60162022D02*
X162837978Y-60162022D01*
X86799999Y-73200001D02*
X86000000Y-74000000D01*
X99160000Y-80000000D02*
X99160000Y-75840000D01*
X99160000Y-75840000D02*
X101000000Y-74000000D01*
X106728489Y-68271511D02*
X101000000Y-74000000D01*
X155550161Y-68271511D02*
X106728489Y-68271511D01*
X161178328Y-63000000D02*
X160821672Y-63000000D01*
X160821672Y-63000000D02*
X155550161Y-68271511D01*
X161759337Y-62240663D02*
X161759337Y-62418991D01*
X171877971Y-61742029D02*
X171555441Y-61419499D01*
X173500000Y-60120000D02*
X171877971Y-61742029D01*
X170364559Y-61419499D02*
X169784058Y-62000000D01*
X161759337Y-62418991D02*
X161178328Y-63000000D01*
X169784058Y-62000000D02*
X162000000Y-62000000D01*
X171555441Y-61419499D02*
X170364559Y-61419499D01*
X162000000Y-62000000D02*
X161759337Y-62240663D01*
X120500000Y-69000000D02*
X156000000Y-69000000D01*
X116000000Y-73500000D02*
X120500000Y-69000000D01*
X156000000Y-69000000D02*
X162000000Y-63000000D01*
X162000000Y-63000000D02*
X171000000Y-63000000D01*
X114160000Y-80000000D02*
X114160000Y-74840000D01*
X114160000Y-74840000D02*
X116000000Y-73000000D01*
X164861441Y-63900501D02*
X158761942Y-70000000D01*
X173500000Y-62660000D02*
X172259499Y-63900501D01*
X172259499Y-63900501D02*
X164861441Y-63900501D01*
X158761942Y-70000000D02*
X135000000Y-70000000D01*
X135000000Y-70000000D02*
X131000000Y-74000000D01*
X128660000Y-80000000D02*
X128660000Y-76340000D01*
X128660000Y-76340000D02*
X131000000Y-74000000D01*
X149918990Y-70581010D02*
X159418990Y-70581010D01*
X146000000Y-74500000D02*
X149918990Y-70581010D01*
X159418990Y-70581010D02*
X165000000Y-65000000D01*
X165000000Y-65000000D02*
X171000000Y-65000000D01*
X146000000Y-74500000D02*
X146000000Y-78000000D01*
X146000000Y-78000000D02*
X144000000Y-80000000D01*
X173500000Y-65200000D02*
X172259499Y-66440501D01*
X172259499Y-66440501D02*
X166737826Y-66440501D01*
X161000000Y-72178327D02*
X161000000Y-73000000D01*
X166737826Y-66440501D02*
X161000000Y-72178327D01*
X161000000Y-73500000D02*
X159000000Y-75500000D01*
X159000000Y-75500000D02*
X159000000Y-80000000D01*
X56000000Y-93500000D02*
X56000000Y-98000000D01*
X56000000Y-98000000D02*
X54000000Y-100000000D01*
X159731441Y-81190501D02*
X59047557Y-81190501D01*
X160350501Y-80571441D02*
X159731441Y-81190501D01*
X54809499Y-85428559D02*
X54809499Y-92809499D01*
X54809499Y-92809499D02*
X56000000Y-94000000D01*
X168973308Y-67740000D02*
X160350501Y-76362807D01*
X170960000Y-67740000D02*
X168973308Y-67740000D01*
X160350501Y-76362807D02*
X160350501Y-80571441D01*
X59047557Y-81190501D02*
X54809499Y-85428559D01*
X169495323Y-78000000D02*
X171000000Y-78000000D01*
X163000000Y-84495323D02*
X169495323Y-78000000D01*
X54809499Y-103190501D02*
X56809499Y-101190501D01*
X163000000Y-97921942D02*
X163000000Y-84495323D01*
X159731441Y-101190501D02*
X163000000Y-97921942D01*
X56809499Y-101190501D02*
X159731441Y-101190501D01*
X54809499Y-112309499D02*
X54809499Y-103190501D01*
X56000000Y-113500000D02*
X54809499Y-112309499D01*
X54260000Y-120000000D02*
X54260000Y-115740000D01*
X54260000Y-115740000D02*
X56000000Y-114000000D01*
X159743614Y-102000000D02*
X72738058Y-102000000D01*
X163999997Y-84316999D02*
X163999997Y-97743617D01*
X163999997Y-97743617D02*
X159743614Y-102000000D01*
X72738058Y-102000000D02*
X69809499Y-104928559D01*
X69809499Y-104928559D02*
X69809499Y-111809499D01*
X169176495Y-79140501D02*
X163999997Y-84316999D01*
X70200001Y-112200001D02*
X71000000Y-113000000D01*
X172259499Y-79140501D02*
X169176495Y-79140501D01*
X69809499Y-111809499D02*
X70200001Y-112200001D01*
X173500000Y-77900000D02*
X172259499Y-79140501D01*
X69160000Y-120000000D02*
X69160000Y-114840000D01*
X69160000Y-114840000D02*
X71000000Y-113000000D01*
X84809499Y-105358824D02*
X87587312Y-102581011D01*
X87587312Y-102581011D02*
X159984276Y-102581011D01*
X86000000Y-114000000D02*
X84809499Y-112809499D01*
X84809499Y-112809499D02*
X84809499Y-105358824D01*
X159984276Y-102581011D02*
X164581008Y-97984279D01*
X169138669Y-80000000D02*
X171000000Y-80000000D01*
X164581008Y-84557661D02*
X169138669Y-80000000D01*
X164581008Y-97984279D02*
X164581008Y-84557661D01*
X84160000Y-115840000D02*
X84160000Y-116160000D01*
X86000000Y-114000000D02*
X84160000Y-115840000D01*
X84160000Y-120000000D02*
X84160000Y-116160000D01*
X173500000Y-80440000D02*
X172200501Y-81739499D01*
X165162019Y-98224941D02*
X160224938Y-103162022D01*
X160224938Y-103162022D02*
X102576036Y-103162022D01*
X172200501Y-81739499D02*
X168220843Y-81739499D01*
X168220843Y-81739499D02*
X165162019Y-84798323D01*
X165162019Y-84798323D02*
X165162019Y-98224941D01*
X102576036Y-103162022D02*
X99809499Y-105928559D01*
X99809499Y-105928559D02*
X99809499Y-112809499D01*
X100200001Y-113200001D02*
X101000000Y-114000000D01*
X99809499Y-112809499D02*
X100200001Y-113200001D01*
X99160000Y-115840000D02*
X100000000Y-115000000D01*
X99160000Y-120000000D02*
X99160000Y-115840000D01*
X100000000Y-115000000D02*
X101000000Y-114000000D01*
X160465600Y-103743033D02*
X165837978Y-98370653D01*
X116000000Y-114500000D02*
X114809499Y-113309499D01*
X167782015Y-83000000D02*
X171000000Y-83000000D01*
X114809499Y-113309499D02*
X114809499Y-105190501D01*
X165837978Y-98370653D02*
X165837978Y-84944036D01*
X165837978Y-84944036D02*
X167782015Y-83000000D01*
X116256967Y-103743033D02*
X160465600Y-103743033D01*
X114809499Y-105190501D02*
X116256967Y-103743033D01*
X114160000Y-120000000D02*
X114160000Y-115840000D01*
X114160000Y-115840000D02*
X116000000Y-114000000D01*
X131000000Y-114000000D02*
X131000000Y-115000000D01*
X166418989Y-98611315D02*
X157030303Y-108000000D01*
X173500000Y-82980000D02*
X172259499Y-84220501D01*
X157030303Y-108000000D02*
X137000000Y-108000000D01*
X167383187Y-84220501D02*
X167184698Y-84418989D01*
X131799999Y-113200001D02*
X131000000Y-114000000D01*
X137000000Y-108000000D02*
X131799999Y-113200001D01*
X172259499Y-84220501D02*
X167383187Y-84220501D01*
X167184698Y-84418989D02*
X166418989Y-85184697D01*
X166418989Y-85184697D02*
X166418989Y-98611315D01*
X129160000Y-115840000D02*
X131000000Y-114000000D01*
X129160000Y-120000000D02*
X129160000Y-115840000D01*
X131000000Y-114000000D02*
X132000000Y-114000000D01*
X170000000Y-85000000D02*
X171000000Y-86000000D01*
X167425360Y-85000000D02*
X170000000Y-85000000D01*
X167000000Y-85425359D02*
X167425360Y-85000000D01*
X167000000Y-101761942D02*
X167000000Y-85425359D01*
X156372443Y-112389499D02*
X167000000Y-101761942D01*
X147110501Y-112389499D02*
X156372443Y-112389499D01*
X146000000Y-113500000D02*
X147110501Y-112389499D01*
X144160000Y-120000000D02*
X144160000Y-115840000D01*
X144160000Y-115840000D02*
X146000000Y-114000000D01*
X172180501Y-86819499D02*
X173000000Y-86000000D01*
X168180501Y-86819499D02*
X172180501Y-86819499D01*
X167581010Y-87418990D02*
X168180501Y-86819499D01*
X161000000Y-113500000D02*
X167581010Y-106918990D01*
X167581010Y-106918990D02*
X167581010Y-87418990D01*
X159160000Y-120000000D02*
X159160000Y-114840000D01*
X159160000Y-114840000D02*
X161000000Y-113000000D01*
X71000000Y-93500000D02*
X71000000Y-98000000D01*
X71000000Y-98000000D02*
X69000000Y-100000000D01*
X71000000Y-93500000D02*
X71000000Y-91118998D01*
X71000000Y-91118998D02*
X80347486Y-81771512D01*
X80347486Y-81771512D02*
X159972103Y-81771512D01*
X159972103Y-81771512D02*
X160931512Y-80812103D01*
X160931512Y-80812103D02*
X160931512Y-76603469D01*
X172019499Y-68980501D02*
X173000000Y-68000000D01*
X168554480Y-68980501D02*
X172019499Y-68980501D01*
X160931512Y-76603469D02*
X168554480Y-68980501D01*
X86000000Y-94500000D02*
X86000000Y-98000000D01*
X86000000Y-98000000D02*
X84000000Y-100000000D01*
X170960000Y-70280000D02*
X168076654Y-70280000D01*
X161512523Y-81052765D02*
X160212765Y-82352523D01*
X161512523Y-76844131D02*
X161512523Y-81052765D01*
X160212765Y-82352523D02*
X158637419Y-82352523D01*
X92309499Y-87690501D02*
X86000000Y-94000000D01*
X168076654Y-70280000D02*
X161512523Y-76844131D01*
X153299441Y-87690501D02*
X92309499Y-87690501D01*
X158637419Y-82352523D02*
X153299441Y-87690501D01*
X101000000Y-94000000D02*
X101000000Y-98000000D01*
X101000000Y-98000000D02*
X99000000Y-100000000D01*
X160453427Y-82933534D02*
X162093534Y-81293427D01*
X101000000Y-94000000D02*
X106000000Y-89000000D01*
X162093534Y-77084793D02*
X167598828Y-71579499D01*
X106000000Y-89000000D02*
X154000000Y-89000000D01*
X154000000Y-89000000D02*
X160066466Y-82933534D01*
X160066466Y-82933534D02*
X160453427Y-82933534D01*
X167598828Y-71579499D02*
X171420501Y-71579499D01*
X162093534Y-81293427D02*
X162093534Y-77084793D01*
X171420501Y-71579499D02*
X173000000Y-70000000D01*
X116000000Y-93500000D02*
X116000000Y-97000000D01*
X116000000Y-97000000D02*
X113000000Y-100000000D01*
X160694089Y-83514545D02*
X160485455Y-83514545D01*
X162674545Y-79903374D02*
X162674545Y-81534089D01*
X170960000Y-72820000D02*
X169757919Y-72820000D01*
X154306934Y-89693066D02*
X119306934Y-89693066D01*
X119306934Y-89693066D02*
X116000000Y-93000000D01*
X160485455Y-83514545D02*
X154306934Y-89693066D01*
X162674545Y-81534089D02*
X160694089Y-83514545D01*
X169757919Y-72820000D02*
X162674545Y-79903374D01*
X131000000Y-93500000D02*
X131000000Y-97000000D01*
X131000000Y-97000000D02*
X128000000Y-100000000D01*
X154642308Y-90274077D02*
X160187897Y-84728488D01*
X160301817Y-84728488D02*
X163255556Y-81774751D01*
X163255556Y-80279425D02*
X169474480Y-74060501D01*
X160187897Y-84728488D02*
X160301817Y-84728488D01*
X131000000Y-93500000D02*
X134225923Y-90274077D01*
X171939499Y-74060501D02*
X173000000Y-73000000D01*
X169474480Y-74060501D02*
X171939499Y-74060501D01*
X163255556Y-81774751D02*
X163255556Y-80279425D01*
X134225923Y-90274077D02*
X154642308Y-90274077D01*
X146000000Y-93500000D02*
X146000000Y-98000000D01*
X146000000Y-98000000D02*
X144000000Y-100000000D01*
X154738058Y-91000000D02*
X149000000Y-91000000D01*
X170960000Y-75360000D02*
X170491978Y-75360000D01*
X160428559Y-85309499D02*
X154738058Y-91000000D01*
X170491978Y-75360000D02*
X160542479Y-85309499D01*
X160542479Y-85309499D02*
X160428559Y-85309499D01*
X149000000Y-91000000D02*
X146000000Y-94000000D01*
X161000000Y-94000000D02*
X161000000Y-98000000D01*
X161000000Y-98000000D02*
X159000000Y-100000000D01*
X161799999Y-93200001D02*
X161000000Y-94000000D01*
X162418989Y-84254661D02*
X162418989Y-92581011D01*
X172200501Y-76659499D02*
X170014151Y-76659499D01*
X173500000Y-75360000D02*
X172200501Y-76659499D01*
X162418989Y-92581011D02*
X161799999Y-93200001D01*
X170014151Y-76659499D02*
X162418989Y-84254661D01*
X143509499Y-152928559D02*
X143509499Y-156109499D01*
X144700000Y-150000000D02*
X144700000Y-151738058D01*
X144700000Y-151738058D02*
X143509499Y-152928559D01*
X143509499Y-156109499D02*
X144900000Y-157500000D01*
X144700000Y-154631370D02*
X147500000Y-157431370D01*
X144700000Y-153500000D02*
X144700000Y-154631370D01*
X147500000Y-157431370D02*
X147500000Y-157600000D01*
X161200001Y-154299999D02*
X161200001Y-157100001D01*
X162000000Y-153500000D02*
X161200001Y-154299999D01*
X161200001Y-157100001D02*
X161400000Y-157300000D01*
X160824559Y-158740501D02*
X162759499Y-158740501D01*
X158343557Y-156259499D02*
X160824559Y-158740501D01*
X155857557Y-156259499D02*
X158343557Y-156259499D01*
X153000001Y-153401943D02*
X155857557Y-156259499D01*
X153800000Y-146600000D02*
X153000001Y-147399999D01*
X153000001Y-147399999D02*
X153000001Y-153401943D01*
X162759499Y-158740501D02*
X164100000Y-157400000D01*
X87812581Y-139697689D02*
X120097689Y-139697689D01*
X86720771Y-140789499D02*
X87812581Y-139697689D01*
X59279448Y-140789499D02*
X86720771Y-140789499D01*
X57000000Y-139500000D02*
X57989949Y-139500000D01*
X57989949Y-139500000D02*
X59279448Y-140789499D01*
X120097689Y-139697689D02*
X121700000Y-141300000D01*
X55909499Y-138976559D02*
X55909499Y-141009499D01*
X56636559Y-138249499D02*
X55909499Y-138976559D01*
X121972099Y-138249499D02*
X56636559Y-138249499D01*
X124010800Y-141469200D02*
X124010800Y-140288200D01*
X124010800Y-140288200D02*
X121972099Y-138249499D01*
X55909499Y-141009499D02*
X57000000Y-142100000D01*
X52709499Y-142523441D02*
X52709499Y-140690501D01*
X53356559Y-143170501D02*
X52709499Y-142523441D01*
X85161441Y-143170501D02*
X53356559Y-143170501D01*
X88053243Y-140278699D02*
X85161441Y-143170501D01*
X118930800Y-141469200D02*
X117740299Y-140278699D01*
X117740299Y-140278699D02*
X88053243Y-140278699D01*
X52709499Y-140590501D02*
X53100001Y-140199999D01*
X52709499Y-140690501D02*
X52709499Y-140590501D01*
X53100001Y-140199999D02*
X53800000Y-139500000D01*
X158468617Y-139828481D02*
X169528481Y-139828481D01*
X155659999Y-142637099D02*
X158468617Y-139828481D01*
X154860000Y-150000000D02*
X155659999Y-149200001D01*
X155659999Y-149200001D02*
X155659999Y-142637099D01*
X169528481Y-139828481D02*
X171800000Y-142100000D01*
X162730510Y-152468568D02*
X162730510Y-143230510D01*
X172160000Y-153500000D02*
X163761942Y-153500000D01*
X163761942Y-153500000D02*
X162730510Y-152468568D01*
X162730510Y-143230510D02*
X161300000Y-141800000D01*
X71890000Y-145651370D02*
X71700000Y-145841370D01*
X71890000Y-144520000D02*
X71890000Y-145651370D01*
X71700000Y-145841370D02*
X71700000Y-149100000D01*
X95450000Y-144820000D02*
X95450000Y-145951370D01*
X95450000Y-145951370D02*
X94800000Y-146601370D01*
X94800000Y-146601370D02*
X94800000Y-149200000D01*
X97990000Y-144820000D02*
X97990000Y-149010000D01*
X97990000Y-149010000D02*
X97800000Y-149200000D01*
X100530000Y-145951370D02*
X99800000Y-146681370D01*
X100530000Y-144820000D02*
X100530000Y-145951370D01*
X99800000Y-146681370D02*
X99800000Y-149200000D01*
X102270001Y-145619999D02*
X102270001Y-148670001D01*
X103070000Y-144820000D02*
X102270001Y-145619999D01*
X102270001Y-148670001D02*
X102800000Y-149200000D01*
X125930000Y-148070000D02*
X125800000Y-148200000D01*
X125800000Y-148200000D02*
X125800000Y-149200000D01*
X125930000Y-144820000D02*
X125930000Y-148070000D01*
X127670001Y-149070001D02*
X127800000Y-149200000D01*
X127670001Y-145619999D02*
X127670001Y-149070001D01*
X128470000Y-144820000D02*
X127670001Y-145619999D01*
X72380000Y-128780000D02*
X72800000Y-129200000D01*
X72380000Y-125200000D02*
X72380000Y-128780000D01*
X74920000Y-125200000D02*
X74920000Y-129080000D01*
X74920000Y-129080000D02*
X74800000Y-129200000D01*
X77460000Y-125200000D02*
X77460000Y-129860000D01*
X80000000Y-125200000D02*
X80000000Y-129000000D01*
X82540000Y-125200000D02*
X82540000Y-128940000D01*
X85080000Y-125200000D02*
X85080000Y-128480000D01*
D27*
X85080000Y-128480000D02*
X85080000Y-128720000D01*
X85080000Y-128720000D02*
X84700000Y-129100000D01*
D28*
X87830906Y-129169094D02*
X87800000Y-129200000D01*
X87830906Y-126612987D02*
X87830906Y-129169094D01*
X87620000Y-125200000D02*
X87620000Y-126402081D01*
X87620000Y-126402081D02*
X87830906Y-126612987D01*
X90160000Y-125200000D02*
X90160000Y-128840000D01*
X90160000Y-128840000D02*
X89800000Y-129200000D01*
X92700000Y-129100000D02*
X92800000Y-129200000D01*
X92700000Y-125200000D02*
X92700000Y-129100000D01*
X97780000Y-125200000D02*
X97780000Y-129180000D01*
X97780000Y-129180000D02*
X97800000Y-129200000D01*
X100320000Y-125200000D02*
X100320000Y-128720000D01*
X102860000Y-125200000D02*
X102860000Y-129140000D01*
X102860000Y-129140000D02*
X102800000Y-129200000D01*
X105400000Y-125200000D02*
X105400000Y-128800000D01*
X105400000Y-128800000D02*
X105800000Y-129200000D01*
X107940000Y-125200000D02*
X107940000Y-128340000D01*
X107940000Y-128340000D02*
X107940000Y-128560000D01*
X107940000Y-128560000D02*
X107400000Y-129100000D01*
X115560000Y-125200000D02*
X115560000Y-128960000D01*
X115560000Y-128960000D02*
X115800000Y-129200000D01*
X118100000Y-128900000D02*
X117800000Y-129200000D01*
X118100000Y-125200000D02*
X118100000Y-128900000D01*
X121012715Y-128987285D02*
X120800000Y-129200000D01*
X121012715Y-126774796D02*
X121012715Y-128987285D01*
X120640000Y-126402081D02*
X121012715Y-126774796D01*
X120640000Y-125200000D02*
X120640000Y-126402081D01*
X123180000Y-129820000D02*
X122800000Y-130200000D01*
X123180000Y-125200000D02*
X123180000Y-129820000D01*
X125720000Y-125200000D02*
X125720000Y-129120000D01*
X125720000Y-129120000D02*
X125800000Y-129200000D01*
M02*
