G04 #@! TF.GenerationSoftware,KiCad,Pcbnew,(5.1.4)-1*
G04 #@! TF.CreationDate,2021-11-01T00:46:01-04:00*
G04 #@! TF.ProjectId,jack_pcb,6a61636b-5f70-4636-922e-6b696361645f,rev?*
G04 #@! TF.SameCoordinates,Original*
G04 #@! TF.FileFunction,Legend,Bot*
G04 #@! TF.FilePolarity,Positive*
%FSLAX46Y46*%
G04 Gerber Fmt 4.6, Leading zero omitted, Abs format (unit mm)*
G04 Created by KiCad (PCBNEW (5.1.4)-1) date 2021-11-01 00:46:01*
%MOMM*%
%LPD*%
G04 APERTURE LIST*
%ADD10C,0.425000*%
%ADD11C,0.152400*%
%ADD12C,0.150000*%
%ADD13C,0.100000*%
%ADD14C,0.120000*%
G04 APERTURE END LIST*
D10*
X193921882Y-113206547D02*
X193709382Y-111506547D01*
X193810572Y-112316071D02*
X192839144Y-112316071D01*
X192950453Y-113206547D02*
X192737953Y-111506547D01*
X191412358Y-113206547D02*
X191301049Y-112316071D01*
X191361763Y-112154166D01*
X191513549Y-112073214D01*
X191837358Y-112073214D01*
X192009382Y-112154166D01*
X191402239Y-113125595D02*
X191574263Y-113206547D01*
X191979025Y-113206547D01*
X192130811Y-113125595D01*
X192191525Y-112963690D01*
X192171287Y-112801785D01*
X192070096Y-112639880D01*
X191898072Y-112558928D01*
X191493311Y-112558928D01*
X191321287Y-112477976D01*
X190602834Y-113206547D02*
X190461168Y-112073214D01*
X190501644Y-112397023D02*
X190400453Y-112235119D01*
X190309382Y-112154166D01*
X190137358Y-112073214D01*
X189975453Y-112073214D01*
X189550453Y-113206547D02*
X189408787Y-112073214D01*
X189429025Y-112235119D02*
X189337953Y-112154166D01*
X189165930Y-112073214D01*
X188923072Y-112073214D01*
X188771287Y-112154166D01*
X188710572Y-112316071D01*
X188821882Y-113206547D01*
X188710572Y-112316071D02*
X188609382Y-112154166D01*
X188437358Y-112073214D01*
X188194501Y-112073214D01*
X188042715Y-112154166D01*
X187982001Y-112316071D01*
X188093311Y-113206547D01*
X187040930Y-113206547D02*
X187192715Y-113125595D01*
X187263549Y-113044642D01*
X187324263Y-112882738D01*
X187263549Y-112397023D01*
X187162358Y-112235119D01*
X187071287Y-112154166D01*
X186899263Y-112073214D01*
X186656406Y-112073214D01*
X186504620Y-112154166D01*
X186433787Y-112235119D01*
X186373072Y-112397023D01*
X186433787Y-112882738D01*
X186534977Y-113044642D01*
X186626049Y-113125595D01*
X186798072Y-113206547D01*
X187040930Y-113206547D01*
X185604025Y-112073214D02*
X185745691Y-113206547D01*
X185624263Y-112235119D02*
X185533191Y-112154166D01*
X185361168Y-112073214D01*
X185118311Y-112073214D01*
X184966525Y-112154166D01*
X184905811Y-112316071D01*
X185017120Y-113206547D01*
X184207596Y-113206547D02*
X184065930Y-112073214D01*
X183995096Y-111506547D02*
X184086168Y-111587500D01*
X184015334Y-111668452D01*
X183924263Y-111587500D01*
X183995096Y-111506547D01*
X184015334Y-111668452D01*
X182659382Y-113125595D02*
X182831406Y-113206547D01*
X183155215Y-113206547D01*
X183307001Y-113125595D01*
X183377834Y-113044642D01*
X183438549Y-112882738D01*
X183377834Y-112397023D01*
X183276644Y-112235119D01*
X183185572Y-112154166D01*
X183013549Y-112073214D01*
X182689739Y-112073214D01*
X182537953Y-112154166D01*
X179654025Y-113044642D02*
X179745096Y-113125595D01*
X179998072Y-113206547D01*
X180159977Y-113206547D01*
X180392715Y-113125595D01*
X180534382Y-112963690D01*
X180595096Y-112801785D01*
X180635572Y-112477976D01*
X180605215Y-112235119D01*
X180483787Y-111911309D01*
X180382596Y-111749404D01*
X180200453Y-111587500D01*
X179947477Y-111506547D01*
X179785572Y-111506547D01*
X179552834Y-111587500D01*
X179482001Y-111668452D01*
X178702834Y-113206547D02*
X178854620Y-113125595D01*
X178925453Y-113044642D01*
X178986168Y-112882738D01*
X178925453Y-112397023D01*
X178824263Y-112235119D01*
X178733191Y-112154166D01*
X178561168Y-112073214D01*
X178318311Y-112073214D01*
X178166525Y-112154166D01*
X178095691Y-112235119D01*
X178034977Y-112397023D01*
X178095691Y-112882738D01*
X178196882Y-113044642D01*
X178287953Y-113125595D01*
X178459977Y-113206547D01*
X178702834Y-113206547D01*
X177265930Y-112073214D02*
X177407596Y-113206547D01*
X177286168Y-112235119D02*
X177195096Y-112154166D01*
X177023072Y-112073214D01*
X176780215Y-112073214D01*
X176628430Y-112154166D01*
X176567715Y-112316071D01*
X176679025Y-113206547D01*
X175970691Y-112073214D02*
X175323072Y-112073214D01*
X175657001Y-111506547D02*
X175839144Y-112963690D01*
X175778430Y-113125595D01*
X175626644Y-113206547D01*
X175464739Y-113206547D01*
X174240334Y-113125595D02*
X174412358Y-113206547D01*
X174736168Y-113206547D01*
X174887953Y-113125595D01*
X174948668Y-112963690D01*
X174867715Y-112316071D01*
X174766525Y-112154166D01*
X174594501Y-112073214D01*
X174270691Y-112073214D01*
X174118906Y-112154166D01*
X174058191Y-112316071D01*
X174078430Y-112477976D01*
X174908191Y-112639880D01*
X173299263Y-112073214D02*
X173440930Y-113206547D01*
X173319501Y-112235119D02*
X173228430Y-112154166D01*
X173056406Y-112073214D01*
X172813549Y-112073214D01*
X172661763Y-112154166D01*
X172601049Y-112316071D01*
X172712358Y-113206547D01*
X172004025Y-112073214D02*
X171356406Y-112073214D01*
X171690334Y-111506547D02*
X171872477Y-112963690D01*
X171811763Y-113125595D01*
X171659977Y-113206547D01*
X171498072Y-113206547D01*
X194518906Y-114481547D02*
X194670691Y-115695833D01*
X194782001Y-115938690D01*
X194964144Y-116100595D01*
X195217120Y-116181547D01*
X195379025Y-116181547D01*
X193193311Y-116181547D02*
X193082001Y-115291071D01*
X193142715Y-115129166D01*
X193294501Y-115048214D01*
X193618311Y-115048214D01*
X193790334Y-115129166D01*
X193183191Y-116100595D02*
X193355215Y-116181547D01*
X193759977Y-116181547D01*
X193911763Y-116100595D01*
X193972477Y-115938690D01*
X193952239Y-115776785D01*
X193851049Y-115614880D01*
X193679025Y-115533928D01*
X193274263Y-115533928D01*
X193102239Y-115452976D01*
X191645096Y-116100595D02*
X191817120Y-116181547D01*
X192140930Y-116181547D01*
X192292715Y-116100595D01*
X192363549Y-116019642D01*
X192424263Y-115857738D01*
X192363549Y-115372023D01*
X192262358Y-115210119D01*
X192171287Y-115129166D01*
X191999263Y-115048214D01*
X191675453Y-115048214D01*
X191523668Y-115129166D01*
X190926644Y-116181547D02*
X190714144Y-114481547D01*
X190683787Y-115533928D02*
X190279025Y-116181547D01*
X190137358Y-115048214D02*
X190865930Y-115695833D01*
X187526644Y-116181547D02*
X187415334Y-115291071D01*
X187476049Y-115129166D01*
X187627834Y-115048214D01*
X187951644Y-115048214D01*
X188123668Y-115129166D01*
X187516525Y-116100595D02*
X187688549Y-116181547D01*
X188093311Y-116181547D01*
X188245096Y-116100595D01*
X188305811Y-115938690D01*
X188285572Y-115776785D01*
X188184382Y-115614880D01*
X188012358Y-115533928D01*
X187607596Y-115533928D01*
X187435572Y-115452976D01*
X186575453Y-115048214D02*
X186717120Y-116181547D01*
X186595691Y-115210119D02*
X186504620Y-115129166D01*
X186332596Y-115048214D01*
X186089739Y-115048214D01*
X185937953Y-115129166D01*
X185877239Y-115291071D01*
X185988549Y-116181547D01*
X184450453Y-116181547D02*
X184237953Y-114481547D01*
X184440334Y-116100595D02*
X184612358Y-116181547D01*
X184936168Y-116181547D01*
X185087953Y-116100595D01*
X185158787Y-116019642D01*
X185219501Y-115857738D01*
X185158787Y-115372023D01*
X185057596Y-115210119D01*
X184966525Y-115129166D01*
X184794501Y-115048214D01*
X184470691Y-115048214D01*
X184318906Y-115129166D01*
X182376049Y-114481547D02*
X182021882Y-116181547D01*
X181242715Y-114481547D01*
X180888549Y-116181547D02*
X180746882Y-115048214D01*
X180676049Y-114481547D02*
X180767120Y-114562500D01*
X180696287Y-114643452D01*
X180605215Y-114562500D01*
X180676049Y-114481547D01*
X180696287Y-114643452D01*
X180149858Y-116100595D02*
X179998072Y-116181547D01*
X179674263Y-116181547D01*
X179502239Y-116100595D01*
X179401049Y-115938690D01*
X179390930Y-115857738D01*
X179451644Y-115695833D01*
X179603430Y-115614880D01*
X179846287Y-115614880D01*
X179998072Y-115533928D01*
X180058787Y-115372023D01*
X180048668Y-115291071D01*
X179947477Y-115129166D01*
X179775453Y-115048214D01*
X179532596Y-115048214D01*
X179380811Y-115129166D01*
X177832596Y-115048214D02*
X177974263Y-116181547D01*
X178561168Y-115048214D02*
X178672477Y-115938690D01*
X178611763Y-116100595D01*
X178459977Y-116181547D01*
X178217120Y-116181547D01*
X178045096Y-116100595D01*
X177954025Y-116019642D01*
X176436168Y-116181547D02*
X176324858Y-115291071D01*
X176385572Y-115129166D01*
X176537358Y-115048214D01*
X176861168Y-115048214D01*
X177033191Y-115129166D01*
X176426049Y-116100595D02*
X176598072Y-116181547D01*
X177002834Y-116181547D01*
X177154620Y-116100595D01*
X177215334Y-115938690D01*
X177195096Y-115776785D01*
X177093906Y-115614880D01*
X176921882Y-115533928D01*
X176517120Y-115533928D01*
X176345096Y-115452976D01*
X175383787Y-116181547D02*
X175535572Y-116100595D01*
X175596287Y-115938690D01*
X175414144Y-114481547D01*
X173440930Y-116181547D02*
X173228430Y-114481547D01*
X172580811Y-114481547D01*
X172429025Y-114562500D01*
X172358191Y-114643452D01*
X172297477Y-114805357D01*
X172327834Y-115048214D01*
X172429025Y-115210119D01*
X172520096Y-115291071D01*
X172692120Y-115372023D01*
X173339739Y-115372023D01*
X170749263Y-116019642D02*
X170840334Y-116100595D01*
X171093311Y-116181547D01*
X171255215Y-116181547D01*
X171487953Y-116100595D01*
X171629620Y-115938690D01*
X171690334Y-115776785D01*
X171730811Y-115452976D01*
X171700453Y-115210119D01*
X171579025Y-114886309D01*
X171477834Y-114724404D01*
X171295691Y-114562500D01*
X171042715Y-114481547D01*
X170880811Y-114481547D01*
X170648072Y-114562500D01*
X170577239Y-114643452D01*
X169362953Y-115291071D02*
X169130215Y-115372023D01*
X169059382Y-115452976D01*
X168998668Y-115614880D01*
X169029025Y-115857738D01*
X169130215Y-116019642D01*
X169221287Y-116100595D01*
X169393311Y-116181547D01*
X170040930Y-116181547D01*
X169828430Y-114481547D01*
X169261763Y-114481547D01*
X169109977Y-114562500D01*
X169039144Y-114643452D01*
X168978430Y-114805357D01*
X168998668Y-114967261D01*
X169099858Y-115129166D01*
X169190930Y-115210119D01*
X169362953Y-115291071D01*
X169929620Y-115291071D01*
X184895691Y-119156547D02*
X185361168Y-118347023D01*
X185867120Y-119156547D02*
X185654620Y-117456547D01*
X185007001Y-117456547D01*
X184855215Y-117537500D01*
X184784382Y-117618452D01*
X184723668Y-117780357D01*
X184754025Y-118023214D01*
X184855215Y-118185119D01*
X184946287Y-118266071D01*
X185118311Y-118347023D01*
X185765930Y-118347023D01*
X183509382Y-119075595D02*
X183681406Y-119156547D01*
X184005215Y-119156547D01*
X184157001Y-119075595D01*
X184217715Y-118913690D01*
X184136763Y-118266071D01*
X184035572Y-118104166D01*
X183863549Y-118023214D01*
X183539739Y-118023214D01*
X183387953Y-118104166D01*
X183327239Y-118266071D01*
X183347477Y-118427976D01*
X184177239Y-118589880D01*
X182730215Y-118023214D02*
X182467120Y-119156547D01*
X181920691Y-118023214D01*
X181394501Y-118994642D02*
X181323668Y-119075595D01*
X181414739Y-119156547D01*
X181485572Y-119075595D01*
X181394501Y-118994642D01*
X181414739Y-119156547D01*
X178419501Y-119156547D02*
X179390930Y-119156547D01*
X178905215Y-119156547D02*
X178692715Y-117456547D01*
X178884977Y-117699404D01*
X179067120Y-117861309D01*
X179239144Y-117942261D01*
X190026049Y-120431547D02*
X189702239Y-120431547D01*
X189550453Y-120512500D01*
X189408787Y-120674404D01*
X189368311Y-120998214D01*
X189439144Y-121564880D01*
X189560572Y-121888690D01*
X189742715Y-122050595D01*
X189914739Y-122131547D01*
X190238549Y-122131547D01*
X190390334Y-122050595D01*
X190532001Y-121888690D01*
X190572477Y-121564880D01*
X190501644Y-120998214D01*
X190380215Y-120674404D01*
X190198072Y-120512500D01*
X190026049Y-120431547D01*
X188042715Y-122050595D02*
X188214739Y-122131547D01*
X188538549Y-122131547D01*
X188690334Y-122050595D01*
X188761168Y-121969642D01*
X188821882Y-121807738D01*
X188761168Y-121322023D01*
X188659977Y-121160119D01*
X188568906Y-121079166D01*
X188396882Y-120998214D01*
X188073072Y-120998214D01*
X187921287Y-121079166D01*
X187425453Y-120998214D02*
X186777834Y-120998214D01*
X187111763Y-120431547D02*
X187293906Y-121888690D01*
X187233191Y-122050595D01*
X187081406Y-122131547D01*
X186919501Y-122131547D01*
X186109977Y-122131547D02*
X186261763Y-122050595D01*
X186332596Y-121969642D01*
X186393311Y-121807738D01*
X186332596Y-121322023D01*
X186231406Y-121160119D01*
X186140334Y-121079166D01*
X185968311Y-120998214D01*
X185725453Y-120998214D01*
X185573668Y-121079166D01*
X185502834Y-121160119D01*
X185442120Y-121322023D01*
X185502834Y-121807738D01*
X185604025Y-121969642D01*
X185695096Y-122050595D01*
X185867120Y-122131547D01*
X186109977Y-122131547D01*
X184814739Y-122131547D02*
X184602239Y-120431547D01*
X184683191Y-121079166D02*
X184511168Y-120998214D01*
X184187358Y-120998214D01*
X184035572Y-121079166D01*
X183964739Y-121160119D01*
X183904025Y-121322023D01*
X183964739Y-121807738D01*
X184065930Y-121969642D01*
X184157001Y-122050595D01*
X184329025Y-122131547D01*
X184652834Y-122131547D01*
X184804620Y-122050595D01*
X182618906Y-122050595D02*
X182790930Y-122131547D01*
X183114739Y-122131547D01*
X183266525Y-122050595D01*
X183327239Y-121888690D01*
X183246287Y-121241071D01*
X183145096Y-121079166D01*
X182973072Y-120998214D01*
X182649263Y-120998214D01*
X182497477Y-121079166D01*
X182436763Y-121241071D01*
X182457001Y-121402976D01*
X183286763Y-121564880D01*
X181819501Y-122131547D02*
X181677834Y-120998214D01*
X181718311Y-121322023D02*
X181617120Y-121160119D01*
X181526049Y-121079166D01*
X181354025Y-120998214D01*
X181192120Y-120998214D01*
X179360572Y-120593452D02*
X179269501Y-120512500D01*
X179097477Y-120431547D01*
X178692715Y-120431547D01*
X178540930Y-120512500D01*
X178470096Y-120593452D01*
X178409382Y-120755357D01*
X178429620Y-120917261D01*
X178540930Y-121160119D01*
X179633787Y-122131547D01*
X178581406Y-122131547D01*
X177316525Y-120431547D02*
X177154620Y-120431547D01*
X177002834Y-120512500D01*
X176932001Y-120593452D01*
X176871287Y-120755357D01*
X176830811Y-121079166D01*
X176881406Y-121483928D01*
X177002834Y-121807738D01*
X177104025Y-121969642D01*
X177195096Y-122050595D01*
X177367120Y-122131547D01*
X177529025Y-122131547D01*
X177680811Y-122050595D01*
X177751644Y-121969642D01*
X177812358Y-121807738D01*
X177852834Y-121483928D01*
X177802239Y-121079166D01*
X177680811Y-120755357D01*
X177579620Y-120593452D01*
X177488549Y-120512500D01*
X177316525Y-120431547D01*
X176122477Y-120593452D02*
X176031406Y-120512500D01*
X175859382Y-120431547D01*
X175454620Y-120431547D01*
X175302834Y-120512500D01*
X175232001Y-120593452D01*
X175171287Y-120755357D01*
X175191525Y-120917261D01*
X175302834Y-121160119D01*
X176395691Y-122131547D01*
X175343311Y-122131547D01*
X173724263Y-122131547D02*
X174695691Y-122131547D01*
X174209977Y-122131547D02*
X173997477Y-120431547D01*
X174189739Y-120674404D01*
X174371882Y-120836309D01*
X174543906Y-120917261D01*
D11*
X153519276Y-159093600D02*
X153596685Y-159054895D01*
X153712800Y-159054895D01*
X153828914Y-159093600D01*
X153906323Y-159171009D01*
X153945028Y-159248419D01*
X153983733Y-159403238D01*
X153983733Y-159519352D01*
X153945028Y-159674171D01*
X153906323Y-159751580D01*
X153828914Y-159828990D01*
X153712800Y-159867695D01*
X153635390Y-159867695D01*
X153519276Y-159828990D01*
X153480571Y-159790285D01*
X153480571Y-159519352D01*
X153635390Y-159519352D01*
X153132228Y-159867695D02*
X153132228Y-159054895D01*
X152667771Y-159867695D01*
X152667771Y-159054895D01*
X152280723Y-159867695D02*
X152280723Y-159054895D01*
X152087200Y-159054895D01*
X151971085Y-159093600D01*
X151893676Y-159171009D01*
X151854971Y-159248419D01*
X151816266Y-159403238D01*
X151816266Y-159519352D01*
X151854971Y-159674171D01*
X151893676Y-159751580D01*
X151971085Y-159828990D01*
X152087200Y-159867695D01*
X152280723Y-159867695D01*
X145935085Y-159767695D02*
X145935085Y-158954895D01*
X145664152Y-159535466D01*
X145393219Y-158954895D01*
X145393219Y-159767695D01*
X145006171Y-159767695D02*
X145006171Y-158954895D01*
X144619123Y-159767695D02*
X144619123Y-158954895D01*
X144425600Y-158954895D01*
X144309485Y-158993600D01*
X144232076Y-159071009D01*
X144193371Y-159148419D01*
X144154666Y-159303238D01*
X144154666Y-159419352D01*
X144193371Y-159574171D01*
X144232076Y-159651580D01*
X144309485Y-159728990D01*
X144425600Y-159767695D01*
X144619123Y-159767695D01*
X143806323Y-159767695D02*
X143806323Y-158954895D01*
X142800000Y-159767695D02*
X142800000Y-158954895D01*
X142412952Y-159767695D02*
X142412952Y-158954895D01*
X141948495Y-159767695D01*
X141948495Y-158954895D01*
X141561447Y-159767695D02*
X141561447Y-158954895D01*
X141251809Y-158954895D01*
X141174400Y-158993600D01*
X141135695Y-159032304D01*
X141096990Y-159109714D01*
X141096990Y-159225828D01*
X141135695Y-159303238D01*
X141174400Y-159341942D01*
X141251809Y-159380647D01*
X141561447Y-159380647D01*
X140748647Y-158954895D02*
X140748647Y-159612876D01*
X140709942Y-159690285D01*
X140671238Y-159728990D01*
X140593828Y-159767695D01*
X140439009Y-159767695D01*
X140361600Y-159728990D01*
X140322895Y-159690285D01*
X140284190Y-159612876D01*
X140284190Y-158954895D01*
X140013257Y-158954895D02*
X139548800Y-158954895D01*
X139781028Y-159767695D02*
X139781028Y-158954895D01*
X147754819Y-158954895D02*
X148141866Y-158954895D01*
X148180571Y-159341942D01*
X148141866Y-159303238D01*
X148064457Y-159264533D01*
X147870933Y-159264533D01*
X147793523Y-159303238D01*
X147754819Y-159341942D01*
X147716114Y-159419352D01*
X147716114Y-159612876D01*
X147754819Y-159690285D01*
X147793523Y-159728990D01*
X147870933Y-159767695D01*
X148064457Y-159767695D01*
X148141866Y-159728990D01*
X148180571Y-159690285D01*
X147483885Y-158954895D02*
X147212952Y-159767695D01*
X146942019Y-158954895D01*
X152817333Y-155902166D02*
X152817333Y-155013166D01*
X152521000Y-155648166D01*
X152224666Y-155013166D01*
X152224666Y-155902166D01*
X151801333Y-155902166D02*
X151801333Y-155013166D01*
X151378000Y-155902166D02*
X151378000Y-155013166D01*
X151166333Y-155013166D01*
X151039333Y-155055500D01*
X150954666Y-155140166D01*
X150912333Y-155224833D01*
X150870000Y-155394166D01*
X150870000Y-155521166D01*
X150912333Y-155690500D01*
X150954666Y-155775166D01*
X151039333Y-155859833D01*
X151166333Y-155902166D01*
X151378000Y-155902166D01*
X150489000Y-155902166D02*
X150489000Y-155013166D01*
X150277333Y-155986833D02*
X149600000Y-155986833D01*
X149515333Y-155013166D02*
X149007333Y-155013166D01*
X149261333Y-155902166D02*
X149261333Y-155013166D01*
X148711000Y-155902166D02*
X148711000Y-155013166D01*
X148711000Y-155436500D02*
X148203000Y-155436500D01*
X148203000Y-155902166D02*
X148203000Y-155013166D01*
X147271666Y-155902166D02*
X147568000Y-155478833D01*
X147779666Y-155902166D02*
X147779666Y-155013166D01*
X147441000Y-155013166D01*
X147356333Y-155055500D01*
X147314000Y-155097833D01*
X147271666Y-155182500D01*
X147271666Y-155309500D01*
X147314000Y-155394166D01*
X147356333Y-155436500D01*
X147441000Y-155478833D01*
X147779666Y-155478833D01*
X146890666Y-155013166D02*
X146890666Y-155732833D01*
X146848333Y-155817500D01*
X146806000Y-155859833D01*
X146721333Y-155902166D01*
X146552000Y-155902166D01*
X146467333Y-155859833D01*
X146425000Y-155817500D01*
X146382666Y-155732833D01*
X146382666Y-155013166D01*
X163635161Y-159667695D02*
X163635161Y-158854895D01*
X163364228Y-159435466D01*
X163093295Y-158854895D01*
X163093295Y-159667695D01*
X162706247Y-159667695D02*
X162706247Y-158854895D01*
X162319200Y-159667695D02*
X162319200Y-158854895D01*
X162125676Y-158854895D01*
X162009561Y-158893600D01*
X161932152Y-158971009D01*
X161893447Y-159048419D01*
X161854742Y-159203238D01*
X161854742Y-159319352D01*
X161893447Y-159474171D01*
X161932152Y-159551580D01*
X162009561Y-159628990D01*
X162125676Y-159667695D01*
X162319200Y-159667695D01*
X161506400Y-159667695D02*
X161506400Y-158854895D01*
X161312876Y-159745104D02*
X160693600Y-159745104D01*
X160345257Y-158854895D02*
X160190438Y-158854895D01*
X160113028Y-158893600D01*
X160035619Y-158971009D01*
X159996914Y-159125828D01*
X159996914Y-159396761D01*
X160035619Y-159551580D01*
X160113028Y-159628990D01*
X160190438Y-159667695D01*
X160345257Y-159667695D01*
X160422666Y-159628990D01*
X160500076Y-159551580D01*
X160538780Y-159396761D01*
X160538780Y-159125828D01*
X160500076Y-158971009D01*
X160422666Y-158893600D01*
X160345257Y-158854895D01*
X159648571Y-158854895D02*
X159648571Y-159512876D01*
X159609866Y-159590285D01*
X159571161Y-159628990D01*
X159493752Y-159667695D01*
X159338933Y-159667695D01*
X159261523Y-159628990D01*
X159222819Y-159590285D01*
X159184114Y-159512876D01*
X159184114Y-158854895D01*
X158913180Y-158854895D02*
X158448723Y-158854895D01*
X158680952Y-159667695D02*
X158680952Y-158854895D01*
X164054819Y-155354895D02*
X164441866Y-155354895D01*
X164480571Y-155741942D01*
X164441866Y-155703238D01*
X164364457Y-155664533D01*
X164170933Y-155664533D01*
X164093523Y-155703238D01*
X164054819Y-155741942D01*
X164016114Y-155819352D01*
X164016114Y-156012876D01*
X164054819Y-156090285D01*
X164093523Y-156128990D01*
X164170933Y-156167695D01*
X164364457Y-156167695D01*
X164441866Y-156128990D01*
X164480571Y-156090285D01*
X163783885Y-155354895D02*
X163512952Y-156167695D01*
X163242019Y-155354895D01*
X170019276Y-159093600D02*
X170096685Y-159054895D01*
X170212800Y-159054895D01*
X170328914Y-159093600D01*
X170406323Y-159171009D01*
X170445028Y-159248419D01*
X170483733Y-159403238D01*
X170483733Y-159519352D01*
X170445028Y-159674171D01*
X170406323Y-159751580D01*
X170328914Y-159828990D01*
X170212800Y-159867695D01*
X170135390Y-159867695D01*
X170019276Y-159828990D01*
X169980571Y-159790285D01*
X169980571Y-159519352D01*
X170135390Y-159519352D01*
X169632228Y-159867695D02*
X169632228Y-159054895D01*
X169167771Y-159867695D01*
X169167771Y-159054895D01*
X168780723Y-159867695D02*
X168780723Y-159054895D01*
X168587200Y-159054895D01*
X168471085Y-159093600D01*
X168393676Y-159171009D01*
X168354971Y-159248419D01*
X168316266Y-159403238D01*
X168316266Y-159519352D01*
X168354971Y-159674171D01*
X168393676Y-159751580D01*
X168471085Y-159828990D01*
X168587200Y-159867695D01*
X168780723Y-159867695D01*
X176876952Y-155767695D02*
X176876952Y-154954895D01*
X176606019Y-155535466D01*
X176335085Y-154954895D01*
X176335085Y-155767695D01*
X175948038Y-155767695D02*
X175948038Y-154954895D01*
X175560990Y-155767695D02*
X175560990Y-154954895D01*
X175367466Y-154954895D01*
X175251352Y-154993600D01*
X175173942Y-155071009D01*
X175135238Y-155148419D01*
X175096533Y-155303238D01*
X175096533Y-155419352D01*
X175135238Y-155574171D01*
X175173942Y-155651580D01*
X175251352Y-155728990D01*
X175367466Y-155767695D01*
X175560990Y-155767695D01*
X174748190Y-155767695D02*
X174748190Y-154954895D01*
X173587047Y-154954895D02*
X173432228Y-154954895D01*
X173354819Y-154993600D01*
X173277409Y-155071009D01*
X173238704Y-155225828D01*
X173238704Y-155496761D01*
X173277409Y-155651580D01*
X173354819Y-155728990D01*
X173432228Y-155767695D01*
X173587047Y-155767695D01*
X173664457Y-155728990D01*
X173741866Y-155651580D01*
X173780571Y-155496761D01*
X173780571Y-155225828D01*
X173741866Y-155071009D01*
X173664457Y-154993600D01*
X173587047Y-154954895D01*
X172890361Y-154954895D02*
X172890361Y-155612876D01*
X172851657Y-155690285D01*
X172812952Y-155728990D01*
X172735542Y-155767695D01*
X172580723Y-155767695D01*
X172503314Y-155728990D01*
X172464609Y-155690285D01*
X172425904Y-155612876D01*
X172425904Y-154954895D01*
X172154971Y-154954895D02*
X171690514Y-154954895D01*
X171922742Y-155767695D02*
X171922742Y-154954895D01*
X171419580Y-155767695D02*
X171419580Y-154954895D01*
X171109942Y-154954895D01*
X171032533Y-154993600D01*
X170993828Y-155032304D01*
X170955123Y-155109714D01*
X170955123Y-155225828D01*
X170993828Y-155303238D01*
X171032533Y-155341942D01*
X171109942Y-155380647D01*
X171419580Y-155380647D01*
X170606780Y-154954895D02*
X170606780Y-155612876D01*
X170568076Y-155690285D01*
X170529371Y-155728990D01*
X170451961Y-155767695D01*
X170297142Y-155767695D01*
X170219733Y-155728990D01*
X170181028Y-155690285D01*
X170142323Y-155612876D01*
X170142323Y-154954895D01*
X169871390Y-154954895D02*
X169406933Y-154954895D01*
X169639161Y-155767695D02*
X169639161Y-154954895D01*
X179467542Y-159567695D02*
X179467542Y-158754895D01*
X179196609Y-159335466D01*
X178925676Y-158754895D01*
X178925676Y-159567695D01*
X178538628Y-159567695D02*
X178538628Y-158754895D01*
X178151580Y-159567695D02*
X178151580Y-158754895D01*
X177958057Y-158754895D01*
X177841942Y-158793600D01*
X177764533Y-158871009D01*
X177725828Y-158948419D01*
X177687123Y-159103238D01*
X177687123Y-159219352D01*
X177725828Y-159374171D01*
X177764533Y-159451580D01*
X177841942Y-159528990D01*
X177958057Y-159567695D01*
X178151580Y-159567695D01*
X177338780Y-159567695D02*
X177338780Y-158754895D01*
X176951733Y-159258057D02*
X176332457Y-159258057D01*
X176642095Y-159567695D02*
X176642095Y-158948419D01*
X183567542Y-159567695D02*
X183567542Y-158754895D01*
X183296609Y-159335466D01*
X183025676Y-158754895D01*
X183025676Y-159567695D01*
X182638628Y-159567695D02*
X182638628Y-158754895D01*
X182251580Y-159567695D02*
X182251580Y-158754895D01*
X182058057Y-158754895D01*
X181941942Y-158793600D01*
X181864533Y-158871009D01*
X181825828Y-158948419D01*
X181787123Y-159103238D01*
X181787123Y-159219352D01*
X181825828Y-159374171D01*
X181864533Y-159451580D01*
X181941942Y-159528990D01*
X182058057Y-159567695D01*
X182251580Y-159567695D01*
X181438780Y-159567695D02*
X181438780Y-158754895D01*
X181051733Y-159258057D02*
X180432457Y-159258057D01*
X198335085Y-156567695D02*
X198335085Y-155754895D01*
X198064152Y-156335466D01*
X197793219Y-155754895D01*
X197793219Y-156567695D01*
X197406171Y-156567695D02*
X197406171Y-155754895D01*
X197019123Y-156567695D02*
X197019123Y-155754895D01*
X196825600Y-155754895D01*
X196709485Y-155793600D01*
X196632076Y-155871009D01*
X196593371Y-155948419D01*
X196554666Y-156103238D01*
X196554666Y-156219352D01*
X196593371Y-156374171D01*
X196632076Y-156451580D01*
X196709485Y-156528990D01*
X196825600Y-156567695D01*
X197019123Y-156567695D01*
X196206323Y-156567695D02*
X196206323Y-155754895D01*
X195200000Y-156567695D02*
X195200000Y-155754895D01*
X194812952Y-156567695D02*
X194812952Y-155754895D01*
X194348495Y-156567695D01*
X194348495Y-155754895D01*
X193961447Y-156567695D02*
X193961447Y-155754895D01*
X193651809Y-155754895D01*
X193574400Y-155793600D01*
X193535695Y-155832304D01*
X193496990Y-155909714D01*
X193496990Y-156025828D01*
X193535695Y-156103238D01*
X193574400Y-156141942D01*
X193651809Y-156180647D01*
X193961447Y-156180647D01*
X193148647Y-155754895D02*
X193148647Y-156412876D01*
X193109942Y-156490285D01*
X193071238Y-156528990D01*
X192993828Y-156567695D01*
X192839009Y-156567695D01*
X192761600Y-156528990D01*
X192722895Y-156490285D01*
X192684190Y-156412876D01*
X192684190Y-155754895D01*
X192413257Y-155754895D02*
X191948800Y-155754895D01*
X192181028Y-156567695D02*
X192181028Y-155754895D01*
D12*
X166500000Y-101338095D02*
X166452380Y-101242857D01*
X166452380Y-101100000D01*
X166500000Y-100957142D01*
X166595238Y-100861904D01*
X166690476Y-100814285D01*
X166880952Y-100766666D01*
X167023809Y-100766666D01*
X167214285Y-100814285D01*
X167309523Y-100861904D01*
X167404761Y-100957142D01*
X167452380Y-101100000D01*
X167452380Y-101195238D01*
X167404761Y-101338095D01*
X167357142Y-101385714D01*
X167023809Y-101385714D01*
X167023809Y-101195238D01*
X167452380Y-101814285D02*
X166452380Y-101814285D01*
X167452380Y-102385714D01*
X166452380Y-102385714D01*
X167452380Y-102861904D02*
X166452380Y-102861904D01*
X166452380Y-103100000D01*
X166500000Y-103242857D01*
X166595238Y-103338095D01*
X166690476Y-103385714D01*
X166880952Y-103433333D01*
X167023809Y-103433333D01*
X167214285Y-103385714D01*
X167309523Y-103338095D01*
X167404761Y-103242857D01*
X167452380Y-103100000D01*
X167452380Y-102861904D01*
X176900000Y-101738095D02*
X176852380Y-101642857D01*
X176852380Y-101500000D01*
X176900000Y-101357142D01*
X176995238Y-101261904D01*
X177090476Y-101214285D01*
X177280952Y-101166666D01*
X177423809Y-101166666D01*
X177614285Y-101214285D01*
X177709523Y-101261904D01*
X177804761Y-101357142D01*
X177852380Y-101500000D01*
X177852380Y-101595238D01*
X177804761Y-101738095D01*
X177757142Y-101785714D01*
X177423809Y-101785714D01*
X177423809Y-101595238D01*
X177852380Y-102214285D02*
X176852380Y-102214285D01*
X177852380Y-102785714D01*
X176852380Y-102785714D01*
X177852380Y-103261904D02*
X176852380Y-103261904D01*
X176852380Y-103500000D01*
X176900000Y-103642857D01*
X176995238Y-103738095D01*
X177090476Y-103785714D01*
X177280952Y-103833333D01*
X177423809Y-103833333D01*
X177614285Y-103785714D01*
X177709523Y-103738095D01*
X177804761Y-103642857D01*
X177852380Y-103500000D01*
X177852380Y-103261904D01*
X168685714Y-85052380D02*
X168352380Y-86052380D01*
X168019047Y-85052380D01*
X167780952Y-85052380D02*
X167161904Y-85052380D01*
X167495238Y-85433333D01*
X167352380Y-85433333D01*
X167257142Y-85480952D01*
X167209523Y-85528571D01*
X167161904Y-85623809D01*
X167161904Y-85861904D01*
X167209523Y-85957142D01*
X167257142Y-86004761D01*
X167352380Y-86052380D01*
X167638095Y-86052380D01*
X167733333Y-86004761D01*
X167780952Y-85957142D01*
X166542857Y-85052380D02*
X166447619Y-85052380D01*
X166352380Y-85100000D01*
X166304761Y-85147619D01*
X166257142Y-85242857D01*
X166209523Y-85433333D01*
X166209523Y-85671428D01*
X166257142Y-85861904D01*
X166304761Y-85957142D01*
X166352380Y-86004761D01*
X166447619Y-86052380D01*
X166542857Y-86052380D01*
X166638095Y-86004761D01*
X166685714Y-85957142D01*
X166733333Y-85861904D01*
X166780952Y-85671428D01*
X166780952Y-85433333D01*
X166733333Y-85242857D01*
X166685714Y-85147619D01*
X166638095Y-85100000D01*
X166542857Y-85052380D01*
X178185714Y-85052380D02*
X177852380Y-86052380D01*
X177519047Y-85052380D01*
X177280952Y-85052380D02*
X176661904Y-85052380D01*
X176995238Y-85433333D01*
X176852380Y-85433333D01*
X176757142Y-85480952D01*
X176709523Y-85528571D01*
X176661904Y-85623809D01*
X176661904Y-85861904D01*
X176709523Y-85957142D01*
X176757142Y-86004761D01*
X176852380Y-86052380D01*
X177138095Y-86052380D01*
X177233333Y-86004761D01*
X177280952Y-85957142D01*
X175709523Y-86052380D02*
X176280952Y-86052380D01*
X175995238Y-86052380D02*
X175995238Y-85052380D01*
X176090476Y-85195238D01*
X176185714Y-85290476D01*
X176280952Y-85338095D01*
X177609523Y-46952380D02*
X177276190Y-47952380D01*
X176942857Y-46952380D01*
X176085714Y-47952380D02*
X176657142Y-47952380D01*
X176371428Y-47952380D02*
X176371428Y-46952380D01*
X176466666Y-47095238D01*
X176561904Y-47190476D01*
X176657142Y-47238095D01*
X168409523Y-46952380D02*
X168076190Y-47952380D01*
X167742857Y-46952380D01*
X167219047Y-46952380D02*
X167123809Y-46952380D01*
X167028571Y-47000000D01*
X166980952Y-47047619D01*
X166933333Y-47142857D01*
X166885714Y-47333333D01*
X166885714Y-47571428D01*
X166933333Y-47761904D01*
X166980952Y-47857142D01*
X167028571Y-47904761D01*
X167123809Y-47952380D01*
X167219047Y-47952380D01*
X167314285Y-47904761D01*
X167361904Y-47857142D01*
X167409523Y-47761904D01*
X167457142Y-47571428D01*
X167457142Y-47333333D01*
X167409523Y-47142857D01*
X167361904Y-47047619D01*
X167314285Y-47000000D01*
X167219047Y-46952380D01*
X194200000Y-82838095D02*
X194152380Y-82742857D01*
X194152380Y-82600000D01*
X194200000Y-82457142D01*
X194295238Y-82361904D01*
X194390476Y-82314285D01*
X194580952Y-82266666D01*
X194723809Y-82266666D01*
X194914285Y-82314285D01*
X195009523Y-82361904D01*
X195104761Y-82457142D01*
X195152380Y-82600000D01*
X195152380Y-82695238D01*
X195104761Y-82838095D01*
X195057142Y-82885714D01*
X194723809Y-82885714D01*
X194723809Y-82695238D01*
X195152380Y-83314285D02*
X194152380Y-83314285D01*
X195152380Y-83885714D01*
X194152380Y-83885714D01*
X195152380Y-84361904D02*
X194152380Y-84361904D01*
X194152380Y-84600000D01*
X194200000Y-84742857D01*
X194295238Y-84838095D01*
X194390476Y-84885714D01*
X194580952Y-84933333D01*
X194723809Y-84933333D01*
X194914285Y-84885714D01*
X195009523Y-84838095D01*
X195104761Y-84742857D01*
X195152380Y-84600000D01*
X195152380Y-84361904D01*
X202676190Y-94052380D02*
X202676190Y-93052380D01*
X202200000Y-94052380D02*
X202200000Y-93052380D01*
X201628571Y-94052380D01*
X201628571Y-93052380D01*
X200628571Y-94052380D02*
X201200000Y-94052380D01*
X200914285Y-94052380D02*
X200914285Y-93052380D01*
X201009523Y-93195238D01*
X201104761Y-93290476D01*
X201200000Y-93338095D01*
X199771428Y-93052380D02*
X199961904Y-93052380D01*
X200057142Y-93100000D01*
X200104761Y-93147619D01*
X200200000Y-93290476D01*
X200247619Y-93480952D01*
X200247619Y-93861904D01*
X200200000Y-93957142D01*
X200152380Y-94004761D01*
X200057142Y-94052380D01*
X199866666Y-94052380D01*
X199771428Y-94004761D01*
X199723809Y-93957142D01*
X199676190Y-93861904D01*
X199676190Y-93623809D01*
X199723809Y-93528571D01*
X199771428Y-93480952D01*
X199866666Y-93433333D01*
X200057142Y-93433333D01*
X200152380Y-93480952D01*
X200200000Y-93528571D01*
X200247619Y-93623809D01*
X203400000Y-50252380D02*
X203400000Y-49252380D01*
X202923809Y-50252380D02*
X202923809Y-49252380D01*
X202352380Y-50252380D01*
X202352380Y-49252380D01*
X201352380Y-50252380D02*
X201923809Y-50252380D01*
X201638095Y-50252380D02*
X201638095Y-49252380D01*
X201733333Y-49395238D01*
X201828571Y-49490476D01*
X201923809Y-49538095D01*
X198219047Y-47252380D02*
X198790476Y-47252380D01*
X198504761Y-47252380D02*
X198504761Y-46252380D01*
X198600000Y-46395238D01*
X198695238Y-46490476D01*
X198790476Y-46538095D01*
X197838095Y-46347619D02*
X197790476Y-46300000D01*
X197695238Y-46252380D01*
X197457142Y-46252380D01*
X197361904Y-46300000D01*
X197314285Y-46347619D01*
X197266666Y-46442857D01*
X197266666Y-46538095D01*
X197314285Y-46680952D01*
X197885714Y-47252380D01*
X197266666Y-47252380D01*
X196980952Y-46252380D02*
X196647619Y-47252380D01*
X196314285Y-46252380D01*
X203704761Y-59404761D02*
X203752380Y-59309523D01*
X203752380Y-59119047D01*
X203704761Y-59023809D01*
X203657142Y-58976190D01*
X203561904Y-58928571D01*
X203276190Y-58928571D01*
X203180952Y-58976190D01*
X203133333Y-59023809D01*
X203085714Y-59119047D01*
X203085714Y-59309523D01*
X203133333Y-59404761D01*
X203752380Y-59976190D02*
X203704761Y-59880952D01*
X203657142Y-59833333D01*
X203561904Y-59785714D01*
X203276190Y-59785714D01*
X203180952Y-59833333D01*
X203133333Y-59880952D01*
X203085714Y-59976190D01*
X203085714Y-60119047D01*
X203133333Y-60214285D01*
X203180952Y-60261904D01*
X203276190Y-60309523D01*
X203561904Y-60309523D01*
X203657142Y-60261904D01*
X203704761Y-60214285D01*
X203752380Y-60119047D01*
X203752380Y-59976190D01*
X203085714Y-60738095D02*
X203752380Y-60738095D01*
X203180952Y-60738095D02*
X203133333Y-60785714D01*
X203085714Y-60880952D01*
X203085714Y-61023809D01*
X203133333Y-61119047D01*
X203228571Y-61166666D01*
X203752380Y-61166666D01*
X203085714Y-61642857D02*
X203752380Y-61642857D01*
X203180952Y-61642857D02*
X203133333Y-61690476D01*
X203085714Y-61785714D01*
X203085714Y-61928571D01*
X203133333Y-62023809D01*
X203228571Y-62071428D01*
X203752380Y-62071428D01*
X203704761Y-62928571D02*
X203752380Y-62833333D01*
X203752380Y-62642857D01*
X203704761Y-62547619D01*
X203609523Y-62500000D01*
X203228571Y-62500000D01*
X203133333Y-62547619D01*
X203085714Y-62642857D01*
X203085714Y-62833333D01*
X203133333Y-62928571D01*
X203228571Y-62976190D01*
X203323809Y-62976190D01*
X203419047Y-62500000D01*
X203704761Y-63833333D02*
X203752380Y-63738095D01*
X203752380Y-63547619D01*
X203704761Y-63452380D01*
X203657142Y-63404761D01*
X203561904Y-63357142D01*
X203276190Y-63357142D01*
X203180952Y-63404761D01*
X203133333Y-63452380D01*
X203085714Y-63547619D01*
X203085714Y-63738095D01*
X203133333Y-63833333D01*
X203085714Y-64119047D02*
X203085714Y-64500000D01*
X202752380Y-64261904D02*
X203609523Y-64261904D01*
X203704761Y-64309523D01*
X203752380Y-64404761D01*
X203752380Y-64500000D01*
X203752380Y-64976190D02*
X203704761Y-64880952D01*
X203657142Y-64833333D01*
X203561904Y-64785714D01*
X203276190Y-64785714D01*
X203180952Y-64833333D01*
X203133333Y-64880952D01*
X203085714Y-64976190D01*
X203085714Y-65119047D01*
X203133333Y-65214285D01*
X203180952Y-65261904D01*
X203276190Y-65309523D01*
X203561904Y-65309523D01*
X203657142Y-65261904D01*
X203704761Y-65214285D01*
X203752380Y-65119047D01*
X203752380Y-64976190D01*
X203752380Y-65738095D02*
X203085714Y-65738095D01*
X203276190Y-65738095D02*
X203180952Y-65785714D01*
X203133333Y-65833333D01*
X203085714Y-65928571D01*
X203085714Y-66023809D01*
X203085714Y-66976190D02*
X203085714Y-67357142D01*
X202752380Y-67119047D02*
X203609523Y-67119047D01*
X203704761Y-67166666D01*
X203752380Y-67261904D01*
X203752380Y-67357142D01*
X203752380Y-67833333D02*
X203704761Y-67738095D01*
X203657142Y-67690476D01*
X203561904Y-67642857D01*
X203276190Y-67642857D01*
X203180952Y-67690476D01*
X203133333Y-67738095D01*
X203085714Y-67833333D01*
X203085714Y-67976190D01*
X203133333Y-68071428D01*
X203180952Y-68119047D01*
X203276190Y-68166666D01*
X203561904Y-68166666D01*
X203657142Y-68119047D01*
X203704761Y-68071428D01*
X203752380Y-67976190D01*
X203752380Y-67833333D01*
X203657142Y-69928571D02*
X203704761Y-69880952D01*
X203752380Y-69738095D01*
X203752380Y-69642857D01*
X203704761Y-69500000D01*
X203609523Y-69404761D01*
X203514285Y-69357142D01*
X203323809Y-69309523D01*
X203180952Y-69309523D01*
X202990476Y-69357142D01*
X202895238Y-69404761D01*
X202800000Y-69500000D01*
X202752380Y-69642857D01*
X202752380Y-69738095D01*
X202800000Y-69880952D01*
X202847619Y-69928571D01*
X203704761Y-70738095D02*
X203752380Y-70642857D01*
X203752380Y-70452380D01*
X203704761Y-70357142D01*
X203609523Y-70309523D01*
X203228571Y-70309523D01*
X203133333Y-70357142D01*
X203085714Y-70452380D01*
X203085714Y-70642857D01*
X203133333Y-70738095D01*
X203228571Y-70785714D01*
X203323809Y-70785714D01*
X203419047Y-70309523D01*
X203085714Y-71214285D02*
X203752380Y-71214285D01*
X203180952Y-71214285D02*
X203133333Y-71261904D01*
X203085714Y-71357142D01*
X203085714Y-71500000D01*
X203133333Y-71595238D01*
X203228571Y-71642857D01*
X203752380Y-71642857D01*
X203085714Y-71976190D02*
X203085714Y-72357142D01*
X202752380Y-72119047D02*
X203609523Y-72119047D01*
X203704761Y-72166666D01*
X203752380Y-72261904D01*
X203752380Y-72357142D01*
X203752380Y-72690476D02*
X203085714Y-72690476D01*
X203276190Y-72690476D02*
X203180952Y-72738095D01*
X203133333Y-72785714D01*
X203085714Y-72880952D01*
X203085714Y-72976190D01*
X203752380Y-73738095D02*
X203228571Y-73738095D01*
X203133333Y-73690476D01*
X203085714Y-73595238D01*
X203085714Y-73404761D01*
X203133333Y-73309523D01*
X203704761Y-73738095D02*
X203752380Y-73642857D01*
X203752380Y-73404761D01*
X203704761Y-73309523D01*
X203609523Y-73261904D01*
X203514285Y-73261904D01*
X203419047Y-73309523D01*
X203371428Y-73404761D01*
X203371428Y-73642857D01*
X203323809Y-73738095D01*
X203752380Y-74357142D02*
X203704761Y-74261904D01*
X203609523Y-74214285D01*
X202752380Y-74214285D01*
X203752380Y-75500000D02*
X202752380Y-75500000D01*
X202752380Y-75880952D01*
X202800000Y-75976190D01*
X202847619Y-76023809D01*
X202942857Y-76071428D01*
X203085714Y-76071428D01*
X203180952Y-76023809D01*
X203228571Y-75976190D01*
X203276190Y-75880952D01*
X203276190Y-75500000D01*
X203657142Y-77071428D02*
X203704761Y-77023809D01*
X203752380Y-76880952D01*
X203752380Y-76785714D01*
X203704761Y-76642857D01*
X203609523Y-76547619D01*
X203514285Y-76500000D01*
X203323809Y-76452380D01*
X203180952Y-76452380D01*
X202990476Y-76500000D01*
X202895238Y-76547619D01*
X202800000Y-76642857D01*
X202752380Y-76785714D01*
X202752380Y-76880952D01*
X202800000Y-77023809D01*
X202847619Y-77071428D01*
X203228571Y-77833333D02*
X203276190Y-77976190D01*
X203323809Y-78023809D01*
X203419047Y-78071428D01*
X203561904Y-78071428D01*
X203657142Y-78023809D01*
X203704761Y-77976190D01*
X203752380Y-77880952D01*
X203752380Y-77500000D01*
X202752380Y-77500000D01*
X202752380Y-77833333D01*
X202800000Y-77928571D01*
X202847619Y-77976190D01*
X202942857Y-78023809D01*
X203038095Y-78023809D01*
X203133333Y-77976190D01*
X203180952Y-77928571D01*
X203228571Y-77833333D01*
X203228571Y-77500000D01*
X177804761Y-63147619D02*
X177852380Y-63052380D01*
X177852380Y-62861904D01*
X177804761Y-62766666D01*
X177757142Y-62719047D01*
X177661904Y-62671428D01*
X177376190Y-62671428D01*
X177280952Y-62719047D01*
X177233333Y-62766666D01*
X177185714Y-62861904D01*
X177185714Y-63052380D01*
X177233333Y-63147619D01*
X177852380Y-63719047D02*
X177804761Y-63623809D01*
X177757142Y-63576190D01*
X177661904Y-63528571D01*
X177376190Y-63528571D01*
X177280952Y-63576190D01*
X177233333Y-63623809D01*
X177185714Y-63719047D01*
X177185714Y-63861904D01*
X177233333Y-63957142D01*
X177280952Y-64004761D01*
X177376190Y-64052380D01*
X177661904Y-64052380D01*
X177757142Y-64004761D01*
X177804761Y-63957142D01*
X177852380Y-63861904D01*
X177852380Y-63719047D01*
X177185714Y-64480952D02*
X177852380Y-64480952D01*
X177280952Y-64480952D02*
X177233333Y-64528571D01*
X177185714Y-64623809D01*
X177185714Y-64766666D01*
X177233333Y-64861904D01*
X177328571Y-64909523D01*
X177852380Y-64909523D01*
X177185714Y-65385714D02*
X177852380Y-65385714D01*
X177280952Y-65385714D02*
X177233333Y-65433333D01*
X177185714Y-65528571D01*
X177185714Y-65671428D01*
X177233333Y-65766666D01*
X177328571Y-65814285D01*
X177852380Y-65814285D01*
X177804761Y-66671428D02*
X177852380Y-66576190D01*
X177852380Y-66385714D01*
X177804761Y-66290476D01*
X177709523Y-66242857D01*
X177328571Y-66242857D01*
X177233333Y-66290476D01*
X177185714Y-66385714D01*
X177185714Y-66576190D01*
X177233333Y-66671428D01*
X177328571Y-66719047D01*
X177423809Y-66719047D01*
X177519047Y-66242857D01*
X177804761Y-67576190D02*
X177852380Y-67480952D01*
X177852380Y-67290476D01*
X177804761Y-67195238D01*
X177757142Y-67147619D01*
X177661904Y-67100000D01*
X177376190Y-67100000D01*
X177280952Y-67147619D01*
X177233333Y-67195238D01*
X177185714Y-67290476D01*
X177185714Y-67480952D01*
X177233333Y-67576190D01*
X177185714Y-67861904D02*
X177185714Y-68242857D01*
X176852380Y-68004761D02*
X177709523Y-68004761D01*
X177804761Y-68052380D01*
X177852380Y-68147619D01*
X177852380Y-68242857D01*
X177852380Y-68719047D02*
X177804761Y-68623809D01*
X177757142Y-68576190D01*
X177661904Y-68528571D01*
X177376190Y-68528571D01*
X177280952Y-68576190D01*
X177233333Y-68623809D01*
X177185714Y-68719047D01*
X177185714Y-68861904D01*
X177233333Y-68957142D01*
X177280952Y-69004761D01*
X177376190Y-69052380D01*
X177661904Y-69052380D01*
X177757142Y-69004761D01*
X177804761Y-68957142D01*
X177852380Y-68861904D01*
X177852380Y-68719047D01*
X177852380Y-69480952D02*
X177185714Y-69480952D01*
X177376190Y-69480952D02*
X177280952Y-69528571D01*
X177233333Y-69576190D01*
X177185714Y-69671428D01*
X177185714Y-69766666D01*
X177185714Y-70719047D02*
X177185714Y-71100000D01*
X176852380Y-70861904D02*
X177709523Y-70861904D01*
X177804761Y-70909523D01*
X177852380Y-71004761D01*
X177852380Y-71100000D01*
X177852380Y-71576190D02*
X177804761Y-71480952D01*
X177757142Y-71433333D01*
X177661904Y-71385714D01*
X177376190Y-71385714D01*
X177280952Y-71433333D01*
X177233333Y-71480952D01*
X177185714Y-71576190D01*
X177185714Y-71719047D01*
X177233333Y-71814285D01*
X177280952Y-71861904D01*
X177376190Y-71909523D01*
X177661904Y-71909523D01*
X177757142Y-71861904D01*
X177804761Y-71814285D01*
X177852380Y-71719047D01*
X177852380Y-71576190D01*
X177852380Y-73100000D02*
X176852380Y-73100000D01*
X176852380Y-73338095D01*
X176900000Y-73480952D01*
X176995238Y-73576190D01*
X177090476Y-73623809D01*
X177280952Y-73671428D01*
X177423809Y-73671428D01*
X177614285Y-73623809D01*
X177709523Y-73576190D01*
X177804761Y-73480952D01*
X177852380Y-73338095D01*
X177852380Y-73100000D01*
X177566666Y-74052380D02*
X177566666Y-74528571D01*
X177852380Y-73957142D02*
X176852380Y-74290476D01*
X177852380Y-74623809D01*
X177757142Y-75528571D02*
X177804761Y-75480952D01*
X177852380Y-75338095D01*
X177852380Y-75242857D01*
X177804761Y-75100000D01*
X177709523Y-75004761D01*
X177614285Y-74957142D01*
X177423809Y-74909523D01*
X177280952Y-74909523D01*
X177090476Y-74957142D01*
X176995238Y-75004761D01*
X176900000Y-75100000D01*
X176852380Y-75242857D01*
X176852380Y-75338095D01*
X176900000Y-75480952D01*
X176947619Y-75528571D01*
D13*
G36*
X97903000Y-136593000D02*
G01*
X98157000Y-136847000D01*
X98411000Y-136466000D01*
X98157000Y-136212000D01*
X97903000Y-136593000D01*
G37*
X97903000Y-136593000D02*
X98157000Y-136847000D01*
X98411000Y-136466000D01*
X98157000Y-136212000D01*
X97903000Y-136593000D01*
G36*
X98284000Y-136974000D02*
G01*
X98538000Y-137228000D01*
X98792000Y-136847000D01*
X98538000Y-136593000D01*
X98284000Y-136974000D01*
G37*
X98284000Y-136974000D02*
X98538000Y-137228000D01*
X98792000Y-136847000D01*
X98538000Y-136593000D01*
X98284000Y-136974000D01*
G36*
X100189000Y-136212000D02*
G01*
X100443000Y-136466000D01*
X100697000Y-136085000D01*
X100443000Y-135831000D01*
X100189000Y-136212000D01*
G37*
X100189000Y-136212000D02*
X100443000Y-136466000D01*
X100697000Y-136085000D01*
X100443000Y-135831000D01*
X100189000Y-136212000D01*
G36*
X99808000Y-136720000D02*
G01*
X100062000Y-136974000D01*
X100316000Y-136593000D01*
X100062000Y-136339000D01*
X99808000Y-136720000D01*
G37*
X99808000Y-136720000D02*
X100062000Y-136974000D01*
X100316000Y-136593000D01*
X100062000Y-136339000D01*
X99808000Y-136720000D01*
G36*
X99427000Y-137228000D02*
G01*
X99681000Y-137482000D01*
X99935000Y-137101000D01*
X99681000Y-136847000D01*
X99427000Y-137228000D01*
G37*
X99427000Y-137228000D02*
X99681000Y-137482000D01*
X99935000Y-137101000D01*
X99681000Y-136847000D01*
X99427000Y-137228000D01*
G36*
X99427000Y-136339000D02*
G01*
X99681000Y-136593000D01*
X99935000Y-136212000D01*
X99681000Y-135958000D01*
X99427000Y-136339000D01*
G37*
X99427000Y-136339000D02*
X99681000Y-136593000D01*
X99935000Y-136212000D01*
X99681000Y-135958000D01*
X99427000Y-136339000D01*
G36*
X99046000Y-136847000D02*
G01*
X99300000Y-137101000D01*
X99554000Y-136720000D01*
X99300000Y-136466000D01*
X99046000Y-136847000D01*
G37*
X99046000Y-136847000D02*
X99300000Y-137101000D01*
X99554000Y-136720000D01*
X99300000Y-136466000D01*
X99046000Y-136847000D01*
G36*
X98665000Y-137355000D02*
G01*
X98919000Y-137609000D01*
X99173000Y-137228000D01*
X98919000Y-136974000D01*
X98665000Y-137355000D01*
G37*
X98665000Y-137355000D02*
X98919000Y-137609000D01*
X99173000Y-137228000D01*
X98919000Y-136974000D01*
X98665000Y-137355000D01*
D12*
X131580000Y-145790000D02*
X131580000Y-128010000D01*
X70620000Y-145790000D02*
X131580000Y-145790000D01*
X70620000Y-128010000D02*
X70620000Y-145790000D01*
X131580000Y-128010000D02*
X70620000Y-128010000D01*
X126500000Y-140710000D02*
X131580000Y-140710000D01*
X126500000Y-133090000D02*
X131580000Y-133090000D01*
X126500000Y-140710000D02*
X126500000Y-133090000D01*
X132850000Y-133090000D02*
X131580000Y-133090000D01*
X132850000Y-140710000D02*
X132850000Y-133090000D01*
X131580000Y-140710000D02*
X132850000Y-140710000D01*
X70620000Y-130550000D02*
X83320000Y-130550000D01*
X83320000Y-130550000D02*
X83320000Y-143250000D01*
X83320000Y-143250000D02*
X70620000Y-143250000D01*
X70620000Y-131820000D02*
X71890000Y-131820000D01*
X71890000Y-131820000D02*
X71890000Y-141980000D01*
X71890000Y-141980000D02*
X70620000Y-141980000D01*
X87130000Y-135630000D02*
X87130000Y-138170000D01*
X87130000Y-138170000D02*
X90940000Y-138170000D01*
X90940000Y-138170000D02*
X90940000Y-135630000D01*
X90940000Y-135630000D02*
X87130000Y-135630000D01*
X125280800Y-140199200D02*
X112580800Y-140199200D01*
X112580800Y-140199200D02*
X112580800Y-142739200D01*
X112580800Y-142739200D02*
X125280800Y-142739200D01*
X125280800Y-142739200D02*
X125280800Y-140199200D01*
X125280800Y-140199200D02*
X122740800Y-140199200D01*
X122740800Y-140199200D02*
X122740800Y-142739200D01*
X118350000Y-130798400D02*
X118350000Y-136798400D01*
X118350000Y-136798400D02*
X114350000Y-136798400D01*
X114350000Y-136798400D02*
X114350000Y-130548400D01*
X114350000Y-130548400D02*
X118350000Y-130548400D01*
X118350000Y-130548400D02*
X118350000Y-130798400D01*
X108720000Y-143250000D02*
X96020000Y-143250000D01*
X96020000Y-143250000D02*
X96020000Y-130550000D01*
X96020000Y-130550000D02*
X108720000Y-130550000D01*
X108720000Y-130550000D02*
X108720000Y-143250000D01*
X89933026Y-136900000D02*
G75*
G03X89933026Y-136900000I-898026J0D01*
G01*
D14*
X131430000Y-150230000D02*
X131430000Y-148900000D01*
X130100000Y-150230000D02*
X131430000Y-150230000D01*
X128830000Y-150230000D02*
X128830000Y-147570000D01*
X128830000Y-147570000D02*
X70350000Y-147570000D01*
X128830000Y-150230000D02*
X70350000Y-150230000D01*
X70350000Y-150230000D02*
X70350000Y-147570000D01*
X131430000Y-126230000D02*
X131430000Y-124900000D01*
X130100000Y-126230000D02*
X131430000Y-126230000D01*
X128830000Y-126230000D02*
X128830000Y-123570000D01*
X128830000Y-123570000D02*
X70350000Y-123570000D01*
X128830000Y-126230000D02*
X70350000Y-126230000D01*
X70350000Y-126230000D02*
X70350000Y-123570000D01*
X200610000Y-122950000D02*
X200610000Y-112670000D01*
X218630000Y-122950000D02*
X200610000Y-122950000D01*
X218630000Y-112670000D02*
X218630000Y-122950000D01*
X200610000Y-112670000D02*
X218630000Y-112670000D01*
X200670000Y-120460000D02*
X200670000Y-118810000D01*
X218570000Y-120460000D02*
X200670000Y-120460000D01*
X218570000Y-115160000D02*
X218570000Y-120460000D01*
X200670000Y-115160000D02*
X218570000Y-115160000D01*
X200670000Y-116810000D02*
X200670000Y-115160000D01*
X200670000Y-118810000D02*
G75*
G03X200670000Y-116810000I0J1000000D01*
G01*
X56000000Y-92460000D02*
X56000000Y-91770000D01*
X56000000Y-87040000D02*
X56000000Y-87730000D01*
X54580000Y-91770000D02*
X54580000Y-87730000D01*
X57420000Y-91770000D02*
X54580000Y-91770000D01*
X57420000Y-87730000D02*
X57420000Y-91770000D01*
X54580000Y-87730000D02*
X57420000Y-87730000D01*
X158120000Y-100000000D02*
X157350000Y-100000000D01*
X150040000Y-100000000D02*
X150810000Y-100000000D01*
X157350000Y-101370000D02*
X150810000Y-101370000D01*
X157350000Y-98630000D02*
X157350000Y-101370000D01*
X150810000Y-98630000D02*
X157350000Y-98630000D01*
X150810000Y-101370000D02*
X150810000Y-98630000D01*
X143120000Y-100000000D02*
X142350000Y-100000000D01*
X135040000Y-100000000D02*
X135810000Y-100000000D01*
X142350000Y-101370000D02*
X135810000Y-101370000D01*
X142350000Y-98630000D02*
X142350000Y-101370000D01*
X135810000Y-98630000D02*
X142350000Y-98630000D01*
X135810000Y-101370000D02*
X135810000Y-98630000D01*
X127120000Y-100000000D02*
X126350000Y-100000000D01*
X119040000Y-100000000D02*
X119810000Y-100000000D01*
X126350000Y-101370000D02*
X119810000Y-101370000D01*
X126350000Y-98630000D02*
X126350000Y-101370000D01*
X119810000Y-98630000D02*
X126350000Y-98630000D01*
X119810000Y-101370000D02*
X119810000Y-98630000D01*
X112120000Y-100000000D02*
X111350000Y-100000000D01*
X104040000Y-100000000D02*
X104810000Y-100000000D01*
X111350000Y-101370000D02*
X104810000Y-101370000D01*
X111350000Y-98630000D02*
X111350000Y-101370000D01*
X104810000Y-98630000D02*
X111350000Y-98630000D01*
X104810000Y-101370000D02*
X104810000Y-98630000D01*
X97620000Y-100000000D02*
X96850000Y-100000000D01*
X89540000Y-100000000D02*
X90310000Y-100000000D01*
X96850000Y-101370000D02*
X90310000Y-101370000D01*
X96850000Y-98630000D02*
X96850000Y-101370000D01*
X90310000Y-98630000D02*
X96850000Y-98630000D01*
X90310000Y-101370000D02*
X90310000Y-98630000D01*
X83120000Y-100000000D02*
X82350000Y-100000000D01*
X75040000Y-100000000D02*
X75810000Y-100000000D01*
X82350000Y-101370000D02*
X75810000Y-101370000D01*
X82350000Y-98630000D02*
X82350000Y-101370000D01*
X75810000Y-98630000D02*
X82350000Y-98630000D01*
X75810000Y-101370000D02*
X75810000Y-98630000D01*
X68120000Y-100000000D02*
X67350000Y-100000000D01*
X60040000Y-100000000D02*
X60810000Y-100000000D01*
X67350000Y-101370000D02*
X60810000Y-101370000D01*
X67350000Y-98630000D02*
X67350000Y-101370000D01*
X60810000Y-98630000D02*
X67350000Y-98630000D01*
X60810000Y-101370000D02*
X60810000Y-98630000D01*
X158120000Y-120000000D02*
X157350000Y-120000000D01*
X150040000Y-120000000D02*
X150810000Y-120000000D01*
X157350000Y-121370000D02*
X150810000Y-121370000D01*
X157350000Y-118630000D02*
X157350000Y-121370000D01*
X150810000Y-118630000D02*
X157350000Y-118630000D01*
X150810000Y-121370000D02*
X150810000Y-118630000D01*
X143120000Y-120000000D02*
X142350000Y-120000000D01*
X135040000Y-120000000D02*
X135810000Y-120000000D01*
X142350000Y-121370000D02*
X135810000Y-121370000D01*
X142350000Y-118630000D02*
X142350000Y-121370000D01*
X135810000Y-118630000D02*
X142350000Y-118630000D01*
X135810000Y-121370000D02*
X135810000Y-118630000D01*
X128120000Y-120000000D02*
X127350000Y-120000000D01*
X120040000Y-120000000D02*
X120810000Y-120000000D01*
X127350000Y-121370000D02*
X120810000Y-121370000D01*
X127350000Y-118630000D02*
X127350000Y-121370000D01*
X120810000Y-118630000D02*
X127350000Y-118630000D01*
X120810000Y-121370000D02*
X120810000Y-118630000D01*
X113120000Y-120000000D02*
X112350000Y-120000000D01*
X105040000Y-120000000D02*
X105810000Y-120000000D01*
X112350000Y-121370000D02*
X105810000Y-121370000D01*
X112350000Y-118630000D02*
X112350000Y-121370000D01*
X105810000Y-118630000D02*
X112350000Y-118630000D01*
X105810000Y-121370000D02*
X105810000Y-118630000D01*
X98120000Y-120000000D02*
X97350000Y-120000000D01*
X90040000Y-120000000D02*
X90810000Y-120000000D01*
X97350000Y-121370000D02*
X90810000Y-121370000D01*
X97350000Y-118630000D02*
X97350000Y-121370000D01*
X90810000Y-118630000D02*
X97350000Y-118630000D01*
X90810000Y-121370000D02*
X90810000Y-118630000D01*
X83120000Y-120000000D02*
X82350000Y-120000000D01*
X75040000Y-120000000D02*
X75810000Y-120000000D01*
X82350000Y-121370000D02*
X75810000Y-121370000D01*
X82350000Y-118630000D02*
X82350000Y-121370000D01*
X75810000Y-118630000D02*
X82350000Y-118630000D01*
X75810000Y-121370000D02*
X75810000Y-118630000D01*
X68120000Y-120000000D02*
X67350000Y-120000000D01*
X60040000Y-120000000D02*
X60810000Y-120000000D01*
X67350000Y-121370000D02*
X60810000Y-121370000D01*
X67350000Y-118630000D02*
X67350000Y-121370000D01*
X60810000Y-118630000D02*
X67350000Y-118630000D01*
X60810000Y-121370000D02*
X60810000Y-118630000D01*
X53220000Y-120000000D02*
X52450000Y-120000000D01*
X45140000Y-120000000D02*
X45910000Y-120000000D01*
X52450000Y-121370000D02*
X45910000Y-121370000D01*
X52450000Y-118630000D02*
X52450000Y-121370000D01*
X45910000Y-118630000D02*
X52450000Y-118630000D01*
X45910000Y-121370000D02*
X45910000Y-118630000D01*
X52960000Y-100000000D02*
X52190000Y-100000000D01*
X44880000Y-100000000D02*
X45650000Y-100000000D01*
X52190000Y-101370000D02*
X45650000Y-101370000D01*
X52190000Y-98630000D02*
X52190000Y-101370000D01*
X45650000Y-98630000D02*
X52190000Y-98630000D01*
X45650000Y-101370000D02*
X45650000Y-98630000D01*
X158120000Y-80000000D02*
X157350000Y-80000000D01*
X150040000Y-80000000D02*
X150810000Y-80000000D01*
X157350000Y-81370000D02*
X150810000Y-81370000D01*
X157350000Y-78630000D02*
X157350000Y-81370000D01*
X150810000Y-78630000D02*
X157350000Y-78630000D01*
X150810000Y-81370000D02*
X150810000Y-78630000D01*
X143120000Y-80000000D02*
X142350000Y-80000000D01*
X135040000Y-80000000D02*
X135810000Y-80000000D01*
X142350000Y-81370000D02*
X135810000Y-81370000D01*
X142350000Y-78630000D02*
X142350000Y-81370000D01*
X135810000Y-78630000D02*
X142350000Y-78630000D01*
X135810000Y-81370000D02*
X135810000Y-78630000D01*
X127620000Y-80000000D02*
X126850000Y-80000000D01*
X119540000Y-80000000D02*
X120310000Y-80000000D01*
X126850000Y-81370000D02*
X120310000Y-81370000D01*
X126850000Y-78630000D02*
X126850000Y-81370000D01*
X120310000Y-78630000D02*
X126850000Y-78630000D01*
X120310000Y-81370000D02*
X120310000Y-78630000D01*
X113120000Y-80000000D02*
X112350000Y-80000000D01*
X105040000Y-80000000D02*
X105810000Y-80000000D01*
X112350000Y-81370000D02*
X105810000Y-81370000D01*
X112350000Y-78630000D02*
X112350000Y-81370000D01*
X105810000Y-78630000D02*
X112350000Y-78630000D01*
X105810000Y-81370000D02*
X105810000Y-78630000D01*
X98120000Y-80000000D02*
X97350000Y-80000000D01*
X90040000Y-80000000D02*
X90810000Y-80000000D01*
X97350000Y-81370000D02*
X90810000Y-81370000D01*
X97350000Y-78630000D02*
X97350000Y-81370000D01*
X90810000Y-78630000D02*
X97350000Y-78630000D01*
X90810000Y-81370000D02*
X90810000Y-78630000D01*
X83120000Y-80000000D02*
X82350000Y-80000000D01*
X75040000Y-80000000D02*
X75810000Y-80000000D01*
X82350000Y-81370000D02*
X75810000Y-81370000D01*
X82350000Y-78630000D02*
X82350000Y-81370000D01*
X75810000Y-78630000D02*
X82350000Y-78630000D01*
X75810000Y-81370000D02*
X75810000Y-78630000D01*
X68120000Y-80000000D02*
X67350000Y-80000000D01*
X60040000Y-80000000D02*
X60810000Y-80000000D01*
X67350000Y-81370000D02*
X60810000Y-81370000D01*
X67350000Y-78630000D02*
X67350000Y-81370000D01*
X60810000Y-78630000D02*
X67350000Y-78630000D01*
X60810000Y-81370000D02*
X60810000Y-78630000D01*
X53120000Y-80000000D02*
X52350000Y-80000000D01*
X45040000Y-80000000D02*
X45810000Y-80000000D01*
X52350000Y-81370000D02*
X45810000Y-81370000D01*
X52350000Y-78630000D02*
X52350000Y-81370000D01*
X45810000Y-78630000D02*
X52350000Y-78630000D01*
X45810000Y-81370000D02*
X45810000Y-78630000D01*
X158120000Y-60000000D02*
X157350000Y-60000000D01*
X150040000Y-60000000D02*
X150810000Y-60000000D01*
X157350000Y-61370000D02*
X150810000Y-61370000D01*
X157350000Y-58630000D02*
X157350000Y-61370000D01*
X150810000Y-58630000D02*
X157350000Y-58630000D01*
X150810000Y-61370000D02*
X150810000Y-58630000D01*
X143120000Y-60000000D02*
X142350000Y-60000000D01*
X135040000Y-60000000D02*
X135810000Y-60000000D01*
X142350000Y-61370000D02*
X135810000Y-61370000D01*
X142350000Y-58630000D02*
X142350000Y-61370000D01*
X135810000Y-58630000D02*
X142350000Y-58630000D01*
X135810000Y-61370000D02*
X135810000Y-58630000D01*
X128120000Y-60000000D02*
X127350000Y-60000000D01*
X120040000Y-60000000D02*
X120810000Y-60000000D01*
X127350000Y-61370000D02*
X120810000Y-61370000D01*
X127350000Y-58630000D02*
X127350000Y-61370000D01*
X120810000Y-58630000D02*
X127350000Y-58630000D01*
X120810000Y-61370000D02*
X120810000Y-58630000D01*
X112960000Y-60000000D02*
X112190000Y-60000000D01*
X104880000Y-60000000D02*
X105650000Y-60000000D01*
X112190000Y-61370000D02*
X105650000Y-61370000D01*
X112190000Y-58630000D02*
X112190000Y-61370000D01*
X105650000Y-58630000D02*
X112190000Y-58630000D01*
X105650000Y-61370000D02*
X105650000Y-58630000D01*
X97020000Y-59400000D02*
X96250000Y-59400000D01*
X88940000Y-59400000D02*
X89710000Y-59400000D01*
X96250000Y-60770000D02*
X89710000Y-60770000D01*
X96250000Y-58030000D02*
X96250000Y-60770000D01*
X89710000Y-58030000D02*
X96250000Y-58030000D01*
X89710000Y-60770000D02*
X89710000Y-58030000D01*
X82820000Y-59600000D02*
X82050000Y-59600000D01*
X74740000Y-59600000D02*
X75510000Y-59600000D01*
X82050000Y-60970000D02*
X75510000Y-60970000D01*
X82050000Y-58230000D02*
X82050000Y-60970000D01*
X75510000Y-58230000D02*
X82050000Y-58230000D01*
X75510000Y-60970000D02*
X75510000Y-58230000D01*
X67620000Y-59800000D02*
X66850000Y-59800000D01*
X59540000Y-59800000D02*
X60310000Y-59800000D01*
X66850000Y-61170000D02*
X60310000Y-61170000D01*
X66850000Y-58430000D02*
X66850000Y-61170000D01*
X60310000Y-58430000D02*
X66850000Y-58430000D01*
X60310000Y-61170000D02*
X60310000Y-58430000D01*
X45080000Y-59900000D02*
X45850000Y-59900000D01*
X53160000Y-59900000D02*
X52390000Y-59900000D01*
X45850000Y-58530000D02*
X52390000Y-58530000D01*
X45850000Y-61270000D02*
X45850000Y-58530000D01*
X52390000Y-61270000D02*
X45850000Y-61270000D01*
X52390000Y-58530000D02*
X52390000Y-61270000D01*
X170960000Y-46090000D02*
X169630000Y-46090000D01*
X169630000Y-46090000D02*
X169630000Y-47420000D01*
X172230000Y-46090000D02*
X172230000Y-48690000D01*
X172230000Y-48690000D02*
X169630000Y-48690000D01*
X169630000Y-48690000D02*
X169630000Y-109710000D01*
X174830000Y-109710000D02*
X169630000Y-109710000D01*
X174830000Y-46090000D02*
X174830000Y-109710000D01*
X174830000Y-46090000D02*
X172230000Y-46090000D01*
X161000000Y-92960000D02*
X161000000Y-92270000D01*
X161000000Y-87540000D02*
X161000000Y-88230000D01*
X159580000Y-92270000D02*
X159580000Y-88230000D01*
X162420000Y-92270000D02*
X159580000Y-92270000D01*
X162420000Y-88230000D02*
X162420000Y-92270000D01*
X159580000Y-88230000D02*
X162420000Y-88230000D01*
X146000000Y-92460000D02*
X146000000Y-91770000D01*
X146000000Y-87040000D02*
X146000000Y-87730000D01*
X144580000Y-91770000D02*
X144580000Y-87730000D01*
X147420000Y-91770000D02*
X144580000Y-91770000D01*
X147420000Y-87730000D02*
X147420000Y-91770000D01*
X144580000Y-87730000D02*
X147420000Y-87730000D01*
X131000000Y-92460000D02*
X131000000Y-91770000D01*
X131000000Y-87040000D02*
X131000000Y-87730000D01*
X129580000Y-91770000D02*
X129580000Y-87730000D01*
X132420000Y-91770000D02*
X129580000Y-91770000D01*
X132420000Y-87730000D02*
X132420000Y-91770000D01*
X129580000Y-87730000D02*
X132420000Y-87730000D01*
X116000000Y-92460000D02*
X116000000Y-91770000D01*
X116000000Y-87040000D02*
X116000000Y-87730000D01*
X114580000Y-91770000D02*
X114580000Y-87730000D01*
X117420000Y-91770000D02*
X114580000Y-91770000D01*
X117420000Y-87730000D02*
X117420000Y-91770000D01*
X114580000Y-87730000D02*
X117420000Y-87730000D01*
X101000000Y-92960000D02*
X101000000Y-92270000D01*
X101000000Y-87540000D02*
X101000000Y-88230000D01*
X99580000Y-92270000D02*
X99580000Y-88230000D01*
X102420000Y-92270000D02*
X99580000Y-92270000D01*
X102420000Y-88230000D02*
X102420000Y-92270000D01*
X99580000Y-88230000D02*
X102420000Y-88230000D01*
X86000000Y-93460000D02*
X86000000Y-92770000D01*
X86000000Y-88040000D02*
X86000000Y-88730000D01*
X84580000Y-92770000D02*
X84580000Y-88730000D01*
X87420000Y-92770000D02*
X84580000Y-92770000D01*
X87420000Y-88730000D02*
X87420000Y-92770000D01*
X84580000Y-88730000D02*
X87420000Y-88730000D01*
X71000000Y-92460000D02*
X71000000Y-91770000D01*
X71000000Y-87040000D02*
X71000000Y-87730000D01*
X69580000Y-91770000D02*
X69580000Y-87730000D01*
X72420000Y-91770000D02*
X69580000Y-91770000D01*
X72420000Y-87730000D02*
X72420000Y-91770000D01*
X69580000Y-87730000D02*
X72420000Y-87730000D01*
X161000000Y-112460000D02*
X161000000Y-111770000D01*
X161000000Y-107040000D02*
X161000000Y-107730000D01*
X159580000Y-111770000D02*
X159580000Y-107730000D01*
X162420000Y-111770000D02*
X159580000Y-111770000D01*
X162420000Y-107730000D02*
X162420000Y-111770000D01*
X159580000Y-107730000D02*
X162420000Y-107730000D01*
X146000000Y-112460000D02*
X146000000Y-111770000D01*
X146000000Y-107040000D02*
X146000000Y-107730000D01*
X144580000Y-111770000D02*
X144580000Y-107730000D01*
X147420000Y-111770000D02*
X144580000Y-111770000D01*
X147420000Y-107730000D02*
X147420000Y-111770000D01*
X144580000Y-107730000D02*
X147420000Y-107730000D01*
X131000000Y-112960000D02*
X131000000Y-112270000D01*
X131000000Y-107540000D02*
X131000000Y-108230000D01*
X129580000Y-112270000D02*
X129580000Y-108230000D01*
X132420000Y-112270000D02*
X129580000Y-112270000D01*
X132420000Y-108230000D02*
X132420000Y-112270000D01*
X129580000Y-108230000D02*
X132420000Y-108230000D01*
X116000000Y-113460000D02*
X116000000Y-112770000D01*
X116000000Y-108040000D02*
X116000000Y-108730000D01*
X114580000Y-112770000D02*
X114580000Y-108730000D01*
X117420000Y-112770000D02*
X114580000Y-112770000D01*
X117420000Y-108730000D02*
X117420000Y-112770000D01*
X114580000Y-108730000D02*
X117420000Y-108730000D01*
X101000000Y-112960000D02*
X101000000Y-112270000D01*
X101000000Y-107540000D02*
X101000000Y-108230000D01*
X99580000Y-112270000D02*
X99580000Y-108230000D01*
X102420000Y-112270000D02*
X99580000Y-112270000D01*
X102420000Y-108230000D02*
X102420000Y-112270000D01*
X99580000Y-108230000D02*
X102420000Y-108230000D01*
X86000000Y-112960000D02*
X86000000Y-112270000D01*
X86000000Y-107540000D02*
X86000000Y-108230000D01*
X84580000Y-112270000D02*
X84580000Y-108230000D01*
X87420000Y-112270000D02*
X84580000Y-112270000D01*
X87420000Y-108230000D02*
X87420000Y-112270000D01*
X84580000Y-108230000D02*
X87420000Y-108230000D01*
X71000000Y-111960000D02*
X71000000Y-111270000D01*
X71000000Y-106540000D02*
X71000000Y-107230000D01*
X69580000Y-111270000D02*
X69580000Y-107230000D01*
X72420000Y-111270000D02*
X69580000Y-111270000D01*
X72420000Y-107230000D02*
X72420000Y-111270000D01*
X69580000Y-107230000D02*
X72420000Y-107230000D01*
X56000000Y-112460000D02*
X56000000Y-111770000D01*
X56000000Y-107040000D02*
X56000000Y-107730000D01*
X54580000Y-111770000D02*
X54580000Y-107730000D01*
X57420000Y-111770000D02*
X54580000Y-111770000D01*
X57420000Y-107730000D02*
X57420000Y-111770000D01*
X54580000Y-107730000D02*
X57420000Y-107730000D01*
X161000000Y-72460000D02*
X161000000Y-71770000D01*
X161000000Y-67040000D02*
X161000000Y-67730000D01*
X159580000Y-71770000D02*
X159580000Y-67730000D01*
X162420000Y-71770000D02*
X159580000Y-71770000D01*
X162420000Y-67730000D02*
X162420000Y-71770000D01*
X159580000Y-67730000D02*
X162420000Y-67730000D01*
X146000000Y-73460000D02*
X146000000Y-72770000D01*
X146000000Y-68040000D02*
X146000000Y-68730000D01*
X144580000Y-72770000D02*
X144580000Y-68730000D01*
X147420000Y-72770000D02*
X144580000Y-72770000D01*
X147420000Y-68730000D02*
X147420000Y-72770000D01*
X144580000Y-68730000D02*
X147420000Y-68730000D01*
X131000000Y-72960000D02*
X131000000Y-72270000D01*
X131000000Y-67540000D02*
X131000000Y-68230000D01*
X129580000Y-72270000D02*
X129580000Y-68230000D01*
X132420000Y-72270000D02*
X129580000Y-72270000D01*
X132420000Y-68230000D02*
X132420000Y-72270000D01*
X129580000Y-68230000D02*
X132420000Y-68230000D01*
X116000000Y-72460000D02*
X116000000Y-71770000D01*
X116000000Y-67040000D02*
X116000000Y-67730000D01*
X114580000Y-71770000D02*
X114580000Y-67730000D01*
X117420000Y-71770000D02*
X114580000Y-71770000D01*
X117420000Y-67730000D02*
X117420000Y-71770000D01*
X114580000Y-67730000D02*
X117420000Y-67730000D01*
X101000000Y-72960000D02*
X101000000Y-72270000D01*
X101000000Y-67540000D02*
X101000000Y-68230000D01*
X99580000Y-72270000D02*
X99580000Y-68230000D01*
X102420000Y-72270000D02*
X99580000Y-72270000D01*
X102420000Y-68230000D02*
X102420000Y-72270000D01*
X99580000Y-68230000D02*
X102420000Y-68230000D01*
X86000000Y-72960000D02*
X86000000Y-72270000D01*
X86000000Y-67540000D02*
X86000000Y-68230000D01*
X84580000Y-72270000D02*
X84580000Y-68230000D01*
X87420000Y-72270000D02*
X84580000Y-72270000D01*
X87420000Y-68230000D02*
X87420000Y-72270000D01*
X84580000Y-68230000D02*
X87420000Y-68230000D01*
X71000000Y-72460000D02*
X71000000Y-71770000D01*
X71000000Y-67040000D02*
X71000000Y-67730000D01*
X69580000Y-71770000D02*
X69580000Y-67730000D01*
X72420000Y-71770000D02*
X69580000Y-71770000D01*
X72420000Y-67730000D02*
X72420000Y-71770000D01*
X69580000Y-67730000D02*
X72420000Y-67730000D01*
X56000000Y-72960000D02*
X56000000Y-72270000D01*
X56000000Y-67540000D02*
X56000000Y-68230000D01*
X54580000Y-72270000D02*
X54580000Y-68230000D01*
X57420000Y-72270000D02*
X54580000Y-72270000D01*
X57420000Y-68230000D02*
X57420000Y-72270000D01*
X54580000Y-68230000D02*
X57420000Y-68230000D01*
X161000000Y-52460000D02*
X161000000Y-51770000D01*
X161000000Y-47040000D02*
X161000000Y-47730000D01*
X159580000Y-51770000D02*
X159580000Y-47730000D01*
X162420000Y-51770000D02*
X159580000Y-51770000D01*
X162420000Y-47730000D02*
X162420000Y-51770000D01*
X159580000Y-47730000D02*
X162420000Y-47730000D01*
X146000000Y-52460000D02*
X146000000Y-51770000D01*
X146000000Y-47040000D02*
X146000000Y-47730000D01*
X144580000Y-51770000D02*
X144580000Y-47730000D01*
X147420000Y-51770000D02*
X144580000Y-51770000D01*
X147420000Y-47730000D02*
X147420000Y-51770000D01*
X144580000Y-47730000D02*
X147420000Y-47730000D01*
X131000000Y-52460000D02*
X131000000Y-51770000D01*
X131000000Y-47040000D02*
X131000000Y-47730000D01*
X129580000Y-51770000D02*
X129580000Y-47730000D01*
X132420000Y-51770000D02*
X129580000Y-51770000D01*
X132420000Y-47730000D02*
X132420000Y-51770000D01*
X129580000Y-47730000D02*
X132420000Y-47730000D01*
X116000000Y-52460000D02*
X116000000Y-51770000D01*
X116000000Y-47040000D02*
X116000000Y-47730000D01*
X114580000Y-51770000D02*
X114580000Y-47730000D01*
X117420000Y-51770000D02*
X114580000Y-51770000D01*
X117420000Y-47730000D02*
X117420000Y-51770000D01*
X114580000Y-47730000D02*
X117420000Y-47730000D01*
X101000000Y-52560000D02*
X101000000Y-51870000D01*
X101000000Y-47140000D02*
X101000000Y-47830000D01*
X99580000Y-51870000D02*
X99580000Y-47830000D01*
X102420000Y-51870000D02*
X99580000Y-51870000D01*
X102420000Y-47830000D02*
X102420000Y-51870000D01*
X99580000Y-47830000D02*
X102420000Y-47830000D01*
X86000000Y-52960000D02*
X86000000Y-52270000D01*
X86000000Y-47540000D02*
X86000000Y-48230000D01*
X84580000Y-52270000D02*
X84580000Y-48230000D01*
X87420000Y-52270000D02*
X84580000Y-52270000D01*
X87420000Y-48230000D02*
X87420000Y-52270000D01*
X84580000Y-48230000D02*
X87420000Y-48230000D01*
X56000000Y-52460000D02*
X56000000Y-51770000D01*
X56000000Y-47040000D02*
X56000000Y-47730000D01*
X54580000Y-51770000D02*
X54580000Y-47730000D01*
X57420000Y-51770000D02*
X54580000Y-51770000D01*
X57420000Y-47730000D02*
X57420000Y-51770000D01*
X54580000Y-47730000D02*
X57420000Y-47730000D01*
X71000000Y-52460000D02*
X71000000Y-51770000D01*
X71000000Y-47040000D02*
X71000000Y-47730000D01*
X69580000Y-51770000D02*
X69580000Y-47730000D01*
X72420000Y-51770000D02*
X69580000Y-51770000D01*
X72420000Y-47730000D02*
X72420000Y-51770000D01*
X69580000Y-47730000D02*
X72420000Y-47730000D01*
X186840000Y-50200000D02*
X187530000Y-50200000D01*
X192260000Y-50200000D02*
X191570000Y-50200000D01*
X187530000Y-48780000D02*
X191570000Y-48780000D01*
X187530000Y-51620000D02*
X187530000Y-48780000D01*
X191570000Y-51620000D02*
X187530000Y-51620000D01*
X191570000Y-48780000D02*
X191570000Y-51620000D01*
X186840000Y-54296000D02*
X187530000Y-54296000D01*
X192260000Y-54296000D02*
X191570000Y-54296000D01*
X187530000Y-52876000D02*
X191570000Y-52876000D01*
X187530000Y-55716000D02*
X187530000Y-52876000D01*
X191570000Y-55716000D02*
X187530000Y-55716000D01*
X191570000Y-52876000D02*
X191570000Y-55716000D01*
X186840000Y-66584000D02*
X187530000Y-66584000D01*
X192260000Y-66584000D02*
X191570000Y-66584000D01*
X187530000Y-65164000D02*
X191570000Y-65164000D01*
X187530000Y-68004000D02*
X187530000Y-65164000D01*
X191570000Y-68004000D02*
X187530000Y-68004000D01*
X191570000Y-65164000D02*
X191570000Y-68004000D01*
X186840000Y-70680000D02*
X187530000Y-70680000D01*
X192260000Y-70680000D02*
X191570000Y-70680000D01*
X187530000Y-69260000D02*
X191570000Y-69260000D01*
X187530000Y-72100000D02*
X187530000Y-69260000D01*
X191570000Y-72100000D02*
X187530000Y-72100000D01*
X191570000Y-69260000D02*
X191570000Y-72100000D01*
X186840000Y-58392000D02*
X187530000Y-58392000D01*
X192260000Y-58392000D02*
X191570000Y-58392000D01*
X187530000Y-56972000D02*
X191570000Y-56972000D01*
X187530000Y-59812000D02*
X187530000Y-56972000D01*
X191570000Y-59812000D02*
X187530000Y-59812000D01*
X191570000Y-56972000D02*
X191570000Y-59812000D01*
X157610000Y-151060000D02*
X157610000Y-140560000D01*
X175630000Y-151060000D02*
X157610000Y-151060000D01*
X175630000Y-140560000D02*
X175630000Y-151060000D01*
X157610000Y-140560000D02*
X175630000Y-140560000D01*
X157670000Y-148060000D02*
X157670000Y-146810000D01*
X175570000Y-148060000D02*
X157670000Y-148060000D01*
X175570000Y-143560000D02*
X175570000Y-148060000D01*
X157670000Y-143560000D02*
X175570000Y-143560000D01*
X157670000Y-144810000D02*
X157670000Y-143560000D01*
X157670000Y-146810000D02*
G75*
G03X157670000Y-144810000I0J1000000D01*
G01*
X190410000Y-157500000D02*
X190410000Y-156170000D01*
X190410000Y-156170000D02*
X189080000Y-156170000D01*
X187810000Y-156170000D02*
X177590000Y-156170000D01*
X177590000Y-158830000D02*
X177590000Y-156170000D01*
X187810000Y-158830000D02*
X177590000Y-158830000D01*
X187810000Y-158830000D02*
X187810000Y-156170000D01*
X156530000Y-157500000D02*
X156530000Y-156170000D01*
X156530000Y-156170000D02*
X155200000Y-156170000D01*
X153930000Y-156170000D02*
X143710000Y-156170000D01*
X143710000Y-158830000D02*
X143710000Y-156170000D01*
X153930000Y-158830000D02*
X143710000Y-158830000D01*
X153930000Y-158830000D02*
X153930000Y-156170000D01*
X172910000Y-157500000D02*
X172910000Y-156170000D01*
X172910000Y-156170000D02*
X171580000Y-156170000D01*
X170310000Y-156170000D02*
X160090000Y-156170000D01*
X160090000Y-158830000D02*
X160090000Y-156170000D01*
X170310000Y-158830000D02*
X160090000Y-158830000D01*
X170310000Y-158830000D02*
X170310000Y-156170000D01*
X221810000Y-131350000D02*
X221810000Y-121070000D01*
X239830000Y-131350000D02*
X221810000Y-131350000D01*
X239830000Y-121070000D02*
X239830000Y-131350000D01*
X221810000Y-121070000D02*
X239830000Y-121070000D01*
X221870000Y-128860000D02*
X221870000Y-127210000D01*
X239770000Y-128860000D02*
X221870000Y-128860000D01*
X239770000Y-123560000D02*
X239770000Y-128860000D01*
X221870000Y-123560000D02*
X239770000Y-123560000D01*
X221870000Y-125210000D02*
X221870000Y-123560000D01*
X221870000Y-127210000D02*
G75*
G03X221870000Y-125210000I0J1000000D01*
G01*
X200610000Y-133950000D02*
X200610000Y-123670000D01*
X218630000Y-133950000D02*
X200610000Y-133950000D01*
X218630000Y-123670000D02*
X218630000Y-133950000D01*
X200610000Y-123670000D02*
X218630000Y-123670000D01*
X200670000Y-131460000D02*
X200670000Y-129810000D01*
X218570000Y-131460000D02*
X200670000Y-131460000D01*
X218570000Y-126160000D02*
X218570000Y-131460000D01*
X200670000Y-126160000D02*
X218570000Y-126160000D01*
X200670000Y-127810000D02*
X200670000Y-126160000D01*
X200670000Y-129810000D02*
G75*
G03X200670000Y-127810000I0J1000000D01*
G01*
X221810000Y-120350000D02*
X221810000Y-110070000D01*
X239830000Y-120350000D02*
X221810000Y-120350000D01*
X239830000Y-110070000D02*
X239830000Y-120350000D01*
X221810000Y-110070000D02*
X239830000Y-110070000D01*
X221870000Y-117860000D02*
X221870000Y-116210000D01*
X239770000Y-117860000D02*
X221870000Y-117860000D01*
X239770000Y-112560000D02*
X239770000Y-117860000D01*
X221870000Y-112560000D02*
X239770000Y-112560000D01*
X221870000Y-114210000D02*
X221870000Y-112560000D01*
X221870000Y-116210000D02*
G75*
G03X221870000Y-114210000I0J1000000D01*
G01*
X201950000Y-154390000D02*
X191670000Y-154390000D01*
X201950000Y-143990000D02*
X201950000Y-154390000D01*
X191670000Y-143990000D02*
X201950000Y-143990000D01*
X191670000Y-154390000D02*
X191670000Y-143990000D01*
X199460000Y-154330000D02*
X197810000Y-154330000D01*
X199460000Y-144050000D02*
X199460000Y-154330000D01*
X194160000Y-144050000D02*
X199460000Y-144050000D01*
X194160000Y-154330000D02*
X194160000Y-144050000D01*
X195810000Y-154330000D02*
X194160000Y-154330000D01*
X197810000Y-154330000D02*
G75*
G03X195810000Y-154330000I-1000000J0D01*
G01*
X184880000Y-142000000D02*
X185650000Y-142000000D01*
X192960000Y-142000000D02*
X192190000Y-142000000D01*
X185650000Y-140630000D02*
X192190000Y-140630000D01*
X185650000Y-143370000D02*
X185650000Y-140630000D01*
X192190000Y-143370000D02*
X185650000Y-143370000D01*
X192190000Y-140630000D02*
X192190000Y-143370000D01*
X188120000Y-152500000D02*
X187350000Y-152500000D01*
X180040000Y-152500000D02*
X180810000Y-152500000D01*
X187350000Y-153870000D02*
X180810000Y-153870000D01*
X187350000Y-151130000D02*
X187350000Y-153870000D01*
X180810000Y-151130000D02*
X187350000Y-151130000D01*
X180810000Y-153870000D02*
X180810000Y-151130000D01*
X171120000Y-153500000D02*
X170350000Y-153500000D01*
X163040000Y-153500000D02*
X163810000Y-153500000D01*
X170350000Y-154870000D02*
X163810000Y-154870000D01*
X170350000Y-152130000D02*
X170350000Y-154870000D01*
X163810000Y-152130000D02*
X170350000Y-152130000D01*
X163810000Y-154870000D02*
X163810000Y-152130000D01*
X153820000Y-150000000D02*
X153050000Y-150000000D01*
X145740000Y-150000000D02*
X146510000Y-150000000D01*
X153050000Y-151370000D02*
X146510000Y-151370000D01*
X153050000Y-148630000D02*
X153050000Y-151370000D01*
X146510000Y-148630000D02*
X153050000Y-148630000D01*
X146510000Y-151370000D02*
X146510000Y-148630000D01*
X153800000Y-145560000D02*
X153800000Y-144790000D01*
X153800000Y-137480000D02*
X153800000Y-138250000D01*
X152430000Y-144790000D02*
X152430000Y-138250000D01*
X155170000Y-144790000D02*
X152430000Y-144790000D01*
X155170000Y-138250000D02*
X155170000Y-144790000D01*
X152430000Y-138250000D02*
X155170000Y-138250000D01*
X153820000Y-153500000D02*
X153050000Y-153500000D01*
X145740000Y-153500000D02*
X146510000Y-153500000D01*
X153050000Y-154870000D02*
X146510000Y-154870000D01*
X153050000Y-152130000D02*
X153050000Y-154870000D01*
X146510000Y-152130000D02*
X153050000Y-152130000D01*
X146510000Y-154870000D02*
X146510000Y-152130000D01*
X197700000Y-51270000D02*
X196370000Y-51270000D01*
X196370000Y-51270000D02*
X196370000Y-52600000D01*
X198970000Y-51270000D02*
X198970000Y-53870000D01*
X198970000Y-53870000D02*
X196370000Y-53870000D01*
X196370000Y-53870000D02*
X196370000Y-92030000D01*
X201570000Y-92030000D02*
X196370000Y-92030000D01*
X201570000Y-51270000D02*
X201570000Y-92030000D01*
X201570000Y-51270000D02*
X198970000Y-51270000D01*
X182790000Y-149620000D02*
X182790000Y-147380000D01*
X183030000Y-149620000D02*
X183030000Y-147380000D01*
X182910000Y-149620000D02*
X182910000Y-147380000D01*
X187080000Y-148500000D02*
X186430000Y-148500000D01*
X181540000Y-148500000D02*
X182190000Y-148500000D01*
X186430000Y-149620000D02*
X182190000Y-149620000D01*
X186430000Y-147380000D02*
X186430000Y-149620000D01*
X182190000Y-147380000D02*
X186430000Y-147380000D01*
X182190000Y-149620000D02*
X182190000Y-147380000D01*
X186840000Y-62488000D02*
X187530000Y-62488000D01*
X192260000Y-62488000D02*
X191570000Y-62488000D01*
X187530000Y-61068000D02*
X191570000Y-61068000D01*
X187530000Y-63908000D02*
X187530000Y-61068000D01*
X191570000Y-63908000D02*
X187530000Y-63908000D01*
X191570000Y-61068000D02*
X191570000Y-63908000D01*
D12*
X101861904Y-126192380D02*
X101861904Y-127001904D01*
X101814285Y-127097142D01*
X101766666Y-127144761D01*
X101671428Y-127192380D01*
X101480952Y-127192380D01*
X101385714Y-127144761D01*
X101338095Y-127097142D01*
X101290476Y-127001904D01*
X101290476Y-126192380D01*
X100909523Y-126192380D02*
X100242857Y-126192380D01*
X100671428Y-127192380D01*
X122875323Y-138841580D02*
X122875323Y-139651104D01*
X122827704Y-139746342D01*
X122780085Y-139793961D01*
X122684847Y-139841580D01*
X122494371Y-139841580D01*
X122399133Y-139793961D01*
X122351514Y-139746342D01*
X122303895Y-139651104D01*
X122303895Y-138841580D01*
X121875323Y-139793961D02*
X121732466Y-139841580D01*
X121494371Y-139841580D01*
X121399133Y-139793961D01*
X121351514Y-139746342D01*
X121303895Y-139651104D01*
X121303895Y-139555866D01*
X121351514Y-139460628D01*
X121399133Y-139413009D01*
X121494371Y-139365390D01*
X121684847Y-139317771D01*
X121780085Y-139270152D01*
X121827704Y-139222533D01*
X121875323Y-139127295D01*
X121875323Y-139032057D01*
X121827704Y-138936819D01*
X121780085Y-138889200D01*
X121684847Y-138841580D01*
X121446752Y-138841580D01*
X121303895Y-138889200D01*
X120541990Y-139317771D02*
X120399133Y-139365390D01*
X120351514Y-139413009D01*
X120303895Y-139508247D01*
X120303895Y-139651104D01*
X120351514Y-139746342D01*
X120399133Y-139793961D01*
X120494371Y-139841580D01*
X120875323Y-139841580D01*
X120875323Y-138841580D01*
X120541990Y-138841580D01*
X120446752Y-138889200D01*
X120399133Y-138936819D01*
X120351514Y-139032057D01*
X120351514Y-139127295D01*
X120399133Y-139222533D01*
X120446752Y-139270152D01*
X120541990Y-139317771D01*
X120875323Y-139317771D01*
X119113419Y-139841580D02*
X119113419Y-138841580D01*
X119113419Y-139317771D02*
X118541990Y-139317771D01*
X118541990Y-139841580D02*
X118541990Y-138841580D01*
X117922942Y-139841580D02*
X118018180Y-139793961D01*
X118065800Y-139746342D01*
X118113419Y-139651104D01*
X118113419Y-139365390D01*
X118065800Y-139270152D01*
X118018180Y-139222533D01*
X117922942Y-139174914D01*
X117780085Y-139174914D01*
X117684847Y-139222533D01*
X117637228Y-139270152D01*
X117589609Y-139365390D01*
X117589609Y-139651104D01*
X117637228Y-139746342D01*
X117684847Y-139793961D01*
X117780085Y-139841580D01*
X117922942Y-139841580D01*
X117208657Y-139793961D02*
X117113419Y-139841580D01*
X116922942Y-139841580D01*
X116827704Y-139793961D01*
X116780085Y-139698723D01*
X116780085Y-139651104D01*
X116827704Y-139555866D01*
X116922942Y-139508247D01*
X117065800Y-139508247D01*
X117161038Y-139460628D01*
X117208657Y-139365390D01*
X117208657Y-139317771D01*
X117161038Y-139222533D01*
X117065800Y-139174914D01*
X116922942Y-139174914D01*
X116827704Y-139222533D01*
X116494371Y-139174914D02*
X116113419Y-139174914D01*
X116351514Y-138841580D02*
X116351514Y-139698723D01*
X116303895Y-139793961D01*
X116208657Y-139841580D01*
X116113419Y-139841580D01*
X113093571Y-130766257D02*
X113093571Y-131099590D01*
X113617380Y-131242447D02*
X113617380Y-130766257D01*
X112617380Y-130766257D01*
X112617380Y-131242447D01*
X112950714Y-131528161D02*
X112950714Y-131909114D01*
X112617380Y-131671019D02*
X113474523Y-131671019D01*
X113569761Y-131718638D01*
X113617380Y-131813876D01*
X113617380Y-131909114D01*
X113617380Y-132242447D02*
X112617380Y-132242447D01*
X113617380Y-132671019D02*
X113093571Y-132671019D01*
X112998333Y-132623400D01*
X112950714Y-132528161D01*
X112950714Y-132385304D01*
X112998333Y-132290066D01*
X113045952Y-132242447D01*
X113569761Y-133528161D02*
X113617380Y-133432923D01*
X113617380Y-133242447D01*
X113569761Y-133147209D01*
X113474523Y-133099590D01*
X113093571Y-133099590D01*
X112998333Y-133147209D01*
X112950714Y-133242447D01*
X112950714Y-133432923D01*
X112998333Y-133528161D01*
X113093571Y-133575780D01*
X113188809Y-133575780D01*
X113284047Y-133099590D01*
X113617380Y-134004352D02*
X112950714Y-134004352D01*
X113141190Y-134004352D02*
X113045952Y-134051971D01*
X112998333Y-134099590D01*
X112950714Y-134194828D01*
X112950714Y-134290066D01*
X112950714Y-134623400D02*
X113617380Y-134623400D01*
X113045952Y-134623400D02*
X112998333Y-134671019D01*
X112950714Y-134766257D01*
X112950714Y-134909114D01*
X112998333Y-135004352D01*
X113093571Y-135051971D01*
X113617380Y-135051971D01*
X113569761Y-135909114D02*
X113617380Y-135813876D01*
X113617380Y-135623400D01*
X113569761Y-135528161D01*
X113474523Y-135480542D01*
X113093571Y-135480542D01*
X112998333Y-135528161D01*
X112950714Y-135623400D01*
X112950714Y-135813876D01*
X112998333Y-135909114D01*
X113093571Y-135956733D01*
X113188809Y-135956733D01*
X113284047Y-135480542D01*
X112950714Y-136242447D02*
X112950714Y-136623400D01*
X112617380Y-136385304D02*
X113474523Y-136385304D01*
X113569761Y-136432923D01*
X113617380Y-136528161D01*
X113617380Y-136623400D01*
X127222380Y-135638095D02*
X128031904Y-135638095D01*
X128127142Y-135685714D01*
X128174761Y-135733333D01*
X128222380Y-135828571D01*
X128222380Y-136019047D01*
X128174761Y-136114285D01*
X128127142Y-136161904D01*
X128031904Y-136209523D01*
X127222380Y-136209523D01*
X128174761Y-136638095D02*
X128222380Y-136780952D01*
X128222380Y-137019047D01*
X128174761Y-137114285D01*
X128127142Y-137161904D01*
X128031904Y-137209523D01*
X127936666Y-137209523D01*
X127841428Y-137161904D01*
X127793809Y-137114285D01*
X127746190Y-137019047D01*
X127698571Y-136828571D01*
X127650952Y-136733333D01*
X127603333Y-136685714D01*
X127508095Y-136638095D01*
X127412857Y-136638095D01*
X127317619Y-136685714D01*
X127270000Y-136733333D01*
X127222380Y-136828571D01*
X127222380Y-137066666D01*
X127270000Y-137209523D01*
X127698571Y-137971428D02*
X127746190Y-138114285D01*
X127793809Y-138161904D01*
X127889047Y-138209523D01*
X128031904Y-138209523D01*
X128127142Y-138161904D01*
X128174761Y-138114285D01*
X128222380Y-138019047D01*
X128222380Y-137638095D01*
X127222380Y-137638095D01*
X127222380Y-137971428D01*
X127270000Y-138066666D01*
X127317619Y-138114285D01*
X127412857Y-138161904D01*
X127508095Y-138161904D01*
X127603333Y-138114285D01*
X127650952Y-138066666D01*
X127698571Y-137971428D01*
X127698571Y-137638095D01*
X80089047Y-137352380D02*
X80089047Y-136352380D01*
X79755714Y-137066666D01*
X79422380Y-136352380D01*
X79422380Y-137352380D01*
X78946190Y-137352380D02*
X78946190Y-136685714D01*
X78946190Y-136352380D02*
X78993809Y-136400000D01*
X78946190Y-136447619D01*
X78898571Y-136400000D01*
X78946190Y-136352380D01*
X78946190Y-136447619D01*
X78041428Y-137304761D02*
X78136666Y-137352380D01*
X78327142Y-137352380D01*
X78422380Y-137304761D01*
X78470000Y-137257142D01*
X78517619Y-137161904D01*
X78517619Y-136876190D01*
X78470000Y-136780952D01*
X78422380Y-136733333D01*
X78327142Y-136685714D01*
X78136666Y-136685714D01*
X78041428Y-136733333D01*
X77612857Y-137352380D02*
X77612857Y-136685714D01*
X77612857Y-136876190D02*
X77565238Y-136780952D01*
X77517619Y-136733333D01*
X77422380Y-136685714D01*
X77327142Y-136685714D01*
X76850952Y-137352380D02*
X76946190Y-137304761D01*
X76993809Y-137257142D01*
X77041428Y-137161904D01*
X77041428Y-136876190D01*
X76993809Y-136780952D01*
X76946190Y-136733333D01*
X76850952Y-136685714D01*
X76708095Y-136685714D01*
X76612857Y-136733333D01*
X76565238Y-136780952D01*
X76517619Y-136876190D01*
X76517619Y-137161904D01*
X76565238Y-137257142D01*
X76612857Y-137304761D01*
X76708095Y-137352380D01*
X76850952Y-137352380D01*
X75374761Y-137304761D02*
X75231904Y-137352380D01*
X74993809Y-137352380D01*
X74898571Y-137304761D01*
X74850952Y-137257142D01*
X74803333Y-137161904D01*
X74803333Y-137066666D01*
X74850952Y-136971428D01*
X74898571Y-136923809D01*
X74993809Y-136876190D01*
X75184285Y-136828571D01*
X75279523Y-136780952D01*
X75327142Y-136733333D01*
X75374761Y-136638095D01*
X75374761Y-136542857D01*
X75327142Y-136447619D01*
X75279523Y-136400000D01*
X75184285Y-136352380D01*
X74946190Y-136352380D01*
X74803333Y-136400000D01*
X74374761Y-137352380D02*
X74374761Y-136352380D01*
X74136666Y-136352380D01*
X73993809Y-136400000D01*
X73898571Y-136495238D01*
X73850952Y-136590476D01*
X73803333Y-136780952D01*
X73803333Y-136923809D01*
X73850952Y-137114285D01*
X73898571Y-137209523D01*
X73993809Y-137304761D01*
X74136666Y-137352380D01*
X74374761Y-137352380D01*
X102686666Y-133816666D02*
X101986666Y-133816666D01*
X102486666Y-134050000D01*
X101986666Y-134283333D01*
X102686666Y-134283333D01*
X102686666Y-134616666D02*
X101986666Y-134616666D01*
X102686666Y-134950000D02*
X101986666Y-134950000D01*
X102486666Y-135183333D01*
X101986666Y-135416666D01*
X102686666Y-135416666D01*
X101986666Y-135683333D02*
X102686666Y-136150000D01*
X101986666Y-136150000D02*
X102686666Y-135683333D01*
X102686666Y-136816666D02*
X102353333Y-136583333D01*
X102686666Y-136416666D02*
X101986666Y-136416666D01*
X101986666Y-136683333D01*
X102020000Y-136750000D01*
X102053333Y-136783333D01*
X102120000Y-136816666D01*
X102220000Y-136816666D01*
X102286666Y-136783333D01*
X102320000Y-136750000D01*
X102353333Y-136683333D01*
X102353333Y-136416666D01*
X101986666Y-137016666D02*
X101986666Y-137416666D01*
X102686666Y-137216666D02*
X101986666Y-137216666D01*
X102686666Y-138016666D02*
X102686666Y-137616666D01*
X102686666Y-137816666D02*
X101986666Y-137816666D01*
X102086666Y-137750000D01*
X102153333Y-137683333D01*
X102186666Y-137616666D01*
X101986666Y-138450000D02*
X101986666Y-138516666D01*
X102020000Y-138583333D01*
X102053333Y-138616666D01*
X102120000Y-138650000D01*
X102253333Y-138683333D01*
X102420000Y-138683333D01*
X102553333Y-138650000D01*
X102620000Y-138616666D01*
X102653333Y-138583333D01*
X102686666Y-138516666D01*
X102686666Y-138450000D01*
X102653333Y-138383333D01*
X102620000Y-138350000D01*
X102553333Y-138316666D01*
X102420000Y-138283333D01*
X102253333Y-138283333D01*
X102120000Y-138316666D01*
X102053333Y-138350000D01*
X102020000Y-138383333D01*
X101986666Y-138450000D01*
X101986666Y-139283333D02*
X101986666Y-139150000D01*
X102020000Y-139083333D01*
X102053333Y-139050000D01*
X102153333Y-138983333D01*
X102286666Y-138950000D01*
X102553333Y-138950000D01*
X102620000Y-138983333D01*
X102653333Y-139016666D01*
X102686666Y-139083333D01*
X102686666Y-139216666D01*
X102653333Y-139283333D01*
X102620000Y-139316666D01*
X102553333Y-139350000D01*
X102386666Y-139350000D01*
X102320000Y-139316666D01*
X102286666Y-139283333D01*
X102253333Y-139216666D01*
X102253333Y-139083333D01*
X102286666Y-139016666D01*
X102320000Y-138983333D01*
X102386666Y-138950000D01*
X102053333Y-139616666D02*
X102020000Y-139650000D01*
X101986666Y-139716666D01*
X101986666Y-139883333D01*
X102020000Y-139950000D01*
X102053333Y-139983333D01*
X102120000Y-140016666D01*
X102186666Y-140016666D01*
X102286666Y-139983333D01*
X102686666Y-139583333D01*
X102686666Y-140016666D01*
X103956666Y-135336666D02*
X103256666Y-135336666D01*
X103256666Y-135503333D01*
X103290000Y-135603333D01*
X103356666Y-135670000D01*
X103423333Y-135703333D01*
X103556666Y-135736666D01*
X103656666Y-135736666D01*
X103790000Y-135703333D01*
X103856666Y-135670000D01*
X103923333Y-135603333D01*
X103956666Y-135503333D01*
X103956666Y-135336666D01*
X103256666Y-135936666D02*
X103956666Y-136170000D01*
X103256666Y-136403333D01*
X103256666Y-136836666D02*
X103756666Y-136836666D01*
X103856666Y-136803333D01*
X103923333Y-136736666D01*
X103956666Y-136636666D01*
X103956666Y-136570000D01*
X103256666Y-137470000D02*
X103256666Y-137336666D01*
X103290000Y-137270000D01*
X103323333Y-137236666D01*
X103423333Y-137170000D01*
X103556666Y-137136666D01*
X103823333Y-137136666D01*
X103890000Y-137170000D01*
X103923333Y-137203333D01*
X103956666Y-137270000D01*
X103956666Y-137403333D01*
X103923333Y-137470000D01*
X103890000Y-137503333D01*
X103823333Y-137536666D01*
X103656666Y-137536666D01*
X103590000Y-137503333D01*
X103556666Y-137470000D01*
X103523333Y-137403333D01*
X103523333Y-137270000D01*
X103556666Y-137203333D01*
X103590000Y-137170000D01*
X103656666Y-137136666D01*
X103756666Y-137803333D02*
X103756666Y-138136666D01*
X103956666Y-137736666D02*
X103256666Y-137970000D01*
X103956666Y-138203333D01*
X131882380Y-148090476D02*
X132596666Y-148090476D01*
X132739523Y-148042857D01*
X132834761Y-147947619D01*
X132882380Y-147804761D01*
X132882380Y-147709523D01*
X132215714Y-148995238D02*
X132882380Y-148995238D01*
X131834761Y-148757142D02*
X132549047Y-148519047D01*
X132549047Y-149138095D01*
X131882380Y-149423809D02*
X131882380Y-150090476D01*
X132882380Y-149661904D01*
X132977619Y-125709523D02*
X132263333Y-125709523D01*
X132120476Y-125757142D01*
X132025238Y-125852380D01*
X131977619Y-125995238D01*
X131977619Y-126090476D01*
X132644285Y-124804761D02*
X131977619Y-124804761D01*
X133025238Y-125042857D02*
X132310952Y-125280952D01*
X132310952Y-124661904D01*
X132549047Y-124138095D02*
X132596666Y-124233333D01*
X132644285Y-124280952D01*
X132739523Y-124328571D01*
X132787142Y-124328571D01*
X132882380Y-124280952D01*
X132930000Y-124233333D01*
X132977619Y-124138095D01*
X132977619Y-123947619D01*
X132930000Y-123852380D01*
X132882380Y-123804761D01*
X132787142Y-123757142D01*
X132739523Y-123757142D01*
X132644285Y-123804761D01*
X132596666Y-123852380D01*
X132549047Y-123947619D01*
X132549047Y-124138095D01*
X132501428Y-124233333D01*
X132453809Y-124280952D01*
X132358571Y-124328571D01*
X132168095Y-124328571D01*
X132072857Y-124280952D01*
X132025238Y-124233333D01*
X131977619Y-124138095D01*
X131977619Y-123947619D01*
X132025238Y-123852380D01*
X132072857Y-123804761D01*
X132168095Y-123757142D01*
X132358571Y-123757142D01*
X132453809Y-123804761D01*
X132501428Y-123852380D01*
X132549047Y-123947619D01*
X199122380Y-117048095D02*
X199931904Y-117048095D01*
X200027142Y-117095714D01*
X200074761Y-117143333D01*
X200122380Y-117238571D01*
X200122380Y-117429047D01*
X200074761Y-117524285D01*
X200027142Y-117571904D01*
X199931904Y-117619523D01*
X199122380Y-117619523D01*
X199122380Y-118000476D02*
X199122380Y-118619523D01*
X199503333Y-118286190D01*
X199503333Y-118429047D01*
X199550952Y-118524285D01*
X199598571Y-118571904D01*
X199693809Y-118619523D01*
X199931904Y-118619523D01*
X200027142Y-118571904D01*
X200074761Y-118524285D01*
X200122380Y-118429047D01*
X200122380Y-118143333D01*
X200074761Y-118048095D01*
X200027142Y-118000476D01*
X53937142Y-89107142D02*
X53984761Y-89059523D01*
X54032380Y-88916666D01*
X54032380Y-88821428D01*
X53984761Y-88678571D01*
X53889523Y-88583333D01*
X53794285Y-88535714D01*
X53603809Y-88488095D01*
X53460952Y-88488095D01*
X53270476Y-88535714D01*
X53175238Y-88583333D01*
X53080000Y-88678571D01*
X53032380Y-88821428D01*
X53032380Y-88916666D01*
X53080000Y-89059523D01*
X53127619Y-89107142D01*
X53127619Y-89488095D02*
X53080000Y-89535714D01*
X53032380Y-89630952D01*
X53032380Y-89869047D01*
X53080000Y-89964285D01*
X53127619Y-90011904D01*
X53222857Y-90059523D01*
X53318095Y-90059523D01*
X53460952Y-90011904D01*
X54032380Y-89440476D01*
X54032380Y-90059523D01*
X53032380Y-90392857D02*
X53032380Y-91011904D01*
X53413333Y-90678571D01*
X53413333Y-90821428D01*
X53460952Y-90916666D01*
X53508571Y-90964285D01*
X53603809Y-91011904D01*
X53841904Y-91011904D01*
X53937142Y-90964285D01*
X53984761Y-90916666D01*
X54032380Y-90821428D01*
X54032380Y-90535714D01*
X53984761Y-90440476D01*
X53937142Y-90392857D01*
X154722857Y-102822380D02*
X155056190Y-102346190D01*
X155294285Y-102822380D02*
X155294285Y-101822380D01*
X154913333Y-101822380D01*
X154818095Y-101870000D01*
X154770476Y-101917619D01*
X154722857Y-102012857D01*
X154722857Y-102155714D01*
X154770476Y-102250952D01*
X154818095Y-102298571D01*
X154913333Y-102346190D01*
X155294285Y-102346190D01*
X154389523Y-101822380D02*
X153770476Y-101822380D01*
X154103809Y-102203333D01*
X153960952Y-102203333D01*
X153865714Y-102250952D01*
X153818095Y-102298571D01*
X153770476Y-102393809D01*
X153770476Y-102631904D01*
X153818095Y-102727142D01*
X153865714Y-102774761D01*
X153960952Y-102822380D01*
X154246666Y-102822380D01*
X154341904Y-102774761D01*
X154389523Y-102727142D01*
X153199047Y-102250952D02*
X153294285Y-102203333D01*
X153341904Y-102155714D01*
X153389523Y-102060476D01*
X153389523Y-102012857D01*
X153341904Y-101917619D01*
X153294285Y-101870000D01*
X153199047Y-101822380D01*
X153008571Y-101822380D01*
X152913333Y-101870000D01*
X152865714Y-101917619D01*
X152818095Y-102012857D01*
X152818095Y-102060476D01*
X152865714Y-102155714D01*
X152913333Y-102203333D01*
X153008571Y-102250952D01*
X153199047Y-102250952D01*
X153294285Y-102298571D01*
X153341904Y-102346190D01*
X153389523Y-102441428D01*
X153389523Y-102631904D01*
X153341904Y-102727142D01*
X153294285Y-102774761D01*
X153199047Y-102822380D01*
X153008571Y-102822380D01*
X152913333Y-102774761D01*
X152865714Y-102727142D01*
X152818095Y-102631904D01*
X152818095Y-102441428D01*
X152865714Y-102346190D01*
X152913333Y-102298571D01*
X153008571Y-102250952D01*
X139722857Y-102822380D02*
X140056190Y-102346190D01*
X140294285Y-102822380D02*
X140294285Y-101822380D01*
X139913333Y-101822380D01*
X139818095Y-101870000D01*
X139770476Y-101917619D01*
X139722857Y-102012857D01*
X139722857Y-102155714D01*
X139770476Y-102250952D01*
X139818095Y-102298571D01*
X139913333Y-102346190D01*
X140294285Y-102346190D01*
X139389523Y-101822380D02*
X138770476Y-101822380D01*
X139103809Y-102203333D01*
X138960952Y-102203333D01*
X138865714Y-102250952D01*
X138818095Y-102298571D01*
X138770476Y-102393809D01*
X138770476Y-102631904D01*
X138818095Y-102727142D01*
X138865714Y-102774761D01*
X138960952Y-102822380D01*
X139246666Y-102822380D01*
X139341904Y-102774761D01*
X139389523Y-102727142D01*
X138437142Y-101822380D02*
X137770476Y-101822380D01*
X138199047Y-102822380D01*
X123722857Y-102822380D02*
X124056190Y-102346190D01*
X124294285Y-102822380D02*
X124294285Y-101822380D01*
X123913333Y-101822380D01*
X123818095Y-101870000D01*
X123770476Y-101917619D01*
X123722857Y-102012857D01*
X123722857Y-102155714D01*
X123770476Y-102250952D01*
X123818095Y-102298571D01*
X123913333Y-102346190D01*
X124294285Y-102346190D01*
X123389523Y-101822380D02*
X122770476Y-101822380D01*
X123103809Y-102203333D01*
X122960952Y-102203333D01*
X122865714Y-102250952D01*
X122818095Y-102298571D01*
X122770476Y-102393809D01*
X122770476Y-102631904D01*
X122818095Y-102727142D01*
X122865714Y-102774761D01*
X122960952Y-102822380D01*
X123246666Y-102822380D01*
X123341904Y-102774761D01*
X123389523Y-102727142D01*
X121913333Y-101822380D02*
X122103809Y-101822380D01*
X122199047Y-101870000D01*
X122246666Y-101917619D01*
X122341904Y-102060476D01*
X122389523Y-102250952D01*
X122389523Y-102631904D01*
X122341904Y-102727142D01*
X122294285Y-102774761D01*
X122199047Y-102822380D01*
X122008571Y-102822380D01*
X121913333Y-102774761D01*
X121865714Y-102727142D01*
X121818095Y-102631904D01*
X121818095Y-102393809D01*
X121865714Y-102298571D01*
X121913333Y-102250952D01*
X122008571Y-102203333D01*
X122199047Y-102203333D01*
X122294285Y-102250952D01*
X122341904Y-102298571D01*
X122389523Y-102393809D01*
X108722857Y-102822380D02*
X109056190Y-102346190D01*
X109294285Y-102822380D02*
X109294285Y-101822380D01*
X108913333Y-101822380D01*
X108818095Y-101870000D01*
X108770476Y-101917619D01*
X108722857Y-102012857D01*
X108722857Y-102155714D01*
X108770476Y-102250952D01*
X108818095Y-102298571D01*
X108913333Y-102346190D01*
X109294285Y-102346190D01*
X108389523Y-101822380D02*
X107770476Y-101822380D01*
X108103809Y-102203333D01*
X107960952Y-102203333D01*
X107865714Y-102250952D01*
X107818095Y-102298571D01*
X107770476Y-102393809D01*
X107770476Y-102631904D01*
X107818095Y-102727142D01*
X107865714Y-102774761D01*
X107960952Y-102822380D01*
X108246666Y-102822380D01*
X108341904Y-102774761D01*
X108389523Y-102727142D01*
X106865714Y-101822380D02*
X107341904Y-101822380D01*
X107389523Y-102298571D01*
X107341904Y-102250952D01*
X107246666Y-102203333D01*
X107008571Y-102203333D01*
X106913333Y-102250952D01*
X106865714Y-102298571D01*
X106818095Y-102393809D01*
X106818095Y-102631904D01*
X106865714Y-102727142D01*
X106913333Y-102774761D01*
X107008571Y-102822380D01*
X107246666Y-102822380D01*
X107341904Y-102774761D01*
X107389523Y-102727142D01*
X94222857Y-102822380D02*
X94556190Y-102346190D01*
X94794285Y-102822380D02*
X94794285Y-101822380D01*
X94413333Y-101822380D01*
X94318095Y-101870000D01*
X94270476Y-101917619D01*
X94222857Y-102012857D01*
X94222857Y-102155714D01*
X94270476Y-102250952D01*
X94318095Y-102298571D01*
X94413333Y-102346190D01*
X94794285Y-102346190D01*
X93889523Y-101822380D02*
X93270476Y-101822380D01*
X93603809Y-102203333D01*
X93460952Y-102203333D01*
X93365714Y-102250952D01*
X93318095Y-102298571D01*
X93270476Y-102393809D01*
X93270476Y-102631904D01*
X93318095Y-102727142D01*
X93365714Y-102774761D01*
X93460952Y-102822380D01*
X93746666Y-102822380D01*
X93841904Y-102774761D01*
X93889523Y-102727142D01*
X92413333Y-102155714D02*
X92413333Y-102822380D01*
X92651428Y-101774761D02*
X92889523Y-102489047D01*
X92270476Y-102489047D01*
X79722857Y-102822380D02*
X80056190Y-102346190D01*
X80294285Y-102822380D02*
X80294285Y-101822380D01*
X79913333Y-101822380D01*
X79818095Y-101870000D01*
X79770476Y-101917619D01*
X79722857Y-102012857D01*
X79722857Y-102155714D01*
X79770476Y-102250952D01*
X79818095Y-102298571D01*
X79913333Y-102346190D01*
X80294285Y-102346190D01*
X79389523Y-101822380D02*
X78770476Y-101822380D01*
X79103809Y-102203333D01*
X78960952Y-102203333D01*
X78865714Y-102250952D01*
X78818095Y-102298571D01*
X78770476Y-102393809D01*
X78770476Y-102631904D01*
X78818095Y-102727142D01*
X78865714Y-102774761D01*
X78960952Y-102822380D01*
X79246666Y-102822380D01*
X79341904Y-102774761D01*
X79389523Y-102727142D01*
X78437142Y-101822380D02*
X77818095Y-101822380D01*
X78151428Y-102203333D01*
X78008571Y-102203333D01*
X77913333Y-102250952D01*
X77865714Y-102298571D01*
X77818095Y-102393809D01*
X77818095Y-102631904D01*
X77865714Y-102727142D01*
X77913333Y-102774761D01*
X78008571Y-102822380D01*
X78294285Y-102822380D01*
X78389523Y-102774761D01*
X78437142Y-102727142D01*
X64722857Y-102822380D02*
X65056190Y-102346190D01*
X65294285Y-102822380D02*
X65294285Y-101822380D01*
X64913333Y-101822380D01*
X64818095Y-101870000D01*
X64770476Y-101917619D01*
X64722857Y-102012857D01*
X64722857Y-102155714D01*
X64770476Y-102250952D01*
X64818095Y-102298571D01*
X64913333Y-102346190D01*
X65294285Y-102346190D01*
X64389523Y-101822380D02*
X63770476Y-101822380D01*
X64103809Y-102203333D01*
X63960952Y-102203333D01*
X63865714Y-102250952D01*
X63818095Y-102298571D01*
X63770476Y-102393809D01*
X63770476Y-102631904D01*
X63818095Y-102727142D01*
X63865714Y-102774761D01*
X63960952Y-102822380D01*
X64246666Y-102822380D01*
X64341904Y-102774761D01*
X64389523Y-102727142D01*
X63389523Y-101917619D02*
X63341904Y-101870000D01*
X63246666Y-101822380D01*
X63008571Y-101822380D01*
X62913333Y-101870000D01*
X62865714Y-101917619D01*
X62818095Y-102012857D01*
X62818095Y-102108095D01*
X62865714Y-102250952D01*
X63437142Y-102822380D01*
X62818095Y-102822380D01*
X154722857Y-122822380D02*
X155056190Y-122346190D01*
X155294285Y-122822380D02*
X155294285Y-121822380D01*
X154913333Y-121822380D01*
X154818095Y-121870000D01*
X154770476Y-121917619D01*
X154722857Y-122012857D01*
X154722857Y-122155714D01*
X154770476Y-122250952D01*
X154818095Y-122298571D01*
X154913333Y-122346190D01*
X155294285Y-122346190D01*
X154389523Y-121822380D02*
X153770476Y-121822380D01*
X154103809Y-122203333D01*
X153960952Y-122203333D01*
X153865714Y-122250952D01*
X153818095Y-122298571D01*
X153770476Y-122393809D01*
X153770476Y-122631904D01*
X153818095Y-122727142D01*
X153865714Y-122774761D01*
X153960952Y-122822380D01*
X154246666Y-122822380D01*
X154341904Y-122774761D01*
X154389523Y-122727142D01*
X152818095Y-122822380D02*
X153389523Y-122822380D01*
X153103809Y-122822380D02*
X153103809Y-121822380D01*
X153199047Y-121965238D01*
X153294285Y-122060476D01*
X153389523Y-122108095D01*
X139722857Y-122822380D02*
X140056190Y-122346190D01*
X140294285Y-122822380D02*
X140294285Y-121822380D01*
X139913333Y-121822380D01*
X139818095Y-121870000D01*
X139770476Y-121917619D01*
X139722857Y-122012857D01*
X139722857Y-122155714D01*
X139770476Y-122250952D01*
X139818095Y-122298571D01*
X139913333Y-122346190D01*
X140294285Y-122346190D01*
X139389523Y-121822380D02*
X138770476Y-121822380D01*
X139103809Y-122203333D01*
X138960952Y-122203333D01*
X138865714Y-122250952D01*
X138818095Y-122298571D01*
X138770476Y-122393809D01*
X138770476Y-122631904D01*
X138818095Y-122727142D01*
X138865714Y-122774761D01*
X138960952Y-122822380D01*
X139246666Y-122822380D01*
X139341904Y-122774761D01*
X139389523Y-122727142D01*
X138151428Y-121822380D02*
X138056190Y-121822380D01*
X137960952Y-121870000D01*
X137913333Y-121917619D01*
X137865714Y-122012857D01*
X137818095Y-122203333D01*
X137818095Y-122441428D01*
X137865714Y-122631904D01*
X137913333Y-122727142D01*
X137960952Y-122774761D01*
X138056190Y-122822380D01*
X138151428Y-122822380D01*
X138246666Y-122774761D01*
X138294285Y-122727142D01*
X138341904Y-122631904D01*
X138389523Y-122441428D01*
X138389523Y-122203333D01*
X138341904Y-122012857D01*
X138294285Y-121917619D01*
X138246666Y-121870000D01*
X138151428Y-121822380D01*
X124722857Y-122822380D02*
X125056190Y-122346190D01*
X125294285Y-122822380D02*
X125294285Y-121822380D01*
X124913333Y-121822380D01*
X124818095Y-121870000D01*
X124770476Y-121917619D01*
X124722857Y-122012857D01*
X124722857Y-122155714D01*
X124770476Y-122250952D01*
X124818095Y-122298571D01*
X124913333Y-122346190D01*
X125294285Y-122346190D01*
X124341904Y-121917619D02*
X124294285Y-121870000D01*
X124199047Y-121822380D01*
X123960952Y-121822380D01*
X123865714Y-121870000D01*
X123818095Y-121917619D01*
X123770476Y-122012857D01*
X123770476Y-122108095D01*
X123818095Y-122250952D01*
X124389523Y-122822380D01*
X123770476Y-122822380D01*
X123294285Y-122822380D02*
X123103809Y-122822380D01*
X123008571Y-122774761D01*
X122960952Y-122727142D01*
X122865714Y-122584285D01*
X122818095Y-122393809D01*
X122818095Y-122012857D01*
X122865714Y-121917619D01*
X122913333Y-121870000D01*
X123008571Y-121822380D01*
X123199047Y-121822380D01*
X123294285Y-121870000D01*
X123341904Y-121917619D01*
X123389523Y-122012857D01*
X123389523Y-122250952D01*
X123341904Y-122346190D01*
X123294285Y-122393809D01*
X123199047Y-122441428D01*
X123008571Y-122441428D01*
X122913333Y-122393809D01*
X122865714Y-122346190D01*
X122818095Y-122250952D01*
X109722857Y-122822380D02*
X110056190Y-122346190D01*
X110294285Y-122822380D02*
X110294285Y-121822380D01*
X109913333Y-121822380D01*
X109818095Y-121870000D01*
X109770476Y-121917619D01*
X109722857Y-122012857D01*
X109722857Y-122155714D01*
X109770476Y-122250952D01*
X109818095Y-122298571D01*
X109913333Y-122346190D01*
X110294285Y-122346190D01*
X109341904Y-121917619D02*
X109294285Y-121870000D01*
X109199047Y-121822380D01*
X108960952Y-121822380D01*
X108865714Y-121870000D01*
X108818095Y-121917619D01*
X108770476Y-122012857D01*
X108770476Y-122108095D01*
X108818095Y-122250952D01*
X109389523Y-122822380D01*
X108770476Y-122822380D01*
X108199047Y-122250952D02*
X108294285Y-122203333D01*
X108341904Y-122155714D01*
X108389523Y-122060476D01*
X108389523Y-122012857D01*
X108341904Y-121917619D01*
X108294285Y-121870000D01*
X108199047Y-121822380D01*
X108008571Y-121822380D01*
X107913333Y-121870000D01*
X107865714Y-121917619D01*
X107818095Y-122012857D01*
X107818095Y-122060476D01*
X107865714Y-122155714D01*
X107913333Y-122203333D01*
X108008571Y-122250952D01*
X108199047Y-122250952D01*
X108294285Y-122298571D01*
X108341904Y-122346190D01*
X108389523Y-122441428D01*
X108389523Y-122631904D01*
X108341904Y-122727142D01*
X108294285Y-122774761D01*
X108199047Y-122822380D01*
X108008571Y-122822380D01*
X107913333Y-122774761D01*
X107865714Y-122727142D01*
X107818095Y-122631904D01*
X107818095Y-122441428D01*
X107865714Y-122346190D01*
X107913333Y-122298571D01*
X108008571Y-122250952D01*
X94722857Y-122822380D02*
X95056190Y-122346190D01*
X95294285Y-122822380D02*
X95294285Y-121822380D01*
X94913333Y-121822380D01*
X94818095Y-121870000D01*
X94770476Y-121917619D01*
X94722857Y-122012857D01*
X94722857Y-122155714D01*
X94770476Y-122250952D01*
X94818095Y-122298571D01*
X94913333Y-122346190D01*
X95294285Y-122346190D01*
X94341904Y-121917619D02*
X94294285Y-121870000D01*
X94199047Y-121822380D01*
X93960952Y-121822380D01*
X93865714Y-121870000D01*
X93818095Y-121917619D01*
X93770476Y-122012857D01*
X93770476Y-122108095D01*
X93818095Y-122250952D01*
X94389523Y-122822380D01*
X93770476Y-122822380D01*
X93437142Y-121822380D02*
X92770476Y-121822380D01*
X93199047Y-122822380D01*
X79722857Y-122822380D02*
X80056190Y-122346190D01*
X80294285Y-122822380D02*
X80294285Y-121822380D01*
X79913333Y-121822380D01*
X79818095Y-121870000D01*
X79770476Y-121917619D01*
X79722857Y-122012857D01*
X79722857Y-122155714D01*
X79770476Y-122250952D01*
X79818095Y-122298571D01*
X79913333Y-122346190D01*
X80294285Y-122346190D01*
X79341904Y-121917619D02*
X79294285Y-121870000D01*
X79199047Y-121822380D01*
X78960952Y-121822380D01*
X78865714Y-121870000D01*
X78818095Y-121917619D01*
X78770476Y-122012857D01*
X78770476Y-122108095D01*
X78818095Y-122250952D01*
X79389523Y-122822380D01*
X78770476Y-122822380D01*
X77913333Y-121822380D02*
X78103809Y-121822380D01*
X78199047Y-121870000D01*
X78246666Y-121917619D01*
X78341904Y-122060476D01*
X78389523Y-122250952D01*
X78389523Y-122631904D01*
X78341904Y-122727142D01*
X78294285Y-122774761D01*
X78199047Y-122822380D01*
X78008571Y-122822380D01*
X77913333Y-122774761D01*
X77865714Y-122727142D01*
X77818095Y-122631904D01*
X77818095Y-122393809D01*
X77865714Y-122298571D01*
X77913333Y-122250952D01*
X78008571Y-122203333D01*
X78199047Y-122203333D01*
X78294285Y-122250952D01*
X78341904Y-122298571D01*
X78389523Y-122393809D01*
X64722857Y-122822380D02*
X65056190Y-122346190D01*
X65294285Y-122822380D02*
X65294285Y-121822380D01*
X64913333Y-121822380D01*
X64818095Y-121870000D01*
X64770476Y-121917619D01*
X64722857Y-122012857D01*
X64722857Y-122155714D01*
X64770476Y-122250952D01*
X64818095Y-122298571D01*
X64913333Y-122346190D01*
X65294285Y-122346190D01*
X64341904Y-121917619D02*
X64294285Y-121870000D01*
X64199047Y-121822380D01*
X63960952Y-121822380D01*
X63865714Y-121870000D01*
X63818095Y-121917619D01*
X63770476Y-122012857D01*
X63770476Y-122108095D01*
X63818095Y-122250952D01*
X64389523Y-122822380D01*
X63770476Y-122822380D01*
X62865714Y-121822380D02*
X63341904Y-121822380D01*
X63389523Y-122298571D01*
X63341904Y-122250952D01*
X63246666Y-122203333D01*
X63008571Y-122203333D01*
X62913333Y-122250952D01*
X62865714Y-122298571D01*
X62818095Y-122393809D01*
X62818095Y-122631904D01*
X62865714Y-122727142D01*
X62913333Y-122774761D01*
X63008571Y-122822380D01*
X63246666Y-122822380D01*
X63341904Y-122774761D01*
X63389523Y-122727142D01*
X49822857Y-122822380D02*
X50156190Y-122346190D01*
X50394285Y-122822380D02*
X50394285Y-121822380D01*
X50013333Y-121822380D01*
X49918095Y-121870000D01*
X49870476Y-121917619D01*
X49822857Y-122012857D01*
X49822857Y-122155714D01*
X49870476Y-122250952D01*
X49918095Y-122298571D01*
X50013333Y-122346190D01*
X50394285Y-122346190D01*
X49441904Y-121917619D02*
X49394285Y-121870000D01*
X49299047Y-121822380D01*
X49060952Y-121822380D01*
X48965714Y-121870000D01*
X48918095Y-121917619D01*
X48870476Y-122012857D01*
X48870476Y-122108095D01*
X48918095Y-122250952D01*
X49489523Y-122822380D01*
X48870476Y-122822380D01*
X48013333Y-122155714D02*
X48013333Y-122822380D01*
X48251428Y-121774761D02*
X48489523Y-122489047D01*
X47870476Y-122489047D01*
X49562857Y-102822380D02*
X49896190Y-102346190D01*
X50134285Y-102822380D02*
X50134285Y-101822380D01*
X49753333Y-101822380D01*
X49658095Y-101870000D01*
X49610476Y-101917619D01*
X49562857Y-102012857D01*
X49562857Y-102155714D01*
X49610476Y-102250952D01*
X49658095Y-102298571D01*
X49753333Y-102346190D01*
X50134285Y-102346190D01*
X49181904Y-101917619D02*
X49134285Y-101870000D01*
X49039047Y-101822380D01*
X48800952Y-101822380D01*
X48705714Y-101870000D01*
X48658095Y-101917619D01*
X48610476Y-102012857D01*
X48610476Y-102108095D01*
X48658095Y-102250952D01*
X49229523Y-102822380D01*
X48610476Y-102822380D01*
X48277142Y-101822380D02*
X47658095Y-101822380D01*
X47991428Y-102203333D01*
X47848571Y-102203333D01*
X47753333Y-102250952D01*
X47705714Y-102298571D01*
X47658095Y-102393809D01*
X47658095Y-102631904D01*
X47705714Y-102727142D01*
X47753333Y-102774761D01*
X47848571Y-102822380D01*
X48134285Y-102822380D01*
X48229523Y-102774761D01*
X48277142Y-102727142D01*
X154722857Y-82822380D02*
X155056190Y-82346190D01*
X155294285Y-82822380D02*
X155294285Y-81822380D01*
X154913333Y-81822380D01*
X154818095Y-81870000D01*
X154770476Y-81917619D01*
X154722857Y-82012857D01*
X154722857Y-82155714D01*
X154770476Y-82250952D01*
X154818095Y-82298571D01*
X154913333Y-82346190D01*
X155294285Y-82346190D01*
X154341904Y-81917619D02*
X154294285Y-81870000D01*
X154199047Y-81822380D01*
X153960952Y-81822380D01*
X153865714Y-81870000D01*
X153818095Y-81917619D01*
X153770476Y-82012857D01*
X153770476Y-82108095D01*
X153818095Y-82250952D01*
X154389523Y-82822380D01*
X153770476Y-82822380D01*
X153389523Y-81917619D02*
X153341904Y-81870000D01*
X153246666Y-81822380D01*
X153008571Y-81822380D01*
X152913333Y-81870000D01*
X152865714Y-81917619D01*
X152818095Y-82012857D01*
X152818095Y-82108095D01*
X152865714Y-82250952D01*
X153437142Y-82822380D01*
X152818095Y-82822380D01*
X139722857Y-82822380D02*
X140056190Y-82346190D01*
X140294285Y-82822380D02*
X140294285Y-81822380D01*
X139913333Y-81822380D01*
X139818095Y-81870000D01*
X139770476Y-81917619D01*
X139722857Y-82012857D01*
X139722857Y-82155714D01*
X139770476Y-82250952D01*
X139818095Y-82298571D01*
X139913333Y-82346190D01*
X140294285Y-82346190D01*
X139341904Y-81917619D02*
X139294285Y-81870000D01*
X139199047Y-81822380D01*
X138960952Y-81822380D01*
X138865714Y-81870000D01*
X138818095Y-81917619D01*
X138770476Y-82012857D01*
X138770476Y-82108095D01*
X138818095Y-82250952D01*
X139389523Y-82822380D01*
X138770476Y-82822380D01*
X137818095Y-82822380D02*
X138389523Y-82822380D01*
X138103809Y-82822380D02*
X138103809Y-81822380D01*
X138199047Y-81965238D01*
X138294285Y-82060476D01*
X138389523Y-82108095D01*
X124222857Y-82822380D02*
X124556190Y-82346190D01*
X124794285Y-82822380D02*
X124794285Y-81822380D01*
X124413333Y-81822380D01*
X124318095Y-81870000D01*
X124270476Y-81917619D01*
X124222857Y-82012857D01*
X124222857Y-82155714D01*
X124270476Y-82250952D01*
X124318095Y-82298571D01*
X124413333Y-82346190D01*
X124794285Y-82346190D01*
X123841904Y-81917619D02*
X123794285Y-81870000D01*
X123699047Y-81822380D01*
X123460952Y-81822380D01*
X123365714Y-81870000D01*
X123318095Y-81917619D01*
X123270476Y-82012857D01*
X123270476Y-82108095D01*
X123318095Y-82250952D01*
X123889523Y-82822380D01*
X123270476Y-82822380D01*
X122651428Y-81822380D02*
X122556190Y-81822380D01*
X122460952Y-81870000D01*
X122413333Y-81917619D01*
X122365714Y-82012857D01*
X122318095Y-82203333D01*
X122318095Y-82441428D01*
X122365714Y-82631904D01*
X122413333Y-82727142D01*
X122460952Y-82774761D01*
X122556190Y-82822380D01*
X122651428Y-82822380D01*
X122746666Y-82774761D01*
X122794285Y-82727142D01*
X122841904Y-82631904D01*
X122889523Y-82441428D01*
X122889523Y-82203333D01*
X122841904Y-82012857D01*
X122794285Y-81917619D01*
X122746666Y-81870000D01*
X122651428Y-81822380D01*
X109722857Y-82822380D02*
X110056190Y-82346190D01*
X110294285Y-82822380D02*
X110294285Y-81822380D01*
X109913333Y-81822380D01*
X109818095Y-81870000D01*
X109770476Y-81917619D01*
X109722857Y-82012857D01*
X109722857Y-82155714D01*
X109770476Y-82250952D01*
X109818095Y-82298571D01*
X109913333Y-82346190D01*
X110294285Y-82346190D01*
X108770476Y-82822380D02*
X109341904Y-82822380D01*
X109056190Y-82822380D02*
X109056190Y-81822380D01*
X109151428Y-81965238D01*
X109246666Y-82060476D01*
X109341904Y-82108095D01*
X108294285Y-82822380D02*
X108103809Y-82822380D01*
X108008571Y-82774761D01*
X107960952Y-82727142D01*
X107865714Y-82584285D01*
X107818095Y-82393809D01*
X107818095Y-82012857D01*
X107865714Y-81917619D01*
X107913333Y-81870000D01*
X108008571Y-81822380D01*
X108199047Y-81822380D01*
X108294285Y-81870000D01*
X108341904Y-81917619D01*
X108389523Y-82012857D01*
X108389523Y-82250952D01*
X108341904Y-82346190D01*
X108294285Y-82393809D01*
X108199047Y-82441428D01*
X108008571Y-82441428D01*
X107913333Y-82393809D01*
X107865714Y-82346190D01*
X107818095Y-82250952D01*
X94722857Y-82822380D02*
X95056190Y-82346190D01*
X95294285Y-82822380D02*
X95294285Y-81822380D01*
X94913333Y-81822380D01*
X94818095Y-81870000D01*
X94770476Y-81917619D01*
X94722857Y-82012857D01*
X94722857Y-82155714D01*
X94770476Y-82250952D01*
X94818095Y-82298571D01*
X94913333Y-82346190D01*
X95294285Y-82346190D01*
X93770476Y-82822380D02*
X94341904Y-82822380D01*
X94056190Y-82822380D02*
X94056190Y-81822380D01*
X94151428Y-81965238D01*
X94246666Y-82060476D01*
X94341904Y-82108095D01*
X93199047Y-82250952D02*
X93294285Y-82203333D01*
X93341904Y-82155714D01*
X93389523Y-82060476D01*
X93389523Y-82012857D01*
X93341904Y-81917619D01*
X93294285Y-81870000D01*
X93199047Y-81822380D01*
X93008571Y-81822380D01*
X92913333Y-81870000D01*
X92865714Y-81917619D01*
X92818095Y-82012857D01*
X92818095Y-82060476D01*
X92865714Y-82155714D01*
X92913333Y-82203333D01*
X93008571Y-82250952D01*
X93199047Y-82250952D01*
X93294285Y-82298571D01*
X93341904Y-82346190D01*
X93389523Y-82441428D01*
X93389523Y-82631904D01*
X93341904Y-82727142D01*
X93294285Y-82774761D01*
X93199047Y-82822380D01*
X93008571Y-82822380D01*
X92913333Y-82774761D01*
X92865714Y-82727142D01*
X92818095Y-82631904D01*
X92818095Y-82441428D01*
X92865714Y-82346190D01*
X92913333Y-82298571D01*
X93008571Y-82250952D01*
X79722857Y-82822380D02*
X80056190Y-82346190D01*
X80294285Y-82822380D02*
X80294285Y-81822380D01*
X79913333Y-81822380D01*
X79818095Y-81870000D01*
X79770476Y-81917619D01*
X79722857Y-82012857D01*
X79722857Y-82155714D01*
X79770476Y-82250952D01*
X79818095Y-82298571D01*
X79913333Y-82346190D01*
X80294285Y-82346190D01*
X78770476Y-82822380D02*
X79341904Y-82822380D01*
X79056190Y-82822380D02*
X79056190Y-81822380D01*
X79151428Y-81965238D01*
X79246666Y-82060476D01*
X79341904Y-82108095D01*
X78437142Y-81822380D02*
X77770476Y-81822380D01*
X78199047Y-82822380D01*
X64722857Y-82822380D02*
X65056190Y-82346190D01*
X65294285Y-82822380D02*
X65294285Y-81822380D01*
X64913333Y-81822380D01*
X64818095Y-81870000D01*
X64770476Y-81917619D01*
X64722857Y-82012857D01*
X64722857Y-82155714D01*
X64770476Y-82250952D01*
X64818095Y-82298571D01*
X64913333Y-82346190D01*
X65294285Y-82346190D01*
X63770476Y-82822380D02*
X64341904Y-82822380D01*
X64056190Y-82822380D02*
X64056190Y-81822380D01*
X64151428Y-81965238D01*
X64246666Y-82060476D01*
X64341904Y-82108095D01*
X62913333Y-81822380D02*
X63103809Y-81822380D01*
X63199047Y-81870000D01*
X63246666Y-81917619D01*
X63341904Y-82060476D01*
X63389523Y-82250952D01*
X63389523Y-82631904D01*
X63341904Y-82727142D01*
X63294285Y-82774761D01*
X63199047Y-82822380D01*
X63008571Y-82822380D01*
X62913333Y-82774761D01*
X62865714Y-82727142D01*
X62818095Y-82631904D01*
X62818095Y-82393809D01*
X62865714Y-82298571D01*
X62913333Y-82250952D01*
X63008571Y-82203333D01*
X63199047Y-82203333D01*
X63294285Y-82250952D01*
X63341904Y-82298571D01*
X63389523Y-82393809D01*
X49722857Y-82822380D02*
X50056190Y-82346190D01*
X50294285Y-82822380D02*
X50294285Y-81822380D01*
X49913333Y-81822380D01*
X49818095Y-81870000D01*
X49770476Y-81917619D01*
X49722857Y-82012857D01*
X49722857Y-82155714D01*
X49770476Y-82250952D01*
X49818095Y-82298571D01*
X49913333Y-82346190D01*
X50294285Y-82346190D01*
X48770476Y-82822380D02*
X49341904Y-82822380D01*
X49056190Y-82822380D02*
X49056190Y-81822380D01*
X49151428Y-81965238D01*
X49246666Y-82060476D01*
X49341904Y-82108095D01*
X47865714Y-81822380D02*
X48341904Y-81822380D01*
X48389523Y-82298571D01*
X48341904Y-82250952D01*
X48246666Y-82203333D01*
X48008571Y-82203333D01*
X47913333Y-82250952D01*
X47865714Y-82298571D01*
X47818095Y-82393809D01*
X47818095Y-82631904D01*
X47865714Y-82727142D01*
X47913333Y-82774761D01*
X48008571Y-82822380D01*
X48246666Y-82822380D01*
X48341904Y-82774761D01*
X48389523Y-82727142D01*
X154722857Y-62822380D02*
X155056190Y-62346190D01*
X155294285Y-62822380D02*
X155294285Y-61822380D01*
X154913333Y-61822380D01*
X154818095Y-61870000D01*
X154770476Y-61917619D01*
X154722857Y-62012857D01*
X154722857Y-62155714D01*
X154770476Y-62250952D01*
X154818095Y-62298571D01*
X154913333Y-62346190D01*
X155294285Y-62346190D01*
X153770476Y-62822380D02*
X154341904Y-62822380D01*
X154056190Y-62822380D02*
X154056190Y-61822380D01*
X154151428Y-61965238D01*
X154246666Y-62060476D01*
X154341904Y-62108095D01*
X152913333Y-62155714D02*
X152913333Y-62822380D01*
X153151428Y-61774761D02*
X153389523Y-62489047D01*
X152770476Y-62489047D01*
X139722857Y-62822380D02*
X140056190Y-62346190D01*
X140294285Y-62822380D02*
X140294285Y-61822380D01*
X139913333Y-61822380D01*
X139818095Y-61870000D01*
X139770476Y-61917619D01*
X139722857Y-62012857D01*
X139722857Y-62155714D01*
X139770476Y-62250952D01*
X139818095Y-62298571D01*
X139913333Y-62346190D01*
X140294285Y-62346190D01*
X138770476Y-62822380D02*
X139341904Y-62822380D01*
X139056190Y-62822380D02*
X139056190Y-61822380D01*
X139151428Y-61965238D01*
X139246666Y-62060476D01*
X139341904Y-62108095D01*
X138437142Y-61822380D02*
X137818095Y-61822380D01*
X138151428Y-62203333D01*
X138008571Y-62203333D01*
X137913333Y-62250952D01*
X137865714Y-62298571D01*
X137818095Y-62393809D01*
X137818095Y-62631904D01*
X137865714Y-62727142D01*
X137913333Y-62774761D01*
X138008571Y-62822380D01*
X138294285Y-62822380D01*
X138389523Y-62774761D01*
X138437142Y-62727142D01*
X124722857Y-62822380D02*
X125056190Y-62346190D01*
X125294285Y-62822380D02*
X125294285Y-61822380D01*
X124913333Y-61822380D01*
X124818095Y-61870000D01*
X124770476Y-61917619D01*
X124722857Y-62012857D01*
X124722857Y-62155714D01*
X124770476Y-62250952D01*
X124818095Y-62298571D01*
X124913333Y-62346190D01*
X125294285Y-62346190D01*
X123770476Y-62822380D02*
X124341904Y-62822380D01*
X124056190Y-62822380D02*
X124056190Y-61822380D01*
X124151428Y-61965238D01*
X124246666Y-62060476D01*
X124341904Y-62108095D01*
X123389523Y-61917619D02*
X123341904Y-61870000D01*
X123246666Y-61822380D01*
X123008571Y-61822380D01*
X122913333Y-61870000D01*
X122865714Y-61917619D01*
X122818095Y-62012857D01*
X122818095Y-62108095D01*
X122865714Y-62250952D01*
X123437142Y-62822380D01*
X122818095Y-62822380D01*
X109562857Y-62822380D02*
X109896190Y-62346190D01*
X110134285Y-62822380D02*
X110134285Y-61822380D01*
X109753333Y-61822380D01*
X109658095Y-61870000D01*
X109610476Y-61917619D01*
X109562857Y-62012857D01*
X109562857Y-62155714D01*
X109610476Y-62250952D01*
X109658095Y-62298571D01*
X109753333Y-62346190D01*
X110134285Y-62346190D01*
X108610476Y-62822380D02*
X109181904Y-62822380D01*
X108896190Y-62822380D02*
X108896190Y-61822380D01*
X108991428Y-61965238D01*
X109086666Y-62060476D01*
X109181904Y-62108095D01*
X107658095Y-62822380D02*
X108229523Y-62822380D01*
X107943809Y-62822380D02*
X107943809Y-61822380D01*
X108039047Y-61965238D01*
X108134285Y-62060476D01*
X108229523Y-62108095D01*
X93622857Y-62222380D02*
X93956190Y-61746190D01*
X94194285Y-62222380D02*
X94194285Y-61222380D01*
X93813333Y-61222380D01*
X93718095Y-61270000D01*
X93670476Y-61317619D01*
X93622857Y-61412857D01*
X93622857Y-61555714D01*
X93670476Y-61650952D01*
X93718095Y-61698571D01*
X93813333Y-61746190D01*
X94194285Y-61746190D01*
X92670476Y-62222380D02*
X93241904Y-62222380D01*
X92956190Y-62222380D02*
X92956190Y-61222380D01*
X93051428Y-61365238D01*
X93146666Y-61460476D01*
X93241904Y-61508095D01*
X92051428Y-61222380D02*
X91956190Y-61222380D01*
X91860952Y-61270000D01*
X91813333Y-61317619D01*
X91765714Y-61412857D01*
X91718095Y-61603333D01*
X91718095Y-61841428D01*
X91765714Y-62031904D01*
X91813333Y-62127142D01*
X91860952Y-62174761D01*
X91956190Y-62222380D01*
X92051428Y-62222380D01*
X92146666Y-62174761D01*
X92194285Y-62127142D01*
X92241904Y-62031904D01*
X92289523Y-61841428D01*
X92289523Y-61603333D01*
X92241904Y-61412857D01*
X92194285Y-61317619D01*
X92146666Y-61270000D01*
X92051428Y-61222380D01*
X78946666Y-62422380D02*
X79280000Y-61946190D01*
X79518095Y-62422380D02*
X79518095Y-61422380D01*
X79137142Y-61422380D01*
X79041904Y-61470000D01*
X78994285Y-61517619D01*
X78946666Y-61612857D01*
X78946666Y-61755714D01*
X78994285Y-61850952D01*
X79041904Y-61898571D01*
X79137142Y-61946190D01*
X79518095Y-61946190D01*
X78470476Y-62422380D02*
X78280000Y-62422380D01*
X78184761Y-62374761D01*
X78137142Y-62327142D01*
X78041904Y-62184285D01*
X77994285Y-61993809D01*
X77994285Y-61612857D01*
X78041904Y-61517619D01*
X78089523Y-61470000D01*
X78184761Y-61422380D01*
X78375238Y-61422380D01*
X78470476Y-61470000D01*
X78518095Y-61517619D01*
X78565714Y-61612857D01*
X78565714Y-61850952D01*
X78518095Y-61946190D01*
X78470476Y-61993809D01*
X78375238Y-62041428D01*
X78184761Y-62041428D01*
X78089523Y-61993809D01*
X78041904Y-61946190D01*
X77994285Y-61850952D01*
X63746666Y-62622380D02*
X64080000Y-62146190D01*
X64318095Y-62622380D02*
X64318095Y-61622380D01*
X63937142Y-61622380D01*
X63841904Y-61670000D01*
X63794285Y-61717619D01*
X63746666Y-61812857D01*
X63746666Y-61955714D01*
X63794285Y-62050952D01*
X63841904Y-62098571D01*
X63937142Y-62146190D01*
X64318095Y-62146190D01*
X63175238Y-62050952D02*
X63270476Y-62003333D01*
X63318095Y-61955714D01*
X63365714Y-61860476D01*
X63365714Y-61812857D01*
X63318095Y-61717619D01*
X63270476Y-61670000D01*
X63175238Y-61622380D01*
X62984761Y-61622380D01*
X62889523Y-61670000D01*
X62841904Y-61717619D01*
X62794285Y-61812857D01*
X62794285Y-61860476D01*
X62841904Y-61955714D01*
X62889523Y-62003333D01*
X62984761Y-62050952D01*
X63175238Y-62050952D01*
X63270476Y-62098571D01*
X63318095Y-62146190D01*
X63365714Y-62241428D01*
X63365714Y-62431904D01*
X63318095Y-62527142D01*
X63270476Y-62574761D01*
X63175238Y-62622380D01*
X62984761Y-62622380D01*
X62889523Y-62574761D01*
X62841904Y-62527142D01*
X62794285Y-62431904D01*
X62794285Y-62241428D01*
X62841904Y-62146190D01*
X62889523Y-62098571D01*
X62984761Y-62050952D01*
X49286666Y-57982380D02*
X49620000Y-57506190D01*
X49858095Y-57982380D02*
X49858095Y-56982380D01*
X49477142Y-56982380D01*
X49381904Y-57030000D01*
X49334285Y-57077619D01*
X49286666Y-57172857D01*
X49286666Y-57315714D01*
X49334285Y-57410952D01*
X49381904Y-57458571D01*
X49477142Y-57506190D01*
X49858095Y-57506190D01*
X48953333Y-56982380D02*
X48286666Y-56982380D01*
X48715238Y-57982380D01*
X173039523Y-44102380D02*
X173039523Y-44816666D01*
X173087142Y-44959523D01*
X173182380Y-45054761D01*
X173325238Y-45102380D01*
X173420476Y-45102380D01*
X172610952Y-44197619D02*
X172563333Y-44150000D01*
X172468095Y-44102380D01*
X172230000Y-44102380D01*
X172134761Y-44150000D01*
X172087142Y-44197619D01*
X172039523Y-44292857D01*
X172039523Y-44388095D01*
X172087142Y-44530952D01*
X172658571Y-45102380D01*
X172039523Y-45102380D01*
X171182380Y-44102380D02*
X171372857Y-44102380D01*
X171468095Y-44150000D01*
X171515714Y-44197619D01*
X171610952Y-44340476D01*
X171658571Y-44530952D01*
X171658571Y-44911904D01*
X171610952Y-45007142D01*
X171563333Y-45054761D01*
X171468095Y-45102380D01*
X171277619Y-45102380D01*
X171182380Y-45054761D01*
X171134761Y-45007142D01*
X171087142Y-44911904D01*
X171087142Y-44673809D01*
X171134761Y-44578571D01*
X171182380Y-44530952D01*
X171277619Y-44483333D01*
X171468095Y-44483333D01*
X171563333Y-44530952D01*
X171610952Y-44578571D01*
X171658571Y-44673809D01*
X158937142Y-89607142D02*
X158984761Y-89559523D01*
X159032380Y-89416666D01*
X159032380Y-89321428D01*
X158984761Y-89178571D01*
X158889523Y-89083333D01*
X158794285Y-89035714D01*
X158603809Y-88988095D01*
X158460952Y-88988095D01*
X158270476Y-89035714D01*
X158175238Y-89083333D01*
X158080000Y-89178571D01*
X158032380Y-89321428D01*
X158032380Y-89416666D01*
X158080000Y-89559523D01*
X158127619Y-89607142D01*
X158032380Y-89940476D02*
X158032380Y-90559523D01*
X158413333Y-90226190D01*
X158413333Y-90369047D01*
X158460952Y-90464285D01*
X158508571Y-90511904D01*
X158603809Y-90559523D01*
X158841904Y-90559523D01*
X158937142Y-90511904D01*
X158984761Y-90464285D01*
X159032380Y-90369047D01*
X159032380Y-90083333D01*
X158984761Y-89988095D01*
X158937142Y-89940476D01*
X158460952Y-91130952D02*
X158413333Y-91035714D01*
X158365714Y-90988095D01*
X158270476Y-90940476D01*
X158222857Y-90940476D01*
X158127619Y-90988095D01*
X158080000Y-91035714D01*
X158032380Y-91130952D01*
X158032380Y-91321428D01*
X158080000Y-91416666D01*
X158127619Y-91464285D01*
X158222857Y-91511904D01*
X158270476Y-91511904D01*
X158365714Y-91464285D01*
X158413333Y-91416666D01*
X158460952Y-91321428D01*
X158460952Y-91130952D01*
X158508571Y-91035714D01*
X158556190Y-90988095D01*
X158651428Y-90940476D01*
X158841904Y-90940476D01*
X158937142Y-90988095D01*
X158984761Y-91035714D01*
X159032380Y-91130952D01*
X159032380Y-91321428D01*
X158984761Y-91416666D01*
X158937142Y-91464285D01*
X158841904Y-91511904D01*
X158651428Y-91511904D01*
X158556190Y-91464285D01*
X158508571Y-91416666D01*
X158460952Y-91321428D01*
X143937142Y-89107142D02*
X143984761Y-89059523D01*
X144032380Y-88916666D01*
X144032380Y-88821428D01*
X143984761Y-88678571D01*
X143889523Y-88583333D01*
X143794285Y-88535714D01*
X143603809Y-88488095D01*
X143460952Y-88488095D01*
X143270476Y-88535714D01*
X143175238Y-88583333D01*
X143080000Y-88678571D01*
X143032380Y-88821428D01*
X143032380Y-88916666D01*
X143080000Y-89059523D01*
X143127619Y-89107142D01*
X143032380Y-89440476D02*
X143032380Y-90059523D01*
X143413333Y-89726190D01*
X143413333Y-89869047D01*
X143460952Y-89964285D01*
X143508571Y-90011904D01*
X143603809Y-90059523D01*
X143841904Y-90059523D01*
X143937142Y-90011904D01*
X143984761Y-89964285D01*
X144032380Y-89869047D01*
X144032380Y-89583333D01*
X143984761Y-89488095D01*
X143937142Y-89440476D01*
X143032380Y-90392857D02*
X143032380Y-91059523D01*
X144032380Y-90630952D01*
X128937142Y-89107142D02*
X128984761Y-89059523D01*
X129032380Y-88916666D01*
X129032380Y-88821428D01*
X128984761Y-88678571D01*
X128889523Y-88583333D01*
X128794285Y-88535714D01*
X128603809Y-88488095D01*
X128460952Y-88488095D01*
X128270476Y-88535714D01*
X128175238Y-88583333D01*
X128080000Y-88678571D01*
X128032380Y-88821428D01*
X128032380Y-88916666D01*
X128080000Y-89059523D01*
X128127619Y-89107142D01*
X128032380Y-89440476D02*
X128032380Y-90059523D01*
X128413333Y-89726190D01*
X128413333Y-89869047D01*
X128460952Y-89964285D01*
X128508571Y-90011904D01*
X128603809Y-90059523D01*
X128841904Y-90059523D01*
X128937142Y-90011904D01*
X128984761Y-89964285D01*
X129032380Y-89869047D01*
X129032380Y-89583333D01*
X128984761Y-89488095D01*
X128937142Y-89440476D01*
X128032380Y-90916666D02*
X128032380Y-90726190D01*
X128080000Y-90630952D01*
X128127619Y-90583333D01*
X128270476Y-90488095D01*
X128460952Y-90440476D01*
X128841904Y-90440476D01*
X128937142Y-90488095D01*
X128984761Y-90535714D01*
X129032380Y-90630952D01*
X129032380Y-90821428D01*
X128984761Y-90916666D01*
X128937142Y-90964285D01*
X128841904Y-91011904D01*
X128603809Y-91011904D01*
X128508571Y-90964285D01*
X128460952Y-90916666D01*
X128413333Y-90821428D01*
X128413333Y-90630952D01*
X128460952Y-90535714D01*
X128508571Y-90488095D01*
X128603809Y-90440476D01*
X113937142Y-89107142D02*
X113984761Y-89059523D01*
X114032380Y-88916666D01*
X114032380Y-88821428D01*
X113984761Y-88678571D01*
X113889523Y-88583333D01*
X113794285Y-88535714D01*
X113603809Y-88488095D01*
X113460952Y-88488095D01*
X113270476Y-88535714D01*
X113175238Y-88583333D01*
X113080000Y-88678571D01*
X113032380Y-88821428D01*
X113032380Y-88916666D01*
X113080000Y-89059523D01*
X113127619Y-89107142D01*
X113032380Y-89440476D02*
X113032380Y-90059523D01*
X113413333Y-89726190D01*
X113413333Y-89869047D01*
X113460952Y-89964285D01*
X113508571Y-90011904D01*
X113603809Y-90059523D01*
X113841904Y-90059523D01*
X113937142Y-90011904D01*
X113984761Y-89964285D01*
X114032380Y-89869047D01*
X114032380Y-89583333D01*
X113984761Y-89488095D01*
X113937142Y-89440476D01*
X113032380Y-90964285D02*
X113032380Y-90488095D01*
X113508571Y-90440476D01*
X113460952Y-90488095D01*
X113413333Y-90583333D01*
X113413333Y-90821428D01*
X113460952Y-90916666D01*
X113508571Y-90964285D01*
X113603809Y-91011904D01*
X113841904Y-91011904D01*
X113937142Y-90964285D01*
X113984761Y-90916666D01*
X114032380Y-90821428D01*
X114032380Y-90583333D01*
X113984761Y-90488095D01*
X113937142Y-90440476D01*
X98937142Y-89607142D02*
X98984761Y-89559523D01*
X99032380Y-89416666D01*
X99032380Y-89321428D01*
X98984761Y-89178571D01*
X98889523Y-89083333D01*
X98794285Y-89035714D01*
X98603809Y-88988095D01*
X98460952Y-88988095D01*
X98270476Y-89035714D01*
X98175238Y-89083333D01*
X98080000Y-89178571D01*
X98032380Y-89321428D01*
X98032380Y-89416666D01*
X98080000Y-89559523D01*
X98127619Y-89607142D01*
X98032380Y-89940476D02*
X98032380Y-90559523D01*
X98413333Y-90226190D01*
X98413333Y-90369047D01*
X98460952Y-90464285D01*
X98508571Y-90511904D01*
X98603809Y-90559523D01*
X98841904Y-90559523D01*
X98937142Y-90511904D01*
X98984761Y-90464285D01*
X99032380Y-90369047D01*
X99032380Y-90083333D01*
X98984761Y-89988095D01*
X98937142Y-89940476D01*
X98365714Y-91416666D02*
X99032380Y-91416666D01*
X97984761Y-91178571D02*
X98699047Y-90940476D01*
X98699047Y-91559523D01*
X83937142Y-90107142D02*
X83984761Y-90059523D01*
X84032380Y-89916666D01*
X84032380Y-89821428D01*
X83984761Y-89678571D01*
X83889523Y-89583333D01*
X83794285Y-89535714D01*
X83603809Y-89488095D01*
X83460952Y-89488095D01*
X83270476Y-89535714D01*
X83175238Y-89583333D01*
X83080000Y-89678571D01*
X83032380Y-89821428D01*
X83032380Y-89916666D01*
X83080000Y-90059523D01*
X83127619Y-90107142D01*
X83032380Y-90440476D02*
X83032380Y-91059523D01*
X83413333Y-90726190D01*
X83413333Y-90869047D01*
X83460952Y-90964285D01*
X83508571Y-91011904D01*
X83603809Y-91059523D01*
X83841904Y-91059523D01*
X83937142Y-91011904D01*
X83984761Y-90964285D01*
X84032380Y-90869047D01*
X84032380Y-90583333D01*
X83984761Y-90488095D01*
X83937142Y-90440476D01*
X83032380Y-91392857D02*
X83032380Y-92011904D01*
X83413333Y-91678571D01*
X83413333Y-91821428D01*
X83460952Y-91916666D01*
X83508571Y-91964285D01*
X83603809Y-92011904D01*
X83841904Y-92011904D01*
X83937142Y-91964285D01*
X83984761Y-91916666D01*
X84032380Y-91821428D01*
X84032380Y-91535714D01*
X83984761Y-91440476D01*
X83937142Y-91392857D01*
X68937142Y-89107142D02*
X68984761Y-89059523D01*
X69032380Y-88916666D01*
X69032380Y-88821428D01*
X68984761Y-88678571D01*
X68889523Y-88583333D01*
X68794285Y-88535714D01*
X68603809Y-88488095D01*
X68460952Y-88488095D01*
X68270476Y-88535714D01*
X68175238Y-88583333D01*
X68080000Y-88678571D01*
X68032380Y-88821428D01*
X68032380Y-88916666D01*
X68080000Y-89059523D01*
X68127619Y-89107142D01*
X68032380Y-89440476D02*
X68032380Y-90059523D01*
X68413333Y-89726190D01*
X68413333Y-89869047D01*
X68460952Y-89964285D01*
X68508571Y-90011904D01*
X68603809Y-90059523D01*
X68841904Y-90059523D01*
X68937142Y-90011904D01*
X68984761Y-89964285D01*
X69032380Y-89869047D01*
X69032380Y-89583333D01*
X68984761Y-89488095D01*
X68937142Y-89440476D01*
X68127619Y-90440476D02*
X68080000Y-90488095D01*
X68032380Y-90583333D01*
X68032380Y-90821428D01*
X68080000Y-90916666D01*
X68127619Y-90964285D01*
X68222857Y-91011904D01*
X68318095Y-91011904D01*
X68460952Y-90964285D01*
X69032380Y-90392857D01*
X69032380Y-91011904D01*
X158937142Y-109107142D02*
X158984761Y-109059523D01*
X159032380Y-108916666D01*
X159032380Y-108821428D01*
X158984761Y-108678571D01*
X158889523Y-108583333D01*
X158794285Y-108535714D01*
X158603809Y-108488095D01*
X158460952Y-108488095D01*
X158270476Y-108535714D01*
X158175238Y-108583333D01*
X158080000Y-108678571D01*
X158032380Y-108821428D01*
X158032380Y-108916666D01*
X158080000Y-109059523D01*
X158127619Y-109107142D01*
X158032380Y-109440476D02*
X158032380Y-110059523D01*
X158413333Y-109726190D01*
X158413333Y-109869047D01*
X158460952Y-109964285D01*
X158508571Y-110011904D01*
X158603809Y-110059523D01*
X158841904Y-110059523D01*
X158937142Y-110011904D01*
X158984761Y-109964285D01*
X159032380Y-109869047D01*
X159032380Y-109583333D01*
X158984761Y-109488095D01*
X158937142Y-109440476D01*
X159032380Y-111011904D02*
X159032380Y-110440476D01*
X159032380Y-110726190D02*
X158032380Y-110726190D01*
X158175238Y-110630952D01*
X158270476Y-110535714D01*
X158318095Y-110440476D01*
X143937142Y-109107142D02*
X143984761Y-109059523D01*
X144032380Y-108916666D01*
X144032380Y-108821428D01*
X143984761Y-108678571D01*
X143889523Y-108583333D01*
X143794285Y-108535714D01*
X143603809Y-108488095D01*
X143460952Y-108488095D01*
X143270476Y-108535714D01*
X143175238Y-108583333D01*
X143080000Y-108678571D01*
X143032380Y-108821428D01*
X143032380Y-108916666D01*
X143080000Y-109059523D01*
X143127619Y-109107142D01*
X143032380Y-109440476D02*
X143032380Y-110059523D01*
X143413333Y-109726190D01*
X143413333Y-109869047D01*
X143460952Y-109964285D01*
X143508571Y-110011904D01*
X143603809Y-110059523D01*
X143841904Y-110059523D01*
X143937142Y-110011904D01*
X143984761Y-109964285D01*
X144032380Y-109869047D01*
X144032380Y-109583333D01*
X143984761Y-109488095D01*
X143937142Y-109440476D01*
X143032380Y-110678571D02*
X143032380Y-110773809D01*
X143080000Y-110869047D01*
X143127619Y-110916666D01*
X143222857Y-110964285D01*
X143413333Y-111011904D01*
X143651428Y-111011904D01*
X143841904Y-110964285D01*
X143937142Y-110916666D01*
X143984761Y-110869047D01*
X144032380Y-110773809D01*
X144032380Y-110678571D01*
X143984761Y-110583333D01*
X143937142Y-110535714D01*
X143841904Y-110488095D01*
X143651428Y-110440476D01*
X143413333Y-110440476D01*
X143222857Y-110488095D01*
X143127619Y-110535714D01*
X143080000Y-110583333D01*
X143032380Y-110678571D01*
X128937142Y-109607142D02*
X128984761Y-109559523D01*
X129032380Y-109416666D01*
X129032380Y-109321428D01*
X128984761Y-109178571D01*
X128889523Y-109083333D01*
X128794285Y-109035714D01*
X128603809Y-108988095D01*
X128460952Y-108988095D01*
X128270476Y-109035714D01*
X128175238Y-109083333D01*
X128080000Y-109178571D01*
X128032380Y-109321428D01*
X128032380Y-109416666D01*
X128080000Y-109559523D01*
X128127619Y-109607142D01*
X128127619Y-109988095D02*
X128080000Y-110035714D01*
X128032380Y-110130952D01*
X128032380Y-110369047D01*
X128080000Y-110464285D01*
X128127619Y-110511904D01*
X128222857Y-110559523D01*
X128318095Y-110559523D01*
X128460952Y-110511904D01*
X129032380Y-109940476D01*
X129032380Y-110559523D01*
X129032380Y-111035714D02*
X129032380Y-111226190D01*
X128984761Y-111321428D01*
X128937142Y-111369047D01*
X128794285Y-111464285D01*
X128603809Y-111511904D01*
X128222857Y-111511904D01*
X128127619Y-111464285D01*
X128080000Y-111416666D01*
X128032380Y-111321428D01*
X128032380Y-111130952D01*
X128080000Y-111035714D01*
X128127619Y-110988095D01*
X128222857Y-110940476D01*
X128460952Y-110940476D01*
X128556190Y-110988095D01*
X128603809Y-111035714D01*
X128651428Y-111130952D01*
X128651428Y-111321428D01*
X128603809Y-111416666D01*
X128556190Y-111464285D01*
X128460952Y-111511904D01*
X113937142Y-110107142D02*
X113984761Y-110059523D01*
X114032380Y-109916666D01*
X114032380Y-109821428D01*
X113984761Y-109678571D01*
X113889523Y-109583333D01*
X113794285Y-109535714D01*
X113603809Y-109488095D01*
X113460952Y-109488095D01*
X113270476Y-109535714D01*
X113175238Y-109583333D01*
X113080000Y-109678571D01*
X113032380Y-109821428D01*
X113032380Y-109916666D01*
X113080000Y-110059523D01*
X113127619Y-110107142D01*
X113127619Y-110488095D02*
X113080000Y-110535714D01*
X113032380Y-110630952D01*
X113032380Y-110869047D01*
X113080000Y-110964285D01*
X113127619Y-111011904D01*
X113222857Y-111059523D01*
X113318095Y-111059523D01*
X113460952Y-111011904D01*
X114032380Y-110440476D01*
X114032380Y-111059523D01*
X113460952Y-111630952D02*
X113413333Y-111535714D01*
X113365714Y-111488095D01*
X113270476Y-111440476D01*
X113222857Y-111440476D01*
X113127619Y-111488095D01*
X113080000Y-111535714D01*
X113032380Y-111630952D01*
X113032380Y-111821428D01*
X113080000Y-111916666D01*
X113127619Y-111964285D01*
X113222857Y-112011904D01*
X113270476Y-112011904D01*
X113365714Y-111964285D01*
X113413333Y-111916666D01*
X113460952Y-111821428D01*
X113460952Y-111630952D01*
X113508571Y-111535714D01*
X113556190Y-111488095D01*
X113651428Y-111440476D01*
X113841904Y-111440476D01*
X113937142Y-111488095D01*
X113984761Y-111535714D01*
X114032380Y-111630952D01*
X114032380Y-111821428D01*
X113984761Y-111916666D01*
X113937142Y-111964285D01*
X113841904Y-112011904D01*
X113651428Y-112011904D01*
X113556190Y-111964285D01*
X113508571Y-111916666D01*
X113460952Y-111821428D01*
X98937142Y-109607142D02*
X98984761Y-109559523D01*
X99032380Y-109416666D01*
X99032380Y-109321428D01*
X98984761Y-109178571D01*
X98889523Y-109083333D01*
X98794285Y-109035714D01*
X98603809Y-108988095D01*
X98460952Y-108988095D01*
X98270476Y-109035714D01*
X98175238Y-109083333D01*
X98080000Y-109178571D01*
X98032380Y-109321428D01*
X98032380Y-109416666D01*
X98080000Y-109559523D01*
X98127619Y-109607142D01*
X98127619Y-109988095D02*
X98080000Y-110035714D01*
X98032380Y-110130952D01*
X98032380Y-110369047D01*
X98080000Y-110464285D01*
X98127619Y-110511904D01*
X98222857Y-110559523D01*
X98318095Y-110559523D01*
X98460952Y-110511904D01*
X99032380Y-109940476D01*
X99032380Y-110559523D01*
X98032380Y-110892857D02*
X98032380Y-111559523D01*
X99032380Y-111130952D01*
X83937142Y-109607142D02*
X83984761Y-109559523D01*
X84032380Y-109416666D01*
X84032380Y-109321428D01*
X83984761Y-109178571D01*
X83889523Y-109083333D01*
X83794285Y-109035714D01*
X83603809Y-108988095D01*
X83460952Y-108988095D01*
X83270476Y-109035714D01*
X83175238Y-109083333D01*
X83080000Y-109178571D01*
X83032380Y-109321428D01*
X83032380Y-109416666D01*
X83080000Y-109559523D01*
X83127619Y-109607142D01*
X83127619Y-109988095D02*
X83080000Y-110035714D01*
X83032380Y-110130952D01*
X83032380Y-110369047D01*
X83080000Y-110464285D01*
X83127619Y-110511904D01*
X83222857Y-110559523D01*
X83318095Y-110559523D01*
X83460952Y-110511904D01*
X84032380Y-109940476D01*
X84032380Y-110559523D01*
X83032380Y-111416666D02*
X83032380Y-111226190D01*
X83080000Y-111130952D01*
X83127619Y-111083333D01*
X83270476Y-110988095D01*
X83460952Y-110940476D01*
X83841904Y-110940476D01*
X83937142Y-110988095D01*
X83984761Y-111035714D01*
X84032380Y-111130952D01*
X84032380Y-111321428D01*
X83984761Y-111416666D01*
X83937142Y-111464285D01*
X83841904Y-111511904D01*
X83603809Y-111511904D01*
X83508571Y-111464285D01*
X83460952Y-111416666D01*
X83413333Y-111321428D01*
X83413333Y-111130952D01*
X83460952Y-111035714D01*
X83508571Y-110988095D01*
X83603809Y-110940476D01*
X68937142Y-108607142D02*
X68984761Y-108559523D01*
X69032380Y-108416666D01*
X69032380Y-108321428D01*
X68984761Y-108178571D01*
X68889523Y-108083333D01*
X68794285Y-108035714D01*
X68603809Y-107988095D01*
X68460952Y-107988095D01*
X68270476Y-108035714D01*
X68175238Y-108083333D01*
X68080000Y-108178571D01*
X68032380Y-108321428D01*
X68032380Y-108416666D01*
X68080000Y-108559523D01*
X68127619Y-108607142D01*
X68127619Y-108988095D02*
X68080000Y-109035714D01*
X68032380Y-109130952D01*
X68032380Y-109369047D01*
X68080000Y-109464285D01*
X68127619Y-109511904D01*
X68222857Y-109559523D01*
X68318095Y-109559523D01*
X68460952Y-109511904D01*
X69032380Y-108940476D01*
X69032380Y-109559523D01*
X68032380Y-110464285D02*
X68032380Y-109988095D01*
X68508571Y-109940476D01*
X68460952Y-109988095D01*
X68413333Y-110083333D01*
X68413333Y-110321428D01*
X68460952Y-110416666D01*
X68508571Y-110464285D01*
X68603809Y-110511904D01*
X68841904Y-110511904D01*
X68937142Y-110464285D01*
X68984761Y-110416666D01*
X69032380Y-110321428D01*
X69032380Y-110083333D01*
X68984761Y-109988095D01*
X68937142Y-109940476D01*
X53937142Y-109107142D02*
X53984761Y-109059523D01*
X54032380Y-108916666D01*
X54032380Y-108821428D01*
X53984761Y-108678571D01*
X53889523Y-108583333D01*
X53794285Y-108535714D01*
X53603809Y-108488095D01*
X53460952Y-108488095D01*
X53270476Y-108535714D01*
X53175238Y-108583333D01*
X53080000Y-108678571D01*
X53032380Y-108821428D01*
X53032380Y-108916666D01*
X53080000Y-109059523D01*
X53127619Y-109107142D01*
X53127619Y-109488095D02*
X53080000Y-109535714D01*
X53032380Y-109630952D01*
X53032380Y-109869047D01*
X53080000Y-109964285D01*
X53127619Y-110011904D01*
X53222857Y-110059523D01*
X53318095Y-110059523D01*
X53460952Y-110011904D01*
X54032380Y-109440476D01*
X54032380Y-110059523D01*
X53365714Y-110916666D02*
X54032380Y-110916666D01*
X52984761Y-110678571D02*
X53699047Y-110440476D01*
X53699047Y-111059523D01*
X158937142Y-69107142D02*
X158984761Y-69059523D01*
X159032380Y-68916666D01*
X159032380Y-68821428D01*
X158984761Y-68678571D01*
X158889523Y-68583333D01*
X158794285Y-68535714D01*
X158603809Y-68488095D01*
X158460952Y-68488095D01*
X158270476Y-68535714D01*
X158175238Y-68583333D01*
X158080000Y-68678571D01*
X158032380Y-68821428D01*
X158032380Y-68916666D01*
X158080000Y-69059523D01*
X158127619Y-69107142D01*
X158127619Y-69488095D02*
X158080000Y-69535714D01*
X158032380Y-69630952D01*
X158032380Y-69869047D01*
X158080000Y-69964285D01*
X158127619Y-70011904D01*
X158222857Y-70059523D01*
X158318095Y-70059523D01*
X158460952Y-70011904D01*
X159032380Y-69440476D01*
X159032380Y-70059523D01*
X158127619Y-70440476D02*
X158080000Y-70488095D01*
X158032380Y-70583333D01*
X158032380Y-70821428D01*
X158080000Y-70916666D01*
X158127619Y-70964285D01*
X158222857Y-71011904D01*
X158318095Y-71011904D01*
X158460952Y-70964285D01*
X159032380Y-70392857D01*
X159032380Y-71011904D01*
X143937142Y-70107142D02*
X143984761Y-70059523D01*
X144032380Y-69916666D01*
X144032380Y-69821428D01*
X143984761Y-69678571D01*
X143889523Y-69583333D01*
X143794285Y-69535714D01*
X143603809Y-69488095D01*
X143460952Y-69488095D01*
X143270476Y-69535714D01*
X143175238Y-69583333D01*
X143080000Y-69678571D01*
X143032380Y-69821428D01*
X143032380Y-69916666D01*
X143080000Y-70059523D01*
X143127619Y-70107142D01*
X143127619Y-70488095D02*
X143080000Y-70535714D01*
X143032380Y-70630952D01*
X143032380Y-70869047D01*
X143080000Y-70964285D01*
X143127619Y-71011904D01*
X143222857Y-71059523D01*
X143318095Y-71059523D01*
X143460952Y-71011904D01*
X144032380Y-70440476D01*
X144032380Y-71059523D01*
X144032380Y-72011904D02*
X144032380Y-71440476D01*
X144032380Y-71726190D02*
X143032380Y-71726190D01*
X143175238Y-71630952D01*
X143270476Y-71535714D01*
X143318095Y-71440476D01*
X128937142Y-69607142D02*
X128984761Y-69559523D01*
X129032380Y-69416666D01*
X129032380Y-69321428D01*
X128984761Y-69178571D01*
X128889523Y-69083333D01*
X128794285Y-69035714D01*
X128603809Y-68988095D01*
X128460952Y-68988095D01*
X128270476Y-69035714D01*
X128175238Y-69083333D01*
X128080000Y-69178571D01*
X128032380Y-69321428D01*
X128032380Y-69416666D01*
X128080000Y-69559523D01*
X128127619Y-69607142D01*
X128127619Y-69988095D02*
X128080000Y-70035714D01*
X128032380Y-70130952D01*
X128032380Y-70369047D01*
X128080000Y-70464285D01*
X128127619Y-70511904D01*
X128222857Y-70559523D01*
X128318095Y-70559523D01*
X128460952Y-70511904D01*
X129032380Y-69940476D01*
X129032380Y-70559523D01*
X128032380Y-71178571D02*
X128032380Y-71273809D01*
X128080000Y-71369047D01*
X128127619Y-71416666D01*
X128222857Y-71464285D01*
X128413333Y-71511904D01*
X128651428Y-71511904D01*
X128841904Y-71464285D01*
X128937142Y-71416666D01*
X128984761Y-71369047D01*
X129032380Y-71273809D01*
X129032380Y-71178571D01*
X128984761Y-71083333D01*
X128937142Y-71035714D01*
X128841904Y-70988095D01*
X128651428Y-70940476D01*
X128413333Y-70940476D01*
X128222857Y-70988095D01*
X128127619Y-71035714D01*
X128080000Y-71083333D01*
X128032380Y-71178571D01*
X113937142Y-69107142D02*
X113984761Y-69059523D01*
X114032380Y-68916666D01*
X114032380Y-68821428D01*
X113984761Y-68678571D01*
X113889523Y-68583333D01*
X113794285Y-68535714D01*
X113603809Y-68488095D01*
X113460952Y-68488095D01*
X113270476Y-68535714D01*
X113175238Y-68583333D01*
X113080000Y-68678571D01*
X113032380Y-68821428D01*
X113032380Y-68916666D01*
X113080000Y-69059523D01*
X113127619Y-69107142D01*
X114032380Y-70059523D02*
X114032380Y-69488095D01*
X114032380Y-69773809D02*
X113032380Y-69773809D01*
X113175238Y-69678571D01*
X113270476Y-69583333D01*
X113318095Y-69488095D01*
X114032380Y-70535714D02*
X114032380Y-70726190D01*
X113984761Y-70821428D01*
X113937142Y-70869047D01*
X113794285Y-70964285D01*
X113603809Y-71011904D01*
X113222857Y-71011904D01*
X113127619Y-70964285D01*
X113080000Y-70916666D01*
X113032380Y-70821428D01*
X113032380Y-70630952D01*
X113080000Y-70535714D01*
X113127619Y-70488095D01*
X113222857Y-70440476D01*
X113460952Y-70440476D01*
X113556190Y-70488095D01*
X113603809Y-70535714D01*
X113651428Y-70630952D01*
X113651428Y-70821428D01*
X113603809Y-70916666D01*
X113556190Y-70964285D01*
X113460952Y-71011904D01*
X98937142Y-69607142D02*
X98984761Y-69559523D01*
X99032380Y-69416666D01*
X99032380Y-69321428D01*
X98984761Y-69178571D01*
X98889523Y-69083333D01*
X98794285Y-69035714D01*
X98603809Y-68988095D01*
X98460952Y-68988095D01*
X98270476Y-69035714D01*
X98175238Y-69083333D01*
X98080000Y-69178571D01*
X98032380Y-69321428D01*
X98032380Y-69416666D01*
X98080000Y-69559523D01*
X98127619Y-69607142D01*
X99032380Y-70559523D02*
X99032380Y-69988095D01*
X99032380Y-70273809D02*
X98032380Y-70273809D01*
X98175238Y-70178571D01*
X98270476Y-70083333D01*
X98318095Y-69988095D01*
X98460952Y-71130952D02*
X98413333Y-71035714D01*
X98365714Y-70988095D01*
X98270476Y-70940476D01*
X98222857Y-70940476D01*
X98127619Y-70988095D01*
X98080000Y-71035714D01*
X98032380Y-71130952D01*
X98032380Y-71321428D01*
X98080000Y-71416666D01*
X98127619Y-71464285D01*
X98222857Y-71511904D01*
X98270476Y-71511904D01*
X98365714Y-71464285D01*
X98413333Y-71416666D01*
X98460952Y-71321428D01*
X98460952Y-71130952D01*
X98508571Y-71035714D01*
X98556190Y-70988095D01*
X98651428Y-70940476D01*
X98841904Y-70940476D01*
X98937142Y-70988095D01*
X98984761Y-71035714D01*
X99032380Y-71130952D01*
X99032380Y-71321428D01*
X98984761Y-71416666D01*
X98937142Y-71464285D01*
X98841904Y-71511904D01*
X98651428Y-71511904D01*
X98556190Y-71464285D01*
X98508571Y-71416666D01*
X98460952Y-71321428D01*
X83937142Y-69607142D02*
X83984761Y-69559523D01*
X84032380Y-69416666D01*
X84032380Y-69321428D01*
X83984761Y-69178571D01*
X83889523Y-69083333D01*
X83794285Y-69035714D01*
X83603809Y-68988095D01*
X83460952Y-68988095D01*
X83270476Y-69035714D01*
X83175238Y-69083333D01*
X83080000Y-69178571D01*
X83032380Y-69321428D01*
X83032380Y-69416666D01*
X83080000Y-69559523D01*
X83127619Y-69607142D01*
X84032380Y-70559523D02*
X84032380Y-69988095D01*
X84032380Y-70273809D02*
X83032380Y-70273809D01*
X83175238Y-70178571D01*
X83270476Y-70083333D01*
X83318095Y-69988095D01*
X83032380Y-70892857D02*
X83032380Y-71559523D01*
X84032380Y-71130952D01*
X68937142Y-69107142D02*
X68984761Y-69059523D01*
X69032380Y-68916666D01*
X69032380Y-68821428D01*
X68984761Y-68678571D01*
X68889523Y-68583333D01*
X68794285Y-68535714D01*
X68603809Y-68488095D01*
X68460952Y-68488095D01*
X68270476Y-68535714D01*
X68175238Y-68583333D01*
X68080000Y-68678571D01*
X68032380Y-68821428D01*
X68032380Y-68916666D01*
X68080000Y-69059523D01*
X68127619Y-69107142D01*
X69032380Y-70059523D02*
X69032380Y-69488095D01*
X69032380Y-69773809D02*
X68032380Y-69773809D01*
X68175238Y-69678571D01*
X68270476Y-69583333D01*
X68318095Y-69488095D01*
X68032380Y-70916666D02*
X68032380Y-70726190D01*
X68080000Y-70630952D01*
X68127619Y-70583333D01*
X68270476Y-70488095D01*
X68460952Y-70440476D01*
X68841904Y-70440476D01*
X68937142Y-70488095D01*
X68984761Y-70535714D01*
X69032380Y-70630952D01*
X69032380Y-70821428D01*
X68984761Y-70916666D01*
X68937142Y-70964285D01*
X68841904Y-71011904D01*
X68603809Y-71011904D01*
X68508571Y-70964285D01*
X68460952Y-70916666D01*
X68413333Y-70821428D01*
X68413333Y-70630952D01*
X68460952Y-70535714D01*
X68508571Y-70488095D01*
X68603809Y-70440476D01*
X53937142Y-69607142D02*
X53984761Y-69559523D01*
X54032380Y-69416666D01*
X54032380Y-69321428D01*
X53984761Y-69178571D01*
X53889523Y-69083333D01*
X53794285Y-69035714D01*
X53603809Y-68988095D01*
X53460952Y-68988095D01*
X53270476Y-69035714D01*
X53175238Y-69083333D01*
X53080000Y-69178571D01*
X53032380Y-69321428D01*
X53032380Y-69416666D01*
X53080000Y-69559523D01*
X53127619Y-69607142D01*
X54032380Y-70559523D02*
X54032380Y-69988095D01*
X54032380Y-70273809D02*
X53032380Y-70273809D01*
X53175238Y-70178571D01*
X53270476Y-70083333D01*
X53318095Y-69988095D01*
X53032380Y-71464285D02*
X53032380Y-70988095D01*
X53508571Y-70940476D01*
X53460952Y-70988095D01*
X53413333Y-71083333D01*
X53413333Y-71321428D01*
X53460952Y-71416666D01*
X53508571Y-71464285D01*
X53603809Y-71511904D01*
X53841904Y-71511904D01*
X53937142Y-71464285D01*
X53984761Y-71416666D01*
X54032380Y-71321428D01*
X54032380Y-71083333D01*
X53984761Y-70988095D01*
X53937142Y-70940476D01*
X158937142Y-49107142D02*
X158984761Y-49059523D01*
X159032380Y-48916666D01*
X159032380Y-48821428D01*
X158984761Y-48678571D01*
X158889523Y-48583333D01*
X158794285Y-48535714D01*
X158603809Y-48488095D01*
X158460952Y-48488095D01*
X158270476Y-48535714D01*
X158175238Y-48583333D01*
X158080000Y-48678571D01*
X158032380Y-48821428D01*
X158032380Y-48916666D01*
X158080000Y-49059523D01*
X158127619Y-49107142D01*
X159032380Y-50059523D02*
X159032380Y-49488095D01*
X159032380Y-49773809D02*
X158032380Y-49773809D01*
X158175238Y-49678571D01*
X158270476Y-49583333D01*
X158318095Y-49488095D01*
X158365714Y-50916666D02*
X159032380Y-50916666D01*
X157984761Y-50678571D02*
X158699047Y-50440476D01*
X158699047Y-51059523D01*
X143937142Y-49107142D02*
X143984761Y-49059523D01*
X144032380Y-48916666D01*
X144032380Y-48821428D01*
X143984761Y-48678571D01*
X143889523Y-48583333D01*
X143794285Y-48535714D01*
X143603809Y-48488095D01*
X143460952Y-48488095D01*
X143270476Y-48535714D01*
X143175238Y-48583333D01*
X143080000Y-48678571D01*
X143032380Y-48821428D01*
X143032380Y-48916666D01*
X143080000Y-49059523D01*
X143127619Y-49107142D01*
X144032380Y-50059523D02*
X144032380Y-49488095D01*
X144032380Y-49773809D02*
X143032380Y-49773809D01*
X143175238Y-49678571D01*
X143270476Y-49583333D01*
X143318095Y-49488095D01*
X143032380Y-50392857D02*
X143032380Y-51011904D01*
X143413333Y-50678571D01*
X143413333Y-50821428D01*
X143460952Y-50916666D01*
X143508571Y-50964285D01*
X143603809Y-51011904D01*
X143841904Y-51011904D01*
X143937142Y-50964285D01*
X143984761Y-50916666D01*
X144032380Y-50821428D01*
X144032380Y-50535714D01*
X143984761Y-50440476D01*
X143937142Y-50392857D01*
X128937142Y-49107142D02*
X128984761Y-49059523D01*
X129032380Y-48916666D01*
X129032380Y-48821428D01*
X128984761Y-48678571D01*
X128889523Y-48583333D01*
X128794285Y-48535714D01*
X128603809Y-48488095D01*
X128460952Y-48488095D01*
X128270476Y-48535714D01*
X128175238Y-48583333D01*
X128080000Y-48678571D01*
X128032380Y-48821428D01*
X128032380Y-48916666D01*
X128080000Y-49059523D01*
X128127619Y-49107142D01*
X129032380Y-50059523D02*
X129032380Y-49488095D01*
X129032380Y-49773809D02*
X128032380Y-49773809D01*
X128175238Y-49678571D01*
X128270476Y-49583333D01*
X128318095Y-49488095D01*
X128127619Y-50440476D02*
X128080000Y-50488095D01*
X128032380Y-50583333D01*
X128032380Y-50821428D01*
X128080000Y-50916666D01*
X128127619Y-50964285D01*
X128222857Y-51011904D01*
X128318095Y-51011904D01*
X128460952Y-50964285D01*
X129032380Y-50392857D01*
X129032380Y-51011904D01*
X113937142Y-49107142D02*
X113984761Y-49059523D01*
X114032380Y-48916666D01*
X114032380Y-48821428D01*
X113984761Y-48678571D01*
X113889523Y-48583333D01*
X113794285Y-48535714D01*
X113603809Y-48488095D01*
X113460952Y-48488095D01*
X113270476Y-48535714D01*
X113175238Y-48583333D01*
X113080000Y-48678571D01*
X113032380Y-48821428D01*
X113032380Y-48916666D01*
X113080000Y-49059523D01*
X113127619Y-49107142D01*
X114032380Y-50059523D02*
X114032380Y-49488095D01*
X114032380Y-49773809D02*
X113032380Y-49773809D01*
X113175238Y-49678571D01*
X113270476Y-49583333D01*
X113318095Y-49488095D01*
X114032380Y-51011904D02*
X114032380Y-50440476D01*
X114032380Y-50726190D02*
X113032380Y-50726190D01*
X113175238Y-50630952D01*
X113270476Y-50535714D01*
X113318095Y-50440476D01*
X98937142Y-49207142D02*
X98984761Y-49159523D01*
X99032380Y-49016666D01*
X99032380Y-48921428D01*
X98984761Y-48778571D01*
X98889523Y-48683333D01*
X98794285Y-48635714D01*
X98603809Y-48588095D01*
X98460952Y-48588095D01*
X98270476Y-48635714D01*
X98175238Y-48683333D01*
X98080000Y-48778571D01*
X98032380Y-48921428D01*
X98032380Y-49016666D01*
X98080000Y-49159523D01*
X98127619Y-49207142D01*
X99032380Y-50159523D02*
X99032380Y-49588095D01*
X99032380Y-49873809D02*
X98032380Y-49873809D01*
X98175238Y-49778571D01*
X98270476Y-49683333D01*
X98318095Y-49588095D01*
X98032380Y-50778571D02*
X98032380Y-50873809D01*
X98080000Y-50969047D01*
X98127619Y-51016666D01*
X98222857Y-51064285D01*
X98413333Y-51111904D01*
X98651428Y-51111904D01*
X98841904Y-51064285D01*
X98937142Y-51016666D01*
X98984761Y-50969047D01*
X99032380Y-50873809D01*
X99032380Y-50778571D01*
X98984761Y-50683333D01*
X98937142Y-50635714D01*
X98841904Y-50588095D01*
X98651428Y-50540476D01*
X98413333Y-50540476D01*
X98222857Y-50588095D01*
X98127619Y-50635714D01*
X98080000Y-50683333D01*
X98032380Y-50778571D01*
X83937142Y-50083333D02*
X83984761Y-50035714D01*
X84032380Y-49892857D01*
X84032380Y-49797619D01*
X83984761Y-49654761D01*
X83889523Y-49559523D01*
X83794285Y-49511904D01*
X83603809Y-49464285D01*
X83460952Y-49464285D01*
X83270476Y-49511904D01*
X83175238Y-49559523D01*
X83080000Y-49654761D01*
X83032380Y-49797619D01*
X83032380Y-49892857D01*
X83080000Y-50035714D01*
X83127619Y-50083333D01*
X84032380Y-50559523D02*
X84032380Y-50750000D01*
X83984761Y-50845238D01*
X83937142Y-50892857D01*
X83794285Y-50988095D01*
X83603809Y-51035714D01*
X83222857Y-51035714D01*
X83127619Y-50988095D01*
X83080000Y-50940476D01*
X83032380Y-50845238D01*
X83032380Y-50654761D01*
X83080000Y-50559523D01*
X83127619Y-50511904D01*
X83222857Y-50464285D01*
X83460952Y-50464285D01*
X83556190Y-50511904D01*
X83603809Y-50559523D01*
X83651428Y-50654761D01*
X83651428Y-50845238D01*
X83603809Y-50940476D01*
X83556190Y-50988095D01*
X83460952Y-51035714D01*
X53937142Y-49583333D02*
X53984761Y-49535714D01*
X54032380Y-49392857D01*
X54032380Y-49297619D01*
X53984761Y-49154761D01*
X53889523Y-49059523D01*
X53794285Y-49011904D01*
X53603809Y-48964285D01*
X53460952Y-48964285D01*
X53270476Y-49011904D01*
X53175238Y-49059523D01*
X53080000Y-49154761D01*
X53032380Y-49297619D01*
X53032380Y-49392857D01*
X53080000Y-49535714D01*
X53127619Y-49583333D01*
X53460952Y-50154761D02*
X53413333Y-50059523D01*
X53365714Y-50011904D01*
X53270476Y-49964285D01*
X53222857Y-49964285D01*
X53127619Y-50011904D01*
X53080000Y-50059523D01*
X53032380Y-50154761D01*
X53032380Y-50345238D01*
X53080000Y-50440476D01*
X53127619Y-50488095D01*
X53222857Y-50535714D01*
X53270476Y-50535714D01*
X53365714Y-50488095D01*
X53413333Y-50440476D01*
X53460952Y-50345238D01*
X53460952Y-50154761D01*
X53508571Y-50059523D01*
X53556190Y-50011904D01*
X53651428Y-49964285D01*
X53841904Y-49964285D01*
X53937142Y-50011904D01*
X53984761Y-50059523D01*
X54032380Y-50154761D01*
X54032380Y-50345238D01*
X53984761Y-50440476D01*
X53937142Y-50488095D01*
X53841904Y-50535714D01*
X53651428Y-50535714D01*
X53556190Y-50488095D01*
X53508571Y-50440476D01*
X53460952Y-50345238D01*
X68937142Y-49583333D02*
X68984761Y-49535714D01*
X69032380Y-49392857D01*
X69032380Y-49297619D01*
X68984761Y-49154761D01*
X68889523Y-49059523D01*
X68794285Y-49011904D01*
X68603809Y-48964285D01*
X68460952Y-48964285D01*
X68270476Y-49011904D01*
X68175238Y-49059523D01*
X68080000Y-49154761D01*
X68032380Y-49297619D01*
X68032380Y-49392857D01*
X68080000Y-49535714D01*
X68127619Y-49583333D01*
X68032380Y-49916666D02*
X68032380Y-50583333D01*
X69032380Y-50154761D01*
X189716666Y-48137142D02*
X189764285Y-48184761D01*
X189907142Y-48232380D01*
X190002380Y-48232380D01*
X190145238Y-48184761D01*
X190240476Y-48089523D01*
X190288095Y-47994285D01*
X190335714Y-47803809D01*
X190335714Y-47660952D01*
X190288095Y-47470476D01*
X190240476Y-47375238D01*
X190145238Y-47280000D01*
X190002380Y-47232380D01*
X189907142Y-47232380D01*
X189764285Y-47280000D01*
X189716666Y-47327619D01*
X188859523Y-47232380D02*
X189050000Y-47232380D01*
X189145238Y-47280000D01*
X189192857Y-47327619D01*
X189288095Y-47470476D01*
X189335714Y-47660952D01*
X189335714Y-48041904D01*
X189288095Y-48137142D01*
X189240476Y-48184761D01*
X189145238Y-48232380D01*
X188954761Y-48232380D01*
X188859523Y-48184761D01*
X188811904Y-48137142D01*
X188764285Y-48041904D01*
X188764285Y-47803809D01*
X188811904Y-47708571D01*
X188859523Y-47660952D01*
X188954761Y-47613333D01*
X189145238Y-47613333D01*
X189240476Y-47660952D01*
X189288095Y-47708571D01*
X189335714Y-47803809D01*
X189716666Y-52233142D02*
X189764285Y-52280761D01*
X189907142Y-52328380D01*
X190002380Y-52328380D01*
X190145238Y-52280761D01*
X190240476Y-52185523D01*
X190288095Y-52090285D01*
X190335714Y-51899809D01*
X190335714Y-51756952D01*
X190288095Y-51566476D01*
X190240476Y-51471238D01*
X190145238Y-51376000D01*
X190002380Y-51328380D01*
X189907142Y-51328380D01*
X189764285Y-51376000D01*
X189716666Y-51423619D01*
X188811904Y-51328380D02*
X189288095Y-51328380D01*
X189335714Y-51804571D01*
X189288095Y-51756952D01*
X189192857Y-51709333D01*
X188954761Y-51709333D01*
X188859523Y-51756952D01*
X188811904Y-51804571D01*
X188764285Y-51899809D01*
X188764285Y-52137904D01*
X188811904Y-52233142D01*
X188859523Y-52280761D01*
X188954761Y-52328380D01*
X189192857Y-52328380D01*
X189288095Y-52280761D01*
X189335714Y-52233142D01*
X189716666Y-64521142D02*
X189764285Y-64568761D01*
X189907142Y-64616380D01*
X190002380Y-64616380D01*
X190145238Y-64568761D01*
X190240476Y-64473523D01*
X190288095Y-64378285D01*
X190335714Y-64187809D01*
X190335714Y-64044952D01*
X190288095Y-63854476D01*
X190240476Y-63759238D01*
X190145238Y-63664000D01*
X190002380Y-63616380D01*
X189907142Y-63616380D01*
X189764285Y-63664000D01*
X189716666Y-63711619D01*
X188859523Y-63949714D02*
X188859523Y-64616380D01*
X189097619Y-63568761D02*
X189335714Y-64283047D01*
X188716666Y-64283047D01*
X189716666Y-68617142D02*
X189764285Y-68664761D01*
X189907142Y-68712380D01*
X190002380Y-68712380D01*
X190145238Y-68664761D01*
X190240476Y-68569523D01*
X190288095Y-68474285D01*
X190335714Y-68283809D01*
X190335714Y-68140952D01*
X190288095Y-67950476D01*
X190240476Y-67855238D01*
X190145238Y-67760000D01*
X190002380Y-67712380D01*
X189907142Y-67712380D01*
X189764285Y-67760000D01*
X189716666Y-67807619D01*
X189383333Y-67712380D02*
X188764285Y-67712380D01*
X189097619Y-68093333D01*
X188954761Y-68093333D01*
X188859523Y-68140952D01*
X188811904Y-68188571D01*
X188764285Y-68283809D01*
X188764285Y-68521904D01*
X188811904Y-68617142D01*
X188859523Y-68664761D01*
X188954761Y-68712380D01*
X189240476Y-68712380D01*
X189335714Y-68664761D01*
X189383333Y-68617142D01*
X189716666Y-56329142D02*
X189764285Y-56376761D01*
X189907142Y-56424380D01*
X190002380Y-56424380D01*
X190145238Y-56376761D01*
X190240476Y-56281523D01*
X190288095Y-56186285D01*
X190335714Y-55995809D01*
X190335714Y-55852952D01*
X190288095Y-55662476D01*
X190240476Y-55567238D01*
X190145238Y-55472000D01*
X190002380Y-55424380D01*
X189907142Y-55424380D01*
X189764285Y-55472000D01*
X189716666Y-55519619D01*
X188764285Y-56424380D02*
X189335714Y-56424380D01*
X189050000Y-56424380D02*
X189050000Y-55424380D01*
X189145238Y-55567238D01*
X189240476Y-55662476D01*
X189335714Y-55710095D01*
X156122380Y-145048095D02*
X156931904Y-145048095D01*
X157027142Y-145095714D01*
X157074761Y-145143333D01*
X157122380Y-145238571D01*
X157122380Y-145429047D01*
X157074761Y-145524285D01*
X157027142Y-145571904D01*
X156931904Y-145619523D01*
X156122380Y-145619523D01*
X157122380Y-146619523D02*
X157122380Y-146048095D01*
X157122380Y-146333809D02*
X156122380Y-146333809D01*
X156265238Y-146238571D01*
X156360476Y-146143333D01*
X156408095Y-146048095D01*
X191352380Y-157490476D02*
X192066666Y-157490476D01*
X192209523Y-157442857D01*
X192304761Y-157347619D01*
X192352380Y-157204761D01*
X192352380Y-157109523D01*
X191352380Y-157871428D02*
X191352380Y-158490476D01*
X191733333Y-158157142D01*
X191733333Y-158300000D01*
X191780952Y-158395238D01*
X191828571Y-158442857D01*
X191923809Y-158490476D01*
X192161904Y-158490476D01*
X192257142Y-158442857D01*
X192304761Y-158395238D01*
X192352380Y-158300000D01*
X192352380Y-158014285D01*
X192304761Y-157919047D01*
X192257142Y-157871428D01*
X191352380Y-159347619D02*
X191352380Y-159157142D01*
X191400000Y-159061904D01*
X191447619Y-159014285D01*
X191590476Y-158919047D01*
X191780952Y-158871428D01*
X192161904Y-158871428D01*
X192257142Y-158919047D01*
X192304761Y-158966666D01*
X192352380Y-159061904D01*
X192352380Y-159252380D01*
X192304761Y-159347619D01*
X192257142Y-159395238D01*
X192161904Y-159442857D01*
X191923809Y-159442857D01*
X191828571Y-159395238D01*
X191780952Y-159347619D01*
X191733333Y-159252380D01*
X191733333Y-159061904D01*
X191780952Y-158966666D01*
X191828571Y-158919047D01*
X191923809Y-158871428D01*
X157422380Y-156690476D02*
X158136666Y-156690476D01*
X158279523Y-156642857D01*
X158374761Y-156547619D01*
X158422380Y-156404761D01*
X158422380Y-156309523D01*
X157422380Y-157071428D02*
X157422380Y-157690476D01*
X157803333Y-157357142D01*
X157803333Y-157500000D01*
X157850952Y-157595238D01*
X157898571Y-157642857D01*
X157993809Y-157690476D01*
X158231904Y-157690476D01*
X158327142Y-157642857D01*
X158374761Y-157595238D01*
X158422380Y-157500000D01*
X158422380Y-157214285D01*
X158374761Y-157119047D01*
X158327142Y-157071428D01*
X157422380Y-158595238D02*
X157422380Y-158119047D01*
X157898571Y-158071428D01*
X157850952Y-158119047D01*
X157803333Y-158214285D01*
X157803333Y-158452380D01*
X157850952Y-158547619D01*
X157898571Y-158595238D01*
X157993809Y-158642857D01*
X158231904Y-158642857D01*
X158327142Y-158595238D01*
X158374761Y-158547619D01*
X158422380Y-158452380D01*
X158422380Y-158214285D01*
X158374761Y-158119047D01*
X158327142Y-158071428D01*
X173802380Y-156690476D02*
X174516666Y-156690476D01*
X174659523Y-156642857D01*
X174754761Y-156547619D01*
X174802380Y-156404761D01*
X174802380Y-156309523D01*
X173802380Y-157071428D02*
X173802380Y-157690476D01*
X174183333Y-157357142D01*
X174183333Y-157500000D01*
X174230952Y-157595238D01*
X174278571Y-157642857D01*
X174373809Y-157690476D01*
X174611904Y-157690476D01*
X174707142Y-157642857D01*
X174754761Y-157595238D01*
X174802380Y-157500000D01*
X174802380Y-157214285D01*
X174754761Y-157119047D01*
X174707142Y-157071428D01*
X173802380Y-158023809D02*
X173802380Y-158690476D01*
X174802380Y-158261904D01*
X220322380Y-125448095D02*
X221131904Y-125448095D01*
X221227142Y-125495714D01*
X221274761Y-125543333D01*
X221322380Y-125638571D01*
X221322380Y-125829047D01*
X221274761Y-125924285D01*
X221227142Y-125971904D01*
X221131904Y-126019523D01*
X220322380Y-126019523D01*
X220322380Y-126924285D02*
X220322380Y-126733809D01*
X220370000Y-126638571D01*
X220417619Y-126590952D01*
X220560476Y-126495714D01*
X220750952Y-126448095D01*
X221131904Y-126448095D01*
X221227142Y-126495714D01*
X221274761Y-126543333D01*
X221322380Y-126638571D01*
X221322380Y-126829047D01*
X221274761Y-126924285D01*
X221227142Y-126971904D01*
X221131904Y-127019523D01*
X220893809Y-127019523D01*
X220798571Y-126971904D01*
X220750952Y-126924285D01*
X220703333Y-126829047D01*
X220703333Y-126638571D01*
X220750952Y-126543333D01*
X220798571Y-126495714D01*
X220893809Y-126448095D01*
X199122380Y-128048095D02*
X199931904Y-128048095D01*
X200027142Y-128095714D01*
X200074761Y-128143333D01*
X200122380Y-128238571D01*
X200122380Y-128429047D01*
X200074761Y-128524285D01*
X200027142Y-128571904D01*
X199931904Y-128619523D01*
X199122380Y-128619523D01*
X199122380Y-129571904D02*
X199122380Y-129095714D01*
X199598571Y-129048095D01*
X199550952Y-129095714D01*
X199503333Y-129190952D01*
X199503333Y-129429047D01*
X199550952Y-129524285D01*
X199598571Y-129571904D01*
X199693809Y-129619523D01*
X199931904Y-129619523D01*
X200027142Y-129571904D01*
X200074761Y-129524285D01*
X200122380Y-129429047D01*
X200122380Y-129190952D01*
X200074761Y-129095714D01*
X200027142Y-129048095D01*
X220322380Y-114448095D02*
X221131904Y-114448095D01*
X221227142Y-114495714D01*
X221274761Y-114543333D01*
X221322380Y-114638571D01*
X221322380Y-114829047D01*
X221274761Y-114924285D01*
X221227142Y-114971904D01*
X221131904Y-115019523D01*
X220322380Y-115019523D01*
X220655714Y-115924285D02*
X221322380Y-115924285D01*
X220274761Y-115686190D02*
X220989047Y-115448095D01*
X220989047Y-116067142D01*
X202461904Y-154852380D02*
X202461904Y-155661904D01*
X202414285Y-155757142D01*
X202366666Y-155804761D01*
X202271428Y-155852380D01*
X202080952Y-155852380D01*
X201985714Y-155804761D01*
X201938095Y-155757142D01*
X201890476Y-155661904D01*
X201890476Y-154852380D01*
X201461904Y-154947619D02*
X201414285Y-154900000D01*
X201319047Y-154852380D01*
X201080952Y-154852380D01*
X200985714Y-154900000D01*
X200938095Y-154947619D01*
X200890476Y-155042857D01*
X200890476Y-155138095D01*
X200938095Y-155280952D01*
X201509523Y-155852380D01*
X200890476Y-155852380D01*
X189086666Y-140082380D02*
X189420000Y-139606190D01*
X189658095Y-140082380D02*
X189658095Y-139082380D01*
X189277142Y-139082380D01*
X189181904Y-139130000D01*
X189134285Y-139177619D01*
X189086666Y-139272857D01*
X189086666Y-139415714D01*
X189134285Y-139510952D01*
X189181904Y-139558571D01*
X189277142Y-139606190D01*
X189658095Y-139606190D01*
X188229523Y-139082380D02*
X188420000Y-139082380D01*
X188515238Y-139130000D01*
X188562857Y-139177619D01*
X188658095Y-139320476D01*
X188705714Y-139510952D01*
X188705714Y-139891904D01*
X188658095Y-139987142D01*
X188610476Y-140034761D01*
X188515238Y-140082380D01*
X188324761Y-140082380D01*
X188229523Y-140034761D01*
X188181904Y-139987142D01*
X188134285Y-139891904D01*
X188134285Y-139653809D01*
X188181904Y-139558571D01*
X188229523Y-139510952D01*
X188324761Y-139463333D01*
X188515238Y-139463333D01*
X188610476Y-139510952D01*
X188658095Y-139558571D01*
X188705714Y-139653809D01*
X184246666Y-155322380D02*
X184580000Y-154846190D01*
X184818095Y-155322380D02*
X184818095Y-154322380D01*
X184437142Y-154322380D01*
X184341904Y-154370000D01*
X184294285Y-154417619D01*
X184246666Y-154512857D01*
X184246666Y-154655714D01*
X184294285Y-154750952D01*
X184341904Y-154798571D01*
X184437142Y-154846190D01*
X184818095Y-154846190D01*
X183341904Y-154322380D02*
X183818095Y-154322380D01*
X183865714Y-154798571D01*
X183818095Y-154750952D01*
X183722857Y-154703333D01*
X183484761Y-154703333D01*
X183389523Y-154750952D01*
X183341904Y-154798571D01*
X183294285Y-154893809D01*
X183294285Y-155131904D01*
X183341904Y-155227142D01*
X183389523Y-155274761D01*
X183484761Y-155322380D01*
X183722857Y-155322380D01*
X183818095Y-155274761D01*
X183865714Y-155227142D01*
X167246666Y-156322380D02*
X167580000Y-155846190D01*
X167818095Y-156322380D02*
X167818095Y-155322380D01*
X167437142Y-155322380D01*
X167341904Y-155370000D01*
X167294285Y-155417619D01*
X167246666Y-155512857D01*
X167246666Y-155655714D01*
X167294285Y-155750952D01*
X167341904Y-155798571D01*
X167437142Y-155846190D01*
X167818095Y-155846190D01*
X166389523Y-155655714D02*
X166389523Y-156322380D01*
X166627619Y-155274761D02*
X166865714Y-155989047D01*
X166246666Y-155989047D01*
X143966666Y-148252380D02*
X144300000Y-147776190D01*
X144538095Y-148252380D02*
X144538095Y-147252380D01*
X144157142Y-147252380D01*
X144061904Y-147300000D01*
X144014285Y-147347619D01*
X143966666Y-147442857D01*
X143966666Y-147585714D01*
X144014285Y-147680952D01*
X144061904Y-147728571D01*
X144157142Y-147776190D01*
X144538095Y-147776190D01*
X143633333Y-147252380D02*
X143014285Y-147252380D01*
X143347619Y-147633333D01*
X143204761Y-147633333D01*
X143109523Y-147680952D01*
X143061904Y-147728571D01*
X143014285Y-147823809D01*
X143014285Y-148061904D01*
X143061904Y-148157142D01*
X143109523Y-148204761D01*
X143204761Y-148252380D01*
X143490476Y-148252380D01*
X143585714Y-148204761D01*
X143633333Y-148157142D01*
X151882380Y-141353333D02*
X151406190Y-141020000D01*
X151882380Y-140781904D02*
X150882380Y-140781904D01*
X150882380Y-141162857D01*
X150930000Y-141258095D01*
X150977619Y-141305714D01*
X151072857Y-141353333D01*
X151215714Y-141353333D01*
X151310952Y-141305714D01*
X151358571Y-141258095D01*
X151406190Y-141162857D01*
X151406190Y-140781904D01*
X150977619Y-141734285D02*
X150930000Y-141781904D01*
X150882380Y-141877142D01*
X150882380Y-142115238D01*
X150930000Y-142210476D01*
X150977619Y-142258095D01*
X151072857Y-142305714D01*
X151168095Y-142305714D01*
X151310952Y-142258095D01*
X151882380Y-141686666D01*
X151882380Y-142305714D01*
X142066666Y-155852380D02*
X142400000Y-155376190D01*
X142638095Y-155852380D02*
X142638095Y-154852380D01*
X142257142Y-154852380D01*
X142161904Y-154900000D01*
X142114285Y-154947619D01*
X142066666Y-155042857D01*
X142066666Y-155185714D01*
X142114285Y-155280952D01*
X142161904Y-155328571D01*
X142257142Y-155376190D01*
X142638095Y-155376190D01*
X141114285Y-155852380D02*
X141685714Y-155852380D01*
X141400000Y-155852380D02*
X141400000Y-154852380D01*
X141495238Y-154995238D01*
X141590476Y-155090476D01*
X141685714Y-155138095D01*
X199303333Y-49282380D02*
X199303333Y-49996666D01*
X199350952Y-50139523D01*
X199446190Y-50234761D01*
X199589047Y-50282380D01*
X199684285Y-50282380D01*
X198779523Y-50282380D02*
X198589047Y-50282380D01*
X198493809Y-50234761D01*
X198446190Y-50187142D01*
X198350952Y-50044285D01*
X198303333Y-49853809D01*
X198303333Y-49472857D01*
X198350952Y-49377619D01*
X198398571Y-49330000D01*
X198493809Y-49282380D01*
X198684285Y-49282380D01*
X198779523Y-49330000D01*
X198827142Y-49377619D01*
X198874761Y-49472857D01*
X198874761Y-49710952D01*
X198827142Y-49806190D01*
X198779523Y-49853809D01*
X198684285Y-49901428D01*
X198493809Y-49901428D01*
X198398571Y-49853809D01*
X198350952Y-49806190D01*
X198303333Y-49710952D01*
X185048095Y-151072380D02*
X185048095Y-150072380D01*
X184810000Y-150072380D01*
X184667142Y-150120000D01*
X184571904Y-150215238D01*
X184524285Y-150310476D01*
X184476666Y-150500952D01*
X184476666Y-150643809D01*
X184524285Y-150834285D01*
X184571904Y-150929523D01*
X184667142Y-151024761D01*
X184810000Y-151072380D01*
X185048095Y-151072380D01*
X183524285Y-151072380D02*
X184095714Y-151072380D01*
X183810000Y-151072380D02*
X183810000Y-150072380D01*
X183905238Y-150215238D01*
X184000476Y-150310476D01*
X184095714Y-150358095D01*
X180761904Y-150752380D02*
X180761904Y-149752380D01*
X180190476Y-150752380D02*
X180619047Y-150180952D01*
X180190476Y-149752380D02*
X180761904Y-150323809D01*
X189716666Y-60425142D02*
X189764285Y-60472761D01*
X189907142Y-60520380D01*
X190002380Y-60520380D01*
X190145238Y-60472761D01*
X190240476Y-60377523D01*
X190288095Y-60282285D01*
X190335714Y-60091809D01*
X190335714Y-59948952D01*
X190288095Y-59758476D01*
X190240476Y-59663238D01*
X190145238Y-59568000D01*
X190002380Y-59520380D01*
X189907142Y-59520380D01*
X189764285Y-59568000D01*
X189716666Y-59615619D01*
X189335714Y-59615619D02*
X189288095Y-59568000D01*
X189192857Y-59520380D01*
X188954761Y-59520380D01*
X188859523Y-59568000D01*
X188811904Y-59615619D01*
X188764285Y-59710857D01*
X188764285Y-59806095D01*
X188811904Y-59948952D01*
X189383333Y-60520380D01*
X188764285Y-60520380D01*
M02*
