G04 #@! TF.GenerationSoftware,KiCad,Pcbnew,(5.1.4)-1*
G04 #@! TF.CreationDate,2021-11-01T00:46:01-04:00*
G04 #@! TF.ProjectId,jack_pcb,6a61636b-5f70-4636-922e-6b696361645f,rev?*
G04 #@! TF.SameCoordinates,Original*
G04 #@! TF.FileFunction,Legend,Top*
G04 #@! TF.FilePolarity,Positive*
%FSLAX46Y46*%
G04 Gerber Fmt 4.6, Leading zero omitted, Abs format (unit mm)*
G04 Created by KiCad (PCBNEW (5.1.4)-1) date 2021-11-01 00:46:01*
%MOMM*%
%LPD*%
G04 APERTURE LIST*
%ADD10C,0.425000*%
%ADD11C,0.150000*%
%ADD12C,0.120000*%
G04 APERTURE END LIST*
D10*
X175278117Y-36106547D02*
X175490617Y-34406547D01*
X175389427Y-35216071D02*
X176360855Y-35216071D01*
X176249546Y-36106547D02*
X176462046Y-34406547D01*
X177787641Y-36106547D02*
X177898950Y-35216071D01*
X177838236Y-35054166D01*
X177686450Y-34973214D01*
X177362641Y-34973214D01*
X177190617Y-35054166D01*
X177797760Y-36025595D02*
X177625736Y-36106547D01*
X177220974Y-36106547D01*
X177069188Y-36025595D01*
X177008474Y-35863690D01*
X177028712Y-35701785D01*
X177129903Y-35539880D01*
X177301927Y-35458928D01*
X177706688Y-35458928D01*
X177878712Y-35377976D01*
X178597165Y-36106547D02*
X178738831Y-34973214D01*
X178698355Y-35297023D02*
X178799546Y-35135119D01*
X178890617Y-35054166D01*
X179062641Y-34973214D01*
X179224546Y-34973214D01*
X179649546Y-36106547D02*
X179791212Y-34973214D01*
X179770974Y-35135119D02*
X179862046Y-35054166D01*
X180034069Y-34973214D01*
X180276927Y-34973214D01*
X180428712Y-35054166D01*
X180489427Y-35216071D01*
X180378117Y-36106547D01*
X180489427Y-35216071D02*
X180590617Y-35054166D01*
X180762641Y-34973214D01*
X181005498Y-34973214D01*
X181157284Y-35054166D01*
X181217998Y-35216071D01*
X181106688Y-36106547D01*
X182159069Y-36106547D02*
X182007284Y-36025595D01*
X181936450Y-35944642D01*
X181875736Y-35782738D01*
X181936450Y-35297023D01*
X182037641Y-35135119D01*
X182128712Y-35054166D01*
X182300736Y-34973214D01*
X182543593Y-34973214D01*
X182695379Y-35054166D01*
X182766212Y-35135119D01*
X182826927Y-35297023D01*
X182766212Y-35782738D01*
X182665022Y-35944642D01*
X182573950Y-36025595D01*
X182401927Y-36106547D01*
X182159069Y-36106547D01*
X183595974Y-34973214D02*
X183454308Y-36106547D01*
X183575736Y-35135119D02*
X183666808Y-35054166D01*
X183838831Y-34973214D01*
X184081688Y-34973214D01*
X184233474Y-35054166D01*
X184294188Y-35216071D01*
X184182879Y-36106547D01*
X184992403Y-36106547D02*
X185134069Y-34973214D01*
X185204903Y-34406547D02*
X185113831Y-34487500D01*
X185184665Y-34568452D01*
X185275736Y-34487500D01*
X185204903Y-34406547D01*
X185184665Y-34568452D01*
X186540617Y-36025595D02*
X186368593Y-36106547D01*
X186044784Y-36106547D01*
X185892998Y-36025595D01*
X185822165Y-35944642D01*
X185761450Y-35782738D01*
X185822165Y-35297023D01*
X185923355Y-35135119D01*
X186014427Y-35054166D01*
X186186450Y-34973214D01*
X186510260Y-34973214D01*
X186662046Y-35054166D01*
X189545974Y-35944642D02*
X189454903Y-36025595D01*
X189201927Y-36106547D01*
X189040022Y-36106547D01*
X188807284Y-36025595D01*
X188665617Y-35863690D01*
X188604903Y-35701785D01*
X188564427Y-35377976D01*
X188594784Y-35135119D01*
X188716212Y-34811309D01*
X188817403Y-34649404D01*
X188999546Y-34487500D01*
X189252522Y-34406547D01*
X189414427Y-34406547D01*
X189647165Y-34487500D01*
X189717998Y-34568452D01*
X190497165Y-36106547D02*
X190345379Y-36025595D01*
X190274546Y-35944642D01*
X190213831Y-35782738D01*
X190274546Y-35297023D01*
X190375736Y-35135119D01*
X190466808Y-35054166D01*
X190638831Y-34973214D01*
X190881688Y-34973214D01*
X191033474Y-35054166D01*
X191104308Y-35135119D01*
X191165022Y-35297023D01*
X191104308Y-35782738D01*
X191003117Y-35944642D01*
X190912046Y-36025595D01*
X190740022Y-36106547D01*
X190497165Y-36106547D01*
X191934069Y-34973214D02*
X191792403Y-36106547D01*
X191913831Y-35135119D02*
X192004903Y-35054166D01*
X192176927Y-34973214D01*
X192419784Y-34973214D01*
X192571569Y-35054166D01*
X192632284Y-35216071D01*
X192520974Y-36106547D01*
X193229308Y-34973214D02*
X193876927Y-34973214D01*
X193542998Y-34406547D02*
X193360855Y-35863690D01*
X193421569Y-36025595D01*
X193573355Y-36106547D01*
X193735260Y-36106547D01*
X194959665Y-36025595D02*
X194787641Y-36106547D01*
X194463831Y-36106547D01*
X194312046Y-36025595D01*
X194251331Y-35863690D01*
X194332284Y-35216071D01*
X194433474Y-35054166D01*
X194605498Y-34973214D01*
X194929308Y-34973214D01*
X195081093Y-35054166D01*
X195141808Y-35216071D01*
X195121569Y-35377976D01*
X194291808Y-35539880D01*
X195900736Y-34973214D02*
X195759069Y-36106547D01*
X195880498Y-35135119D02*
X195971569Y-35054166D01*
X196143593Y-34973214D01*
X196386450Y-34973214D01*
X196538236Y-35054166D01*
X196598950Y-35216071D01*
X196487641Y-36106547D01*
X197195974Y-34973214D02*
X197843593Y-34973214D01*
X197509665Y-34406547D02*
X197327522Y-35863690D01*
X197388236Y-36025595D01*
X197540022Y-36106547D01*
X197701927Y-36106547D01*
X174681093Y-37381547D02*
X174529308Y-38595833D01*
X174417998Y-38838690D01*
X174235855Y-39000595D01*
X173982879Y-39081547D01*
X173820974Y-39081547D01*
X176006688Y-39081547D02*
X176117998Y-38191071D01*
X176057284Y-38029166D01*
X175905498Y-37948214D01*
X175581688Y-37948214D01*
X175409665Y-38029166D01*
X176016808Y-39000595D02*
X175844784Y-39081547D01*
X175440022Y-39081547D01*
X175288236Y-39000595D01*
X175227522Y-38838690D01*
X175247760Y-38676785D01*
X175348950Y-38514880D01*
X175520974Y-38433928D01*
X175925736Y-38433928D01*
X176097760Y-38352976D01*
X177554903Y-39000595D02*
X177382879Y-39081547D01*
X177059069Y-39081547D01*
X176907284Y-39000595D01*
X176836450Y-38919642D01*
X176775736Y-38757738D01*
X176836450Y-38272023D01*
X176937641Y-38110119D01*
X177028712Y-38029166D01*
X177200736Y-37948214D01*
X177524546Y-37948214D01*
X177676331Y-38029166D01*
X178273355Y-39081547D02*
X178485855Y-37381547D01*
X178516212Y-38433928D02*
X178920974Y-39081547D01*
X179062641Y-37948214D02*
X178334069Y-38595833D01*
X181673355Y-39081547D02*
X181784665Y-38191071D01*
X181723950Y-38029166D01*
X181572165Y-37948214D01*
X181248355Y-37948214D01*
X181076331Y-38029166D01*
X181683474Y-39000595D02*
X181511450Y-39081547D01*
X181106688Y-39081547D01*
X180954903Y-39000595D01*
X180894188Y-38838690D01*
X180914427Y-38676785D01*
X181015617Y-38514880D01*
X181187641Y-38433928D01*
X181592403Y-38433928D01*
X181764427Y-38352976D01*
X182624546Y-37948214D02*
X182482879Y-39081547D01*
X182604308Y-38110119D02*
X182695379Y-38029166D01*
X182867403Y-37948214D01*
X183110260Y-37948214D01*
X183262046Y-38029166D01*
X183322760Y-38191071D01*
X183211450Y-39081547D01*
X184749546Y-39081547D02*
X184962046Y-37381547D01*
X184759665Y-39000595D02*
X184587641Y-39081547D01*
X184263831Y-39081547D01*
X184112046Y-39000595D01*
X184041212Y-38919642D01*
X183980498Y-38757738D01*
X184041212Y-38272023D01*
X184142403Y-38110119D01*
X184233474Y-38029166D01*
X184405498Y-37948214D01*
X184729308Y-37948214D01*
X184881093Y-38029166D01*
X186823950Y-37381547D02*
X187178117Y-39081547D01*
X187957284Y-37381547D01*
X188311450Y-39081547D02*
X188453117Y-37948214D01*
X188523950Y-37381547D02*
X188432879Y-37462500D01*
X188503712Y-37543452D01*
X188594784Y-37462500D01*
X188523950Y-37381547D01*
X188503712Y-37543452D01*
X189050141Y-39000595D02*
X189201927Y-39081547D01*
X189525736Y-39081547D01*
X189697760Y-39000595D01*
X189798950Y-38838690D01*
X189809069Y-38757738D01*
X189748355Y-38595833D01*
X189596569Y-38514880D01*
X189353712Y-38514880D01*
X189201927Y-38433928D01*
X189141212Y-38272023D01*
X189151331Y-38191071D01*
X189252522Y-38029166D01*
X189424546Y-37948214D01*
X189667403Y-37948214D01*
X189819188Y-38029166D01*
X191367403Y-37948214D02*
X191225736Y-39081547D01*
X190638831Y-37948214D02*
X190527522Y-38838690D01*
X190588236Y-39000595D01*
X190740022Y-39081547D01*
X190982879Y-39081547D01*
X191154903Y-39000595D01*
X191245974Y-38919642D01*
X192763831Y-39081547D02*
X192875141Y-38191071D01*
X192814427Y-38029166D01*
X192662641Y-37948214D01*
X192338831Y-37948214D01*
X192166808Y-38029166D01*
X192773950Y-39000595D02*
X192601927Y-39081547D01*
X192197165Y-39081547D01*
X192045379Y-39000595D01*
X191984665Y-38838690D01*
X192004903Y-38676785D01*
X192106093Y-38514880D01*
X192278117Y-38433928D01*
X192682879Y-38433928D01*
X192854903Y-38352976D01*
X193816212Y-39081547D02*
X193664427Y-39000595D01*
X193603712Y-38838690D01*
X193785855Y-37381547D01*
X195759069Y-39081547D02*
X195971569Y-37381547D01*
X196619188Y-37381547D01*
X196770974Y-37462500D01*
X196841808Y-37543452D01*
X196902522Y-37705357D01*
X196872165Y-37948214D01*
X196770974Y-38110119D01*
X196679903Y-38191071D01*
X196507879Y-38272023D01*
X195860260Y-38272023D01*
X198450736Y-38919642D02*
X198359665Y-39000595D01*
X198106688Y-39081547D01*
X197944784Y-39081547D01*
X197712046Y-39000595D01*
X197570379Y-38838690D01*
X197509665Y-38676785D01*
X197469188Y-38352976D01*
X197499546Y-38110119D01*
X197620974Y-37786309D01*
X197722165Y-37624404D01*
X197904308Y-37462500D01*
X198157284Y-37381547D01*
X198319188Y-37381547D01*
X198551927Y-37462500D01*
X198622760Y-37543452D01*
X199837046Y-38191071D02*
X200069784Y-38272023D01*
X200140617Y-38352976D01*
X200201331Y-38514880D01*
X200170974Y-38757738D01*
X200069784Y-38919642D01*
X199978712Y-39000595D01*
X199806688Y-39081547D01*
X199159069Y-39081547D01*
X199371569Y-37381547D01*
X199938236Y-37381547D01*
X200090022Y-37462500D01*
X200160855Y-37543452D01*
X200221569Y-37705357D01*
X200201331Y-37867261D01*
X200100141Y-38029166D01*
X200009069Y-38110119D01*
X199837046Y-38191071D01*
X199270379Y-38191071D01*
X184304308Y-42056547D02*
X183838831Y-41247023D01*
X183332879Y-42056547D02*
X183545379Y-40356547D01*
X184192998Y-40356547D01*
X184344784Y-40437500D01*
X184415617Y-40518452D01*
X184476331Y-40680357D01*
X184445974Y-40923214D01*
X184344784Y-41085119D01*
X184253712Y-41166071D01*
X184081688Y-41247023D01*
X183434069Y-41247023D01*
X185690617Y-41975595D02*
X185518593Y-42056547D01*
X185194784Y-42056547D01*
X185042998Y-41975595D01*
X184982284Y-41813690D01*
X185063236Y-41166071D01*
X185164427Y-41004166D01*
X185336450Y-40923214D01*
X185660260Y-40923214D01*
X185812046Y-41004166D01*
X185872760Y-41166071D01*
X185852522Y-41327976D01*
X185022760Y-41489880D01*
X186469784Y-40923214D02*
X186732879Y-42056547D01*
X187279308Y-40923214D01*
X187805498Y-41894642D02*
X187876331Y-41975595D01*
X187785260Y-42056547D01*
X187714427Y-41975595D01*
X187805498Y-41894642D01*
X187785260Y-42056547D01*
X190780498Y-42056547D02*
X189809069Y-42056547D01*
X190294784Y-42056547D02*
X190507284Y-40356547D01*
X190315022Y-40599404D01*
X190132879Y-40761309D01*
X189960855Y-40842261D01*
X179173950Y-43331547D02*
X179497760Y-43331547D01*
X179649546Y-43412500D01*
X179791212Y-43574404D01*
X179831688Y-43898214D01*
X179760855Y-44464880D01*
X179639427Y-44788690D01*
X179457284Y-44950595D01*
X179285260Y-45031547D01*
X178961450Y-45031547D01*
X178809665Y-44950595D01*
X178667998Y-44788690D01*
X178627522Y-44464880D01*
X178698355Y-43898214D01*
X178819784Y-43574404D01*
X179001927Y-43412500D01*
X179173950Y-43331547D01*
X181157284Y-44950595D02*
X180985260Y-45031547D01*
X180661450Y-45031547D01*
X180509665Y-44950595D01*
X180438831Y-44869642D01*
X180378117Y-44707738D01*
X180438831Y-44222023D01*
X180540022Y-44060119D01*
X180631093Y-43979166D01*
X180803117Y-43898214D01*
X181126927Y-43898214D01*
X181278712Y-43979166D01*
X181774546Y-43898214D02*
X182422165Y-43898214D01*
X182088236Y-43331547D02*
X181906093Y-44788690D01*
X181966808Y-44950595D01*
X182118593Y-45031547D01*
X182280498Y-45031547D01*
X183090022Y-45031547D02*
X182938236Y-44950595D01*
X182867403Y-44869642D01*
X182806688Y-44707738D01*
X182867403Y-44222023D01*
X182968593Y-44060119D01*
X183059665Y-43979166D01*
X183231688Y-43898214D01*
X183474546Y-43898214D01*
X183626331Y-43979166D01*
X183697165Y-44060119D01*
X183757879Y-44222023D01*
X183697165Y-44707738D01*
X183595974Y-44869642D01*
X183504903Y-44950595D01*
X183332879Y-45031547D01*
X183090022Y-45031547D01*
X184385260Y-45031547D02*
X184597760Y-43331547D01*
X184516808Y-43979166D02*
X184688831Y-43898214D01*
X185012641Y-43898214D01*
X185164427Y-43979166D01*
X185235260Y-44060119D01*
X185295974Y-44222023D01*
X185235260Y-44707738D01*
X185134069Y-44869642D01*
X185042998Y-44950595D01*
X184870974Y-45031547D01*
X184547165Y-45031547D01*
X184395379Y-44950595D01*
X186581093Y-44950595D02*
X186409069Y-45031547D01*
X186085260Y-45031547D01*
X185933474Y-44950595D01*
X185872760Y-44788690D01*
X185953712Y-44141071D01*
X186054903Y-43979166D01*
X186226927Y-43898214D01*
X186550736Y-43898214D01*
X186702522Y-43979166D01*
X186763236Y-44141071D01*
X186742998Y-44302976D01*
X185913236Y-44464880D01*
X187380498Y-45031547D02*
X187522165Y-43898214D01*
X187481688Y-44222023D02*
X187582879Y-44060119D01*
X187673950Y-43979166D01*
X187845974Y-43898214D01*
X188007879Y-43898214D01*
X189839427Y-43493452D02*
X189930498Y-43412500D01*
X190102522Y-43331547D01*
X190507284Y-43331547D01*
X190659069Y-43412500D01*
X190729903Y-43493452D01*
X190790617Y-43655357D01*
X190770379Y-43817261D01*
X190659069Y-44060119D01*
X189566212Y-45031547D01*
X190618593Y-45031547D01*
X191883474Y-43331547D02*
X192045379Y-43331547D01*
X192197165Y-43412500D01*
X192267998Y-43493452D01*
X192328712Y-43655357D01*
X192369188Y-43979166D01*
X192318593Y-44383928D01*
X192197165Y-44707738D01*
X192095974Y-44869642D01*
X192004903Y-44950595D01*
X191832879Y-45031547D01*
X191670974Y-45031547D01*
X191519188Y-44950595D01*
X191448355Y-44869642D01*
X191387641Y-44707738D01*
X191347165Y-44383928D01*
X191397760Y-43979166D01*
X191519188Y-43655357D01*
X191620379Y-43493452D01*
X191711450Y-43412500D01*
X191883474Y-43331547D01*
X193077522Y-43493452D02*
X193168593Y-43412500D01*
X193340617Y-43331547D01*
X193745379Y-43331547D01*
X193897165Y-43412500D01*
X193967998Y-43493452D01*
X194028712Y-43655357D01*
X194008474Y-43817261D01*
X193897165Y-44060119D01*
X192804308Y-45031547D01*
X193856688Y-45031547D01*
X195475736Y-45031547D02*
X194504308Y-45031547D01*
X194990022Y-45031547D02*
X195202522Y-43331547D01*
X195010260Y-43574404D01*
X194828117Y-43736309D01*
X194656093Y-43817261D01*
D11*
X47714285Y-101852380D02*
X48047619Y-102852380D01*
X48380952Y-101852380D01*
X48666666Y-101947619D02*
X48714285Y-101900000D01*
X48809523Y-101852380D01*
X49047619Y-101852380D01*
X49142857Y-101900000D01*
X49190476Y-101947619D01*
X49238095Y-102042857D01*
X49238095Y-102138095D01*
X49190476Y-102280952D01*
X48619047Y-102852380D01*
X49238095Y-102852380D01*
X50095238Y-102185714D02*
X50095238Y-102852380D01*
X49857142Y-101804761D02*
X49619047Y-102519047D01*
X50238095Y-102519047D01*
X47414285Y-82052380D02*
X47747619Y-83052380D01*
X48080952Y-82052380D01*
X48938095Y-83052380D02*
X48366666Y-83052380D01*
X48652380Y-83052380D02*
X48652380Y-82052380D01*
X48557142Y-82195238D01*
X48461904Y-82290476D01*
X48366666Y-82338095D01*
X49795238Y-82052380D02*
X49604761Y-82052380D01*
X49509523Y-82100000D01*
X49461904Y-82147619D01*
X49366666Y-82290476D01*
X49319047Y-82480952D01*
X49319047Y-82861904D01*
X49366666Y-82957142D01*
X49414285Y-83004761D01*
X49509523Y-83052380D01*
X49700000Y-83052380D01*
X49795238Y-83004761D01*
X49842857Y-82957142D01*
X49890476Y-82861904D01*
X49890476Y-82623809D01*
X49842857Y-82528571D01*
X49795238Y-82480952D01*
X49700000Y-82433333D01*
X49509523Y-82433333D01*
X49414285Y-82480952D01*
X49366666Y-82528571D01*
X49319047Y-82623809D01*
X47990476Y-62052380D02*
X48323809Y-63052380D01*
X48657142Y-62052380D01*
X49133333Y-62480952D02*
X49038095Y-62433333D01*
X48990476Y-62385714D01*
X48942857Y-62290476D01*
X48942857Y-62242857D01*
X48990476Y-62147619D01*
X49038095Y-62100000D01*
X49133333Y-62052380D01*
X49323809Y-62052380D01*
X49419047Y-62100000D01*
X49466666Y-62147619D01*
X49514285Y-62242857D01*
X49514285Y-62290476D01*
X49466666Y-62385714D01*
X49419047Y-62433333D01*
X49323809Y-62480952D01*
X49133333Y-62480952D01*
X49038095Y-62528571D01*
X48990476Y-62576190D01*
X48942857Y-62671428D01*
X48942857Y-62861904D01*
X48990476Y-62957142D01*
X49038095Y-63004761D01*
X49133333Y-63052380D01*
X49323809Y-63052380D01*
X49419047Y-63004761D01*
X49466666Y-62957142D01*
X49514285Y-62861904D01*
X49514285Y-62671428D01*
X49466666Y-62576190D01*
X49419047Y-62528571D01*
X49323809Y-62480952D01*
X234023809Y-64552380D02*
X234642857Y-64552380D01*
X234309523Y-64933333D01*
X234452380Y-64933333D01*
X234547619Y-64980952D01*
X234595238Y-65028571D01*
X234642857Y-65123809D01*
X234642857Y-65361904D01*
X234595238Y-65457142D01*
X234547619Y-65504761D01*
X234452380Y-65552380D01*
X234166666Y-65552380D01*
X234071428Y-65504761D01*
X234023809Y-65457142D01*
X235071428Y-65457142D02*
X235119047Y-65504761D01*
X235071428Y-65552380D01*
X235023809Y-65504761D01*
X235071428Y-65457142D01*
X235071428Y-65552380D01*
X235452380Y-64552380D02*
X236071428Y-64552380D01*
X235738095Y-64933333D01*
X235880952Y-64933333D01*
X235976190Y-64980952D01*
X236023809Y-65028571D01*
X236071428Y-65123809D01*
X236071428Y-65361904D01*
X236023809Y-65457142D01*
X235976190Y-65504761D01*
X235880952Y-65552380D01*
X235595238Y-65552380D01*
X235500000Y-65504761D01*
X235452380Y-65457142D01*
X236357142Y-64552380D02*
X236690476Y-65552380D01*
X237023809Y-64552380D01*
X215423809Y-64952380D02*
X216042857Y-64952380D01*
X215709523Y-65333333D01*
X215852380Y-65333333D01*
X215947619Y-65380952D01*
X215995238Y-65428571D01*
X216042857Y-65523809D01*
X216042857Y-65761904D01*
X215995238Y-65857142D01*
X215947619Y-65904761D01*
X215852380Y-65952380D01*
X215566666Y-65952380D01*
X215471428Y-65904761D01*
X215423809Y-65857142D01*
X216471428Y-65857142D02*
X216519047Y-65904761D01*
X216471428Y-65952380D01*
X216423809Y-65904761D01*
X216471428Y-65857142D01*
X216471428Y-65952380D01*
X216852380Y-64952380D02*
X217471428Y-64952380D01*
X217138095Y-65333333D01*
X217280952Y-65333333D01*
X217376190Y-65380952D01*
X217423809Y-65428571D01*
X217471428Y-65523809D01*
X217471428Y-65761904D01*
X217423809Y-65857142D01*
X217376190Y-65904761D01*
X217280952Y-65952380D01*
X216995238Y-65952380D01*
X216900000Y-65904761D01*
X216852380Y-65857142D01*
X217757142Y-64952380D02*
X218090476Y-65952380D01*
X218423809Y-64952380D01*
X215223809Y-41552380D02*
X215842857Y-41552380D01*
X215509523Y-41933333D01*
X215652380Y-41933333D01*
X215747619Y-41980952D01*
X215795238Y-42028571D01*
X215842857Y-42123809D01*
X215842857Y-42361904D01*
X215795238Y-42457142D01*
X215747619Y-42504761D01*
X215652380Y-42552380D01*
X215366666Y-42552380D01*
X215271428Y-42504761D01*
X215223809Y-42457142D01*
X216271428Y-42457142D02*
X216319047Y-42504761D01*
X216271428Y-42552380D01*
X216223809Y-42504761D01*
X216271428Y-42457142D01*
X216271428Y-42552380D01*
X216652380Y-41552380D02*
X217271428Y-41552380D01*
X216938095Y-41933333D01*
X217080952Y-41933333D01*
X217176190Y-41980952D01*
X217223809Y-42028571D01*
X217271428Y-42123809D01*
X217271428Y-42361904D01*
X217223809Y-42457142D01*
X217176190Y-42504761D01*
X217080952Y-42552380D01*
X216795238Y-42552380D01*
X216700000Y-42504761D01*
X216652380Y-42457142D01*
X217557142Y-41552380D02*
X217890476Y-42552380D01*
X218223809Y-41552380D01*
X233723809Y-41852380D02*
X234342857Y-41852380D01*
X234009523Y-42233333D01*
X234152380Y-42233333D01*
X234247619Y-42280952D01*
X234295238Y-42328571D01*
X234342857Y-42423809D01*
X234342857Y-42661904D01*
X234295238Y-42757142D01*
X234247619Y-42804761D01*
X234152380Y-42852380D01*
X233866666Y-42852380D01*
X233771428Y-42804761D01*
X233723809Y-42757142D01*
X234771428Y-42757142D02*
X234819047Y-42804761D01*
X234771428Y-42852380D01*
X234723809Y-42804761D01*
X234771428Y-42757142D01*
X234771428Y-42852380D01*
X235152380Y-41852380D02*
X235771428Y-41852380D01*
X235438095Y-42233333D01*
X235580952Y-42233333D01*
X235676190Y-42280952D01*
X235723809Y-42328571D01*
X235771428Y-42423809D01*
X235771428Y-42661904D01*
X235723809Y-42757142D01*
X235676190Y-42804761D01*
X235580952Y-42852380D01*
X235295238Y-42852380D01*
X235200000Y-42804761D01*
X235152380Y-42757142D01*
X236057142Y-41852380D02*
X236390476Y-42852380D01*
X236723809Y-41852380D01*
X217609523Y-136352380D02*
X217133333Y-136352380D01*
X217085714Y-136828571D01*
X217133333Y-136780952D01*
X217228571Y-136733333D01*
X217466666Y-136733333D01*
X217561904Y-136780952D01*
X217609523Y-136828571D01*
X217657142Y-136923809D01*
X217657142Y-137161904D01*
X217609523Y-137257142D01*
X217561904Y-137304761D01*
X217466666Y-137352380D01*
X217228571Y-137352380D01*
X217133333Y-137304761D01*
X217085714Y-137257142D01*
X217942857Y-136352380D02*
X218276190Y-137352380D01*
X218609523Y-136352380D01*
X236409523Y-133652380D02*
X235933333Y-133652380D01*
X235885714Y-134128571D01*
X235933333Y-134080952D01*
X236028571Y-134033333D01*
X236266666Y-134033333D01*
X236361904Y-134080952D01*
X236409523Y-134128571D01*
X236457142Y-134223809D01*
X236457142Y-134461904D01*
X236409523Y-134557142D01*
X236361904Y-134604761D01*
X236266666Y-134652380D01*
X236028571Y-134652380D01*
X235933333Y-134604761D01*
X235885714Y-134557142D01*
X236742857Y-133652380D02*
X237076190Y-134652380D01*
X237409523Y-133652380D01*
X234780952Y-90352380D02*
X234209523Y-90352380D01*
X234495238Y-90352380D02*
X234495238Y-89352380D01*
X234400000Y-89495238D01*
X234304761Y-89590476D01*
X234209523Y-89638095D01*
X235161904Y-89447619D02*
X235209523Y-89400000D01*
X235304761Y-89352380D01*
X235542857Y-89352380D01*
X235638095Y-89400000D01*
X235685714Y-89447619D01*
X235733333Y-89542857D01*
X235733333Y-89638095D01*
X235685714Y-89780952D01*
X235114285Y-90352380D01*
X235733333Y-90352380D01*
X236019047Y-89352380D02*
X236352380Y-90352380D01*
X236685714Y-89352380D01*
X216680952Y-90652380D02*
X216109523Y-90652380D01*
X216395238Y-90652380D02*
X216395238Y-89652380D01*
X216300000Y-89795238D01*
X216204761Y-89890476D01*
X216109523Y-89938095D01*
X217061904Y-89747619D02*
X217109523Y-89700000D01*
X217204761Y-89652380D01*
X217442857Y-89652380D01*
X217538095Y-89700000D01*
X217585714Y-89747619D01*
X217633333Y-89842857D01*
X217633333Y-89938095D01*
X217585714Y-90080952D01*
X217014285Y-90652380D01*
X217633333Y-90652380D01*
X217919047Y-89652380D02*
X218252380Y-90652380D01*
X218585714Y-89652380D01*
X222366666Y-152752380D02*
X221890476Y-152752380D01*
X221890476Y-151752380D01*
X222700000Y-152228571D02*
X223033333Y-152228571D01*
X223176190Y-152752380D02*
X222700000Y-152752380D01*
X222700000Y-151752380D01*
X223176190Y-151752380D01*
X223604761Y-152752380D02*
X223604761Y-151752380D01*
X223842857Y-151752380D01*
X223985714Y-151800000D01*
X224080952Y-151895238D01*
X224128571Y-151990476D01*
X224176190Y-152180952D01*
X224176190Y-152323809D01*
X224128571Y-152514285D01*
X224080952Y-152609523D01*
X223985714Y-152704761D01*
X223842857Y-152752380D01*
X223604761Y-152752380D01*
X225557142Y-151752380D02*
X225747619Y-151752380D01*
X225842857Y-151800000D01*
X225938095Y-151895238D01*
X225985714Y-152085714D01*
X225985714Y-152419047D01*
X225938095Y-152609523D01*
X225842857Y-152704761D01*
X225747619Y-152752380D01*
X225557142Y-152752380D01*
X225461904Y-152704761D01*
X225366666Y-152609523D01*
X225319047Y-152419047D01*
X225319047Y-152085714D01*
X225366666Y-151895238D01*
X225461904Y-151800000D01*
X225557142Y-151752380D01*
X226414285Y-151752380D02*
X226414285Y-152561904D01*
X226461904Y-152657142D01*
X226509523Y-152704761D01*
X226604761Y-152752380D01*
X226795238Y-152752380D01*
X226890476Y-152704761D01*
X226938095Y-152657142D01*
X226985714Y-152561904D01*
X226985714Y-151752380D01*
X227319047Y-151752380D02*
X227890476Y-151752380D01*
X227604761Y-152752380D02*
X227604761Y-151752380D01*
X229271428Y-153133333D02*
X229223809Y-153085714D01*
X229128571Y-152942857D01*
X229080952Y-152847619D01*
X229033333Y-152704761D01*
X228985714Y-152466666D01*
X228985714Y-152276190D01*
X229033333Y-152038095D01*
X229080952Y-151895238D01*
X229128571Y-151800000D01*
X229223809Y-151657142D01*
X229271428Y-151609523D01*
X230128571Y-151752380D02*
X229652380Y-151752380D01*
X229604761Y-152228571D01*
X229652380Y-152180952D01*
X229747619Y-152133333D01*
X229985714Y-152133333D01*
X230080952Y-152180952D01*
X230128571Y-152228571D01*
X230176190Y-152323809D01*
X230176190Y-152561904D01*
X230128571Y-152657142D01*
X230080952Y-152704761D01*
X229985714Y-152752380D01*
X229747619Y-152752380D01*
X229652380Y-152704761D01*
X229604761Y-152657142D01*
X231366666Y-152371428D02*
X232128571Y-152371428D01*
X233509523Y-152180952D02*
X233414285Y-152133333D01*
X233366666Y-152085714D01*
X233319047Y-151990476D01*
X233319047Y-151942857D01*
X233366666Y-151847619D01*
X233414285Y-151800000D01*
X233509523Y-151752380D01*
X233700000Y-151752380D01*
X233795238Y-151800000D01*
X233842857Y-151847619D01*
X233890476Y-151942857D01*
X233890476Y-151990476D01*
X233842857Y-152085714D01*
X233795238Y-152133333D01*
X233700000Y-152180952D01*
X233509523Y-152180952D01*
X233414285Y-152228571D01*
X233366666Y-152276190D01*
X233319047Y-152371428D01*
X233319047Y-152561904D01*
X233366666Y-152657142D01*
X233414285Y-152704761D01*
X233509523Y-152752380D01*
X233700000Y-152752380D01*
X233795238Y-152704761D01*
X233842857Y-152657142D01*
X233890476Y-152561904D01*
X233890476Y-152371428D01*
X233842857Y-152276190D01*
X233795238Y-152228571D01*
X233700000Y-152180952D01*
X234223809Y-153133333D02*
X234271428Y-153085714D01*
X234366666Y-152942857D01*
X234414285Y-152847619D01*
X234461904Y-152704761D01*
X234509523Y-152466666D01*
X234509523Y-152276190D01*
X234461904Y-152038095D01*
X234414285Y-151895238D01*
X234366666Y-151800000D01*
X234271428Y-151657142D01*
X234223809Y-151609523D01*
X206966666Y-158352380D02*
X206490476Y-158352380D01*
X206490476Y-157352380D01*
X207300000Y-157828571D02*
X207633333Y-157828571D01*
X207776190Y-158352380D02*
X207300000Y-158352380D01*
X207300000Y-157352380D01*
X207776190Y-157352380D01*
X208204761Y-158352380D02*
X208204761Y-157352380D01*
X208442857Y-157352380D01*
X208585714Y-157400000D01*
X208680952Y-157495238D01*
X208728571Y-157590476D01*
X208776190Y-157780952D01*
X208776190Y-157923809D01*
X208728571Y-158114285D01*
X208680952Y-158209523D01*
X208585714Y-158304761D01*
X208442857Y-158352380D01*
X208204761Y-158352380D01*
X210157142Y-157352380D02*
X210347619Y-157352380D01*
X210442857Y-157400000D01*
X210538095Y-157495238D01*
X210585714Y-157685714D01*
X210585714Y-158019047D01*
X210538095Y-158209523D01*
X210442857Y-158304761D01*
X210347619Y-158352380D01*
X210157142Y-158352380D01*
X210061904Y-158304761D01*
X209966666Y-158209523D01*
X209919047Y-158019047D01*
X209919047Y-157685714D01*
X209966666Y-157495238D01*
X210061904Y-157400000D01*
X210157142Y-157352380D01*
X211014285Y-157352380D02*
X211014285Y-158161904D01*
X211061904Y-158257142D01*
X211109523Y-158304761D01*
X211204761Y-158352380D01*
X211395238Y-158352380D01*
X211490476Y-158304761D01*
X211538095Y-158257142D01*
X211585714Y-158161904D01*
X211585714Y-157352380D01*
X211919047Y-157352380D02*
X212490476Y-157352380D01*
X212204761Y-158352380D02*
X212204761Y-157352380D01*
X213871428Y-158733333D02*
X213823809Y-158685714D01*
X213728571Y-158542857D01*
X213680952Y-158447619D01*
X213633333Y-158304761D01*
X213585714Y-158066666D01*
X213585714Y-157876190D01*
X213633333Y-157638095D01*
X213680952Y-157495238D01*
X213728571Y-157400000D01*
X213823809Y-157257142D01*
X213871428Y-157209523D01*
X214776190Y-158352380D02*
X214204761Y-158352380D01*
X214490476Y-158352380D02*
X214490476Y-157352380D01*
X214395238Y-157495238D01*
X214300000Y-157590476D01*
X214204761Y-157638095D01*
X215966666Y-157971428D02*
X216728571Y-157971428D01*
X218395238Y-157685714D02*
X218395238Y-158352380D01*
X218157142Y-157304761D02*
X217919047Y-158019047D01*
X218538095Y-158019047D01*
X218823809Y-158733333D02*
X218871428Y-158685714D01*
X218966666Y-158542857D01*
X219014285Y-158447619D01*
X219061904Y-158304761D01*
X219109523Y-158066666D01*
X219109523Y-157876190D01*
X219061904Y-157638095D01*
X219014285Y-157495238D01*
X218966666Y-157400000D01*
X218871428Y-157257142D01*
X218823809Y-157209523D01*
X223595238Y-88652380D02*
X223595238Y-87652380D01*
X223928571Y-88366666D01*
X224261904Y-87652380D01*
X224261904Y-88652380D01*
X224928571Y-87652380D02*
X225119047Y-87652380D01*
X225214285Y-87700000D01*
X225309523Y-87795238D01*
X225357142Y-87985714D01*
X225357142Y-88319047D01*
X225309523Y-88509523D01*
X225214285Y-88604761D01*
X225119047Y-88652380D01*
X224928571Y-88652380D01*
X224833333Y-88604761D01*
X224738095Y-88509523D01*
X224690476Y-88319047D01*
X224690476Y-87985714D01*
X224738095Y-87795238D01*
X224833333Y-87700000D01*
X224928571Y-87652380D01*
X225642857Y-87652380D02*
X226214285Y-87652380D01*
X225928571Y-88652380D02*
X225928571Y-87652380D01*
X226738095Y-87652380D02*
X226928571Y-87652380D01*
X227023809Y-87700000D01*
X227119047Y-87795238D01*
X227166666Y-87985714D01*
X227166666Y-88319047D01*
X227119047Y-88509523D01*
X227023809Y-88604761D01*
X226928571Y-88652380D01*
X226738095Y-88652380D01*
X226642857Y-88604761D01*
X226547619Y-88509523D01*
X226500000Y-88319047D01*
X226500000Y-87985714D01*
X226547619Y-87795238D01*
X226642857Y-87700000D01*
X226738095Y-87652380D01*
X228166666Y-88652380D02*
X227833333Y-88176190D01*
X227595238Y-88652380D02*
X227595238Y-87652380D01*
X227976190Y-87652380D01*
X228071428Y-87700000D01*
X228119047Y-87747619D01*
X228166666Y-87842857D01*
X228166666Y-87985714D01*
X228119047Y-88080952D01*
X228071428Y-88128571D01*
X227976190Y-88176190D01*
X227595238Y-88176190D01*
X229642857Y-89033333D02*
X229595238Y-88985714D01*
X229500000Y-88842857D01*
X229452380Y-88747619D01*
X229404761Y-88604761D01*
X229357142Y-88366666D01*
X229357142Y-88176190D01*
X229404761Y-87938095D01*
X229452380Y-87795238D01*
X229500000Y-87700000D01*
X229595238Y-87557142D01*
X229642857Y-87509523D01*
X230023809Y-88652380D02*
X230023809Y-87652380D01*
X230404761Y-87652380D01*
X230500000Y-87700000D01*
X230547619Y-87747619D01*
X230595238Y-87842857D01*
X230595238Y-87985714D01*
X230547619Y-88080952D01*
X230500000Y-88128571D01*
X230404761Y-88176190D01*
X230023809Y-88176190D01*
X230928571Y-87652380D02*
X231166666Y-88652380D01*
X231357142Y-87938095D01*
X231547619Y-88652380D01*
X231785714Y-87652380D01*
X232166666Y-88652380D02*
X232166666Y-87652380D01*
X232500000Y-88366666D01*
X232833333Y-87652380D01*
X232833333Y-88652380D01*
X234547619Y-87652380D02*
X234071428Y-87652380D01*
X234023809Y-88128571D01*
X234071428Y-88080952D01*
X234166666Y-88033333D01*
X234404761Y-88033333D01*
X234500000Y-88080952D01*
X234547619Y-88128571D01*
X234595238Y-88223809D01*
X234595238Y-88461904D01*
X234547619Y-88557142D01*
X234500000Y-88604761D01*
X234404761Y-88652380D01*
X234166666Y-88652380D01*
X234071428Y-88604761D01*
X234023809Y-88557142D01*
X235023809Y-88271428D02*
X235785714Y-88271428D01*
X236404761Y-88080952D02*
X236309523Y-88033333D01*
X236261904Y-87985714D01*
X236214285Y-87890476D01*
X236214285Y-87842857D01*
X236261904Y-87747619D01*
X236309523Y-87700000D01*
X236404761Y-87652380D01*
X236595238Y-87652380D01*
X236690476Y-87700000D01*
X236738095Y-87747619D01*
X236785714Y-87842857D01*
X236785714Y-87890476D01*
X236738095Y-87985714D01*
X236690476Y-88033333D01*
X236595238Y-88080952D01*
X236404761Y-88080952D01*
X236309523Y-88128571D01*
X236261904Y-88176190D01*
X236214285Y-88271428D01*
X236214285Y-88461904D01*
X236261904Y-88557142D01*
X236309523Y-88604761D01*
X236404761Y-88652380D01*
X236595238Y-88652380D01*
X236690476Y-88604761D01*
X236738095Y-88557142D01*
X236785714Y-88461904D01*
X236785714Y-88271428D01*
X236738095Y-88176190D01*
X236690476Y-88128571D01*
X236595238Y-88080952D01*
X237119047Y-89033333D02*
X237166666Y-88985714D01*
X237261904Y-88842857D01*
X237309523Y-88747619D01*
X237357142Y-88604761D01*
X237404761Y-88366666D01*
X237404761Y-88176190D01*
X237357142Y-87938095D01*
X237309523Y-87795238D01*
X237261904Y-87700000D01*
X237166666Y-87557142D01*
X237119047Y-87509523D01*
X205195238Y-88852380D02*
X205195238Y-87852380D01*
X205528571Y-88566666D01*
X205861904Y-87852380D01*
X205861904Y-88852380D01*
X206528571Y-87852380D02*
X206719047Y-87852380D01*
X206814285Y-87900000D01*
X206909523Y-87995238D01*
X206957142Y-88185714D01*
X206957142Y-88519047D01*
X206909523Y-88709523D01*
X206814285Y-88804761D01*
X206719047Y-88852380D01*
X206528571Y-88852380D01*
X206433333Y-88804761D01*
X206338095Y-88709523D01*
X206290476Y-88519047D01*
X206290476Y-88185714D01*
X206338095Y-87995238D01*
X206433333Y-87900000D01*
X206528571Y-87852380D01*
X207242857Y-87852380D02*
X207814285Y-87852380D01*
X207528571Y-88852380D02*
X207528571Y-87852380D01*
X208338095Y-87852380D02*
X208528571Y-87852380D01*
X208623809Y-87900000D01*
X208719047Y-87995238D01*
X208766666Y-88185714D01*
X208766666Y-88519047D01*
X208719047Y-88709523D01*
X208623809Y-88804761D01*
X208528571Y-88852380D01*
X208338095Y-88852380D01*
X208242857Y-88804761D01*
X208147619Y-88709523D01*
X208100000Y-88519047D01*
X208100000Y-88185714D01*
X208147619Y-87995238D01*
X208242857Y-87900000D01*
X208338095Y-87852380D01*
X209766666Y-88852380D02*
X209433333Y-88376190D01*
X209195238Y-88852380D02*
X209195238Y-87852380D01*
X209576190Y-87852380D01*
X209671428Y-87900000D01*
X209719047Y-87947619D01*
X209766666Y-88042857D01*
X209766666Y-88185714D01*
X209719047Y-88280952D01*
X209671428Y-88328571D01*
X209576190Y-88376190D01*
X209195238Y-88376190D01*
X211242857Y-89233333D02*
X211195238Y-89185714D01*
X211100000Y-89042857D01*
X211052380Y-88947619D01*
X211004761Y-88804761D01*
X210957142Y-88566666D01*
X210957142Y-88376190D01*
X211004761Y-88138095D01*
X211052380Y-87995238D01*
X211100000Y-87900000D01*
X211195238Y-87757142D01*
X211242857Y-87709523D01*
X211623809Y-88852380D02*
X211623809Y-87852380D01*
X212004761Y-87852380D01*
X212100000Y-87900000D01*
X212147619Y-87947619D01*
X212195238Y-88042857D01*
X212195238Y-88185714D01*
X212147619Y-88280952D01*
X212100000Y-88328571D01*
X212004761Y-88376190D01*
X211623809Y-88376190D01*
X212528571Y-87852380D02*
X212766666Y-88852380D01*
X212957142Y-88138095D01*
X213147619Y-88852380D01*
X213385714Y-87852380D01*
X213766666Y-88852380D02*
X213766666Y-87852380D01*
X214100000Y-88566666D01*
X214433333Y-87852380D01*
X214433333Y-88852380D01*
X216195238Y-88852380D02*
X215623809Y-88852380D01*
X215909523Y-88852380D02*
X215909523Y-87852380D01*
X215814285Y-87995238D01*
X215719047Y-88090476D01*
X215623809Y-88138095D01*
X216623809Y-88471428D02*
X217385714Y-88471428D01*
X218290476Y-88185714D02*
X218290476Y-88852380D01*
X218052380Y-87804761D02*
X217814285Y-88519047D01*
X218433333Y-88519047D01*
X218719047Y-89233333D02*
X218766666Y-89185714D01*
X218861904Y-89042857D01*
X218909523Y-88947619D01*
X218957142Y-88804761D01*
X219004761Y-88566666D01*
X219004761Y-88376190D01*
X218957142Y-88138095D01*
X218909523Y-87995238D01*
X218861904Y-87900000D01*
X218766666Y-87757142D01*
X218719047Y-87709523D01*
X226952380Y-63852380D02*
X226952380Y-62852380D01*
X227428571Y-63852380D02*
X227428571Y-62852380D01*
X228000000Y-63852380D01*
X228000000Y-62852380D01*
X229000000Y-63852380D02*
X228428571Y-63852380D01*
X228714285Y-63852380D02*
X228714285Y-62852380D01*
X228619047Y-62995238D01*
X228523809Y-63090476D01*
X228428571Y-63138095D01*
X229333333Y-62852380D02*
X229952380Y-62852380D01*
X229619047Y-63233333D01*
X229761904Y-63233333D01*
X229857142Y-63280952D01*
X229904761Y-63328571D01*
X229952380Y-63423809D01*
X229952380Y-63661904D01*
X229904761Y-63757142D01*
X229857142Y-63804761D01*
X229761904Y-63852380D01*
X229476190Y-63852380D01*
X229380952Y-63804761D01*
X229333333Y-63757142D01*
X230380952Y-63471428D02*
X231142857Y-63471428D01*
X232142857Y-63852380D02*
X231571428Y-63852380D01*
X231857142Y-63852380D02*
X231857142Y-62852380D01*
X231761904Y-62995238D01*
X231666666Y-63090476D01*
X231571428Y-63138095D01*
X233000000Y-62852380D02*
X232809523Y-62852380D01*
X232714285Y-62900000D01*
X232666666Y-62947619D01*
X232571428Y-63090476D01*
X232523809Y-63280952D01*
X232523809Y-63661904D01*
X232571428Y-63757142D01*
X232619047Y-63804761D01*
X232714285Y-63852380D01*
X232904761Y-63852380D01*
X233000000Y-63804761D01*
X233047619Y-63757142D01*
X233095238Y-63661904D01*
X233095238Y-63423809D01*
X233047619Y-63328571D01*
X233000000Y-63280952D01*
X232904761Y-63233333D01*
X232714285Y-63233333D01*
X232619047Y-63280952D01*
X232571428Y-63328571D01*
X232523809Y-63423809D01*
X209328571Y-64352380D02*
X209328571Y-63352380D01*
X209804761Y-64352380D02*
X209804761Y-63352380D01*
X210376190Y-64352380D01*
X210376190Y-63352380D01*
X210900000Y-64352380D02*
X211090476Y-64352380D01*
X211185714Y-64304761D01*
X211233333Y-64257142D01*
X211328571Y-64114285D01*
X211376190Y-63923809D01*
X211376190Y-63542857D01*
X211328571Y-63447619D01*
X211280952Y-63400000D01*
X211185714Y-63352380D01*
X210995238Y-63352380D01*
X210900000Y-63400000D01*
X210852380Y-63447619D01*
X210804761Y-63542857D01*
X210804761Y-63780952D01*
X210852380Y-63876190D01*
X210900000Y-63923809D01*
X210995238Y-63971428D01*
X211185714Y-63971428D01*
X211280952Y-63923809D01*
X211328571Y-63876190D01*
X211376190Y-63780952D01*
X211804761Y-63971428D02*
X212566666Y-63971428D01*
X213566666Y-64352380D02*
X212995238Y-64352380D01*
X213280952Y-64352380D02*
X213280952Y-63352380D01*
X213185714Y-63495238D01*
X213090476Y-63590476D01*
X212995238Y-63638095D01*
X213947619Y-63447619D02*
X213995238Y-63400000D01*
X214090476Y-63352380D01*
X214328571Y-63352380D01*
X214423809Y-63400000D01*
X214471428Y-63447619D01*
X214519047Y-63542857D01*
X214519047Y-63638095D01*
X214471428Y-63780952D01*
X213900000Y-64352380D01*
X214519047Y-64352380D01*
X228204761Y-41052380D02*
X228204761Y-40052380D01*
X228680952Y-41052380D02*
X228680952Y-40052380D01*
X229252380Y-41052380D01*
X229252380Y-40052380D01*
X230204761Y-40052380D02*
X229728571Y-40052380D01*
X229680952Y-40528571D01*
X229728571Y-40480952D01*
X229823809Y-40433333D01*
X230061904Y-40433333D01*
X230157142Y-40480952D01*
X230204761Y-40528571D01*
X230252380Y-40623809D01*
X230252380Y-40861904D01*
X230204761Y-40957142D01*
X230157142Y-41004761D01*
X230061904Y-41052380D01*
X229823809Y-41052380D01*
X229728571Y-41004761D01*
X229680952Y-40957142D01*
X230680952Y-40671428D02*
X231442857Y-40671428D01*
X232061904Y-40480952D02*
X231966666Y-40433333D01*
X231919047Y-40385714D01*
X231871428Y-40290476D01*
X231871428Y-40242857D01*
X231919047Y-40147619D01*
X231966666Y-40100000D01*
X232061904Y-40052380D01*
X232252380Y-40052380D01*
X232347619Y-40100000D01*
X232395238Y-40147619D01*
X232442857Y-40242857D01*
X232442857Y-40290476D01*
X232395238Y-40385714D01*
X232347619Y-40433333D01*
X232252380Y-40480952D01*
X232061904Y-40480952D01*
X231966666Y-40528571D01*
X231919047Y-40576190D01*
X231871428Y-40671428D01*
X231871428Y-40861904D01*
X231919047Y-40957142D01*
X231966666Y-41004761D01*
X232061904Y-41052380D01*
X232252380Y-41052380D01*
X232347619Y-41004761D01*
X232395238Y-40957142D01*
X232442857Y-40861904D01*
X232442857Y-40671428D01*
X232395238Y-40576190D01*
X232347619Y-40528571D01*
X232252380Y-40480952D01*
X209204761Y-41052380D02*
X209204761Y-40052380D01*
X209680952Y-41052380D02*
X209680952Y-40052380D01*
X210252380Y-41052380D01*
X210252380Y-40052380D01*
X211252380Y-41052380D02*
X210680952Y-41052380D01*
X210966666Y-41052380D02*
X210966666Y-40052380D01*
X210871428Y-40195238D01*
X210776190Y-40290476D01*
X210680952Y-40338095D01*
X211680952Y-40671428D02*
X212442857Y-40671428D01*
X213347619Y-40385714D02*
X213347619Y-41052380D01*
X213109523Y-40004761D02*
X212871428Y-40719047D01*
X213490476Y-40719047D01*
X153490476Y-40352380D02*
X153823809Y-41352380D01*
X154157142Y-40352380D01*
X154395238Y-40352380D02*
X155061904Y-40352380D01*
X154633333Y-41352380D01*
X137890476Y-39752380D02*
X138223809Y-40752380D01*
X138557142Y-39752380D01*
X139319047Y-39752380D02*
X139128571Y-39752380D01*
X139033333Y-39800000D01*
X138985714Y-39847619D01*
X138890476Y-39990476D01*
X138842857Y-40180952D01*
X138842857Y-40561904D01*
X138890476Y-40657142D01*
X138938095Y-40704761D01*
X139033333Y-40752380D01*
X139223809Y-40752380D01*
X139319047Y-40704761D01*
X139366666Y-40657142D01*
X139414285Y-40561904D01*
X139414285Y-40323809D01*
X139366666Y-40228571D01*
X139319047Y-40180952D01*
X139223809Y-40133333D01*
X139033333Y-40133333D01*
X138938095Y-40180952D01*
X138890476Y-40228571D01*
X138842857Y-40323809D01*
X123090476Y-40152380D02*
X123423809Y-41152380D01*
X123757142Y-40152380D01*
X124566666Y-40152380D02*
X124090476Y-40152380D01*
X124042857Y-40628571D01*
X124090476Y-40580952D01*
X124185714Y-40533333D01*
X124423809Y-40533333D01*
X124519047Y-40580952D01*
X124566666Y-40628571D01*
X124614285Y-40723809D01*
X124614285Y-40961904D01*
X124566666Y-41057142D01*
X124519047Y-41104761D01*
X124423809Y-41152380D01*
X124185714Y-41152380D01*
X124090476Y-41104761D01*
X124042857Y-41057142D01*
X108090476Y-40452380D02*
X108423809Y-41452380D01*
X108757142Y-40452380D01*
X109519047Y-40785714D02*
X109519047Y-41452380D01*
X109280952Y-40404761D02*
X109042857Y-41119047D01*
X109661904Y-41119047D01*
X93290476Y-40152380D02*
X93623809Y-41152380D01*
X93957142Y-40152380D01*
X94195238Y-40152380D02*
X94814285Y-40152380D01*
X94480952Y-40533333D01*
X94623809Y-40533333D01*
X94719047Y-40580952D01*
X94766666Y-40628571D01*
X94814285Y-40723809D01*
X94814285Y-40961904D01*
X94766666Y-41057142D01*
X94719047Y-41104761D01*
X94623809Y-41152380D01*
X94338095Y-41152380D01*
X94242857Y-41104761D01*
X94195238Y-41057142D01*
X78090476Y-40052380D02*
X78423809Y-41052380D01*
X78757142Y-40052380D01*
X79042857Y-40147619D02*
X79090476Y-40100000D01*
X79185714Y-40052380D01*
X79423809Y-40052380D01*
X79519047Y-40100000D01*
X79566666Y-40147619D01*
X79614285Y-40242857D01*
X79614285Y-40338095D01*
X79566666Y-40480952D01*
X78995238Y-41052380D01*
X79614285Y-41052380D01*
X63190476Y-40052380D02*
X63523809Y-41052380D01*
X63857142Y-40052380D01*
X64714285Y-41052380D02*
X64142857Y-41052380D01*
X64428571Y-41052380D02*
X64428571Y-40052380D01*
X64333333Y-40195238D01*
X64238095Y-40290476D01*
X64142857Y-40338095D01*
X47990476Y-39952380D02*
X48323809Y-40952380D01*
X48657142Y-39952380D01*
X49180952Y-39952380D02*
X49276190Y-39952380D01*
X49371428Y-40000000D01*
X49419047Y-40047619D01*
X49466666Y-40142857D01*
X49514285Y-40333333D01*
X49514285Y-40571428D01*
X49466666Y-40761904D01*
X49419047Y-40857142D01*
X49371428Y-40904761D01*
X49276190Y-40952380D01*
X49180952Y-40952380D01*
X49085714Y-40904761D01*
X49038095Y-40857142D01*
X48990476Y-40761904D01*
X48942857Y-40571428D01*
X48942857Y-40333333D01*
X48990476Y-40142857D01*
X49038095Y-40047619D01*
X49085714Y-40000000D01*
X49180952Y-39952380D01*
X284817619Y-93273809D02*
X284817619Y-92797619D01*
X284341428Y-92750000D01*
X284389047Y-92797619D01*
X284436666Y-92892857D01*
X284436666Y-93130952D01*
X284389047Y-93226190D01*
X284341428Y-93273809D01*
X284246190Y-93321428D01*
X284008095Y-93321428D01*
X283912857Y-93273809D01*
X283865238Y-93226190D01*
X283817619Y-93130952D01*
X283817619Y-92892857D01*
X283865238Y-92797619D01*
X283912857Y-92750000D01*
X283912857Y-93750000D02*
X283865238Y-93797619D01*
X283817619Y-93750000D01*
X283865238Y-93702380D01*
X283912857Y-93750000D01*
X283817619Y-93750000D01*
X284817619Y-94416666D02*
X284817619Y-94511904D01*
X284770000Y-94607142D01*
X284722380Y-94654761D01*
X284627142Y-94702380D01*
X284436666Y-94750000D01*
X284198571Y-94750000D01*
X284008095Y-94702380D01*
X283912857Y-94654761D01*
X283865238Y-94607142D01*
X283817619Y-94511904D01*
X283817619Y-94416666D01*
X283865238Y-94321428D01*
X283912857Y-94273809D01*
X284008095Y-94226190D01*
X284198571Y-94178571D01*
X284436666Y-94178571D01*
X284627142Y-94226190D01*
X284722380Y-94273809D01*
X284770000Y-94321428D01*
X284817619Y-94416666D01*
X283817619Y-95702380D02*
X283817619Y-95130952D01*
X283817619Y-95416666D02*
X284817619Y-95416666D01*
X284674761Y-95321428D01*
X284579523Y-95226190D01*
X284531904Y-95130952D01*
X283817619Y-96178571D02*
X283817619Y-96369047D01*
X283865238Y-96464285D01*
X283912857Y-96511904D01*
X284055714Y-96607142D01*
X284246190Y-96654761D01*
X284627142Y-96654761D01*
X284722380Y-96607142D01*
X284770000Y-96559523D01*
X284817619Y-96464285D01*
X284817619Y-96273809D01*
X284770000Y-96178571D01*
X284722380Y-96130952D01*
X284627142Y-96083333D01*
X284389047Y-96083333D01*
X284293809Y-96130952D01*
X284246190Y-96178571D01*
X284198571Y-96273809D01*
X284198571Y-96464285D01*
X284246190Y-96559523D01*
X284293809Y-96607142D01*
X284389047Y-96654761D01*
X284817619Y-96988095D02*
X284817619Y-97654761D01*
X283817619Y-97226190D01*
X283817619Y-98797619D02*
X284484285Y-98797619D01*
X284817619Y-98797619D02*
X284770000Y-98750000D01*
X284722380Y-98797619D01*
X284770000Y-98845238D01*
X284817619Y-98797619D01*
X284722380Y-98797619D01*
X284484285Y-99273809D02*
X283817619Y-99273809D01*
X284389047Y-99273809D02*
X284436666Y-99321428D01*
X284484285Y-99416666D01*
X284484285Y-99559523D01*
X284436666Y-99654761D01*
X284341428Y-99702380D01*
X283817619Y-99702380D01*
D12*
X283000000Y-32500000D02*
X283000000Y-160000000D01*
X242500000Y-32500000D02*
X283586421Y-32500000D01*
X242500000Y-160000000D02*
X283586421Y-160000000D01*
X283000000Y-160000000D02*
X282413579Y-158873496D01*
X283000000Y-160000000D02*
X283586421Y-158873496D01*
X283000000Y-32500000D02*
X282413579Y-33626504D01*
X283000000Y-32500000D02*
X283586421Y-33626504D01*
X204385000Y-91720000D02*
X204385000Y-109680000D01*
X219905000Y-91720000D02*
X204385000Y-91720000D01*
X219905000Y-91720000D02*
X219905000Y-109680000D01*
X204385000Y-109680000D02*
X219905000Y-109680000D01*
X204200000Y-95600000D02*
X203700000Y-95100000D01*
X203700000Y-95100000D02*
X203700000Y-96100000D01*
X203700000Y-96100000D02*
X204200000Y-95600000D01*
X61000000Y-142000000D02*
X61500000Y-142500000D01*
X61500000Y-142500000D02*
X61500000Y-141500000D01*
X61500000Y-141500000D02*
X61000000Y-142000000D01*
X60800000Y-133700000D02*
X60800000Y-147800000D01*
X60800000Y-147800000D02*
X56000000Y-147800000D01*
X52500000Y-147800000D02*
X47700000Y-147800000D01*
X47700000Y-147800000D02*
X47700000Y-133700000D01*
X47700000Y-133700000D02*
X52500000Y-133700000D01*
X56000000Y-133700000D02*
X60800000Y-133700000D01*
X222885000Y-66420000D02*
X222885000Y-84380000D01*
X238405000Y-66420000D02*
X222885000Y-66420000D01*
X238405000Y-66420000D02*
X238405000Y-84380000D01*
X222885000Y-84380000D02*
X238405000Y-84380000D01*
X222700000Y-70300000D02*
X222200000Y-69800000D01*
X222200000Y-69800000D02*
X222200000Y-70800000D01*
X222200000Y-70800000D02*
X222700000Y-70300000D01*
X222885000Y-43920000D02*
X222885000Y-61880000D01*
X238405000Y-43920000D02*
X222885000Y-43920000D01*
X238405000Y-43920000D02*
X238405000Y-61880000D01*
X222885000Y-61880000D02*
X238405000Y-61880000D01*
X222700000Y-47800000D02*
X222200000Y-47300000D01*
X222200000Y-47300000D02*
X222200000Y-48300000D01*
X222200000Y-48300000D02*
X222700000Y-47800000D01*
X223425000Y-132570000D02*
X223425000Y-150530000D01*
X238945000Y-132570000D02*
X223425000Y-132570000D01*
X238945000Y-132570000D02*
X238945000Y-150530000D01*
X223425000Y-150530000D02*
X238945000Y-150530000D01*
X223240000Y-136450000D02*
X222740000Y-135950000D01*
X222740000Y-135950000D02*
X222740000Y-136950000D01*
X222740000Y-136950000D02*
X223240000Y-136450000D01*
X222885000Y-91420000D02*
X222885000Y-109380000D01*
X238405000Y-91420000D02*
X222885000Y-91420000D01*
X238405000Y-91420000D02*
X238405000Y-109380000D01*
X222885000Y-109380000D02*
X238405000Y-109380000D01*
X222700000Y-95300000D02*
X222200000Y-94800000D01*
X222200000Y-94800000D02*
X222200000Y-95800000D01*
X222200000Y-95800000D02*
X222700000Y-95300000D01*
X204385000Y-66720000D02*
X204385000Y-84680000D01*
X219905000Y-66720000D02*
X204385000Y-66720000D01*
X219905000Y-66720000D02*
X219905000Y-84680000D01*
X204385000Y-84680000D02*
X219905000Y-84680000D01*
X204200000Y-70600000D02*
X203700000Y-70100000D01*
X203700000Y-70100000D02*
X203700000Y-71100000D01*
X203700000Y-71100000D02*
X204200000Y-70600000D01*
X204385000Y-44220000D02*
X204385000Y-62180000D01*
X219905000Y-44220000D02*
X204385000Y-44220000D01*
X219905000Y-44220000D02*
X219905000Y-62180000D01*
X204385000Y-62180000D02*
X219905000Y-62180000D01*
X204200000Y-48100000D02*
X203700000Y-47600000D01*
X203700000Y-47600000D02*
X203700000Y-48600000D01*
X203700000Y-48600000D02*
X204200000Y-48100000D01*
X205385000Y-138220000D02*
X205385000Y-156180000D01*
X220905000Y-138220000D02*
X205385000Y-138220000D01*
X220905000Y-138220000D02*
X220905000Y-156180000D01*
X205385000Y-156180000D02*
X220905000Y-156180000D01*
X205200000Y-142100000D02*
X204700000Y-141600000D01*
X204700000Y-141600000D02*
X204700000Y-142600000D01*
X204700000Y-142600000D02*
X205200000Y-142100000D01*
D11*
X134200000Y-104100000D02*
X143200000Y-104100000D01*
X134200000Y-115000000D02*
X143200000Y-115000000D01*
X134200000Y-104100000D02*
X134200000Y-115000000D01*
X143200000Y-104100000D02*
X143200000Y-115000000D01*
X140500000Y-110300000D02*
G75*
G03X140500000Y-110300000I-1800000J0D01*
G01*
X138700000Y-108500000D02*
X138700000Y-112100000D01*
X136900000Y-110300000D02*
X140500000Y-110300000D01*
X119200000Y-104100000D02*
X128200000Y-104100000D01*
X119200000Y-115000000D02*
X128200000Y-115000000D01*
X119200000Y-104100000D02*
X119200000Y-115000000D01*
X128200000Y-104100000D02*
X128200000Y-115000000D01*
X125500000Y-110300000D02*
G75*
G03X125500000Y-110300000I-1800000J0D01*
G01*
X123700000Y-108500000D02*
X123700000Y-112100000D01*
X121900000Y-110300000D02*
X125500000Y-110300000D01*
X104200000Y-104100000D02*
X113200000Y-104100000D01*
X104200000Y-115000000D02*
X113200000Y-115000000D01*
X104200000Y-104100000D02*
X104200000Y-115000000D01*
X113200000Y-104100000D02*
X113200000Y-115000000D01*
X110500000Y-110300000D02*
G75*
G03X110500000Y-110300000I-1800000J0D01*
G01*
X108700000Y-108500000D02*
X108700000Y-112100000D01*
X106900000Y-110300000D02*
X110500000Y-110300000D01*
X89200000Y-104100000D02*
X98200000Y-104100000D01*
X89200000Y-115000000D02*
X98200000Y-115000000D01*
X89200000Y-104100000D02*
X89200000Y-115000000D01*
X98200000Y-104100000D02*
X98200000Y-115000000D01*
X95500000Y-110300000D02*
G75*
G03X95500000Y-110300000I-1800000J0D01*
G01*
X93700000Y-108500000D02*
X93700000Y-112100000D01*
X91900000Y-110300000D02*
X95500000Y-110300000D01*
X74200000Y-104100000D02*
X83200000Y-104100000D01*
X74200000Y-115000000D02*
X83200000Y-115000000D01*
X74200000Y-104100000D02*
X74200000Y-115000000D01*
X83200000Y-104100000D02*
X83200000Y-115000000D01*
X80500000Y-110300000D02*
G75*
G03X80500000Y-110300000I-1800000J0D01*
G01*
X78700000Y-108500000D02*
X78700000Y-112100000D01*
X76900000Y-110300000D02*
X80500000Y-110300000D01*
X59200000Y-104100000D02*
X68200000Y-104100000D01*
X59200000Y-115000000D02*
X68200000Y-115000000D01*
X59200000Y-104100000D02*
X59200000Y-115000000D01*
X68200000Y-104100000D02*
X68200000Y-115000000D01*
X65500000Y-110300000D02*
G75*
G03X65500000Y-110300000I-1800000J0D01*
G01*
X63700000Y-108500000D02*
X63700000Y-112100000D01*
X61900000Y-110300000D02*
X65500000Y-110300000D01*
X44200000Y-104100000D02*
X53200000Y-104100000D01*
X44200000Y-115000000D02*
X53200000Y-115000000D01*
X44200000Y-104100000D02*
X44200000Y-115000000D01*
X53200000Y-104100000D02*
X53200000Y-115000000D01*
X50500000Y-110300000D02*
G75*
G03X50500000Y-110300000I-1800000J0D01*
G01*
X48700000Y-108500000D02*
X48700000Y-112100000D01*
X46900000Y-110300000D02*
X50500000Y-110300000D01*
X149200000Y-104100000D02*
X158200000Y-104100000D01*
X149200000Y-115000000D02*
X158200000Y-115000000D01*
X149200000Y-104100000D02*
X149200000Y-115000000D01*
X158200000Y-104100000D02*
X158200000Y-115000000D01*
X155500000Y-110300000D02*
G75*
G03X155500000Y-110300000I-1800000J0D01*
G01*
X153700000Y-108500000D02*
X153700000Y-112100000D01*
X151900000Y-110300000D02*
X155500000Y-110300000D01*
X134200000Y-84100000D02*
X143200000Y-84100000D01*
X134200000Y-95000000D02*
X143200000Y-95000000D01*
X134200000Y-84100000D02*
X134200000Y-95000000D01*
X143200000Y-84100000D02*
X143200000Y-95000000D01*
X140500000Y-90300000D02*
G75*
G03X140500000Y-90300000I-1800000J0D01*
G01*
X138700000Y-88500000D02*
X138700000Y-92100000D01*
X136900000Y-90300000D02*
X140500000Y-90300000D01*
X119200000Y-84100000D02*
X128200000Y-84100000D01*
X119200000Y-95000000D02*
X128200000Y-95000000D01*
X119200000Y-84100000D02*
X119200000Y-95000000D01*
X128200000Y-84100000D02*
X128200000Y-95000000D01*
X125500000Y-90300000D02*
G75*
G03X125500000Y-90300000I-1800000J0D01*
G01*
X123700000Y-88500000D02*
X123700000Y-92100000D01*
X121900000Y-90300000D02*
X125500000Y-90300000D01*
X104200000Y-84100000D02*
X113200000Y-84100000D01*
X104200000Y-95000000D02*
X113200000Y-95000000D01*
X104200000Y-84100000D02*
X104200000Y-95000000D01*
X113200000Y-84100000D02*
X113200000Y-95000000D01*
X110500000Y-90300000D02*
G75*
G03X110500000Y-90300000I-1800000J0D01*
G01*
X108700000Y-88500000D02*
X108700000Y-92100000D01*
X106900000Y-90300000D02*
X110500000Y-90300000D01*
X89200000Y-84100000D02*
X98200000Y-84100000D01*
X89200000Y-95000000D02*
X98200000Y-95000000D01*
X89200000Y-84100000D02*
X89200000Y-95000000D01*
X98200000Y-84100000D02*
X98200000Y-95000000D01*
X95500000Y-90300000D02*
G75*
G03X95500000Y-90300000I-1800000J0D01*
G01*
X93700000Y-88500000D02*
X93700000Y-92100000D01*
X91900000Y-90300000D02*
X95500000Y-90300000D01*
X74200000Y-84100000D02*
X83200000Y-84100000D01*
X74200000Y-95000000D02*
X83200000Y-95000000D01*
X74200000Y-84100000D02*
X74200000Y-95000000D01*
X83200000Y-84100000D02*
X83200000Y-95000000D01*
X80500000Y-90300000D02*
G75*
G03X80500000Y-90300000I-1800000J0D01*
G01*
X78700000Y-88500000D02*
X78700000Y-92100000D01*
X76900000Y-90300000D02*
X80500000Y-90300000D01*
X59200000Y-84100000D02*
X68200000Y-84100000D01*
X59200000Y-95000000D02*
X68200000Y-95000000D01*
X59200000Y-84100000D02*
X59200000Y-95000000D01*
X68200000Y-84100000D02*
X68200000Y-95000000D01*
X65500000Y-90300000D02*
G75*
G03X65500000Y-90300000I-1800000J0D01*
G01*
X63700000Y-88500000D02*
X63700000Y-92100000D01*
X61900000Y-90300000D02*
X65500000Y-90300000D01*
X44200000Y-84100000D02*
X53200000Y-84100000D01*
X44200000Y-95000000D02*
X53200000Y-95000000D01*
X44200000Y-84100000D02*
X44200000Y-95000000D01*
X53200000Y-84100000D02*
X53200000Y-95000000D01*
X50500000Y-90300000D02*
G75*
G03X50500000Y-90300000I-1800000J0D01*
G01*
X48700000Y-88500000D02*
X48700000Y-92100000D01*
X46900000Y-90300000D02*
X50500000Y-90300000D01*
X149200000Y-84100000D02*
X158200000Y-84100000D01*
X149200000Y-95000000D02*
X158200000Y-95000000D01*
X149200000Y-84100000D02*
X149200000Y-95000000D01*
X158200000Y-84100000D02*
X158200000Y-95000000D01*
X155500000Y-90300000D02*
G75*
G03X155500000Y-90300000I-1800000J0D01*
G01*
X153700000Y-88500000D02*
X153700000Y-92100000D01*
X151900000Y-90300000D02*
X155500000Y-90300000D01*
X134200000Y-64100000D02*
X143200000Y-64100000D01*
X134200000Y-75000000D02*
X143200000Y-75000000D01*
X134200000Y-64100000D02*
X134200000Y-75000000D01*
X143200000Y-64100000D02*
X143200000Y-75000000D01*
X140500000Y-70300000D02*
G75*
G03X140500000Y-70300000I-1800000J0D01*
G01*
X138700000Y-68500000D02*
X138700000Y-72100000D01*
X136900000Y-70300000D02*
X140500000Y-70300000D01*
X119200000Y-64100000D02*
X128200000Y-64100000D01*
X119200000Y-75000000D02*
X128200000Y-75000000D01*
X119200000Y-64100000D02*
X119200000Y-75000000D01*
X128200000Y-64100000D02*
X128200000Y-75000000D01*
X125500000Y-70300000D02*
G75*
G03X125500000Y-70300000I-1800000J0D01*
G01*
X123700000Y-68500000D02*
X123700000Y-72100000D01*
X121900000Y-70300000D02*
X125500000Y-70300000D01*
X104200000Y-64100000D02*
X113200000Y-64100000D01*
X104200000Y-75000000D02*
X113200000Y-75000000D01*
X104200000Y-64100000D02*
X104200000Y-75000000D01*
X113200000Y-64100000D02*
X113200000Y-75000000D01*
X110500000Y-70300000D02*
G75*
G03X110500000Y-70300000I-1800000J0D01*
G01*
X108700000Y-68500000D02*
X108700000Y-72100000D01*
X106900000Y-70300000D02*
X110500000Y-70300000D01*
X89200000Y-64100000D02*
X98200000Y-64100000D01*
X89200000Y-75000000D02*
X98200000Y-75000000D01*
X89200000Y-64100000D02*
X89200000Y-75000000D01*
X98200000Y-64100000D02*
X98200000Y-75000000D01*
X95500000Y-70300000D02*
G75*
G03X95500000Y-70300000I-1800000J0D01*
G01*
X93700000Y-68500000D02*
X93700000Y-72100000D01*
X91900000Y-70300000D02*
X95500000Y-70300000D01*
X74200000Y-64100000D02*
X83200000Y-64100000D01*
X74200000Y-75000000D02*
X83200000Y-75000000D01*
X74200000Y-64100000D02*
X74200000Y-75000000D01*
X83200000Y-64100000D02*
X83200000Y-75000000D01*
X80500000Y-70300000D02*
G75*
G03X80500000Y-70300000I-1800000J0D01*
G01*
X78700000Y-68500000D02*
X78700000Y-72100000D01*
X76900000Y-70300000D02*
X80500000Y-70300000D01*
X59200000Y-64100000D02*
X68200000Y-64100000D01*
X59200000Y-75000000D02*
X68200000Y-75000000D01*
X59200000Y-64100000D02*
X59200000Y-75000000D01*
X68200000Y-64100000D02*
X68200000Y-75000000D01*
X65500000Y-70300000D02*
G75*
G03X65500000Y-70300000I-1800000J0D01*
G01*
X63700000Y-68500000D02*
X63700000Y-72100000D01*
X61900000Y-70300000D02*
X65500000Y-70300000D01*
X44200000Y-64100000D02*
X53200000Y-64100000D01*
X44200000Y-75000000D02*
X53200000Y-75000000D01*
X44200000Y-64100000D02*
X44200000Y-75000000D01*
X53200000Y-64100000D02*
X53200000Y-75000000D01*
X50500000Y-70300000D02*
G75*
G03X50500000Y-70300000I-1800000J0D01*
G01*
X48700000Y-68500000D02*
X48700000Y-72100000D01*
X46900000Y-70300000D02*
X50500000Y-70300000D01*
X149200000Y-64100000D02*
X158200000Y-64100000D01*
X149200000Y-75000000D02*
X158200000Y-75000000D01*
X149200000Y-64100000D02*
X149200000Y-75000000D01*
X158200000Y-64100000D02*
X158200000Y-75000000D01*
X155500000Y-70300000D02*
G75*
G03X155500000Y-70300000I-1800000J0D01*
G01*
X153700000Y-68500000D02*
X153700000Y-72100000D01*
X151900000Y-70300000D02*
X155500000Y-70300000D01*
X134200000Y-44100000D02*
X143200000Y-44100000D01*
X134200000Y-55000000D02*
X143200000Y-55000000D01*
X134200000Y-44100000D02*
X134200000Y-55000000D01*
X143200000Y-44100000D02*
X143200000Y-55000000D01*
X140500000Y-50300000D02*
G75*
G03X140500000Y-50300000I-1800000J0D01*
G01*
X138700000Y-48500000D02*
X138700000Y-52100000D01*
X136900000Y-50300000D02*
X140500000Y-50300000D01*
X119200000Y-44100000D02*
X128200000Y-44100000D01*
X119200000Y-55000000D02*
X128200000Y-55000000D01*
X119200000Y-44100000D02*
X119200000Y-55000000D01*
X128200000Y-44100000D02*
X128200000Y-55000000D01*
X125500000Y-50300000D02*
G75*
G03X125500000Y-50300000I-1800000J0D01*
G01*
X123700000Y-48500000D02*
X123700000Y-52100000D01*
X121900000Y-50300000D02*
X125500000Y-50300000D01*
X104200000Y-44100000D02*
X113200000Y-44100000D01*
X104200000Y-55000000D02*
X113200000Y-55000000D01*
X104200000Y-44100000D02*
X104200000Y-55000000D01*
X113200000Y-44100000D02*
X113200000Y-55000000D01*
X110500000Y-50300000D02*
G75*
G03X110500000Y-50300000I-1800000J0D01*
G01*
X108700000Y-48500000D02*
X108700000Y-52100000D01*
X106900000Y-50300000D02*
X110500000Y-50300000D01*
X88918000Y-44100000D02*
X97918000Y-44100000D01*
X88918000Y-55000000D02*
X97918000Y-55000000D01*
X88918000Y-44100000D02*
X88918000Y-55000000D01*
X97918000Y-44100000D02*
X97918000Y-55000000D01*
X95218000Y-50300000D02*
G75*
G03X95218000Y-50300000I-1800000J0D01*
G01*
X93418000Y-48500000D02*
X93418000Y-52100000D01*
X91618000Y-50300000D02*
X95218000Y-50300000D01*
X74012000Y-44100000D02*
X83012000Y-44100000D01*
X74012000Y-55000000D02*
X83012000Y-55000000D01*
X74012000Y-44100000D02*
X74012000Y-55000000D01*
X83012000Y-44100000D02*
X83012000Y-55000000D01*
X80312000Y-50300000D02*
G75*
G03X80312000Y-50300000I-1800000J0D01*
G01*
X78512000Y-48500000D02*
X78512000Y-52100000D01*
X76712000Y-50300000D02*
X80312000Y-50300000D01*
X59106000Y-44100000D02*
X68106000Y-44100000D01*
X59106000Y-55000000D02*
X68106000Y-55000000D01*
X59106000Y-44100000D02*
X59106000Y-55000000D01*
X68106000Y-44100000D02*
X68106000Y-55000000D01*
X65406000Y-50300000D02*
G75*
G03X65406000Y-50300000I-1800000J0D01*
G01*
X63606000Y-48500000D02*
X63606000Y-52100000D01*
X61806000Y-50300000D02*
X65406000Y-50300000D01*
X44200000Y-44100000D02*
X53200000Y-44100000D01*
X44200000Y-55000000D02*
X53200000Y-55000000D01*
X44200000Y-44100000D02*
X44200000Y-55000000D01*
X53200000Y-44100000D02*
X53200000Y-55000000D01*
X50500000Y-50300000D02*
G75*
G03X50500000Y-50300000I-1800000J0D01*
G01*
X48700000Y-48500000D02*
X48700000Y-52100000D01*
X46900000Y-50300000D02*
X50500000Y-50300000D01*
X149200000Y-44100000D02*
X158200000Y-44100000D01*
X149200000Y-55000000D02*
X158200000Y-55000000D01*
X149200000Y-44100000D02*
X149200000Y-55000000D01*
X158200000Y-44100000D02*
X158200000Y-55000000D01*
X155500000Y-50300000D02*
G75*
G03X155500000Y-50300000I-1800000J0D01*
G01*
X153700000Y-48500000D02*
X153700000Y-52100000D01*
X151900000Y-50300000D02*
X155500000Y-50300000D01*
X145666666Y-134402380D02*
X145333333Y-133926190D01*
X145095238Y-134402380D02*
X145095238Y-133402380D01*
X145476190Y-133402380D01*
X145571428Y-133450000D01*
X145619047Y-133497619D01*
X145666666Y-133592857D01*
X145666666Y-133735714D01*
X145619047Y-133830952D01*
X145571428Y-133878571D01*
X145476190Y-133926190D01*
X145095238Y-133926190D01*
X146095238Y-133878571D02*
X146428571Y-133878571D01*
X146571428Y-134402380D02*
X146095238Y-134402380D01*
X146095238Y-133402380D01*
X146571428Y-133402380D01*
X147333333Y-133878571D02*
X147000000Y-133878571D01*
X147000000Y-134402380D02*
X147000000Y-133402380D01*
X147476190Y-133402380D01*
X148000000Y-133402380D02*
X148000000Y-133640476D01*
X147761904Y-133545238D02*
X148000000Y-133640476D01*
X148238095Y-133545238D01*
X147857142Y-133830952D02*
X148000000Y-133640476D01*
X148142857Y-133830952D01*
X148761904Y-133402380D02*
X148761904Y-133640476D01*
X148523809Y-133545238D02*
X148761904Y-133640476D01*
X149000000Y-133545238D01*
X148619047Y-133830952D02*
X148761904Y-133640476D01*
X148904761Y-133830952D01*
X236866666Y-151302380D02*
X236533333Y-150826190D01*
X236295238Y-151302380D02*
X236295238Y-150302380D01*
X236676190Y-150302380D01*
X236771428Y-150350000D01*
X236819047Y-150397619D01*
X236866666Y-150492857D01*
X236866666Y-150635714D01*
X236819047Y-150730952D01*
X236771428Y-150778571D01*
X236676190Y-150826190D01*
X236295238Y-150826190D01*
X237295238Y-150778571D02*
X237628571Y-150778571D01*
X237771428Y-151302380D02*
X237295238Y-151302380D01*
X237295238Y-150302380D01*
X237771428Y-150302380D01*
X238533333Y-150778571D02*
X238200000Y-150778571D01*
X238200000Y-151302380D02*
X238200000Y-150302380D01*
X238676190Y-150302380D01*
X239200000Y-150302380D02*
X239200000Y-150540476D01*
X238961904Y-150445238D02*
X239200000Y-150540476D01*
X239438095Y-150445238D01*
X239057142Y-150730952D02*
X239200000Y-150540476D01*
X239342857Y-150730952D01*
X239961904Y-150302380D02*
X239961904Y-150540476D01*
X239723809Y-150445238D02*
X239961904Y-150540476D01*
X240200000Y-150445238D01*
X239819047Y-150730952D02*
X239961904Y-150540476D01*
X240104761Y-150730952D01*
X46066666Y-150402380D02*
X45733333Y-149926190D01*
X45495238Y-150402380D02*
X45495238Y-149402380D01*
X45876190Y-149402380D01*
X45971428Y-149450000D01*
X46019047Y-149497619D01*
X46066666Y-149592857D01*
X46066666Y-149735714D01*
X46019047Y-149830952D01*
X45971428Y-149878571D01*
X45876190Y-149926190D01*
X45495238Y-149926190D01*
X46495238Y-149878571D02*
X46828571Y-149878571D01*
X46971428Y-150402380D02*
X46495238Y-150402380D01*
X46495238Y-149402380D01*
X46971428Y-149402380D01*
X47733333Y-149878571D02*
X47400000Y-149878571D01*
X47400000Y-150402380D02*
X47400000Y-149402380D01*
X47876190Y-149402380D01*
X48400000Y-149402380D02*
X48400000Y-149640476D01*
X48161904Y-149545238D02*
X48400000Y-149640476D01*
X48638095Y-149545238D01*
X48257142Y-149830952D02*
X48400000Y-149640476D01*
X48542857Y-149830952D01*
X49161904Y-149402380D02*
X49161904Y-149640476D01*
X48923809Y-149545238D02*
X49161904Y-149640476D01*
X49400000Y-149545238D01*
X49019047Y-149830952D02*
X49161904Y-149640476D01*
X49304761Y-149830952D01*
X162766666Y-32702380D02*
X162433333Y-32226190D01*
X162195238Y-32702380D02*
X162195238Y-31702380D01*
X162576190Y-31702380D01*
X162671428Y-31750000D01*
X162719047Y-31797619D01*
X162766666Y-31892857D01*
X162766666Y-32035714D01*
X162719047Y-32130952D01*
X162671428Y-32178571D01*
X162576190Y-32226190D01*
X162195238Y-32226190D01*
X163195238Y-32178571D02*
X163528571Y-32178571D01*
X163671428Y-32702380D02*
X163195238Y-32702380D01*
X163195238Y-31702380D01*
X163671428Y-31702380D01*
X164433333Y-32178571D02*
X164100000Y-32178571D01*
X164100000Y-32702380D02*
X164100000Y-31702380D01*
X164576190Y-31702380D01*
X165100000Y-31702380D02*
X165100000Y-31940476D01*
X164861904Y-31845238D02*
X165100000Y-31940476D01*
X165338095Y-31845238D01*
X164957142Y-32130952D02*
X165100000Y-31940476D01*
X165242857Y-32130952D01*
X165861904Y-31702380D02*
X165861904Y-31940476D01*
X165623809Y-31845238D02*
X165861904Y-31940476D01*
X166100000Y-31845238D01*
X165719047Y-32130952D02*
X165861904Y-31940476D01*
X166004761Y-32130952D01*
X45866666Y-32602380D02*
X45533333Y-32126190D01*
X45295238Y-32602380D02*
X45295238Y-31602380D01*
X45676190Y-31602380D01*
X45771428Y-31650000D01*
X45819047Y-31697619D01*
X45866666Y-31792857D01*
X45866666Y-31935714D01*
X45819047Y-32030952D01*
X45771428Y-32078571D01*
X45676190Y-32126190D01*
X45295238Y-32126190D01*
X46295238Y-32078571D02*
X46628571Y-32078571D01*
X46771428Y-32602380D02*
X46295238Y-32602380D01*
X46295238Y-31602380D01*
X46771428Y-31602380D01*
X47533333Y-32078571D02*
X47200000Y-32078571D01*
X47200000Y-32602380D02*
X47200000Y-31602380D01*
X47676190Y-31602380D01*
X48200000Y-31602380D02*
X48200000Y-31840476D01*
X47961904Y-31745238D02*
X48200000Y-31840476D01*
X48438095Y-31745238D01*
X48057142Y-32030952D02*
X48200000Y-31840476D01*
X48342857Y-32030952D01*
X48961904Y-31602380D02*
X48961904Y-31840476D01*
X48723809Y-31745238D02*
X48961904Y-31840476D01*
X49200000Y-31745238D01*
X48819047Y-32030952D02*
X48961904Y-31840476D01*
X49104761Y-32030952D01*
X236066666Y-32602380D02*
X235733333Y-32126190D01*
X235495238Y-32602380D02*
X235495238Y-31602380D01*
X235876190Y-31602380D01*
X235971428Y-31650000D01*
X236019047Y-31697619D01*
X236066666Y-31792857D01*
X236066666Y-31935714D01*
X236019047Y-32030952D01*
X235971428Y-32078571D01*
X235876190Y-32126190D01*
X235495238Y-32126190D01*
X236495238Y-32078571D02*
X236828571Y-32078571D01*
X236971428Y-32602380D02*
X236495238Y-32602380D01*
X236495238Y-31602380D01*
X236971428Y-31602380D01*
X237733333Y-32078571D02*
X237400000Y-32078571D01*
X237400000Y-32602380D02*
X237400000Y-31602380D01*
X237876190Y-31602380D01*
X238400000Y-31602380D02*
X238400000Y-31840476D01*
X238161904Y-31745238D02*
X238400000Y-31840476D01*
X238638095Y-31745238D01*
X238257142Y-32030952D02*
X238400000Y-31840476D01*
X238542857Y-32030952D01*
X239161904Y-31602380D02*
X239161904Y-31840476D01*
X238923809Y-31745238D02*
X239161904Y-31840476D01*
X239400000Y-31745238D01*
X239019047Y-32030952D02*
X239161904Y-31840476D01*
X239304761Y-32030952D01*
X211335476Y-90052380D02*
X211335476Y-90766666D01*
X211287857Y-90909523D01*
X211192619Y-91004761D01*
X211049761Y-91052380D01*
X210954523Y-91052380D01*
X211716428Y-90052380D02*
X212335476Y-90052380D01*
X212002142Y-90433333D01*
X212145000Y-90433333D01*
X212240238Y-90480952D01*
X212287857Y-90528571D01*
X212335476Y-90623809D01*
X212335476Y-90861904D01*
X212287857Y-90957142D01*
X212240238Y-91004761D01*
X212145000Y-91052380D01*
X211859285Y-91052380D01*
X211764047Y-91004761D01*
X211716428Y-90957142D01*
X212906904Y-90480952D02*
X212811666Y-90433333D01*
X212764047Y-90385714D01*
X212716428Y-90290476D01*
X212716428Y-90242857D01*
X212764047Y-90147619D01*
X212811666Y-90100000D01*
X212906904Y-90052380D01*
X213097380Y-90052380D01*
X213192619Y-90100000D01*
X213240238Y-90147619D01*
X213287857Y-90242857D01*
X213287857Y-90290476D01*
X213240238Y-90385714D01*
X213192619Y-90433333D01*
X213097380Y-90480952D01*
X212906904Y-90480952D01*
X212811666Y-90528571D01*
X212764047Y-90576190D01*
X212716428Y-90671428D01*
X212716428Y-90861904D01*
X212764047Y-90957142D01*
X212811666Y-91004761D01*
X212906904Y-91052380D01*
X213097380Y-91052380D01*
X213192619Y-91004761D01*
X213240238Y-90957142D01*
X213287857Y-90861904D01*
X213287857Y-90671428D01*
X213240238Y-90576190D01*
X213192619Y-90528571D01*
X213097380Y-90480952D01*
X61002380Y-137009523D02*
X61716666Y-137009523D01*
X61859523Y-137057142D01*
X61954761Y-137152380D01*
X62002380Y-137295238D01*
X62002380Y-137390476D01*
X61335714Y-136104761D02*
X62002380Y-136104761D01*
X60954761Y-136342857D02*
X61669047Y-136580952D01*
X61669047Y-135961904D01*
X61002380Y-135152380D02*
X61002380Y-135342857D01*
X61050000Y-135438095D01*
X61097619Y-135485714D01*
X61240476Y-135580952D01*
X61430952Y-135628571D01*
X61811904Y-135628571D01*
X61907142Y-135580952D01*
X61954761Y-135533333D01*
X62002380Y-135438095D01*
X62002380Y-135247619D01*
X61954761Y-135152380D01*
X61907142Y-135104761D01*
X61811904Y-135057142D01*
X61573809Y-135057142D01*
X61478571Y-135104761D01*
X61430952Y-135152380D01*
X61383333Y-135247619D01*
X61383333Y-135438095D01*
X61430952Y-135533333D01*
X61478571Y-135580952D01*
X61573809Y-135628571D01*
X229835476Y-64752380D02*
X229835476Y-65466666D01*
X229787857Y-65609523D01*
X229692619Y-65704761D01*
X229549761Y-65752380D01*
X229454523Y-65752380D01*
X230740238Y-65085714D02*
X230740238Y-65752380D01*
X230502142Y-64704761D02*
X230264047Y-65419047D01*
X230883095Y-65419047D01*
X231740238Y-64752380D02*
X231264047Y-64752380D01*
X231216428Y-65228571D01*
X231264047Y-65180952D01*
X231359285Y-65133333D01*
X231597380Y-65133333D01*
X231692619Y-65180952D01*
X231740238Y-65228571D01*
X231787857Y-65323809D01*
X231787857Y-65561904D01*
X231740238Y-65657142D01*
X231692619Y-65704761D01*
X231597380Y-65752380D01*
X231359285Y-65752380D01*
X231264047Y-65704761D01*
X231216428Y-65657142D01*
X229835476Y-42252380D02*
X229835476Y-42966666D01*
X229787857Y-43109523D01*
X229692619Y-43204761D01*
X229549761Y-43252380D01*
X229454523Y-43252380D01*
X230740238Y-42585714D02*
X230740238Y-43252380D01*
X230502142Y-42204761D02*
X230264047Y-42919047D01*
X230883095Y-42919047D01*
X231692619Y-42585714D02*
X231692619Y-43252380D01*
X231454523Y-42204761D02*
X231216428Y-42919047D01*
X231835476Y-42919047D01*
X230375476Y-130902380D02*
X230375476Y-131616666D01*
X230327857Y-131759523D01*
X230232619Y-131854761D01*
X230089761Y-131902380D01*
X229994523Y-131902380D01*
X231280238Y-131235714D02*
X231280238Y-131902380D01*
X231042142Y-130854761D02*
X230804047Y-131569047D01*
X231423095Y-131569047D01*
X231708809Y-130902380D02*
X232327857Y-130902380D01*
X231994523Y-131283333D01*
X232137380Y-131283333D01*
X232232619Y-131330952D01*
X232280238Y-131378571D01*
X232327857Y-131473809D01*
X232327857Y-131711904D01*
X232280238Y-131807142D01*
X232232619Y-131854761D01*
X232137380Y-131902380D01*
X231851666Y-131902380D01*
X231756428Y-131854761D01*
X231708809Y-131807142D01*
X229835476Y-89752380D02*
X229835476Y-90466666D01*
X229787857Y-90609523D01*
X229692619Y-90704761D01*
X229549761Y-90752380D01*
X229454523Y-90752380D01*
X230740238Y-90085714D02*
X230740238Y-90752380D01*
X230502142Y-89704761D02*
X230264047Y-90419047D01*
X230883095Y-90419047D01*
X231216428Y-89847619D02*
X231264047Y-89800000D01*
X231359285Y-89752380D01*
X231597380Y-89752380D01*
X231692619Y-89800000D01*
X231740238Y-89847619D01*
X231787857Y-89942857D01*
X231787857Y-90038095D01*
X231740238Y-90180952D01*
X231168809Y-90752380D01*
X231787857Y-90752380D01*
X211335476Y-65052380D02*
X211335476Y-65766666D01*
X211287857Y-65909523D01*
X211192619Y-66004761D01*
X211049761Y-66052380D01*
X210954523Y-66052380D01*
X212240238Y-65385714D02*
X212240238Y-66052380D01*
X212002142Y-65004761D02*
X211764047Y-65719047D01*
X212383095Y-65719047D01*
X213287857Y-66052380D02*
X212716428Y-66052380D01*
X213002142Y-66052380D02*
X213002142Y-65052380D01*
X212906904Y-65195238D01*
X212811666Y-65290476D01*
X212716428Y-65338095D01*
X211335476Y-42552380D02*
X211335476Y-43266666D01*
X211287857Y-43409523D01*
X211192619Y-43504761D01*
X211049761Y-43552380D01*
X210954523Y-43552380D01*
X212240238Y-42885714D02*
X212240238Y-43552380D01*
X212002142Y-42504761D02*
X211764047Y-43219047D01*
X212383095Y-43219047D01*
X212954523Y-42552380D02*
X213049761Y-42552380D01*
X213145000Y-42600000D01*
X213192619Y-42647619D01*
X213240238Y-42742857D01*
X213287857Y-42933333D01*
X213287857Y-43171428D01*
X213240238Y-43361904D01*
X213192619Y-43457142D01*
X213145000Y-43504761D01*
X213049761Y-43552380D01*
X212954523Y-43552380D01*
X212859285Y-43504761D01*
X212811666Y-43457142D01*
X212764047Y-43361904D01*
X212716428Y-43171428D01*
X212716428Y-42933333D01*
X212764047Y-42742857D01*
X212811666Y-42647619D01*
X212859285Y-42600000D01*
X212954523Y-42552380D01*
X212335476Y-136552380D02*
X212335476Y-137266666D01*
X212287857Y-137409523D01*
X212192619Y-137504761D01*
X212049761Y-137552380D01*
X211954523Y-137552380D01*
X212716428Y-136552380D02*
X213335476Y-136552380D01*
X213002142Y-136933333D01*
X213145000Y-136933333D01*
X213240238Y-136980952D01*
X213287857Y-137028571D01*
X213335476Y-137123809D01*
X213335476Y-137361904D01*
X213287857Y-137457142D01*
X213240238Y-137504761D01*
X213145000Y-137552380D01*
X212859285Y-137552380D01*
X212764047Y-137504761D01*
X212716428Y-137457142D01*
X213811666Y-137552380D02*
X214002142Y-137552380D01*
X214097380Y-137504761D01*
X214145000Y-137457142D01*
X214240238Y-137314285D01*
X214287857Y-137123809D01*
X214287857Y-136742857D01*
X214240238Y-136647619D01*
X214192619Y-136600000D01*
X214097380Y-136552380D01*
X213906904Y-136552380D01*
X213811666Y-136600000D01*
X213764047Y-136647619D01*
X213716428Y-136742857D01*
X213716428Y-136980952D01*
X213764047Y-137076190D01*
X213811666Y-137123809D01*
X213906904Y-137171428D01*
X214097380Y-137171428D01*
X214192619Y-137123809D01*
X214240238Y-137076190D01*
X214287857Y-136980952D01*
X141954476Y-115340380D02*
X141954476Y-116054666D01*
X141906857Y-116197523D01*
X141811619Y-116292761D01*
X141668761Y-116340380D01*
X141573523Y-116340380D01*
X142335428Y-115340380D02*
X142954476Y-115340380D01*
X142621142Y-115721333D01*
X142764000Y-115721333D01*
X142859238Y-115768952D01*
X142906857Y-115816571D01*
X142954476Y-115911809D01*
X142954476Y-116149904D01*
X142906857Y-116245142D01*
X142859238Y-116292761D01*
X142764000Y-116340380D01*
X142478285Y-116340380D01*
X142383047Y-116292761D01*
X142335428Y-116245142D01*
X143811619Y-115673714D02*
X143811619Y-116340380D01*
X143573523Y-115292761D02*
X143335428Y-116007047D01*
X143954476Y-116007047D01*
X126954476Y-115340380D02*
X126954476Y-116054666D01*
X126906857Y-116197523D01*
X126811619Y-116292761D01*
X126668761Y-116340380D01*
X126573523Y-116340380D01*
X127335428Y-115340380D02*
X127954476Y-115340380D01*
X127621142Y-115721333D01*
X127764000Y-115721333D01*
X127859238Y-115768952D01*
X127906857Y-115816571D01*
X127954476Y-115911809D01*
X127954476Y-116149904D01*
X127906857Y-116245142D01*
X127859238Y-116292761D01*
X127764000Y-116340380D01*
X127478285Y-116340380D01*
X127383047Y-116292761D01*
X127335428Y-116245142D01*
X128287809Y-115340380D02*
X128906857Y-115340380D01*
X128573523Y-115721333D01*
X128716380Y-115721333D01*
X128811619Y-115768952D01*
X128859238Y-115816571D01*
X128906857Y-115911809D01*
X128906857Y-116149904D01*
X128859238Y-116245142D01*
X128811619Y-116292761D01*
X128716380Y-116340380D01*
X128430666Y-116340380D01*
X128335428Y-116292761D01*
X128287809Y-116245142D01*
X111954476Y-115340380D02*
X111954476Y-116054666D01*
X111906857Y-116197523D01*
X111811619Y-116292761D01*
X111668761Y-116340380D01*
X111573523Y-116340380D01*
X112335428Y-115340380D02*
X112954476Y-115340380D01*
X112621142Y-115721333D01*
X112764000Y-115721333D01*
X112859238Y-115768952D01*
X112906857Y-115816571D01*
X112954476Y-115911809D01*
X112954476Y-116149904D01*
X112906857Y-116245142D01*
X112859238Y-116292761D01*
X112764000Y-116340380D01*
X112478285Y-116340380D01*
X112383047Y-116292761D01*
X112335428Y-116245142D01*
X113335428Y-115435619D02*
X113383047Y-115388000D01*
X113478285Y-115340380D01*
X113716380Y-115340380D01*
X113811619Y-115388000D01*
X113859238Y-115435619D01*
X113906857Y-115530857D01*
X113906857Y-115626095D01*
X113859238Y-115768952D01*
X113287809Y-116340380D01*
X113906857Y-116340380D01*
X96954476Y-115340380D02*
X96954476Y-116054666D01*
X96906857Y-116197523D01*
X96811619Y-116292761D01*
X96668761Y-116340380D01*
X96573523Y-116340380D01*
X97335428Y-115340380D02*
X97954476Y-115340380D01*
X97621142Y-115721333D01*
X97764000Y-115721333D01*
X97859238Y-115768952D01*
X97906857Y-115816571D01*
X97954476Y-115911809D01*
X97954476Y-116149904D01*
X97906857Y-116245142D01*
X97859238Y-116292761D01*
X97764000Y-116340380D01*
X97478285Y-116340380D01*
X97383047Y-116292761D01*
X97335428Y-116245142D01*
X98906857Y-116340380D02*
X98335428Y-116340380D01*
X98621142Y-116340380D02*
X98621142Y-115340380D01*
X98525904Y-115483238D01*
X98430666Y-115578476D01*
X98335428Y-115626095D01*
X81954476Y-115340380D02*
X81954476Y-116054666D01*
X81906857Y-116197523D01*
X81811619Y-116292761D01*
X81668761Y-116340380D01*
X81573523Y-116340380D01*
X82335428Y-115340380D02*
X82954476Y-115340380D01*
X82621142Y-115721333D01*
X82764000Y-115721333D01*
X82859238Y-115768952D01*
X82906857Y-115816571D01*
X82954476Y-115911809D01*
X82954476Y-116149904D01*
X82906857Y-116245142D01*
X82859238Y-116292761D01*
X82764000Y-116340380D01*
X82478285Y-116340380D01*
X82383047Y-116292761D01*
X82335428Y-116245142D01*
X83573523Y-115340380D02*
X83668761Y-115340380D01*
X83764000Y-115388000D01*
X83811619Y-115435619D01*
X83859238Y-115530857D01*
X83906857Y-115721333D01*
X83906857Y-115959428D01*
X83859238Y-116149904D01*
X83811619Y-116245142D01*
X83764000Y-116292761D01*
X83668761Y-116340380D01*
X83573523Y-116340380D01*
X83478285Y-116292761D01*
X83430666Y-116245142D01*
X83383047Y-116149904D01*
X83335428Y-115959428D01*
X83335428Y-115721333D01*
X83383047Y-115530857D01*
X83430666Y-115435619D01*
X83478285Y-115388000D01*
X83573523Y-115340380D01*
X66954476Y-115340380D02*
X66954476Y-116054666D01*
X66906857Y-116197523D01*
X66811619Y-116292761D01*
X66668761Y-116340380D01*
X66573523Y-116340380D01*
X67383047Y-115435619D02*
X67430666Y-115388000D01*
X67525904Y-115340380D01*
X67764000Y-115340380D01*
X67859238Y-115388000D01*
X67906857Y-115435619D01*
X67954476Y-115530857D01*
X67954476Y-115626095D01*
X67906857Y-115768952D01*
X67335428Y-116340380D01*
X67954476Y-116340380D01*
X68430666Y-116340380D02*
X68621142Y-116340380D01*
X68716380Y-116292761D01*
X68764000Y-116245142D01*
X68859238Y-116102285D01*
X68906857Y-115911809D01*
X68906857Y-115530857D01*
X68859238Y-115435619D01*
X68811619Y-115388000D01*
X68716380Y-115340380D01*
X68525904Y-115340380D01*
X68430666Y-115388000D01*
X68383047Y-115435619D01*
X68335428Y-115530857D01*
X68335428Y-115768952D01*
X68383047Y-115864190D01*
X68430666Y-115911809D01*
X68525904Y-115959428D01*
X68716380Y-115959428D01*
X68811619Y-115911809D01*
X68859238Y-115864190D01*
X68906857Y-115768952D01*
X51954476Y-115340380D02*
X51954476Y-116054666D01*
X51906857Y-116197523D01*
X51811619Y-116292761D01*
X51668761Y-116340380D01*
X51573523Y-116340380D01*
X52383047Y-115435619D02*
X52430666Y-115388000D01*
X52525904Y-115340380D01*
X52764000Y-115340380D01*
X52859238Y-115388000D01*
X52906857Y-115435619D01*
X52954476Y-115530857D01*
X52954476Y-115626095D01*
X52906857Y-115768952D01*
X52335428Y-116340380D01*
X52954476Y-116340380D01*
X53525904Y-115768952D02*
X53430666Y-115721333D01*
X53383047Y-115673714D01*
X53335428Y-115578476D01*
X53335428Y-115530857D01*
X53383047Y-115435619D01*
X53430666Y-115388000D01*
X53525904Y-115340380D01*
X53716380Y-115340380D01*
X53811619Y-115388000D01*
X53859238Y-115435619D01*
X53906857Y-115530857D01*
X53906857Y-115578476D01*
X53859238Y-115673714D01*
X53811619Y-115721333D01*
X53716380Y-115768952D01*
X53525904Y-115768952D01*
X53430666Y-115816571D01*
X53383047Y-115864190D01*
X53335428Y-115959428D01*
X53335428Y-116149904D01*
X53383047Y-116245142D01*
X53430666Y-116292761D01*
X53525904Y-116340380D01*
X53716380Y-116340380D01*
X53811619Y-116292761D01*
X53859238Y-116245142D01*
X53906857Y-116149904D01*
X53906857Y-115959428D01*
X53859238Y-115864190D01*
X53811619Y-115816571D01*
X53716380Y-115768952D01*
X156954476Y-115340380D02*
X156954476Y-116054666D01*
X156906857Y-116197523D01*
X156811619Y-116292761D01*
X156668761Y-116340380D01*
X156573523Y-116340380D01*
X157383047Y-115435619D02*
X157430666Y-115388000D01*
X157525904Y-115340380D01*
X157764000Y-115340380D01*
X157859238Y-115388000D01*
X157906857Y-115435619D01*
X157954476Y-115530857D01*
X157954476Y-115626095D01*
X157906857Y-115768952D01*
X157335428Y-116340380D01*
X157954476Y-116340380D01*
X158287809Y-115340380D02*
X158954476Y-115340380D01*
X158525904Y-116340380D01*
X141954476Y-95340380D02*
X141954476Y-96054666D01*
X141906857Y-96197523D01*
X141811619Y-96292761D01*
X141668761Y-96340380D01*
X141573523Y-96340380D01*
X142383047Y-95435619D02*
X142430666Y-95388000D01*
X142525904Y-95340380D01*
X142764000Y-95340380D01*
X142859238Y-95388000D01*
X142906857Y-95435619D01*
X142954476Y-95530857D01*
X142954476Y-95626095D01*
X142906857Y-95768952D01*
X142335428Y-96340380D01*
X142954476Y-96340380D01*
X143859238Y-95340380D02*
X143383047Y-95340380D01*
X143335428Y-95816571D01*
X143383047Y-95768952D01*
X143478285Y-95721333D01*
X143716380Y-95721333D01*
X143811619Y-95768952D01*
X143859238Y-95816571D01*
X143906857Y-95911809D01*
X143906857Y-96149904D01*
X143859238Y-96245142D01*
X143811619Y-96292761D01*
X143716380Y-96340380D01*
X143478285Y-96340380D01*
X143383047Y-96292761D01*
X143335428Y-96245142D01*
X126954476Y-95340380D02*
X126954476Y-96054666D01*
X126906857Y-96197523D01*
X126811619Y-96292761D01*
X126668761Y-96340380D01*
X126573523Y-96340380D01*
X127383047Y-95435619D02*
X127430666Y-95388000D01*
X127525904Y-95340380D01*
X127764000Y-95340380D01*
X127859238Y-95388000D01*
X127906857Y-95435619D01*
X127954476Y-95530857D01*
X127954476Y-95626095D01*
X127906857Y-95768952D01*
X127335428Y-96340380D01*
X127954476Y-96340380D01*
X128811619Y-95673714D02*
X128811619Y-96340380D01*
X128573523Y-95292761D02*
X128335428Y-96007047D01*
X128954476Y-96007047D01*
X111954476Y-95340380D02*
X111954476Y-96054666D01*
X111906857Y-96197523D01*
X111811619Y-96292761D01*
X111668761Y-96340380D01*
X111573523Y-96340380D01*
X112383047Y-95435619D02*
X112430666Y-95388000D01*
X112525904Y-95340380D01*
X112764000Y-95340380D01*
X112859238Y-95388000D01*
X112906857Y-95435619D01*
X112954476Y-95530857D01*
X112954476Y-95626095D01*
X112906857Y-95768952D01*
X112335428Y-96340380D01*
X112954476Y-96340380D01*
X113287809Y-95340380D02*
X113906857Y-95340380D01*
X113573523Y-95721333D01*
X113716380Y-95721333D01*
X113811619Y-95768952D01*
X113859238Y-95816571D01*
X113906857Y-95911809D01*
X113906857Y-96149904D01*
X113859238Y-96245142D01*
X113811619Y-96292761D01*
X113716380Y-96340380D01*
X113430666Y-96340380D01*
X113335428Y-96292761D01*
X113287809Y-96245142D01*
X96954476Y-95340380D02*
X96954476Y-96054666D01*
X96906857Y-96197523D01*
X96811619Y-96292761D01*
X96668761Y-96340380D01*
X96573523Y-96340380D01*
X97383047Y-95435619D02*
X97430666Y-95388000D01*
X97525904Y-95340380D01*
X97764000Y-95340380D01*
X97859238Y-95388000D01*
X97906857Y-95435619D01*
X97954476Y-95530857D01*
X97954476Y-95626095D01*
X97906857Y-95768952D01*
X97335428Y-96340380D01*
X97954476Y-96340380D01*
X98335428Y-95435619D02*
X98383047Y-95388000D01*
X98478285Y-95340380D01*
X98716380Y-95340380D01*
X98811619Y-95388000D01*
X98859238Y-95435619D01*
X98906857Y-95530857D01*
X98906857Y-95626095D01*
X98859238Y-95768952D01*
X98287809Y-96340380D01*
X98906857Y-96340380D01*
X81954476Y-95340380D02*
X81954476Y-96054666D01*
X81906857Y-96197523D01*
X81811619Y-96292761D01*
X81668761Y-96340380D01*
X81573523Y-96340380D01*
X82383047Y-95435619D02*
X82430666Y-95388000D01*
X82525904Y-95340380D01*
X82764000Y-95340380D01*
X82859238Y-95388000D01*
X82906857Y-95435619D01*
X82954476Y-95530857D01*
X82954476Y-95626095D01*
X82906857Y-95768952D01*
X82335428Y-96340380D01*
X82954476Y-96340380D01*
X83906857Y-96340380D02*
X83335428Y-96340380D01*
X83621142Y-96340380D02*
X83621142Y-95340380D01*
X83525904Y-95483238D01*
X83430666Y-95578476D01*
X83335428Y-95626095D01*
X66954476Y-95340380D02*
X66954476Y-96054666D01*
X66906857Y-96197523D01*
X66811619Y-96292761D01*
X66668761Y-96340380D01*
X66573523Y-96340380D01*
X67383047Y-95435619D02*
X67430666Y-95388000D01*
X67525904Y-95340380D01*
X67764000Y-95340380D01*
X67859238Y-95388000D01*
X67906857Y-95435619D01*
X67954476Y-95530857D01*
X67954476Y-95626095D01*
X67906857Y-95768952D01*
X67335428Y-96340380D01*
X67954476Y-96340380D01*
X68573523Y-95340380D02*
X68668761Y-95340380D01*
X68764000Y-95388000D01*
X68811619Y-95435619D01*
X68859238Y-95530857D01*
X68906857Y-95721333D01*
X68906857Y-95959428D01*
X68859238Y-96149904D01*
X68811619Y-96245142D01*
X68764000Y-96292761D01*
X68668761Y-96340380D01*
X68573523Y-96340380D01*
X68478285Y-96292761D01*
X68430666Y-96245142D01*
X68383047Y-96149904D01*
X68335428Y-95959428D01*
X68335428Y-95721333D01*
X68383047Y-95530857D01*
X68430666Y-95435619D01*
X68478285Y-95388000D01*
X68573523Y-95340380D01*
X51954476Y-95340380D02*
X51954476Y-96054666D01*
X51906857Y-96197523D01*
X51811619Y-96292761D01*
X51668761Y-96340380D01*
X51573523Y-96340380D01*
X52954476Y-96340380D02*
X52383047Y-96340380D01*
X52668761Y-96340380D02*
X52668761Y-95340380D01*
X52573523Y-95483238D01*
X52478285Y-95578476D01*
X52383047Y-95626095D01*
X53430666Y-96340380D02*
X53621142Y-96340380D01*
X53716380Y-96292761D01*
X53764000Y-96245142D01*
X53859238Y-96102285D01*
X53906857Y-95911809D01*
X53906857Y-95530857D01*
X53859238Y-95435619D01*
X53811619Y-95388000D01*
X53716380Y-95340380D01*
X53525904Y-95340380D01*
X53430666Y-95388000D01*
X53383047Y-95435619D01*
X53335428Y-95530857D01*
X53335428Y-95768952D01*
X53383047Y-95864190D01*
X53430666Y-95911809D01*
X53525904Y-95959428D01*
X53716380Y-95959428D01*
X53811619Y-95911809D01*
X53859238Y-95864190D01*
X53906857Y-95768952D01*
X156954476Y-95340380D02*
X156954476Y-96054666D01*
X156906857Y-96197523D01*
X156811619Y-96292761D01*
X156668761Y-96340380D01*
X156573523Y-96340380D01*
X157954476Y-96340380D02*
X157383047Y-96340380D01*
X157668761Y-96340380D02*
X157668761Y-95340380D01*
X157573523Y-95483238D01*
X157478285Y-95578476D01*
X157383047Y-95626095D01*
X158525904Y-95768952D02*
X158430666Y-95721333D01*
X158383047Y-95673714D01*
X158335428Y-95578476D01*
X158335428Y-95530857D01*
X158383047Y-95435619D01*
X158430666Y-95388000D01*
X158525904Y-95340380D01*
X158716380Y-95340380D01*
X158811619Y-95388000D01*
X158859238Y-95435619D01*
X158906857Y-95530857D01*
X158906857Y-95578476D01*
X158859238Y-95673714D01*
X158811619Y-95721333D01*
X158716380Y-95768952D01*
X158525904Y-95768952D01*
X158430666Y-95816571D01*
X158383047Y-95864190D01*
X158335428Y-95959428D01*
X158335428Y-96149904D01*
X158383047Y-96245142D01*
X158430666Y-96292761D01*
X158525904Y-96340380D01*
X158716380Y-96340380D01*
X158811619Y-96292761D01*
X158859238Y-96245142D01*
X158906857Y-96149904D01*
X158906857Y-95959428D01*
X158859238Y-95864190D01*
X158811619Y-95816571D01*
X158716380Y-95768952D01*
X141954476Y-75340380D02*
X141954476Y-76054666D01*
X141906857Y-76197523D01*
X141811619Y-76292761D01*
X141668761Y-76340380D01*
X141573523Y-76340380D01*
X142954476Y-76340380D02*
X142383047Y-76340380D01*
X142668761Y-76340380D02*
X142668761Y-75340380D01*
X142573523Y-75483238D01*
X142478285Y-75578476D01*
X142383047Y-75626095D01*
X143287809Y-75340380D02*
X143954476Y-75340380D01*
X143525904Y-76340380D01*
X126954476Y-75340380D02*
X126954476Y-76054666D01*
X126906857Y-76197523D01*
X126811619Y-76292761D01*
X126668761Y-76340380D01*
X126573523Y-76340380D01*
X127954476Y-76340380D02*
X127383047Y-76340380D01*
X127668761Y-76340380D02*
X127668761Y-75340380D01*
X127573523Y-75483238D01*
X127478285Y-75578476D01*
X127383047Y-75626095D01*
X128811619Y-75340380D02*
X128621142Y-75340380D01*
X128525904Y-75388000D01*
X128478285Y-75435619D01*
X128383047Y-75578476D01*
X128335428Y-75768952D01*
X128335428Y-76149904D01*
X128383047Y-76245142D01*
X128430666Y-76292761D01*
X128525904Y-76340380D01*
X128716380Y-76340380D01*
X128811619Y-76292761D01*
X128859238Y-76245142D01*
X128906857Y-76149904D01*
X128906857Y-75911809D01*
X128859238Y-75816571D01*
X128811619Y-75768952D01*
X128716380Y-75721333D01*
X128525904Y-75721333D01*
X128430666Y-75768952D01*
X128383047Y-75816571D01*
X128335428Y-75911809D01*
X111954476Y-75340380D02*
X111954476Y-76054666D01*
X111906857Y-76197523D01*
X111811619Y-76292761D01*
X111668761Y-76340380D01*
X111573523Y-76340380D01*
X112954476Y-76340380D02*
X112383047Y-76340380D01*
X112668761Y-76340380D02*
X112668761Y-75340380D01*
X112573523Y-75483238D01*
X112478285Y-75578476D01*
X112383047Y-75626095D01*
X113859238Y-75340380D02*
X113383047Y-75340380D01*
X113335428Y-75816571D01*
X113383047Y-75768952D01*
X113478285Y-75721333D01*
X113716380Y-75721333D01*
X113811619Y-75768952D01*
X113859238Y-75816571D01*
X113906857Y-75911809D01*
X113906857Y-76149904D01*
X113859238Y-76245142D01*
X113811619Y-76292761D01*
X113716380Y-76340380D01*
X113478285Y-76340380D01*
X113383047Y-76292761D01*
X113335428Y-76245142D01*
X96954476Y-75340380D02*
X96954476Y-76054666D01*
X96906857Y-76197523D01*
X96811619Y-76292761D01*
X96668761Y-76340380D01*
X96573523Y-76340380D01*
X97954476Y-76340380D02*
X97383047Y-76340380D01*
X97668761Y-76340380D02*
X97668761Y-75340380D01*
X97573523Y-75483238D01*
X97478285Y-75578476D01*
X97383047Y-75626095D01*
X98811619Y-75673714D02*
X98811619Y-76340380D01*
X98573523Y-75292761D02*
X98335428Y-76007047D01*
X98954476Y-76007047D01*
X81954476Y-75340380D02*
X81954476Y-76054666D01*
X81906857Y-76197523D01*
X81811619Y-76292761D01*
X81668761Y-76340380D01*
X81573523Y-76340380D01*
X82954476Y-76340380D02*
X82383047Y-76340380D01*
X82668761Y-76340380D02*
X82668761Y-75340380D01*
X82573523Y-75483238D01*
X82478285Y-75578476D01*
X82383047Y-75626095D01*
X83287809Y-75340380D02*
X83906857Y-75340380D01*
X83573523Y-75721333D01*
X83716380Y-75721333D01*
X83811619Y-75768952D01*
X83859238Y-75816571D01*
X83906857Y-75911809D01*
X83906857Y-76149904D01*
X83859238Y-76245142D01*
X83811619Y-76292761D01*
X83716380Y-76340380D01*
X83430666Y-76340380D01*
X83335428Y-76292761D01*
X83287809Y-76245142D01*
X66954476Y-75340380D02*
X66954476Y-76054666D01*
X66906857Y-76197523D01*
X66811619Y-76292761D01*
X66668761Y-76340380D01*
X66573523Y-76340380D01*
X67954476Y-76340380D02*
X67383047Y-76340380D01*
X67668761Y-76340380D02*
X67668761Y-75340380D01*
X67573523Y-75483238D01*
X67478285Y-75578476D01*
X67383047Y-75626095D01*
X68335428Y-75435619D02*
X68383047Y-75388000D01*
X68478285Y-75340380D01*
X68716380Y-75340380D01*
X68811619Y-75388000D01*
X68859238Y-75435619D01*
X68906857Y-75530857D01*
X68906857Y-75626095D01*
X68859238Y-75768952D01*
X68287809Y-76340380D01*
X68906857Y-76340380D01*
X51954476Y-75340380D02*
X51954476Y-76054666D01*
X51906857Y-76197523D01*
X51811619Y-76292761D01*
X51668761Y-76340380D01*
X51573523Y-76340380D01*
X52954476Y-76340380D02*
X52383047Y-76340380D01*
X52668761Y-76340380D02*
X52668761Y-75340380D01*
X52573523Y-75483238D01*
X52478285Y-75578476D01*
X52383047Y-75626095D01*
X53906857Y-76340380D02*
X53335428Y-76340380D01*
X53621142Y-76340380D02*
X53621142Y-75340380D01*
X53525904Y-75483238D01*
X53430666Y-75578476D01*
X53335428Y-75626095D01*
X156954476Y-75340380D02*
X156954476Y-76054666D01*
X156906857Y-76197523D01*
X156811619Y-76292761D01*
X156668761Y-76340380D01*
X156573523Y-76340380D01*
X157954476Y-76340380D02*
X157383047Y-76340380D01*
X157668761Y-76340380D02*
X157668761Y-75340380D01*
X157573523Y-75483238D01*
X157478285Y-75578476D01*
X157383047Y-75626095D01*
X158573523Y-75340380D02*
X158668761Y-75340380D01*
X158764000Y-75388000D01*
X158811619Y-75435619D01*
X158859238Y-75530857D01*
X158906857Y-75721333D01*
X158906857Y-75959428D01*
X158859238Y-76149904D01*
X158811619Y-76245142D01*
X158764000Y-76292761D01*
X158668761Y-76340380D01*
X158573523Y-76340380D01*
X158478285Y-76292761D01*
X158430666Y-76245142D01*
X158383047Y-76149904D01*
X158335428Y-75959428D01*
X158335428Y-75721333D01*
X158383047Y-75530857D01*
X158430666Y-75435619D01*
X158478285Y-75388000D01*
X158573523Y-75340380D01*
X142430666Y-55340380D02*
X142430666Y-56054666D01*
X142383047Y-56197523D01*
X142287809Y-56292761D01*
X142144952Y-56340380D01*
X142049714Y-56340380D01*
X143049714Y-55768952D02*
X142954476Y-55721333D01*
X142906857Y-55673714D01*
X142859238Y-55578476D01*
X142859238Y-55530857D01*
X142906857Y-55435619D01*
X142954476Y-55388000D01*
X143049714Y-55340380D01*
X143240190Y-55340380D01*
X143335428Y-55388000D01*
X143383047Y-55435619D01*
X143430666Y-55530857D01*
X143430666Y-55578476D01*
X143383047Y-55673714D01*
X143335428Y-55721333D01*
X143240190Y-55768952D01*
X143049714Y-55768952D01*
X142954476Y-55816571D01*
X142906857Y-55864190D01*
X142859238Y-55959428D01*
X142859238Y-56149904D01*
X142906857Y-56245142D01*
X142954476Y-56292761D01*
X143049714Y-56340380D01*
X143240190Y-56340380D01*
X143335428Y-56292761D01*
X143383047Y-56245142D01*
X143430666Y-56149904D01*
X143430666Y-55959428D01*
X143383047Y-55864190D01*
X143335428Y-55816571D01*
X143240190Y-55768952D01*
X127430666Y-55340380D02*
X127430666Y-56054666D01*
X127383047Y-56197523D01*
X127287809Y-56292761D01*
X127144952Y-56340380D01*
X127049714Y-56340380D01*
X127811619Y-55340380D02*
X128478285Y-55340380D01*
X128049714Y-56340380D01*
X112430666Y-55340380D02*
X112430666Y-56054666D01*
X112383047Y-56197523D01*
X112287809Y-56292761D01*
X112144952Y-56340380D01*
X112049714Y-56340380D01*
X113335428Y-55340380D02*
X113144952Y-55340380D01*
X113049714Y-55388000D01*
X113002095Y-55435619D01*
X112906857Y-55578476D01*
X112859238Y-55768952D01*
X112859238Y-56149904D01*
X112906857Y-56245142D01*
X112954476Y-56292761D01*
X113049714Y-56340380D01*
X113240190Y-56340380D01*
X113335428Y-56292761D01*
X113383047Y-56245142D01*
X113430666Y-56149904D01*
X113430666Y-55911809D01*
X113383047Y-55816571D01*
X113335428Y-55768952D01*
X113240190Y-55721333D01*
X113049714Y-55721333D01*
X112954476Y-55768952D01*
X112906857Y-55816571D01*
X112859238Y-55911809D01*
X97148666Y-55340380D02*
X97148666Y-56054666D01*
X97101047Y-56197523D01*
X97005809Y-56292761D01*
X96862952Y-56340380D01*
X96767714Y-56340380D01*
X98101047Y-55340380D02*
X97624857Y-55340380D01*
X97577238Y-55816571D01*
X97624857Y-55768952D01*
X97720095Y-55721333D01*
X97958190Y-55721333D01*
X98053428Y-55768952D01*
X98101047Y-55816571D01*
X98148666Y-55911809D01*
X98148666Y-56149904D01*
X98101047Y-56245142D01*
X98053428Y-56292761D01*
X97958190Y-56340380D01*
X97720095Y-56340380D01*
X97624857Y-56292761D01*
X97577238Y-56245142D01*
X82242666Y-55340380D02*
X82242666Y-56054666D01*
X82195047Y-56197523D01*
X82099809Y-56292761D01*
X81956952Y-56340380D01*
X81861714Y-56340380D01*
X83147428Y-55673714D02*
X83147428Y-56340380D01*
X82909333Y-55292761D02*
X82671238Y-56007047D01*
X83290285Y-56007047D01*
X67336666Y-55340380D02*
X67336666Y-56054666D01*
X67289047Y-56197523D01*
X67193809Y-56292761D01*
X67050952Y-56340380D01*
X66955714Y-56340380D01*
X67717619Y-55340380D02*
X68336666Y-55340380D01*
X68003333Y-55721333D01*
X68146190Y-55721333D01*
X68241428Y-55768952D01*
X68289047Y-55816571D01*
X68336666Y-55911809D01*
X68336666Y-56149904D01*
X68289047Y-56245142D01*
X68241428Y-56292761D01*
X68146190Y-56340380D01*
X67860476Y-56340380D01*
X67765238Y-56292761D01*
X67717619Y-56245142D01*
X52430666Y-55340380D02*
X52430666Y-56054666D01*
X52383047Y-56197523D01*
X52287809Y-56292761D01*
X52144952Y-56340380D01*
X52049714Y-56340380D01*
X52859238Y-55435619D02*
X52906857Y-55388000D01*
X53002095Y-55340380D01*
X53240190Y-55340380D01*
X53335428Y-55388000D01*
X53383047Y-55435619D01*
X53430666Y-55530857D01*
X53430666Y-55626095D01*
X53383047Y-55768952D01*
X52811619Y-56340380D01*
X53430666Y-56340380D01*
X157430666Y-55340380D02*
X157430666Y-56054666D01*
X157383047Y-56197523D01*
X157287809Y-56292761D01*
X157144952Y-56340380D01*
X157049714Y-56340380D01*
X158430666Y-56340380D02*
X157859238Y-56340380D01*
X158144952Y-56340380D02*
X158144952Y-55340380D01*
X158049714Y-55483238D01*
X157954476Y-55578476D01*
X157859238Y-55626095D01*
M02*
