M48
; DRILL file {KiCad (5.1.4)-1} date Mon 11/01/2021 12:46:15 AM
; FORMAT={-:-/ absolute / metric / decimal}
; #@! TF.CreationDate,2021-11-01T00:46:15-04:00
; #@! TF.GenerationSoftware,Kicad,Pcbnew,(5.1.4)-1
; #@! TF.FileFunction,Plated,1,2,PTH
FMAT,2
METRIC
T1C0.400
T2C0.760
T3C0.800
T4C0.920
T5C1.000
T6C1.100
T7C1.600
T8C2.300
T9C4.300
%
G90
G05
T1
X176.3Y-136.5
X179.0Y-124.3
X180.4Y-135.5
X182.2Y-123.3
X185.9Y-124.3
X190.906Y-78.596
X191.8Y-76.5
X193.9Y-120.528
X195.365Y-51.052
X195.6Y-123.1
X196.0Y-135.3
X196.018Y-47.968
X196.1Y-126.5
X198.2Y-121.8
X198.8Y-129.7
X200.2Y-137.009
X202.3Y-129.9
X202.7Y-135.3
X202.7Y-139.5
X206.8Y-129.9
X221.8Y-113.5
X236.1Y-113.8
X237.7Y-137.7
T2
X208.7Y-142.1
X209.97Y-139.56
X211.24Y-142.1
X212.51Y-139.56
X213.78Y-142.1
X215.05Y-139.56
X216.32Y-142.1
X217.59Y-139.56
X207.7Y-95.6
X208.97Y-93.06
X210.24Y-95.6
X211.51Y-93.06
X212.78Y-95.6
X214.05Y-93.06
X215.32Y-95.6
X216.59Y-93.06
X226.2Y-47.8
X227.47Y-45.26
X228.74Y-47.8
X230.01Y-45.26
X231.28Y-47.8
X232.55Y-45.26
X233.82Y-47.8
X235.09Y-45.26
X226.74Y-136.45
X228.01Y-133.91
X229.28Y-136.45
X230.55Y-133.91
X231.82Y-136.45
X233.09Y-133.91
X234.36Y-136.45
X235.63Y-133.91
X207.7Y-70.6
X208.97Y-68.06
X210.24Y-70.6
X211.51Y-68.06
X212.78Y-70.6
X214.05Y-68.06
X215.32Y-70.6
X216.59Y-68.06
X226.2Y-95.3
X227.47Y-92.76
X228.74Y-95.3
X230.01Y-92.76
X231.28Y-95.3
X232.55Y-92.76
X233.82Y-95.3
X235.09Y-92.76
X226.2Y-70.3
X227.47Y-67.76
X228.74Y-70.3
X230.01Y-67.76
X231.28Y-70.3
X232.55Y-67.76
X233.82Y-70.3
X235.09Y-67.76
X207.7Y-48.1
X208.97Y-45.56
X210.24Y-48.1
X211.51Y-45.56
X212.78Y-48.1
X214.05Y-45.56
X215.32Y-48.1
X216.59Y-45.56
T3
X119.0Y-120.0
X129.16Y-120.0
X131.0Y-106.5
X131.0Y-114.0
X43.84Y-100.0
X54.0Y-100.0
X161.0Y-106.0
X161.0Y-113.5
X44.1Y-120.0
X54.26Y-120.0
X185.8Y-58.392
X193.3Y-58.392
X146.0Y-106.0
X146.0Y-113.5
X58.5Y-59.8
X68.66Y-59.8
X134.0Y-80.0
X144.16Y-80.0
X153.8Y-136.44
X153.8Y-146.6
X116.0Y-46.0
X116.0Y-53.5
X86.0Y-87.0
X86.0Y-94.5
X202.0Y-114.0
X202.0Y-121.62
X204.54Y-114.0
X204.54Y-121.62
X207.08Y-114.0
X207.08Y-121.62
X209.62Y-114.0
X209.62Y-121.62
X212.16Y-114.0
X212.16Y-121.62
X214.7Y-114.0
X214.7Y-121.62
X217.24Y-114.0
X217.24Y-121.62
X74.0Y-80.0
X84.16Y-80.0
X149.0Y-100.0
X159.16Y-100.0
X86.0Y-46.5
X86.0Y-54.0
X71.0Y-66.0
X71.0Y-73.5
X146.0Y-86.0
X146.0Y-93.5
X144.7Y-150.0
X154.86Y-150.0
X115.34Y-131.718
X115.34Y-133.718
X115.34Y-135.718
X117.34Y-131.718
X117.34Y-133.718
X117.34Y-135.718
X129.58Y-135.63
X129.58Y-138.17
X119.0Y-60.0
X129.16Y-60.0
X101.0Y-46.1
X101.0Y-53.6
X87.9Y-59.4
X98.06Y-59.4
X131.0Y-46.0
X131.0Y-53.5
X59.0Y-80.0
X69.16Y-80.0
X59.0Y-100.0
X69.16Y-100.0
X193.0Y-145.38
X193.0Y-147.92
X193.0Y-150.46
X193.0Y-153.0
X200.62Y-145.38
X200.62Y-147.92
X200.62Y-150.46
X200.62Y-153.0
X134.0Y-120.0
X144.16Y-120.0
X101.0Y-66.5
X101.0Y-74.0
X180.5Y-148.5
X188.12Y-148.5
X118.0Y-100.0
X128.16Y-100.0
X86.0Y-106.5
X86.0Y-114.0
X74.0Y-120.0
X84.16Y-120.0
X146.0Y-67.0
X146.0Y-74.5
X134.0Y-100.0
X144.16Y-100.0
X118.5Y-80.0
X128.66Y-80.0
X56.0Y-46.0
X56.0Y-53.5
X101.0Y-106.5
X101.0Y-114.0
X44.0Y-80.0
X54.16Y-80.0
X89.0Y-120.0
X99.16Y-120.0
X185.8Y-50.2
X193.3Y-50.2
X56.0Y-106.0
X56.0Y-113.5
X149.0Y-60.0
X159.16Y-60.0
X223.2Y-111.4
X223.2Y-119.02
X225.74Y-111.4
X225.74Y-119.02
X228.28Y-111.4
X228.28Y-119.02
X230.82Y-111.4
X230.82Y-119.02
X233.36Y-111.4
X233.36Y-119.02
X235.9Y-111.4
X235.9Y-119.02
X238.44Y-111.4
X238.44Y-119.02
X116.0Y-66.0
X116.0Y-73.5
X89.0Y-80.0
X99.16Y-80.0
X179.0Y-152.5
X189.16Y-152.5
X146.0Y-46.0
X146.0Y-53.5
X131.0Y-86.0
X131.0Y-93.5
X71.0Y-46.0
X71.0Y-53.5
X161.0Y-86.5
X161.0Y-94.0
X103.0Y-100.0
X113.16Y-100.0
X223.2Y-122.4
X223.2Y-130.02
X225.74Y-122.4
X225.74Y-130.02
X228.28Y-122.4
X228.28Y-130.02
X230.82Y-122.4
X230.82Y-130.02
X233.36Y-122.4
X233.36Y-130.02
X235.9Y-122.4
X235.9Y-130.02
X238.44Y-122.4
X238.44Y-130.02
X185.8Y-54.296
X193.3Y-54.296
X134.0Y-60.0
X144.16Y-60.0
X74.0Y-100.0
X84.16Y-100.0
X185.8Y-62.488
X193.3Y-62.488
X104.0Y-120.0
X114.16Y-120.0
X131.0Y-66.5
X131.0Y-74.0
X71.0Y-105.5
X71.0Y-113.0
X149.0Y-80.0
X159.16Y-80.0
X185.8Y-66.584
X193.3Y-66.584
X116.0Y-107.0
X116.0Y-114.5
X44.04Y-59.9
X54.2Y-59.9
X104.0Y-80.0
X114.16Y-80.0
X162.0Y-153.5
X172.16Y-153.5
X161.0Y-66.0
X161.0Y-73.5
X56.0Y-86.0
X56.0Y-93.5
X59.0Y-120.0
X69.16Y-120.0
X185.8Y-70.68
X193.3Y-70.68
X86.0Y-66.5
X86.0Y-74.0
X103.84Y-60.0
X114.0Y-60.0
X183.84Y-142.0
X194.0Y-142.0
X71.0Y-86.0
X71.0Y-93.5
X73.7Y-59.6
X83.86Y-59.6
X144.7Y-153.5
X154.86Y-153.5
X159.0Y-142.0
X159.0Y-149.62
X161.54Y-142.0
X161.54Y-149.62
X164.08Y-142.0
X164.08Y-149.62
X166.62Y-142.0
X166.62Y-149.62
X169.16Y-142.0
X169.16Y-149.62
X171.7Y-142.0
X171.7Y-149.62
X174.24Y-142.0
X174.24Y-149.62
X116.0Y-86.0
X116.0Y-93.5
X161.0Y-46.0
X161.0Y-53.5
X101.0Y-86.5
X101.0Y-94.0
X88.5Y-100.0
X98.66Y-100.0
X202.0Y-125.0
X202.0Y-132.62
X204.54Y-125.0
X204.54Y-132.62
X207.08Y-125.0
X207.08Y-132.62
X209.62Y-125.0
X209.62Y-132.62
X212.16Y-125.0
X212.16Y-132.62
X214.7Y-125.0
X214.7Y-132.62
X217.24Y-125.0
X217.24Y-132.62
X149.0Y-120.0
X159.16Y-120.0
X56.0Y-66.5
X56.0Y-74.0
T4
X53.8Y-139.5
X53.8Y-142.0
X57.0Y-139.5
X57.0Y-142.0
T5
X197.7Y-52.6
X197.7Y-55.14
X197.7Y-57.68
X197.7Y-60.22
X197.7Y-62.76
X197.7Y-65.3
X197.7Y-67.84
X197.7Y-70.38
X197.7Y-72.92
X197.7Y-75.46
X197.7Y-78.0
X197.7Y-80.54
X197.7Y-83.08
X197.7Y-85.62
X197.7Y-88.16
X197.7Y-90.7
X200.24Y-52.6
X200.24Y-55.14
X200.24Y-57.68
X200.24Y-60.22
X200.24Y-62.76
X200.24Y-65.3
X200.24Y-67.84
X200.24Y-70.38
X200.24Y-72.92
X200.24Y-75.46
X200.24Y-78.0
X200.24Y-80.54
X200.24Y-83.08
X200.24Y-85.62
X200.24Y-88.16
X200.24Y-90.7
X145.04Y-157.5
X147.58Y-157.5
X150.12Y-157.5
X152.66Y-157.5
X155.2Y-157.5
X71.68Y-148.9
X74.22Y-148.9
X76.76Y-148.9
X79.3Y-148.9
X81.84Y-148.9
X84.38Y-148.9
X86.92Y-148.9
X89.46Y-148.9
X92.0Y-148.9
X94.54Y-148.9
X97.08Y-148.9
X99.62Y-148.9
X102.16Y-148.9
X104.7Y-148.9
X107.24Y-148.9
X109.78Y-148.9
X112.32Y-148.9
X114.86Y-148.9
X117.4Y-148.9
X119.94Y-148.9
X122.48Y-148.9
X125.02Y-148.9
X127.56Y-148.9
X130.1Y-148.9
X71.68Y-124.9
X74.22Y-124.9
X76.76Y-124.9
X79.3Y-124.9
X81.84Y-124.9
X84.38Y-124.9
X86.92Y-124.9
X89.46Y-124.9
X92.0Y-124.9
X94.54Y-124.9
X97.08Y-124.9
X99.62Y-124.9
X102.16Y-124.9
X104.7Y-124.9
X107.24Y-124.9
X109.78Y-124.9
X112.32Y-124.9
X114.86Y-124.9
X117.4Y-124.9
X119.94Y-124.9
X122.48Y-124.9
X125.02Y-124.9
X127.56Y-124.9
X130.1Y-124.9
X170.96Y-47.42
X170.96Y-49.96
X170.96Y-52.5
X170.96Y-55.04
X170.96Y-57.58
X170.96Y-60.12
X170.96Y-62.66
X170.96Y-65.2
X170.96Y-67.74
X170.96Y-70.28
X170.96Y-72.82
X170.96Y-75.36
X170.96Y-77.9
X170.96Y-80.44
X170.96Y-82.98
X170.96Y-85.52
X170.96Y-88.06
X170.96Y-90.6
X170.96Y-93.14
X170.96Y-95.68
X170.96Y-98.22
X170.96Y-100.76
X170.96Y-103.3
X170.96Y-105.84
X170.96Y-108.38
X173.5Y-47.42
X173.5Y-49.96
X173.5Y-52.5
X173.5Y-55.04
X173.5Y-57.58
X173.5Y-60.12
X173.5Y-62.66
X173.5Y-65.2
X173.5Y-67.74
X173.5Y-70.28
X173.5Y-72.82
X173.5Y-75.36
X173.5Y-77.9
X173.5Y-80.44
X173.5Y-82.98
X173.5Y-85.52
X173.5Y-88.06
X173.5Y-90.6
X173.5Y-93.14
X173.5Y-95.68
X173.5Y-98.22
X173.5Y-100.76
X173.5Y-103.3
X173.5Y-105.84
X173.5Y-108.38
X178.92Y-157.5
X181.46Y-157.5
X184.0Y-157.5
X186.54Y-157.5
X189.08Y-157.5
X161.42Y-157.5
X163.96Y-157.5
X166.5Y-157.5
X169.04Y-157.5
X171.58Y-157.5
T6
X71.89Y-129.28
X71.89Y-144.52
X74.43Y-129.28
X74.43Y-144.52
X76.97Y-129.28
X76.97Y-144.52
X79.51Y-129.28
X79.51Y-144.52
X82.05Y-129.28
X82.05Y-144.52
X84.59Y-129.28
X84.59Y-131.82
X84.59Y-134.36
X84.59Y-136.9
X84.59Y-139.44
X84.59Y-141.98
X84.59Y-144.52
X87.13Y-129.28
X87.13Y-144.52
X89.67Y-129.28
X89.67Y-144.52
X92.21Y-129.28
X92.21Y-144.52
X94.75Y-129.28
X94.75Y-144.52
X97.29Y-129.28
X97.29Y-144.52
X99.83Y-129.28
X99.83Y-144.52
X102.37Y-129.28
X102.37Y-144.52
X104.91Y-129.28
X104.91Y-144.52
X107.45Y-129.28
X107.45Y-144.52
X109.99Y-129.28
X109.99Y-144.52
X112.53Y-129.28
X112.53Y-144.52
X113.851Y-141.469
X115.07Y-129.28
X115.07Y-144.52
X116.391Y-141.469
X117.61Y-129.28
X117.61Y-144.52
X118.931Y-141.469
X120.15Y-129.28
X120.15Y-144.52
X121.471Y-141.469
X122.69Y-129.28
X122.69Y-144.52
X124.011Y-141.469
X125.23Y-129.28
X125.23Y-144.52
X127.77Y-129.28
X127.77Y-131.82
X127.77Y-144.52
X130.31Y-129.28
X130.31Y-144.52
T7
X93.7Y-85.38
X93.7Y-93.68
X93.7Y-96.78
X108.7Y-65.38
X108.7Y-73.68
X108.7Y-76.78
X48.7Y-105.38
X48.7Y-113.68
X48.7Y-116.78
X138.7Y-105.38
X138.7Y-113.68
X138.7Y-116.78
X108.7Y-45.38
X108.7Y-53.68
X108.7Y-56.78
X93.7Y-65.38
X93.7Y-73.68
X93.7Y-76.78
X123.7Y-45.38
X123.7Y-53.68
X123.7Y-56.78
X138.7Y-85.38
X138.7Y-93.68
X138.7Y-96.78
X153.7Y-65.38
X153.7Y-73.68
X153.7Y-76.78
X108.7Y-85.38
X108.7Y-93.68
X108.7Y-96.78
X153.7Y-45.38
X153.7Y-53.68
X153.7Y-56.78
X78.7Y-85.38
X78.7Y-93.68
X78.7Y-96.78
X78.7Y-105.38
X78.7Y-113.68
X78.7Y-116.78
X138.7Y-65.38
X138.7Y-73.68
X138.7Y-76.78
X123.7Y-105.38
X123.7Y-113.68
X123.7Y-116.78
X48.7Y-65.38
X48.7Y-73.68
X48.7Y-76.78
X63.606Y-45.38
X63.606Y-53.68
X63.606Y-56.78
X108.7Y-105.38
X108.7Y-113.68
X108.7Y-116.78
X138.7Y-45.38
X138.7Y-53.68
X138.7Y-56.78
X63.7Y-85.38
X63.7Y-93.68
X63.7Y-96.78
X153.7Y-85.38
X153.7Y-93.68
X153.7Y-96.78
X153.7Y-105.38
X153.7Y-113.68
X153.7Y-116.78
X123.7Y-65.38
X123.7Y-73.68
X123.7Y-76.78
X93.7Y-105.38
X93.7Y-113.68
X93.7Y-116.78
X78.7Y-65.38
X78.7Y-73.68
X78.7Y-76.78
X93.418Y-45.38
X93.418Y-53.68
X93.418Y-56.78
X63.7Y-65.38
X63.7Y-73.68
X63.7Y-76.78
X123.7Y-85.38
X123.7Y-93.68
X123.7Y-96.78
X48.7Y-45.38
X48.7Y-53.68
X48.7Y-56.78
X48.7Y-85.38
X48.7Y-93.68
X48.7Y-96.78
X78.512Y-45.38
X78.512Y-53.68
X78.512Y-56.78
X63.7Y-105.38
X63.7Y-113.68
X63.7Y-116.78
T8
X54.29Y-134.73
X54.29Y-146.77
T9
X47.2Y-36.9
X147.0Y-138.7
X238.2Y-155.6
X47.4Y-154.7
X237.4Y-36.9
X164.1Y-37.0
T0
M30
