%FSLAX45Y45*%
G04 Gerber Fmt 4.5, Leading zero omitted, Abs format (unit mm)*
G04 Created by KiCad (PCBNEW (5.1.4)-1) date 2021-11-01 00:46:15*
%MOMM*%
%LPD*%
G04 APERTURE LIST*
%ADD10C,0.050000*%
%ADD11C,0.200000*%
%ADD12C,0.300000*%
G04 APERTURE END LIST*
D10*
X24250000Y-16000000D02*
X4620000Y-16000000D01*
X4620000Y-16000000D02*
X4250000Y-16000000D01*
X24250000Y-16000000D02*
X24250000Y-15500000D01*
X4250000Y-15500000D02*
X4250000Y-16000000D01*
X24250000Y-3250000D02*
X4250000Y-3250000D01*
X4250000Y-15500000D02*
X4250000Y-3250000D01*
X24250000Y-3250000D02*
X24250000Y-15500000D01*
D11*
X20583000Y-14685000D02*
X20903000Y-15005000D01*
X20903000Y-14685000D02*
X20583000Y-15005000D01*
X20483000Y-7535000D02*
X20803000Y-7855000D01*
X20803000Y-7535000D02*
X20483000Y-7855000D01*
X22333000Y-10005000D02*
X22653000Y-10325000D01*
X22653000Y-10005000D02*
X22333000Y-10325000D01*
X22333000Y-7505000D02*
X22653000Y-7825000D01*
X22653000Y-7505000D02*
X22333000Y-7825000D01*
X23476000Y-7505000D02*
X23796000Y-7825000D01*
X23796000Y-7505000D02*
X23476000Y-7825000D01*
X20483000Y-10035000D02*
X20803000Y-10355000D01*
X20803000Y-10035000D02*
X20483000Y-10355000D01*
X21626000Y-10035000D02*
X21946000Y-10355000D01*
X21946000Y-10035000D02*
X21626000Y-10355000D01*
X22333000Y-5255000D02*
X22653000Y-5575000D01*
X22653000Y-5255000D02*
X22333000Y-5575000D01*
X23476000Y-5255000D02*
X23796000Y-5575000D01*
X23796000Y-5255000D02*
X23476000Y-5575000D01*
X22387000Y-14120000D02*
X22707000Y-14440000D01*
X22707000Y-14120000D02*
X22387000Y-14440000D01*
X23530000Y-14120000D02*
X23850000Y-14440000D01*
X23850000Y-14120000D02*
X23530000Y-14440000D01*
X21626000Y-7535000D02*
X21946000Y-7855000D01*
X21946000Y-7535000D02*
X21626000Y-7855000D01*
X23476000Y-10005000D02*
X23796000Y-10325000D01*
X23796000Y-10005000D02*
X23476000Y-10325000D01*
X20483000Y-5285000D02*
X20803000Y-5605000D01*
X20803000Y-5285000D02*
X20483000Y-5605000D01*
X21626000Y-5285000D02*
X21946000Y-5605000D01*
X21946000Y-5285000D02*
X21626000Y-5605000D01*
X21726000Y-14685000D02*
X22046000Y-15005000D01*
X22046000Y-14685000D02*
X21726000Y-15005000D01*
D12*
X4533928Y-16468214D02*
X4533928Y-16168214D01*
X4605357Y-16168214D01*
X4648214Y-16182500D01*
X4676786Y-16211071D01*
X4691071Y-16239643D01*
X4705357Y-16296786D01*
X4705357Y-16339643D01*
X4691071Y-16396786D01*
X4676786Y-16425357D01*
X4648214Y-16453929D01*
X4605357Y-16468214D01*
X4533928Y-16468214D01*
X4833928Y-16468214D02*
X4833928Y-16268214D01*
X4833928Y-16325357D02*
X4848214Y-16296786D01*
X4862500Y-16282500D01*
X4891071Y-16268214D01*
X4919643Y-16268214D01*
X5019643Y-16468214D02*
X5019643Y-16268214D01*
X5019643Y-16168214D02*
X5005357Y-16182500D01*
X5019643Y-16196786D01*
X5033928Y-16182500D01*
X5019643Y-16168214D01*
X5019643Y-16196786D01*
X5205357Y-16468214D02*
X5176786Y-16453929D01*
X5162500Y-16425357D01*
X5162500Y-16168214D01*
X5362500Y-16468214D02*
X5333928Y-16453929D01*
X5319643Y-16425357D01*
X5319643Y-16168214D01*
X5705357Y-16468214D02*
X5705357Y-16168214D01*
X5805357Y-16382500D01*
X5905357Y-16168214D01*
X5905357Y-16468214D01*
X6176786Y-16468214D02*
X6176786Y-16311071D01*
X6162500Y-16282500D01*
X6133928Y-16268214D01*
X6076786Y-16268214D01*
X6048214Y-16282500D01*
X6176786Y-16453929D02*
X6148214Y-16468214D01*
X6076786Y-16468214D01*
X6048214Y-16453929D01*
X6033928Y-16425357D01*
X6033928Y-16396786D01*
X6048214Y-16368214D01*
X6076786Y-16353929D01*
X6148214Y-16353929D01*
X6176786Y-16339643D01*
X6319643Y-16268214D02*
X6319643Y-16568214D01*
X6319643Y-16282500D02*
X6348214Y-16268214D01*
X6405357Y-16268214D01*
X6433928Y-16282500D01*
X6448214Y-16296786D01*
X6462500Y-16325357D01*
X6462500Y-16411071D01*
X6448214Y-16439643D01*
X6433928Y-16453929D01*
X6405357Y-16468214D01*
X6348214Y-16468214D01*
X6319643Y-16453929D01*
X6591071Y-16439643D02*
X6605357Y-16453929D01*
X6591071Y-16468214D01*
X6576786Y-16453929D01*
X6591071Y-16439643D01*
X6591071Y-16468214D01*
X6591071Y-16282500D02*
X6605357Y-16296786D01*
X6591071Y-16311071D01*
X6576786Y-16296786D01*
X6591071Y-16282500D01*
X6591071Y-16311071D01*
X3927500Y-16802500D02*
X4247500Y-17122500D01*
X4247500Y-16802500D02*
X3927500Y-17122500D01*
X4505357Y-16798214D02*
X4691071Y-16798214D01*
X4591071Y-16912500D01*
X4633928Y-16912500D01*
X4662500Y-16926786D01*
X4676786Y-16941072D01*
X4691071Y-16969643D01*
X4691071Y-17041072D01*
X4676786Y-17069643D01*
X4662500Y-17083929D01*
X4633928Y-17098214D01*
X4548214Y-17098214D01*
X4519643Y-17083929D01*
X4505357Y-17069643D01*
X4819643Y-17069643D02*
X4833928Y-17083929D01*
X4819643Y-17098214D01*
X4805357Y-17083929D01*
X4819643Y-17069643D01*
X4819643Y-17098214D01*
X4948214Y-16826786D02*
X4962500Y-16812500D01*
X4991071Y-16798214D01*
X5062500Y-16798214D01*
X5091071Y-16812500D01*
X5105357Y-16826786D01*
X5119643Y-16855357D01*
X5119643Y-16883929D01*
X5105357Y-16926786D01*
X4933928Y-17098214D01*
X5119643Y-17098214D01*
X5305357Y-16798214D02*
X5333928Y-16798214D01*
X5362500Y-16812500D01*
X5376786Y-16826786D01*
X5391071Y-16855357D01*
X5405357Y-16912500D01*
X5405357Y-16983929D01*
X5391071Y-17041072D01*
X5376786Y-17069643D01*
X5362500Y-17083929D01*
X5333928Y-17098214D01*
X5305357Y-17098214D01*
X5276786Y-17083929D01*
X5262500Y-17069643D01*
X5248214Y-17041072D01*
X5233928Y-16983929D01*
X5233928Y-16912500D01*
X5248214Y-16855357D01*
X5262500Y-16826786D01*
X5276786Y-16812500D01*
X5305357Y-16798214D01*
X5533928Y-17098214D02*
X5533928Y-16898214D01*
X5533928Y-16926786D02*
X5548214Y-16912500D01*
X5576786Y-16898214D01*
X5619643Y-16898214D01*
X5648214Y-16912500D01*
X5662500Y-16941072D01*
X5662500Y-17098214D01*
X5662500Y-16941072D02*
X5676786Y-16912500D01*
X5705357Y-16898214D01*
X5748214Y-16898214D01*
X5776786Y-16912500D01*
X5791071Y-16941072D01*
X5791071Y-17098214D01*
X5933928Y-17098214D02*
X5933928Y-16898214D01*
X5933928Y-16926786D02*
X5948214Y-16912500D01*
X5976786Y-16898214D01*
X6019643Y-16898214D01*
X6048214Y-16912500D01*
X6062500Y-16941072D01*
X6062500Y-17098214D01*
X6062500Y-16941072D02*
X6076786Y-16912500D01*
X6105357Y-16898214D01*
X6148214Y-16898214D01*
X6176786Y-16912500D01*
X6191071Y-16941072D01*
X6191071Y-17098214D01*
X6776786Y-16783929D02*
X6519643Y-17169643D01*
X7162500Y-16798214D02*
X7191071Y-16798214D01*
X7219643Y-16812500D01*
X7233928Y-16826786D01*
X7248214Y-16855357D01*
X7262500Y-16912500D01*
X7262500Y-16983929D01*
X7248214Y-17041072D01*
X7233928Y-17069643D01*
X7219643Y-17083929D01*
X7191071Y-17098214D01*
X7162500Y-17098214D01*
X7133928Y-17083929D01*
X7119643Y-17069643D01*
X7105357Y-17041072D01*
X7091071Y-16983929D01*
X7091071Y-16912500D01*
X7105357Y-16855357D01*
X7119643Y-16826786D01*
X7133928Y-16812500D01*
X7162500Y-16798214D01*
X7391071Y-17069643D02*
X7405357Y-17083929D01*
X7391071Y-17098214D01*
X7376786Y-17083929D01*
X7391071Y-17069643D01*
X7391071Y-17098214D01*
X7691071Y-17098214D02*
X7519643Y-17098214D01*
X7605357Y-17098214D02*
X7605357Y-16798214D01*
X7576786Y-16841072D01*
X7548214Y-16869643D01*
X7519643Y-16883929D01*
X7805357Y-16826786D02*
X7819643Y-16812500D01*
X7848214Y-16798214D01*
X7919643Y-16798214D01*
X7948214Y-16812500D01*
X7962500Y-16826786D01*
X7976786Y-16855357D01*
X7976786Y-16883929D01*
X7962500Y-16926786D01*
X7791071Y-17098214D01*
X7976786Y-17098214D01*
X8233928Y-16798214D02*
X8176786Y-16798214D01*
X8148214Y-16812500D01*
X8133928Y-16826786D01*
X8105357Y-16869643D01*
X8091071Y-16926786D01*
X8091071Y-17041072D01*
X8105357Y-17069643D01*
X8119643Y-17083929D01*
X8148214Y-17098214D01*
X8205357Y-17098214D01*
X8233928Y-17083929D01*
X8248214Y-17069643D01*
X8262500Y-17041072D01*
X8262500Y-16969643D01*
X8248214Y-16941072D01*
X8233928Y-16926786D01*
X8205357Y-16912500D01*
X8148214Y-16912500D01*
X8119643Y-16926786D01*
X8105357Y-16941072D01*
X8091071Y-16969643D01*
X8376786Y-16798214D02*
X8376786Y-16855357D01*
X8491071Y-16798214D02*
X8491071Y-16855357D01*
X8933928Y-17212500D02*
X8919643Y-17198214D01*
X8891071Y-17155357D01*
X8876786Y-17126786D01*
X8862500Y-17083929D01*
X8848214Y-17012500D01*
X8848214Y-16955357D01*
X8862500Y-16883929D01*
X8876786Y-16841072D01*
X8891071Y-16812500D01*
X8919643Y-16769643D01*
X8933928Y-16755357D01*
X9205357Y-17098214D02*
X9033928Y-17098214D01*
X9119643Y-17098214D02*
X9119643Y-16798214D01*
X9091071Y-16841072D01*
X9062500Y-16869643D01*
X9033928Y-16883929D01*
X9462500Y-16798214D02*
X9405357Y-16798214D01*
X9376786Y-16812500D01*
X9362500Y-16826786D01*
X9333928Y-16869643D01*
X9319643Y-16926786D01*
X9319643Y-17041072D01*
X9333928Y-17069643D01*
X9348214Y-17083929D01*
X9376786Y-17098214D01*
X9433928Y-17098214D01*
X9462500Y-17083929D01*
X9476786Y-17069643D01*
X9491071Y-17041072D01*
X9491071Y-16969643D01*
X9476786Y-16941072D01*
X9462500Y-16926786D01*
X9433928Y-16912500D01*
X9376786Y-16912500D01*
X9348214Y-16926786D01*
X9333928Y-16941072D01*
X9319643Y-16969643D01*
X9848214Y-17098214D02*
X9848214Y-16798214D01*
X9976786Y-17098214D02*
X9976786Y-16941072D01*
X9962500Y-16912500D01*
X9933928Y-16898214D01*
X9891071Y-16898214D01*
X9862500Y-16912500D01*
X9848214Y-16926786D01*
X10162500Y-17098214D02*
X10133928Y-17083929D01*
X10119643Y-17069643D01*
X10105357Y-17041072D01*
X10105357Y-16955357D01*
X10119643Y-16926786D01*
X10133928Y-16912500D01*
X10162500Y-16898214D01*
X10205357Y-16898214D01*
X10233928Y-16912500D01*
X10248214Y-16926786D01*
X10262500Y-16955357D01*
X10262500Y-17041072D01*
X10248214Y-17069643D01*
X10233928Y-17083929D01*
X10205357Y-17098214D01*
X10162500Y-17098214D01*
X10433928Y-17098214D02*
X10405357Y-17083929D01*
X10391071Y-17055357D01*
X10391071Y-16798214D01*
X10662500Y-17083929D02*
X10633928Y-17098214D01*
X10576786Y-17098214D01*
X10548214Y-17083929D01*
X10533928Y-17055357D01*
X10533928Y-16941072D01*
X10548214Y-16912500D01*
X10576786Y-16898214D01*
X10633928Y-16898214D01*
X10662500Y-16912500D01*
X10676786Y-16941072D01*
X10676786Y-16969643D01*
X10533928Y-16998214D01*
X10791071Y-17083929D02*
X10819643Y-17098214D01*
X10876786Y-17098214D01*
X10905357Y-17083929D01*
X10919643Y-17055357D01*
X10919643Y-17041072D01*
X10905357Y-17012500D01*
X10876786Y-16998214D01*
X10833928Y-16998214D01*
X10805357Y-16983929D01*
X10791071Y-16955357D01*
X10791071Y-16941072D01*
X10805357Y-16912500D01*
X10833928Y-16898214D01*
X10876786Y-16898214D01*
X10905357Y-16912500D01*
X11019643Y-17212500D02*
X11033928Y-17198214D01*
X11062500Y-17155357D01*
X11076786Y-17126786D01*
X11091071Y-17083929D01*
X11105357Y-17012500D01*
X11105357Y-16955357D01*
X11091071Y-16883929D01*
X11076786Y-16841072D01*
X11062500Y-16812500D01*
X11033928Y-16769643D01*
X11019643Y-16755357D01*
X11562500Y-17212500D02*
X11548214Y-17198214D01*
X11519643Y-17155357D01*
X11505357Y-17126786D01*
X11491071Y-17083929D01*
X11476786Y-17012500D01*
X11476786Y-16955357D01*
X11491071Y-16883929D01*
X11505357Y-16841072D01*
X11519643Y-16812500D01*
X11548214Y-16769643D01*
X11562500Y-16755357D01*
X11676786Y-16898214D02*
X11676786Y-17098214D01*
X11676786Y-16926786D02*
X11691071Y-16912500D01*
X11719643Y-16898214D01*
X11762500Y-16898214D01*
X11791071Y-16912500D01*
X11805357Y-16941072D01*
X11805357Y-17098214D01*
X11991071Y-17098214D02*
X11962500Y-17083929D01*
X11948214Y-17069643D01*
X11933928Y-17041072D01*
X11933928Y-16955357D01*
X11948214Y-16926786D01*
X11962500Y-16912500D01*
X11991071Y-16898214D01*
X12033928Y-16898214D01*
X12062500Y-16912500D01*
X12076786Y-16926786D01*
X12091071Y-16955357D01*
X12091071Y-17041072D01*
X12076786Y-17069643D01*
X12062500Y-17083929D01*
X12033928Y-17098214D01*
X11991071Y-17098214D01*
X12176786Y-16898214D02*
X12291071Y-16898214D01*
X12219643Y-16798214D02*
X12219643Y-17055357D01*
X12233928Y-17083929D01*
X12262500Y-17098214D01*
X12291071Y-17098214D01*
X12619643Y-16898214D02*
X12619643Y-17198214D01*
X12619643Y-16912500D02*
X12648214Y-16898214D01*
X12705357Y-16898214D01*
X12733928Y-16912500D01*
X12748214Y-16926786D01*
X12762500Y-16955357D01*
X12762500Y-17041072D01*
X12748214Y-17069643D01*
X12733928Y-17083929D01*
X12705357Y-17098214D01*
X12648214Y-17098214D01*
X12619643Y-17083929D01*
X12933928Y-17098214D02*
X12905357Y-17083929D01*
X12891071Y-17055357D01*
X12891071Y-16798214D01*
X13176786Y-17098214D02*
X13176786Y-16941072D01*
X13162500Y-16912500D01*
X13133928Y-16898214D01*
X13076786Y-16898214D01*
X13048214Y-16912500D01*
X13176786Y-17083929D02*
X13148214Y-17098214D01*
X13076786Y-17098214D01*
X13048214Y-17083929D01*
X13033928Y-17055357D01*
X13033928Y-17026786D01*
X13048214Y-16998214D01*
X13076786Y-16983929D01*
X13148214Y-16983929D01*
X13176786Y-16969643D01*
X13276786Y-16898214D02*
X13391071Y-16898214D01*
X13319643Y-16798214D02*
X13319643Y-17055357D01*
X13333928Y-17083929D01*
X13362500Y-17098214D01*
X13391071Y-17098214D01*
X13605357Y-17083929D02*
X13576786Y-17098214D01*
X13519643Y-17098214D01*
X13491071Y-17083929D01*
X13476786Y-17055357D01*
X13476786Y-16941072D01*
X13491071Y-16912500D01*
X13519643Y-16898214D01*
X13576786Y-16898214D01*
X13605357Y-16912500D01*
X13619643Y-16941072D01*
X13619643Y-16969643D01*
X13476786Y-16998214D01*
X13876786Y-17098214D02*
X13876786Y-16798214D01*
X13876786Y-17083929D02*
X13848214Y-17098214D01*
X13791071Y-17098214D01*
X13762500Y-17083929D01*
X13748214Y-17069643D01*
X13733928Y-17041072D01*
X13733928Y-16955357D01*
X13748214Y-16926786D01*
X13762500Y-16912500D01*
X13791071Y-16898214D01*
X13848214Y-16898214D01*
X13876786Y-16912500D01*
X13991071Y-17212500D02*
X14005357Y-17198214D01*
X14033928Y-17155357D01*
X14048214Y-17126786D01*
X14062500Y-17083929D01*
X14076786Y-17012500D01*
X14076786Y-16955357D01*
X14062500Y-16883929D01*
X14048214Y-16841072D01*
X14033928Y-16812500D01*
X14005357Y-16769643D01*
X13991071Y-16755357D01*
M02*
